<?xml version="1.0" encoding="UTF-8" standalone="no"?>
<!-- Created with Inkscape (http://www.inkscape.org/) -->

<svg
   xmlns:dc="http://purl.org/dc/elements/1.1/"
   xmlns:cc="http://creativecommons.org/ns#"
   xmlns:rdf="http://www.w3.org/1999/02/22-rdf-syntax-ns#"
   xmlns:svg="http://www.w3.org/2000/svg"
   xmlns="http://www.w3.org/2000/svg"
   xmlns:sodipodi="http://sodipodi.sourceforge.net/DTD/sodipodi-0.dtd"
   xmlns:inkscape="http://www.inkscape.org/namespaces/inkscape"
   width="64"
   height="64"
   viewBox="0 0 16.933333 16.933334"
   version="1.1"
   id="svg4846"
   inkscape:version="0.92.4 (5da689c313, 2019-01-14)"
   sodipodi:docname="5thGen Item Icon-Dual Blades Yellow.svg">
  <defs
     id="defs4840" />
  <sodipodi:namedview
     id="base"
     pagecolor="#ffffff"
     bordercolor="#666666"
     borderopacity="1.0"
     inkscape:pageopacity="0.0"
     inkscape:pageshadow="2"
     inkscape:zoom="5.6"
     inkscape:cx="22.083166"
     inkscape:cy="32.110871"
     inkscape:document-units="px"
     inkscape:current-layer="layer1"
     showgrid="false"
     units="px"
     inkscape:window-width="1304"
     inkscape:window-height="745"
     inkscape:window-x="-8"
     inkscape:window-y="-8"
     inkscape:window-maximized="1"
     showguides="true"
     inkscape:guide-bbox="true" />
  <metadata
     id="metadata4843">
    <rdf:RDF>
      <cc:Work
         rdf:about="">
        <dc:format>image/svg+xml</dc:format>
        <dc:type
           rdf:resource="http://purl.org/dc/dcmitype/StillImage" />
        <dc:title />
      </cc:Work>
    </rdf:RDF>
  </metadata>
  <g
     inkscape:label="Layer 1"
     inkscape:groupmode="layer"
     id="layer1"
     transform="translate(0,-280.06665)">
    <path
       style="display:inline;opacity:1;vector-effect:none;fill:#858585;fill-opacity:1;fill-rule:evenodd;stroke:#000000;stroke-width:0.5291667;stroke-linecap:butt;stroke-linejoin:round;stroke-miterlimit:4;stroke-dasharray:none;stroke-dashoffset:0;stroke-opacity:1"
       d="m 12.038542,292.89894 -0.52916,1.32291 0.26458,0.26459 v 0.79375 l -0.52917,0.52916 H 9.9218819 l -0.5291698,-0.52916 v -1.05834 l 0.2645799,-0.26458 h 0.2645899 l 1.0583301,-1.85208 z"
       id="path4564-8"
       inkscape:connector-curvature="0" />
    <path
       style="display:inline;opacity:1;vector-effect:none;fill:#ffffff;fill-opacity:1;fill-rule:evenodd;stroke:#000000;stroke-width:0.5291667;stroke-linecap:butt;stroke-linejoin:round;stroke-miterlimit:4;stroke-dasharray:none;stroke-dashoffset:0;stroke-opacity:1"
       d="m 6.4822919,281.25728 c -2.1166699,0 -4.2333399,2.38125 -4.2333399,3.96875 0,1.5875 1.5875,5.55625 1.5875,5.55625 l 2.1166701,-1.05833 v -0.52917 c 0,0 -1.3229201,-2.38125 -1.3229201,-4.23333 0,-1.85209 2.1166701,-3.175 2.1166701,-3.175 v -0.52917 z"
       id="path4507"
       inkscape:connector-curvature="0" />
    <path
       style="display:inline;opacity:1;vector-effect:none;fill:#858585;fill-opacity:1;fill-rule:evenodd;stroke:#000000;stroke-width:0.5291667;stroke-linecap:butt;stroke-linejoin:round;stroke-miterlimit:4;stroke-dasharray:none;stroke-dashoffset:0;stroke-opacity:1"
       d="m 4.8947919,292.89895 0.5291601,1.32291 -0.2645799,0.26459 v 0.79375 l 0.5291698,0.52916 H 7.011452 l 0.5291701,-0.52916 v -1.05834 L 7.2760419,293.95728 H 7.011452 L 5.9531221,292.1052 Z"
       id="path4564"
       inkscape:connector-curvature="0" />
    <path
       style="display:inline;opacity:1;vector-effect:none;fill:#ffffff;fill-opacity:1;fill-rule:evenodd;stroke:#000000;stroke-width:0.5291667;stroke-linecap:butt;stroke-linejoin:round;stroke-miterlimit:4;stroke-dasharray:none;stroke-dashoffset:0;stroke-opacity:1"
       d="m 7.011462,289.45936 h -0.79376 c -1.34599,0.33144 -2.91041,1.32291 -4.23333,2.64583 0,1.05834 0.26459,1.32292 1.05833,1.85209 0,0 1.05834,-0.79375 2.38125,-1.5875 1.3229201,-0.79375 2.6458399,-1.05833 2.6458399,-1.05833 0,-0.79376 -0.2645799,-1.32292 -0.79375,-1.85209 z"
       id="path4509"
       inkscape:connector-curvature="0"
       sodipodi:nodetypes="cccccccc" />
    <path
       style="display:inline;opacity:1;vector-effect:none;fill:#ffffff;fill-opacity:1;fill-rule:evenodd;stroke:#000000;stroke-width:0.5291667;stroke-linecap:butt;stroke-linejoin:round;stroke-miterlimit:4;stroke-dasharray:none;stroke-dashoffset:0;stroke-opacity:1"
       d="m 10.451042,281.25727 c 2.116669,0 4.233339,2.38125 4.233339,3.96875 0,1.5875 -1.5875,5.55625 -1.5875,5.55625 l -2.116669,-1.05833 v -0.52917 c 0,0 1.322919,-2.38125 1.322919,-4.23333 0,-1.85209 -2.116669,-3.175 -2.116669,-3.175 v -0.52917 z"
       id="path4507-4"
       inkscape:connector-curvature="0" />
    <path
       style="display:inline;opacity:1;vector-effect:none;fill:#ffffff;fill-opacity:1;fill-rule:evenodd;stroke:#000000;stroke-width:0.5291667;stroke-linecap:butt;stroke-linejoin:round;stroke-miterlimit:4;stroke-dasharray:none;stroke-dashoffset:0;stroke-opacity:1"
       d="m 9.9218721,289.45935 h 0.7937599 c 1.34599,0.33144 2.910409,1.32291 4.233329,2.64583 0,1.05834 -0.26459,1.32292 -1.05833,1.85209 0,0 -1.05834,-0.79375 -2.381249,-1.5875 -1.32292,-0.79375 -2.6458401,-1.05833 -2.6458401,-1.05833 0,-0.79376 0.2645802,-1.32292 0.7937501,-1.85209 z"
       id="path4509-7"
       inkscape:connector-curvature="0"
       sodipodi:nodetypes="cccccccc" />
  </g>
</svg>
