<?xml version="1.0" encoding="UTF-8" standalone="no"?>
<!-- Created with Inkscape (http://www.inkscape.org/) -->
<svg xmlns:dc="http://purl.org/dc/elements/1.1/" xmlns:cc="http://creativecommons.org/ns#" xmlns:rdf="http://www.w3.org/1999/02/22-rdf-syntax-ns#" xmlns:svg="http://www.w3.org/2000/svg" xmlns="http://www.w3.org/2000/svg" xmlns:sodipodi="http://sodipodi.sourceforge.net/DTD/sodipodi-0.dtd" xmlns:inkscape="http://www.inkscape.org/namespaces/inkscape" width="64" height="64" viewBox="0 0 16.933333 16.933334" version="1.1" id="svg4846" inkscape:version="0.92.4 (5da689c313, 2019-01-14)" sodipodi:docname="5thGen Item Icon-Kinsect Cutting Yellow.svg">
  <defs id="defs4840"/>
  <sodipodi:namedview id="base" pagecolor="#ffffff" bordercolor="#666666" borderopacity="1.0" inkscape:pageopacity="0.0" inkscape:pageshadow="2" inkscape:zoom="7.9195959" inkscape:cx="26.443943" inkscape:cy="34.834942" inkscape:document-units="px" inkscape:current-layer="layer1" showgrid="false" units="px" inkscape:window-width="1304" inkscape:window-height="745" inkscape:window-x="-8" inkscape:window-y="-8" inkscape:window-maximized="1" showguides="true" inkscape:guide-bbox="true"/>
  <metadata id="metadata4843">
    <rdf:RDF>
      <cc:Work rdf:about="">
        <dc:format>image/svg+xml</dc:format>
        <dc:type rdf:resource="http://purl.org/dc/dcmitype/StillImage"/>
        <dc:title/>
      </cc:Work>
    </rdf:RDF>
  </metadata>
  <g inkscape:label="Layer 1" inkscape:groupmode="layer" id="layer1" transform="translate(0,-280.06665)">
    <rect style="display:inline;opacity:1;fill:#000000;fill-opacity:1;fill-rule:nonzero;stroke:none;stroke-width:0.5291667;stroke-linecap:round;stroke-linejoin:round;stroke-miterlimit:4;stroke-dasharray:none;stroke-dashoffset:0;stroke-opacity:1;paint-order:normal" id="rect4023" width="3.1750002" height="1.8520833" x="6.8791661" y="287.87186"/>
    <path style="display:inline;opacity:1;vector-effect:none;fill:#d0d0d0;fill-opacity:1;fill-rule:evenodd;stroke:none;stroke-width:0.26458332;stroke-linecap:butt;stroke-linejoin:miter;stroke-miterlimit:4;stroke-dasharray:none;stroke-dashoffset:0;stroke-opacity:1" d="m 8.9958332,291.31144 v 3.175 h 1.5874998 l 1.852084,-1.85208 v -8.99583 l -0.79375,-0.52917 h -1.058334 v 1.5875 l -0.529166,0.52917 H 8.4666673 l 1.0583328,2.64583 0.5291669,0.52917 v 1.05833 1.32292 l -0.5291669,0.52916 z" id="path3988-3" inkscape:connector-curvature="0"/>
    <path style="display:inline;opacity:1;vector-effect:none;fill:#858585;fill-opacity:1;fill-rule:evenodd;stroke:none;stroke-width:0.26458332;stroke-linecap:butt;stroke-linejoin:miter;stroke-miterlimit:4;stroke-dasharray:none;stroke-dashoffset:0;stroke-opacity:1" d="m 10.583333,294.48644 v -2.38125 l 1.5875,-1.5875 0.264584,1.05834 -0.264584,-0.26459 -0.264583,0.26459 -0.79375,0.79375 v 0.52916 l 1.058333,-1.05833 0.264583,1.32291 -0.529166,10e-6 z" id="path3984-1" inkscape:connector-curvature="0" sodipodi:nodetypes="cccccccccccc"/>
    <path style="display:inline;opacity:1;vector-effect:none;fill:#d0d0d0;fill-opacity:1;fill-rule:evenodd;stroke:none;stroke-width:0.26458332;stroke-linecap:butt;stroke-linejoin:miter;stroke-miterlimit:4;stroke-dasharray:none;stroke-dashoffset:0;stroke-opacity:1" d="m 7.9375001,291.31144 v 3.175 h -1.5875 l -1.8520839,-1.85208 v -8.99583 l 0.79375,-0.52917 h 1.0583339 v 1.5875 l 0.5291662,0.52917 h 1.5875 l -1.0583331,2.64583 -0.5291669,0.52917 v 1.05833 1.32292 l 0.5291669,0.52916 z" id="path3988" inkscape:connector-curvature="0"/>
    <path style="display:inline;opacity:1;vector-effect:none;fill:#858585;fill-opacity:1;fill-rule:evenodd;stroke:none;stroke-width:0.26458332;stroke-linecap:butt;stroke-linejoin:miter;stroke-miterlimit:4;stroke-dasharray:none;stroke-dashoffset:0;stroke-opacity:1" d="m 6.3500001,294.48644 v -2.38125 l -1.5875,-1.5875 -0.2645839,1.05834 0.2645839,-0.26459 0.2645831,0.26459 0.79375,0.79375 v 0.52916 l -1.0583331,-1.05833 -0.2645828,1.32291 0.5291659,10e-6 z" id="path3984" inkscape:connector-curvature="0" sodipodi:nodetypes="cccccccccccc"/>
    <path style="display:inline;opacity:1;vector-effect:none;fill:#4d4d4d;fill-opacity:1;fill-rule:evenodd;stroke:none;stroke-width:0.99999994;stroke-linecap:butt;stroke-linejoin:miter;stroke-miterlimit:4;stroke-dasharray:none;stroke-dashoffset:0;stroke-opacity:1" d="M 9 8.5 L 5 12.5 L 5 31.5 L 8 35.5 L 10 35.5 L 5 41.5 L 5 44.5 L 7 46.5 L 9 46.5 L 13 43.5 L 14 43.5 L 12 45.5 L 12 46.5 L 12 51.5 L 15 53.5 L 19 56.5 L 21 53.5 L 18 48.5 L 18 43.5 L 18 42.5 L 18 39.5 L 18 36.5 L 16.666016 36.5 L 17 35.5 L 15 31.5 L 15 27.5 L 13 11.5 L 12.947266 11.447266 L 13 10.5 L 10 8.5 L 9 8.5 z M 54 8.5 L 51 10.5 L 51.052734 11.447266 L 51 11.5 L 49 27.5 L 49 31.5 L 47 35.5 L 47.333984 36.5 L 46 36.5 L 46 39.5 L 46 42.5 L 46 43.5 L 46 48.5 L 43 53.5 L 45 56.5 L 49 53.5 L 52 51.5 L 52 46.5 L 52 45.5 L 50 43.5 L 51 43.5 L 55 46.5 L 57 46.5 L 59 44.5 L 59 41.5 L 54 35.5 L 56 35.5 L 59 31.5 L 59 12.5 L 55 8.5 L 54 8.5 z " transform="matrix(0.26458334,0,0,0.26458334,0,280.06665)" id="path3966-8"/>
    <path style="display:inline;opacity:1;vector-effect:none;fill:#ffffff;fill-opacity:1;fill-rule:evenodd;stroke:none;stroke-width:0.26458332;stroke-linecap:butt;stroke-linejoin:miter;stroke-miterlimit:4;stroke-dasharray:none;stroke-dashoffset:0;stroke-opacity:1" d="m 10.583333,283.63853 h 1.322917 l 0.264583,5.82083 h 1.058335 v -2.38125 -3.70417 l -1.322918,-1.32291 h -1.5875 v 0.52916 l 0.264583,0.26459 z" id="path3968-4" inkscape:connector-curvature="0"/>
    <path style="display:inline;opacity:1;vector-effect:none;fill:#858585;fill-opacity:1;fill-rule:evenodd;stroke:none;stroke-width:0.26458332;stroke-linecap:butt;stroke-linejoin:miter;stroke-miterlimit:4;stroke-dasharray:none;stroke-dashoffset:0;stroke-opacity:1" d="m 7.6729163,291.31144 h 1.5875 v 3.175 h -1.5875 z" id="path3982" inkscape:connector-curvature="0"/>
    <path style="display:inline;opacity:1;vector-effect:none;fill:#858585;fill-opacity:1;fill-rule:evenodd;stroke:none;stroke-width:0.26458332;stroke-linecap:butt;stroke-linejoin:miter;stroke-miterlimit:4;stroke-dasharray:none;stroke-dashoffset:0;stroke-opacity:1" d="m 7.4083332,286.01978 -2.116667,2.11666 v 1.32292 h 1.5875001 v -1.05833 l 0.5291669,-0.52917 h 2.1166669 l 0.5291659,0.52917 v 1.05833 h 1.587501 v -1.32292 l -2.1166669,-2.11666 -0.264583,-1e-5 -0.79375,-0.26458 -0.7937498,0.26458 z" id="path3976" inkscape:connector-curvature="0" sodipodi:nodetypes="cccccccccccccccc"/>
    <path style="display:inline;opacity:1;vector-effect:none;fill:#858585;fill-opacity:1;fill-rule:evenodd;stroke:none;stroke-width:0.26458332;stroke-linecap:butt;stroke-linejoin:miter;stroke-miterlimit:4;stroke-dasharray:none;stroke-dashoffset:0;stroke-opacity:1" d="m 6.8791663,285.22603 0.79375,0.79375 1.5875008,-1e-5 0.7937489,-0.79374 H 9.7895832 v -1.32292 H 7.1437501 v 1.32292 z" id="path3974" inkscape:connector-curvature="0" sodipodi:nodetypes="ccccccccc"/>
    <path style="display:inline;opacity:1;vector-effect:none;fill:#4d4d4d;fill-opacity:1;fill-rule:evenodd;stroke:none;stroke-width:0.26458332;stroke-linecap:butt;stroke-linejoin:miter;stroke-miterlimit:4;stroke-dasharray:none;stroke-dashoffset:0;stroke-opacity:1" d="m 7.1437501,284.96144 h 2.6458331 v 0.52917 H 7.1437501 Z" id="path3970" inkscape:connector-curvature="0"/>
    <path style="display:inline;opacity:1;vector-effect:none;fill:#ffffff;fill-opacity:1;fill-rule:evenodd;stroke:none;stroke-width:0.26458332;stroke-linecap:butt;stroke-linejoin:miter;stroke-miterlimit:4;stroke-dasharray:none;stroke-dashoffset:0;stroke-opacity:1" d="M 6.3500001,283.63853 H 5.0270832 l -0.2645831,5.82083 H 3.7041663 v -2.38125 -3.70417 l 1.3229169,-1.32291 h 1.5875 v 0.52916 l -0.2645831,0.26459 z" id="path3968" inkscape:connector-curvature="0"/>
    <path inkscape:connector-curvature="0" style="display:inline;opacity:1;vector-effect:none;fill:none;fill-opacity:1;fill-rule:evenodd;stroke:#000000;stroke-width:0.5291667;stroke-linecap:butt;stroke-linejoin:round;stroke-miterlimit:4;stroke-dasharray:none;stroke-dashoffset:0;stroke-opacity:1" d="m 4.7625001,289.45936 v 0.26458 H 2.6458335 l -1.3229167,1.32292 v 0.79375 l 0.5291667,0.52916 h 0.79375 l 1.0583334,-0.79375 h 0.2645832 l -0.7937499,0.79375 v 1.32292 l 1.5874999,1.32292 h 0.2645833 l 0.5291667,-0.52917 v -0.52917 l -0.5291667,-0.52916 v -0.26459 l 1.3229167,1.32292 h 2.1166667 2.1166672 l 1.322916,-1.32292 v 0.26459 l -0.529167,0.52916 v 0.52917 l 0.529167,0.52917 h 0.264583 l 1.587501,-1.32292 v -1.32292 l -0.79375,-0.79375 h 0.264583 l 1.058334,0.79375 h 0.79375 l 0.529166,-0.52916 v -0.79375 l -1.322916,-1.32292 h -2.116668 v -0.26458 H 8.4666668 Z" id="path3941"/>
    <path style="display:inline;opacity:1;vector-effect:none;fill:none;fill-opacity:1;fill-rule:evenodd;stroke:#000000;stroke-width:0.5291667;stroke-linecap:butt;stroke-linejoin:round;stroke-miterlimit:4;stroke-dasharray:none;stroke-dashoffset:0;stroke-opacity:1" d="m 5.0270834,282.05102 -1.3229165,1.32292 v 0.79375 H 3.4395835 v -1.05833 l -0.79375,-0.79375 H 2.3812502 l -1.0583334,1.05833 v 5.02708 l 0.79375,1.05834 h 4.7625 v -1.05834 l 0.5291667,-0.52916 h 1.0583333 1.0583333 l 0.5291669,0.52916 v 1.05834 h 4.7625 l 0.79375,-1.05834 v -5.02708 l -1.058333,-1.05833 h -0.264583 l -0.79375,0.79375 v 1.32291 h -0.264583 l -10e-7,-1.05833 -1.322917,-1.32292 h -1.5875 v 0.52917 l 0.264584,0.26458 v 1.85209 l -0.529167,0.52916 H 9.7895835 v -1.32291 H 9.2604168 8.7312501 v 1.32291 H 8.4666668 8.2020835 v -1.32291 H 7.6729168 7.1437501 v 1.32291 H 6.8791668 l -0.5291667,-0.52916 v -1.85209 l 0.2645834,-0.26458 v -0.52917 z m -1.3229165,1.85209 v 3.43958 H 3.1750002 v -2.91042 z m 9.5250001,0 0.529167,0.52916 v 2.91042 h -0.529167 z" id="path3921" inkscape:connector-curvature="0" sodipodi:nodetypes="ccccccccccccccccccccccccccccccccccccccccccccccccccccccccccc"/>
    <path style="display:inline;opacity:1;vector-effect:none;fill:#858585;fill-opacity:1;fill-rule:evenodd;stroke:#000000;stroke-width:0.5291667;stroke-linecap:butt;stroke-linejoin:round;stroke-miterlimit:4;stroke-dasharray:none;stroke-dashoffset:0;stroke-opacity:1" d="m 6.8791663,289.72394 1.0583338,-1.05833 h 1.0583331 l 1.0583328,1.05833 v 1.05834 l -0.5291659,0.52916 H 7.4083332 l -0.5291669,-0.52916 z" id="path3939" inkscape:connector-curvature="0" sodipodi:nodetypes="ccccccccc"/>
  </g>
</svg>