<?xml version="1.0" encoding="UTF-8" standalone="no"?>
<!-- Created with Inkscape (http://www.inkscape.org/) -->

<svg
   width="128mm"
   height="128mm"
   viewBox="0 0 128 128"
   version="1.1"
   id="svg5"
   xml:space="preserve"
   xmlns="http://www.w3.org/2000/svg"
   xmlns:svg="http://www.w3.org/2000/svg"
   xmlns:rdf="http://www.w3.org/1999/02/22-rdf-syntax-ns#"
   xmlns:cc="http://creativecommons.org/ns#"
   xmlns:dc="http://purl.org/dc/elements/1.1/"><defs
     id="defs2"><filter
       style="color-interpolation-filters:sRGB;"
       id="filter2"
       x="0"
       y="0"
       width="1"
       height="1"><feComposite
         in2="SourceGraphic"
         operator="arithmetic"
         k1="0"
         k2="1"
         result="composite1"
         id="feComposite1" /><feColorMatrix
         in="composite1"
         values="1"
         type="saturate"
         result="colormatrix1"
         id="feColorMatrix1" /><feFlood
         flood-opacity="1"
         flood-color="rgb(0,0,0)"
         result="flood1"
         id="feFlood1" /><feBlend
         in="flood1"
         in2="colormatrix1"
         mode="multiply"
         result="blend1"
         id="feBlend1" /><feBlend
         in2="blend1"
         mode="screen"
         result="blend2"
         id="feBlend2" /><feColorMatrix
         in="blend2"
         values="1"
         type="saturate"
         result="colormatrix2"
         id="feColorMatrix2" /><feComposite
         in="colormatrix2"
         in2="SourceGraphic"
         operator="in"
         k2="1"
         result="composite2"
         id="feComposite2" /></filter><filter
       style="color-interpolation-filters:sRGB;"
       id="filter18"
       x="0"
       y="0"
       width="1"
       height="1"><feComposite
         in2="SourceGraphic"
         operator="arithmetic"
         k1="0"
         k2="1"
         result="composite1"
         id="feComposite17" /><feColorMatrix
         in="composite1"
         values="1"
         type="saturate"
         result="colormatrix1"
         id="feColorMatrix17" /><feFlood
         flood-opacity="1"
         flood-color="rgb(0,0,0)"
         result="flood1"
         id="feFlood17" /><feBlend
         in="flood1"
         in2="colormatrix1"
         mode="multiply"
         result="blend1"
         id="feBlend17" /><feBlend
         in2="blend1"
         mode="screen"
         result="blend2"
         id="feBlend18" /><feColorMatrix
         in="blend2"
         values="1"
         type="saturate"
         result="colormatrix2"
         id="feColorMatrix18" /><feComposite
         in="colormatrix2"
         in2="SourceGraphic"
         operator="in"
         k2="1"
         result="composite2"
         id="feComposite18" /></filter><filter
       style="color-interpolation-filters:sRGB;"
       id="filter37"
       x="0"
       y="0"
       width="1"
       height="1"><feComposite
         in2="SourceGraphic"
         operator="arithmetic"
         k1="0"
         k2="1"
         result="composite1"
         id="feComposite36" /><feColorMatrix
         in="composite1"
         values="1"
         type="saturate"
         result="colormatrix1"
         id="feColorMatrix36" /><feFlood
         flood-opacity="1"
         flood-color="rgb(0,0,0)"
         result="flood1"
         id="feFlood36" /><feBlend
         in="flood1"
         in2="colormatrix1"
         mode="multiply"
         result="blend1"
         id="feBlend36" /><feBlend
         in2="blend1"
         mode="screen"
         result="blend2"
         id="feBlend37" /><feColorMatrix
         in="blend2"
         values="1"
         type="saturate"
         result="colormatrix2"
         id="feColorMatrix37" /><feComposite
         in="colormatrix2"
         in2="SourceGraphic"
         operator="in"
         k2="1"
         result="composite2"
         id="feComposite37" /></filter><filter
       style="color-interpolation-filters:sRGB;"
       id="filter51"
       x="0"
       y="0"
       width="1"
       height="1"><feComposite
         in2="SourceGraphic"
         operator="arithmetic"
         k1="0"
         k2="1"
         result="composite1"
         id="feComposite50" /><feColorMatrix
         in="composite1"
         values="1"
         type="saturate"
         result="colormatrix1"
         id="feColorMatrix50" /><feFlood
         flood-opacity="1"
         flood-color="rgb(0,0,0)"
         result="flood1"
         id="feFlood50" /><feBlend
         in="flood1"
         in2="colormatrix1"
         mode="multiply"
         result="blend1"
         id="feBlend50" /><feBlend
         in2="blend1"
         mode="screen"
         result="blend2"
         id="feBlend51" /><feColorMatrix
         in="blend2"
         values="1"
         type="saturate"
         result="colormatrix2"
         id="feColorMatrix51" /><feComposite
         in="colormatrix2"
         in2="SourceGraphic"
         operator="in"
         k2="1"
         result="composite2"
         id="feComposite51" /></filter><filter
       style="color-interpolation-filters:sRGB;"
       id="filter53"
       x="0"
       y="0"
       width="1"
       height="1"><feComposite
         in2="SourceGraphic"
         operator="arithmetic"
         k1="0"
         k2="1"
         result="composite1"
         id="feComposite52" /><feColorMatrix
         in="composite1"
         values="1"
         type="saturate"
         result="colormatrix1"
         id="feColorMatrix52" /><feFlood
         flood-opacity="1"
         flood-color="rgb(0,0,0)"
         result="flood1"
         id="feFlood52" /><feBlend
         in="flood1"
         in2="colormatrix1"
         mode="multiply"
         result="blend1"
         id="feBlend52" /><feBlend
         in2="blend1"
         mode="screen"
         result="blend2"
         id="feBlend53" /><feColorMatrix
         in="blend2"
         values="1"
         type="saturate"
         result="colormatrix2"
         id="feColorMatrix53" /><feComposite
         in="colormatrix2"
         in2="SourceGraphic"
         operator="in"
         k2="1"
         result="composite2"
         id="feComposite53" /></filter><filter
       style="color-interpolation-filters:sRGB;"
       id="filter73"
       x="0"
       y="0"
       width="1"
       height="1"><feComposite
         in2="SourceGraphic"
         operator="arithmetic"
         k1="0"
         k2="1"
         result="composite1"
         id="feComposite72" /><feColorMatrix
         in="composite1"
         values="1"
         type="saturate"
         result="colormatrix1"
         id="feColorMatrix72" /><feFlood
         flood-opacity="1"
         flood-color="rgb(0,0,0)"
         result="flood1"
         id="feFlood72" /><feBlend
         in="flood1"
         in2="colormatrix1"
         mode="multiply"
         result="blend1"
         id="feBlend72" /><feBlend
         in2="blend1"
         mode="screen"
         result="blend2"
         id="feBlend73" /><feColorMatrix
         in="blend2"
         values="1"
         type="saturate"
         result="colormatrix2"
         id="feColorMatrix73" /><feComposite
         in="colormatrix2"
         in2="SourceGraphic"
         operator="in"
         k2="1"
         result="composite2"
         id="feComposite73" /></filter><filter
       style="color-interpolation-filters:sRGB;"
       id="filter88"
       x="0"
       y="0"
       width="1"
       height="1"><feComposite
         in2="SourceGraphic"
         operator="arithmetic"
         k1="0"
         k2="1"
         result="composite1"
         id="feComposite87" /><feColorMatrix
         in="composite1"
         values="1"
         type="saturate"
         result="colormatrix1"
         id="feColorMatrix87" /><feFlood
         flood-opacity="1"
         flood-color="rgb(0,0,0)"
         result="flood1"
         id="feFlood87" /><feBlend
         in="flood1"
         in2="colormatrix1"
         mode="multiply"
         result="blend1"
         id="feBlend87" /><feBlend
         in2="blend1"
         mode="screen"
         result="blend2"
         id="feBlend88" /><feColorMatrix
         in="blend2"
         values="1"
         type="saturate"
         result="colormatrix2"
         id="feColorMatrix88" /><feComposite
         in="colormatrix2"
         in2="SourceGraphic"
         operator="in"
         k2="1"
         result="composite2"
         id="feComposite88" /></filter><filter
       style="color-interpolation-filters:sRGB;"
       id="filter108"
       x="0"
       y="0"
       width="1"
       height="1"><feComposite
         in2="SourceGraphic"
         operator="arithmetic"
         k1="0"
         k2="1"
         result="composite1"
         id="feComposite107" /><feColorMatrix
         in="composite1"
         values="1"
         type="saturate"
         result="colormatrix1"
         id="feColorMatrix107" /><feFlood
         flood-opacity="1"
         flood-color="rgb(0,0,0)"
         result="flood1"
         id="feFlood107" /><feBlend
         in="flood1"
         in2="colormatrix1"
         mode="multiply"
         result="blend1"
         id="feBlend107" /><feBlend
         in2="blend1"
         mode="screen"
         result="blend2"
         id="feBlend108" /><feColorMatrix
         in="blend2"
         values="1"
         type="saturate"
         result="colormatrix2"
         id="feColorMatrix108" /><feComposite
         in="colormatrix2"
         in2="SourceGraphic"
         operator="in"
         k2="1"
         result="composite2"
         id="feComposite108" /></filter><filter
       style="color-interpolation-filters:sRGB;"
       id="filter123"
       x="0"
       y="0"
       width="1"
       height="1"><feComposite
         in2="SourceGraphic"
         operator="arithmetic"
         k1="0"
         k2="1"
         result="composite1"
         id="feComposite122" /><feColorMatrix
         in="composite1"
         values="1"
         type="saturate"
         result="colormatrix1"
         id="feColorMatrix122" /><feFlood
         flood-opacity="1"
         flood-color="rgb(0,0,0)"
         result="flood1"
         id="feFlood122" /><feBlend
         in="flood1"
         in2="colormatrix1"
         mode="multiply"
         result="blend1"
         id="feBlend122" /><feBlend
         in2="blend1"
         mode="screen"
         result="blend2"
         id="feBlend123" /><feColorMatrix
         in="blend2"
         values="1"
         type="saturate"
         result="colormatrix2"
         id="feColorMatrix123" /><feComposite
         in="colormatrix2"
         in2="SourceGraphic"
         operator="in"
         k2="1"
         result="composite2"
         id="feComposite123" /></filter><filter
       style="color-interpolation-filters:sRGB;"
       id="filter137"
       x="0"
       y="0"
       width="1"
       height="1"><feComposite
         in2="SourceGraphic"
         operator="arithmetic"
         k1="0"
         k2="1"
         result="composite1"
         id="feComposite136" /><feColorMatrix
         in="composite1"
         values="1"
         type="saturate"
         result="colormatrix1"
         id="feColorMatrix136" /><feFlood
         flood-opacity="1"
         flood-color="rgb(0,0,0)"
         result="flood1"
         id="feFlood136" /><feBlend
         in="flood1"
         in2="colormatrix1"
         mode="multiply"
         result="blend1"
         id="feBlend136" /><feBlend
         in2="blend1"
         mode="screen"
         result="blend2"
         id="feBlend137" /><feColorMatrix
         in="blend2"
         values="1"
         type="saturate"
         result="colormatrix2"
         id="feColorMatrix137" /><feComposite
         in="colormatrix2"
         in2="SourceGraphic"
         operator="in"
         k2="1"
         result="composite2"
         id="feComposite137" /></filter><filter
       style="color-interpolation-filters:sRGB;"
       id="filter160"
       x="0"
       y="0"
       width="1"
       height="1"><feComposite
         in2="SourceGraphic"
         operator="arithmetic"
         k1="0"
         k2="1"
         result="composite1"
         id="feComposite159" /><feColorMatrix
         in="composite1"
         values="1"
         type="saturate"
         result="colormatrix1"
         id="feColorMatrix159" /><feFlood
         flood-opacity="1"
         flood-color="rgb(0,0,0)"
         result="flood1"
         id="feFlood159" /><feBlend
         in="flood1"
         in2="colormatrix1"
         mode="multiply"
         result="blend1"
         id="feBlend159" /><feBlend
         in2="blend1"
         mode="screen"
         result="blend2"
         id="feBlend160" /><feColorMatrix
         in="blend2"
         values="1"
         type="saturate"
         result="colormatrix2"
         id="feColorMatrix160" /><feComposite
         in="colormatrix2"
         in2="SourceGraphic"
         operator="in"
         k2="1"
         result="composite2"
         id="feComposite160" /></filter><filter
       style="color-interpolation-filters:sRGB;"
       id="filter177"
       x="0"
       y="0"
       width="1"
       height="1"><feComposite
         in2="SourceGraphic"
         operator="arithmetic"
         k1="0"
         k2="1"
         result="composite1"
         id="feComposite176" /><feColorMatrix
         in="composite1"
         values="1"
         type="saturate"
         result="colormatrix1"
         id="feColorMatrix176" /><feFlood
         flood-opacity="1"
         flood-color="rgb(0,0,0)"
         result="flood1"
         id="feFlood176" /><feBlend
         in="flood1"
         in2="colormatrix1"
         mode="multiply"
         result="blend1"
         id="feBlend176" /><feBlend
         in2="blend1"
         mode="screen"
         result="blend2"
         id="feBlend177" /><feColorMatrix
         in="blend2"
         values="1"
         type="saturate"
         result="colormatrix2"
         id="feColorMatrix177" /><feComposite
         in="colormatrix2"
         in2="SourceGraphic"
         operator="in"
         k2="1"
         result="composite2"
         id="feComposite177" /></filter><filter
       style="color-interpolation-filters:sRGB;"
       id="filter198"
       x="0"
       y="0"
       width="1"
       height="1"><feComposite
         in2="SourceGraphic"
         operator="arithmetic"
         k1="0"
         k2="1"
         result="composite1"
         id="feComposite197" /><feColorMatrix
         in="composite1"
         values="1"
         type="saturate"
         result="colormatrix1"
         id="feColorMatrix197" /><feFlood
         flood-opacity="1"
         flood-color="rgb(0,0,0)"
         result="flood1"
         id="feFlood197" /><feBlend
         in="flood1"
         in2="colormatrix1"
         mode="multiply"
         result="blend1"
         id="feBlend197" /><feBlend
         in2="blend1"
         mode="screen"
         result="blend2"
         id="feBlend198" /><feColorMatrix
         in="blend2"
         values="1"
         type="saturate"
         result="colormatrix2"
         id="feColorMatrix198" /><feComposite
         in="colormatrix2"
         in2="SourceGraphic"
         operator="in"
         k2="1"
         result="composite2"
         id="feComposite198" /></filter><filter
       style="color-interpolation-filters:sRGB;"
       id="filter212"
       x="0"
       y="0"
       width="1"
       height="1"><feComposite
         in2="SourceGraphic"
         operator="arithmetic"
         k1="0"
         k2="1"
         result="composite1"
         id="feComposite211" /><feColorMatrix
         in="composite1"
         values="1"
         type="saturate"
         result="colormatrix1"
         id="feColorMatrix211" /><feFlood
         flood-opacity="1"
         flood-color="rgb(0,0,0)"
         result="flood1"
         id="feFlood211" /><feBlend
         in="flood1"
         in2="colormatrix1"
         mode="multiply"
         result="blend1"
         id="feBlend211" /><feBlend
         in2="blend1"
         mode="screen"
         result="blend2"
         id="feBlend212" /><feColorMatrix
         in="blend2"
         values="1"
         type="saturate"
         result="colormatrix2"
         id="feColorMatrix212" /><feComposite
         in="colormatrix2"
         in2="SourceGraphic"
         operator="in"
         k2="1"
         result="composite2"
         id="feComposite212" /></filter><filter
       style="color-interpolation-filters:sRGB;"
       id="filter225"
       x="0"
       y="0"
       width="1"
       height="1"><feComposite
         in2="SourceGraphic"
         operator="arithmetic"
         k1="0"
         k2="1"
         result="composite1"
         id="feComposite224" /><feColorMatrix
         in="composite1"
         values="1"
         type="saturate"
         result="colormatrix1"
         id="feColorMatrix224" /><feFlood
         flood-opacity="1"
         flood-color="rgb(0,0,0)"
         result="flood1"
         id="feFlood224" /><feBlend
         in="flood1"
         in2="colormatrix1"
         mode="multiply"
         result="blend1"
         id="feBlend224" /><feBlend
         in2="blend1"
         mode="screen"
         result="blend2"
         id="feBlend225" /><feColorMatrix
         in="blend2"
         values="1"
         type="saturate"
         result="colormatrix2"
         id="feColorMatrix225" /><feComposite
         in="colormatrix2"
         in2="SourceGraphic"
         operator="in"
         k2="1"
         result="composite2"
         id="feComposite225" /></filter><filter
       style="color-interpolation-filters:sRGB;"
       id="filter244"
       x="0"
       y="0"
       width="1"
       height="1"><feComposite
         in2="SourceGraphic"
         operator="arithmetic"
         k1="0"
         k2="1"
         result="composite1"
         id="feComposite243" /><feColorMatrix
         in="composite1"
         values="1"
         type="saturate"
         result="colormatrix1"
         id="feColorMatrix243" /><feFlood
         flood-opacity="1"
         flood-color="rgb(0,0,0)"
         result="flood1"
         id="feFlood243" /><feBlend
         in="flood1"
         in2="colormatrix1"
         mode="multiply"
         result="blend1"
         id="feBlend243" /><feBlend
         in2="blend1"
         mode="screen"
         result="blend2"
         id="feBlend244" /><feColorMatrix
         in="blend2"
         values="1"
         type="saturate"
         result="colormatrix2"
         id="feColorMatrix244" /><feComposite
         in="colormatrix2"
         in2="SourceGraphic"
         operator="in"
         k2="1"
         result="composite2"
         id="feComposite244" /></filter><filter
       style="color-interpolation-filters:sRGB;"
       id="filter260"
       x="0"
       y="0"
       width="1"
       height="1"><feComposite
         in2="SourceGraphic"
         operator="arithmetic"
         k1="0"
         k2="1"
         result="composite1"
         id="feComposite259" /><feColorMatrix
         in="composite1"
         values="1"
         type="saturate"
         result="colormatrix1"
         id="feColorMatrix259" /><feFlood
         flood-opacity="1"
         flood-color="rgb(0,0,0)"
         result="flood1"
         id="feFlood259" /><feBlend
         in="flood1"
         in2="colormatrix1"
         mode="multiply"
         result="blend1"
         id="feBlend259" /><feBlend
         in2="blend1"
         mode="screen"
         result="blend2"
         id="feBlend260" /><feColorMatrix
         in="blend2"
         values="1"
         type="saturate"
         result="colormatrix2"
         id="feColorMatrix260" /><feComposite
         in="colormatrix2"
         in2="SourceGraphic"
         operator="in"
         k2="1"
         result="composite2"
         id="feComposite260" /></filter><filter
       style="color-interpolation-filters:sRGB;"
       id="filter280"
       x="0"
       y="0"
       width="1"
       height="1"><feComposite
         in2="SourceGraphic"
         operator="arithmetic"
         k1="0"
         k2="1"
         result="composite1"
         id="feComposite279" /><feColorMatrix
         in="composite1"
         values="1"
         type="saturate"
         result="colormatrix1"
         id="feColorMatrix279" /><feFlood
         flood-opacity="1"
         flood-color="rgb(0,0,0)"
         result="flood1"
         id="feFlood279" /><feBlend
         in="flood1"
         in2="colormatrix1"
         mode="multiply"
         result="blend1"
         id="feBlend279" /><feBlend
         in2="blend1"
         mode="screen"
         result="blend2"
         id="feBlend280" /><feColorMatrix
         in="blend2"
         values="1"
         type="saturate"
         result="colormatrix2"
         id="feColorMatrix280" /><feComposite
         in="colormatrix2"
         in2="SourceGraphic"
         operator="in"
         k2="1"
         result="composite2"
         id="feComposite280" /></filter><filter
       style="color-interpolation-filters:sRGB;"
       id="filter290"
       x="0"
       y="0"
       width="1"
       height="1"><feComposite
         in2="SourceGraphic"
         operator="arithmetic"
         k1="0"
         k2="1"
         result="composite1"
         id="feComposite289" /><feColorMatrix
         in="composite1"
         values="1"
         type="saturate"
         result="colormatrix1"
         id="feColorMatrix289" /><feFlood
         flood-opacity="1"
         flood-color="rgb(0,0,0)"
         result="flood1"
         id="feFlood289" /><feBlend
         in="flood1"
         in2="colormatrix1"
         mode="multiply"
         result="blend1"
         id="feBlend289" /><feBlend
         in2="blend1"
         mode="screen"
         result="blend2"
         id="feBlend290" /><feColorMatrix
         in="blend2"
         values="1"
         type="saturate"
         result="colormatrix2"
         id="feColorMatrix290" /><feComposite
         in="colormatrix2"
         in2="SourceGraphic"
         operator="in"
         k2="1"
         result="composite2"
         id="feComposite290" /></filter><filter
       style="color-interpolation-filters:sRGB;"
       id="filter305"
       x="0"
       y="0"
       width="1"
       height="1"><feComposite
         in2="SourceGraphic"
         operator="arithmetic"
         k1="0"
         k2="1"
         result="composite1"
         id="feComposite304" /><feColorMatrix
         in="composite1"
         values="1"
         type="saturate"
         result="colormatrix1"
         id="feColorMatrix304" /><feFlood
         flood-opacity="1"
         flood-color="rgb(0,0,0)"
         result="flood1"
         id="feFlood304" /><feBlend
         in="flood1"
         in2="colormatrix1"
         mode="multiply"
         result="blend1"
         id="feBlend304" /><feBlend
         in2="blend1"
         mode="screen"
         result="blend2"
         id="feBlend305" /><feColorMatrix
         in="blend2"
         values="1"
         type="saturate"
         result="colormatrix2"
         id="feColorMatrix305" /><feComposite
         in="colormatrix2"
         in2="SourceGraphic"
         operator="in"
         k2="1"
         result="composite2"
         id="feComposite305" /></filter><filter
       style="color-interpolation-filters:sRGB;"
       id="filter332"
       x="0"
       y="0"
       width="1"
       height="1"><feComposite
         in2="SourceGraphic"
         operator="arithmetic"
         k1="0"
         k2="1"
         result="composite1"
         id="feComposite331" /><feColorMatrix
         in="composite1"
         values="1"
         type="saturate"
         result="colormatrix1"
         id="feColorMatrix331" /><feFlood
         flood-opacity="1"
         flood-color="rgb(0,0,0)"
         result="flood1"
         id="feFlood331" /><feBlend
         in="flood1"
         in2="colormatrix1"
         mode="multiply"
         result="blend1"
         id="feBlend331" /><feBlend
         in2="blend1"
         mode="screen"
         result="blend2"
         id="feBlend332" /><feColorMatrix
         in="blend2"
         values="1"
         type="saturate"
         result="colormatrix2"
         id="feColorMatrix332" /><feComposite
         in="colormatrix2"
         in2="SourceGraphic"
         operator="in"
         k2="1"
         result="composite2"
         id="feComposite332" /></filter><filter
       style="color-interpolation-filters:sRGB;"
       id="filter346"
       x="0"
       y="0"
       width="1"
       height="1"><feComposite
         in2="SourceGraphic"
         operator="arithmetic"
         k1="0"
         k2="1"
         result="composite1"
         id="feComposite345" /><feColorMatrix
         in="composite1"
         values="1"
         type="saturate"
         result="colormatrix1"
         id="feColorMatrix345" /><feFlood
         flood-opacity="1"
         flood-color="rgb(0,0,0)"
         result="flood1"
         id="feFlood345" /><feBlend
         in="flood1"
         in2="colormatrix1"
         mode="multiply"
         result="blend1"
         id="feBlend345" /><feBlend
         in2="blend1"
         mode="screen"
         result="blend2"
         id="feBlend346" /><feColorMatrix
         in="blend2"
         values="1"
         type="saturate"
         result="colormatrix2"
         id="feColorMatrix346" /><feComposite
         in="colormatrix2"
         in2="SourceGraphic"
         operator="in"
         k2="1"
         result="composite2"
         id="feComposite346" /></filter><filter
       style="color-interpolation-filters:sRGB;"
       id="filter350"
       x="0"
       y="0"
       width="1"
       height="1"><feComposite
         in2="SourceGraphic"
         operator="arithmetic"
         k1="0"
         k2="1"
         result="composite1"
         id="feComposite349" /><feColorMatrix
         in="composite1"
         values="1"
         type="saturate"
         result="colormatrix1"
         id="feColorMatrix349" /><feFlood
         flood-opacity="1"
         flood-color="rgb(0,0,0)"
         result="flood1"
         id="feFlood349" /><feBlend
         in="flood1"
         in2="colormatrix1"
         mode="multiply"
         result="blend1"
         id="feBlend349" /><feBlend
         in2="blend1"
         mode="screen"
         result="blend2"
         id="feBlend350" /><feColorMatrix
         in="blend2"
         values="1"
         type="saturate"
         result="colormatrix2"
         id="feColorMatrix350" /><feComposite
         in="colormatrix2"
         in2="SourceGraphic"
         operator="in"
         k2="1"
         result="composite2"
         id="feComposite350" /></filter></defs><g
     id="layer1"><path
       d="m 55.835868,61.596757 c 0.212689,0.03978 0.330083,0.530921 0.589112,2.243274 0.526447,3.480168 0.413198,3.197621 1.244368,3.100586 0.489833,-0.05719 0.765876,-0.215423 0.852661,-0.488859 0.439512,-1.384776 1.285694,-0.971766 4.074687,1.989542 2.68352,2.849321 5.161002,4.789868 6.003251,4.701522 0.336012,-0.03525 1.119779,0.142471 1.741496,0.394808 2.203276,0.894244 6.180257,0.5205 7.628475,-0.716752 0.632359,-0.54024 1.1498,-0.88753 1.1498,-0.771529 0,0.116001 -0.09455,0.269512 -0.210323,0.341064 -0.115774,0.07155 -0.1579,0.215227 -0.09353,0.319361 0.361464,0.584859 -1.919802,3.186531 -3.113505,3.550687 -0.455663,0.139007 -0.951418,0.421532 -1.101742,0.627869 -0.538167,0.738695 -4.111504,2.015792 -5.025533,1.796273 -0.04763,-0.01144 -0.683913,-0.15134 -1.414384,-0.311092 -1.863495,-0.407543 -2.424147,-0.799844 -3.929475,-2.750737 -2.538405,-3.289746 -3.760373,-3.677797 -5.087028,-1.615922 -3.140122,4.880341 -6.402961,2.550038 -12.416814,-8.867676 -0.240001,-0.455662 -0.526964,-0.893242 -0.637687,-0.97255 -0.278342,-0.19937 -0.175778,-0.229116 4.861719,-1.413867 2.449185,-0.576016 4.60323,-1.092619 4.786788,-1.147734 0.03496,-0.0105 0.06728,-0.01395 0.09767,-0.0083 z"
       style=""
       id="path358"><title
         id="title367">legs</title></path><path
       d="m 102.03563,52.507906 c 0.0296,-0.0079 0.0444,-0.0032 0.045,0.01395 0.003,0.103009 -0.51396,0.654071 -1.52394,1.619539 -1.139146,1.088962 -2.023995,1.981564 -1.966285,1.983858 0.05771,0.0023 0.407224,-0.08266 0.776696,-0.188619 0.893349,-0.256207 0.850569,-0.106497 -0.304374,1.066085 -1.052106,1.068169 -0.864419,1.187381 1.597323,1.014409 0.85787,-0.06028 0.86363,-0.06687 -1.415939,1.607653 -1.486836,1.092206 -1.648463,1.268657 -1.165303,1.268657 0.467764,0 0.519251,0.04984 0.310575,0.301273 -0.439208,0.529216 -0.02514,0.764335 1.254704,0.712102 1.394123,-0.0569 1.329503,-0.09112 1.498613,0.797367 0.12203,0.641186 0.0703,0.707832 -1.14101,1.477946 -1.268705,0.806644 -1.26843,0.806968 -0.63924,0.945162 0.483955,0.106295 0.65753,0.279009 0.75138,0.748275 0.0752,0.37625 0.2515,0.609781 0.45992,0.609781 2.26976,0 5.95788,1.460779 5.31388,2.104782 -0.13624,0.136237 -3.24816,0.79318 -3.76514,0.794783 -0.0503,1.55e-4 0.0817,0.126731 0.29352,0.281637 0.3506,0.25636 0.28606,0.305546 -0.71934,0.546736 -1.10454,0.26498 -1.10454,0.26527 0.0357,0.61805 1.58392,0.490072 1.80644,0.650481 1.2082,0.871782 -0.93236,0.344901 0.35801,1.296705 2.77554,2.04742 2.30577,0.716009 3.20499,1.12275 3.58428,1.62109 1.36258,1.790263 1.53087,2.09085 1.1591,2.069124 -0.20643,-0.01206 -2.74106,-0.331162 -5.63273,-0.709517 -9.837156,-1.28712 -15.931548,-2.773586 -23.532417,-5.738668 -8.631275,-3.36704 -9.72162,-3.561326 -5.888013,-1.049548 1.988606,1.302932 2.363758,1.726607 0.968933,1.093473 -1.182027,-0.536543 -1.325052,-0.514357 -1.473812,0.229443 -0.117036,0.585177 -0.17948,0.626758 -0.750858,0.501262 -0.623111,-0.136858 -0.623218,-0.136487 -0.623218,0.826823 0,0.963397 3.11e-4,0.963159 -1.190625,0.816487 -1.796064,-0.221198 -1.701359,-0.132703 -4.599719,-4.275708 -2.410933,-3.446259 -2.78462,-3.887471 -3.379122,-3.985803 -0.367654,-0.06081 -2.105366,-0.29771 -3.86178,-0.526583 -1.756414,-0.228874 -3.239024,-0.461415 -3.294373,-0.516764 -0.180722,-0.180724 -0.612448,-2.80196 -0.475423,-2.886646 3.190662,-1.971938 9.859422,-2.445716 13.29893,-0.944645 9.270714,4.045929 11.693308,3.677557 24.939046,-3.792533 3.41747,-1.927322 6.539891,-3.6879 6.938591,-3.912423 0.0589,-0.03317 0.10323,-0.05361 0.13281,-0.0615 z"
       style=""
       id="path357"><title
         id="title369">tail</title></path><path
       d="m 118.02949,36.339901 c -0.283,0.02662 -0.84598,0.169625 -1.73168,0.406693 -1.89487,0.507183 -2.46032,0.543393 -1.47639,0.09508 0.56196,-0.256053 0.66492,-0.458978 0.33899,-0.498678 -0.10864,-0.01323 -0.26474,-0.008 -0.46767,0.01912 -0.37023,0.04947 -1.84041,0.180988 -3.26698,0.292488 -1.42657,0.111501 -3.51066,0.391614 -4.63125,0.622184 -1.12058,0.230571 -2.07381,0.419096 -2.11821,0.419096 -0.0445,0 -0.0806,-0.233008 -0.0806,-0.517798 0,-0.413192 -0.10409,-0.517797 -0.51418,-0.517797 -1.20111,0 -8.475781,1.094845 -10.620021,1.598352 -2.089215,0.490585 -2.358449,0.514346 -2.58899,0.226859 -0.229215,-0.285835 -0.76596,-0.199877 -4.917529,0.789099 -2.563101,0.610577 -5.266417,1.210106 -6.006868,1.332219 -0.740453,0.122113 -1.881181,0.413351 -2.535246,0.647505 -0.654066,0.234153 -1.37889,0.376373 -1.610755,0.315743 -0.536609,-0.140325 -2.578678,0.751094 -9.693465,4.2323 -4.976013,2.434724 -5.647639,2.712686 -5.569169,2.302185 0.049,-0.256734 0.04546,-0.467155 -0.0083,-0.467155 -0.181051,0 -3.048787,2.11783 -3.780131,2.791561 -1.30681,1.203864 -5.412577,3.36088 -9.496061,4.98936 -4.007083,1.59801 -4.006924,1.598168 -3.887101,2.197282 0.130471,0.652363 0.902256,2.649237 1.796272,4.647261 0.566628,1.266345 0.566782,1.266771 4.471562,0.251148 15.567926,-4.049173 45.11047,-12.576554 50.7137,-14.638383 9.3182,-3.428831 15.88668,-6.006422 20.95479,-8.222237 2.98136,-1.303472 5.67411,-2.466144 5.98362,-2.583822 1.03383,-0.39306 0.36376,-0.434958 -1.46658,-0.09198 -1.42638,0.26728 -2.00229,0.29109 -2.70888,0.113171 -1.01286,-0.255039 -1.97977,-0.0822 -4.2354,0.75551 -2.3044,0.855817 -3.02835,0.595523 -1.57096,-0.564307 0.88873,-0.707275 1.19513,-0.986422 0.72347,-0.942061 z"
       style=""
       id="path356"><title
         id="title365">fins</title></path><path
       d="m 29.285551,77.669678 c -0.05757,0 0.483247,0.841728 1.201477,1.87017 2.794682,4.001735 3.179151,5.286844 1.64021,5.485453 -0.525526,0.06782 -1.144174,0.161329 -1.374593,0.207739 -1.457077,0.293482 -4.566912,4.316859 -5.160925,6.676595 -0.723088,2.872489 -0.622232,2.860977 -3.489193,0.397392 -1.994203,-1.713621 -2.457291,-2.252276 -4.314465,-5.016231 -2.32939,-3.466737 -2.562106,-3.032412 -1.250053,2.336808 0.596036,2.439113 0.602785,5.720859 0.01602,7.803141 -0.881166,3.127055 -6.116292,6.943585 -9.5384356,6.953585 -3.0211423,0.009 -2.7938445,2.23808 0.3829224,3.75429 4.7065132,2.24633 10.1101652,2.43301 17.4402792,0.60306 2.864889,-0.71521 5.236529,-1.26493 5.270479,-1.22163 4.240194,5.40422 6.062759,7.18294 8.069792,7.87652 3.824622,1.3217 5.916118,-0.99357 6.280754,-6.95306 0.134109,-2.19188 0.134134,-2.19215 0.982885,-2.41019 3.26279,-0.83821 4.365957,-1.4073 4.684986,-2.41691 0.135818,-0.42982 1.019058,-1.94638 1.962671,-3.37033 5.720555,-8.632546 6.049206,-15.250272 0.818554,-16.48065 -1.824257,-0.429112 -2.010835,-0.391722 -2.425692,0.485758 -0.572514,1.21095 -1.134313,1.482183 -3.937744,1.900659 -6.157885,0.91921 -6.173174,0.916335 -8.62893,-1.514119 -1.777866,-1.759546 -8.229407,-6.96805 -8.630998,-6.96805 z"
       style=""
       id="path361"><title
         id="title361">head</title></path><path
       d="m 37.475749,70.930037 c 0.158811,-0.0066 0.281876,0.0042 0.357084,0.03566 0.76478,0.319546 3.082116,0.367673 4.283459,0.08888 0.796042,-0.184729 0.796261,-0.184905 1.195793,0.718302 1.138864,2.574591 4.420626,3.362215 6.323645,1.517737 0.75074,-0.727646 0.892197,-0.672184 0.359668,0.14056 -0.334501,0.510511 -0.334149,0.510563 0.587044,0.510563 0.869963,0 2.232939,1.093772 2.232939,1.791622 0,0.08731 0.343478,0.510099 0.763261,0.939994 0.94883,0.97169 0.886321,1.025015 -0.653707,0.558106 -1.157791,-0.351022 -1.33635,-0.354004 -2.796212,-0.04806 -3.572092,0.74861 -6.178634,0.214625 -8.961727,-1.835547 -1.396129,-1.028462 -1.396113,-1.028143 -1.934249,-0.388607 -0.734832,0.873298 -2.075393,0.901377 -3.318143,0.06925 -0.999282,-0.669108 -3.075782,-2.512918 -2.95951,-2.627746 0.540668,-0.533942 3.408974,-1.424774 4.520655,-1.470712 z"
       style=""
       id="path360"><title
         id="title368">legs</title></path><path
       d="m 42.477511,57.53809 c -0.302436,-0.0097 -0.821473,0.167525 -1.694471,0.527616 -0.957399,0.394905 -2.281736,0.784707 -2.942972,0.866097 -1.303265,0.16042 -1.802301,0.489716 -6.068881,4.006991 -1.130881,0.932274 -2.971834,2.152669 -4.494299,2.979663 -3.542827,1.924441 -3.577266,2.090017 -1.477946,7.148918 0.322958,0.778255 0.0011,0.801298 3.822506,-0.270268 1.311943,-0.367883 3.523314,-1.132707 4.913912,-1.699638 2.528358,-1.03078 2.528219,-1.031174 3.620967,-0.653707 2.11101,0.729206 4.811773,-0.0868 7.772652,-2.34921 1.344985,-1.027707 1.347671,-0.959899 -0.132291,-3.213758 -1.068542,-1.6273 -2.91465,-5.884981 -2.92592,-6.747908 -0.0051,-0.388295 -0.09082,-0.585096 -0.393257,-0.594796 z"
       style=""
       id="path359"><title
         id="title364">belly</title></path><path
       d="m 17.084229,65.359835 c -0.53762,0.01271 -1.087009,0.05758 -1.639177,0.137459 -2.661573,0.385044 -3.56802,6.715073 -1.859835,12.985254 1.057776,3.882743 5.217244,10.193595 8.636682,13.103076 2.633122,2.240431 2.466485,2.264762 3.055111,-0.448551 0.626168,-2.886362 3.694644,-6.384115 5.775875,-6.584094 1.458929,-0.140185 1.452265,-0.263614 -0.0832,-1.620057 -1.529214,-1.35092 -4.706406,-6.216434 -4.956287,-7.589717 -0.0774,-0.425397 -0.611319,-1.823448 -1.186491,-3.106787 -0.957222,-2.135785 -1.037428,-2.433267 -0.944128,-3.513998 0.170204,-1.971454 -3.035216,-3.451548 -6.798551,-3.362585 z"
       style=""
       id="path353"><title
         id="title362">beck</title></path><path
       d="m 0.2289266,14.49834 c -1.20636219,0 0.9164876,8.425449 3.5486206,14.084411 1.033212,2.221357 2.0861613,4.504531 2.3399089,5.074109 1.3914331,3.123305 4.3341689,9.161437 6.2244259,12.772347 2.320402,4.432608 2.361894,4.565005 1.752348,5.598108 -0.886885,1.503159 -1.041591,4.915024 -0.330212,7.287411 0.365153,1.217754 0.364998,1.217858 3.501078,-1.878955 1.724844,-1.703248 3.634676,-3.562757 4.244185,-4.132048 1.1082,-1.035073 1.108231,-1.034961 0.182418,-2.884578 -1.496508,-2.989772 -1.628801,-3.682219 -1.718241,-8.971029 -0.07309,-4.322072 -0.108077,-4.676938 -0.498678,-5.092712 -0.230926,-0.245811 -0.419612,-0.591264 -0.419612,-0.767912 0,-0.176648 -0.186615,-0.55837 -0.414445,-0.84801 -0.227832,-0.289641 -0.413929,-0.709917 -0.413929,-0.93431 0,-0.224395 -0.130724,-0.516519 -0.290421,-0.649056 -0.159697,-0.132537 -0.349106,-0.474094 -0.420646,-0.759127 -0.27778,-1.106763 -7.810506,-10.235907 -8.3369591,-10.103776 -0.2682717,0.06733 -0.4795573,0.02693 -0.4795573,-0.09198 0,-0.408845 -1.8803903,-2.411213 -2.80448,-2.986381 C 5.2681851,18.824876 4.814765,18.33041 4.5113525,17.705896 4.0186904,16.691849 3.9073381,16.6221 3.5212321,17.087329 3.1292448,17.559645 2.9453349,17.471089 2.497522,16.593302 2.0948741,15.804047 0.68093319,14.49834 0.2289266,14.49834 Z"
       style=""
       id="path352"><title
         id="title366">fins</title></path><path
       d="m 41.735954,12.670028 c -0.04444,-0.04444 -1.192653,2.142835 -2.551782,4.860685 -4.805904,9.610356 -6.095867,13.785876 -6.796485,22.000207 -0.228587,2.680054 -0.454064,4.303577 -0.61805,4.453475 -0.141922,0.129728 -1.043338,0.93467 -2.003495,1.789038 -7.095533,6.313753 -15.300618,15.040808 -15.589746,16.581417 -0.159107,0.847792 -0.343408,1.764196 -0.409278,2.036568 -0.119756,0.495224 -0.119984,0.49569 1.894975,0.347783 2.775349,-0.203724 5.420826,0.289997 7.194393,1.343587 1.676386,0.995859 4.446576,-0.310023 9.999906,-4.714958 3.10612,-2.463793 3.564213,-2.757797 4.610055,-2.956925 2.239759,-0.42645 15.142228,-5.525875 15.142228,-5.984648 0,-0.0916 -0.396424,-0.284996 -0.880566,-0.429948 -0.816519,-0.244465 -3.495064,-1.382848 -5.436878,-2.310453 -3.228999,-1.542495 -3.259872,-2.215901 -0.103353,-2.243791 3.081487,-0.02723 3.023901,0.01785 2.166276,-1.685168 -0.812954,-1.614311 -0.869961,-2.357824 -0.419612,-5.472017 0.317686,-2.196816 0.369278,-2.047677 -0.868681,-2.503207 -1.399817,-0.515087 -1.388546,-0.46478 -0.568958,-2.512508 0.80646,-2.014924 0.630458,-3.132957 -0.542085,-3.439583 -0.345911,-0.09046 -0.393056,-0.200999 -0.251665,-0.591695 0.188475,-0.520811 0.210487,-2.584175 0.02946,-2.765206 -0.06113,-0.06113 -0.555272,-0.01159 -1.098124,0.11007 -1.22714,0.275009 -1.086624,0.582077 -1.259355,-2.748152 -0.08114,-1.564468 -0.164045,-2.844271 -0.184485,-2.844271 -0.02044,0 -0.710051,0.228863 -1.532206,0.508496 -1.494826,0.508427 -1.494828,0.508158 -1.730127,-0.0083 -0.13005,-0.285428 -0.354639,-0.470588 -0.502295,-0.413928 -0.730879,0.280463 -0.524219,-0.769276 1.381828,-7.018177 0.554847,-1.819045 0.972549,-3.343983 0.928109,-3.388423 z"
       style=""
       id="path351"><title
         id="title363">back</title></path></g><metadata
     id="metadata17"><rdf:RDF><cc:License
         rdf:about="http://creativecommons.org/licenses/by-nc-sa/4.0/"><cc:permits
           rdf:resource="http://creativecommons.org/ns#Reproduction" /><cc:permits
           rdf:resource="http://creativecommons.org/ns#Distribution" /><cc:requires
           rdf:resource="http://creativecommons.org/ns#Notice" /><cc:requires
           rdf:resource="http://creativecommons.org/ns#Attribution" /><cc:prohibits
           rdf:resource="http://creativecommons.org/ns#CommercialUse" /><cc:permits
           rdf:resource="http://creativecommons.org/ns#DerivativeWorks" /><cc:requires
           rdf:resource="http://creativecommons.org/ns#ShareAlike" /></cc:License><cc:Work
         rdf:about=""><cc:license
           rdf:resource="http://creativecommons.org/licenses/by-nc-sa/4.0/" /><dc:creator><cc:Agent><dc:title>Doriel Rivalet</dc:title></cc:Agent></dc:creator></cc:Work></rdf:RDF></metadata></svg>
