<?xml version="1.0" encoding="UTF-8" standalone="no"?>
<!-- Created with Inkscape (http://www.inkscape.org/) -->

<svg
   width="128mm"
   height="128mm"
   viewBox="0 0 128 128"
   version="1.1"
   id="svg5"
   xml:space="preserve"
   xmlns="http://www.w3.org/2000/svg"
   xmlns:svg="http://www.w3.org/2000/svg"
   xmlns:rdf="http://www.w3.org/1999/02/22-rdf-syntax-ns#"
   xmlns:cc="http://creativecommons.org/ns#"
   xmlns:dc="http://purl.org/dc/elements/1.1/"><defs
     id="defs2"><filter
       style="color-interpolation-filters:sRGB;"
       id="filter2"
       x="0"
       y="0"
       width="1"
       height="1"><feComposite
         in2="SourceGraphic"
         operator="arithmetic"
         k1="0"
         k2="1"
         result="composite1"
         id="feComposite1" /><feColorMatrix
         in="composite1"
         values="1"
         type="saturate"
         result="colormatrix1"
         id="feColorMatrix1" /><feFlood
         flood-opacity="1"
         flood-color="rgb(0,0,0)"
         result="flood1"
         id="feFlood1" /><feBlend
         in="flood1"
         in2="colormatrix1"
         mode="multiply"
         result="blend1"
         id="feBlend1" /><feBlend
         in2="blend1"
         mode="screen"
         result="blend2"
         id="feBlend2" /><feColorMatrix
         in="blend2"
         values="1"
         type="saturate"
         result="colormatrix2"
         id="feColorMatrix2" /><feComposite
         in="colormatrix2"
         in2="SourceGraphic"
         operator="in"
         k2="1"
         result="composite2"
         id="feComposite2" /></filter><filter
       style="color-interpolation-filters:sRGB;"
       id="filter18"
       x="0"
       y="0"
       width="1"
       height="1"><feComposite
         in2="SourceGraphic"
         operator="arithmetic"
         k1="0"
         k2="1"
         result="composite1"
         id="feComposite17" /><feColorMatrix
         in="composite1"
         values="1"
         type="saturate"
         result="colormatrix1"
         id="feColorMatrix17" /><feFlood
         flood-opacity="1"
         flood-color="rgb(0,0,0)"
         result="flood1"
         id="feFlood17" /><feBlend
         in="flood1"
         in2="colormatrix1"
         mode="multiply"
         result="blend1"
         id="feBlend17" /><feBlend
         in2="blend1"
         mode="screen"
         result="blend2"
         id="feBlend18" /><feColorMatrix
         in="blend2"
         values="1"
         type="saturate"
         result="colormatrix2"
         id="feColorMatrix18" /><feComposite
         in="colormatrix2"
         in2="SourceGraphic"
         operator="in"
         k2="1"
         result="composite2"
         id="feComposite18" /></filter><filter
       style="color-interpolation-filters:sRGB;"
       id="filter37"
       x="0"
       y="0"
       width="1"
       height="1"><feComposite
         in2="SourceGraphic"
         operator="arithmetic"
         k1="0"
         k2="1"
         result="composite1"
         id="feComposite36" /><feColorMatrix
         in="composite1"
         values="1"
         type="saturate"
         result="colormatrix1"
         id="feColorMatrix36" /><feFlood
         flood-opacity="1"
         flood-color="rgb(0,0,0)"
         result="flood1"
         id="feFlood36" /><feBlend
         in="flood1"
         in2="colormatrix1"
         mode="multiply"
         result="blend1"
         id="feBlend36" /><feBlend
         in2="blend1"
         mode="screen"
         result="blend2"
         id="feBlend37" /><feColorMatrix
         in="blend2"
         values="1"
         type="saturate"
         result="colormatrix2"
         id="feColorMatrix37" /><feComposite
         in="colormatrix2"
         in2="SourceGraphic"
         operator="in"
         k2="1"
         result="composite2"
         id="feComposite37" /></filter><filter
       style="color-interpolation-filters:sRGB;"
       id="filter51"
       x="0"
       y="0"
       width="1"
       height="1"><feComposite
         in2="SourceGraphic"
         operator="arithmetic"
         k1="0"
         k2="1"
         result="composite1"
         id="feComposite50" /><feColorMatrix
         in="composite1"
         values="1"
         type="saturate"
         result="colormatrix1"
         id="feColorMatrix50" /><feFlood
         flood-opacity="1"
         flood-color="rgb(0,0,0)"
         result="flood1"
         id="feFlood50" /><feBlend
         in="flood1"
         in2="colormatrix1"
         mode="multiply"
         result="blend1"
         id="feBlend50" /><feBlend
         in2="blend1"
         mode="screen"
         result="blend2"
         id="feBlend51" /><feColorMatrix
         in="blend2"
         values="1"
         type="saturate"
         result="colormatrix2"
         id="feColorMatrix51" /><feComposite
         in="colormatrix2"
         in2="SourceGraphic"
         operator="in"
         k2="1"
         result="composite2"
         id="feComposite51" /></filter><filter
       style="color-interpolation-filters:sRGB;"
       id="filter53"
       x="0"
       y="0"
       width="1"
       height="1"><feComposite
         in2="SourceGraphic"
         operator="arithmetic"
         k1="0"
         k2="1"
         result="composite1"
         id="feComposite52" /><feColorMatrix
         in="composite1"
         values="1"
         type="saturate"
         result="colormatrix1"
         id="feColorMatrix52" /><feFlood
         flood-opacity="1"
         flood-color="rgb(0,0,0)"
         result="flood1"
         id="feFlood52" /><feBlend
         in="flood1"
         in2="colormatrix1"
         mode="multiply"
         result="blend1"
         id="feBlend52" /><feBlend
         in2="blend1"
         mode="screen"
         result="blend2"
         id="feBlend53" /><feColorMatrix
         in="blend2"
         values="1"
         type="saturate"
         result="colormatrix2"
         id="feColorMatrix53" /><feComposite
         in="colormatrix2"
         in2="SourceGraphic"
         operator="in"
         k2="1"
         result="composite2"
         id="feComposite53" /></filter><filter
       style="color-interpolation-filters:sRGB;"
       id="filter73"
       x="0"
       y="0"
       width="1"
       height="1"><feComposite
         in2="SourceGraphic"
         operator="arithmetic"
         k1="0"
         k2="1"
         result="composite1"
         id="feComposite72" /><feColorMatrix
         in="composite1"
         values="1"
         type="saturate"
         result="colormatrix1"
         id="feColorMatrix72" /><feFlood
         flood-opacity="1"
         flood-color="rgb(0,0,0)"
         result="flood1"
         id="feFlood72" /><feBlend
         in="flood1"
         in2="colormatrix1"
         mode="multiply"
         result="blend1"
         id="feBlend72" /><feBlend
         in2="blend1"
         mode="screen"
         result="blend2"
         id="feBlend73" /><feColorMatrix
         in="blend2"
         values="1"
         type="saturate"
         result="colormatrix2"
         id="feColorMatrix73" /><feComposite
         in="colormatrix2"
         in2="SourceGraphic"
         operator="in"
         k2="1"
         result="composite2"
         id="feComposite73" /></filter><filter
       style="color-interpolation-filters:sRGB;"
       id="filter88"
       x="0"
       y="0"
       width="1"
       height="1"><feComposite
         in2="SourceGraphic"
         operator="arithmetic"
         k1="0"
         k2="1"
         result="composite1"
         id="feComposite87" /><feColorMatrix
         in="composite1"
         values="1"
         type="saturate"
         result="colormatrix1"
         id="feColorMatrix87" /><feFlood
         flood-opacity="1"
         flood-color="rgb(0,0,0)"
         result="flood1"
         id="feFlood87" /><feBlend
         in="flood1"
         in2="colormatrix1"
         mode="multiply"
         result="blend1"
         id="feBlend87" /><feBlend
         in2="blend1"
         mode="screen"
         result="blend2"
         id="feBlend88" /><feColorMatrix
         in="blend2"
         values="1"
         type="saturate"
         result="colormatrix2"
         id="feColorMatrix88" /><feComposite
         in="colormatrix2"
         in2="SourceGraphic"
         operator="in"
         k2="1"
         result="composite2"
         id="feComposite88" /></filter><filter
       style="color-interpolation-filters:sRGB;"
       id="filter108"
       x="0"
       y="0"
       width="1"
       height="1"><feComposite
         in2="SourceGraphic"
         operator="arithmetic"
         k1="0"
         k2="1"
         result="composite1"
         id="feComposite107" /><feColorMatrix
         in="composite1"
         values="1"
         type="saturate"
         result="colormatrix1"
         id="feColorMatrix107" /><feFlood
         flood-opacity="1"
         flood-color="rgb(0,0,0)"
         result="flood1"
         id="feFlood107" /><feBlend
         in="flood1"
         in2="colormatrix1"
         mode="multiply"
         result="blend1"
         id="feBlend107" /><feBlend
         in2="blend1"
         mode="screen"
         result="blend2"
         id="feBlend108" /><feColorMatrix
         in="blend2"
         values="1"
         type="saturate"
         result="colormatrix2"
         id="feColorMatrix108" /><feComposite
         in="colormatrix2"
         in2="SourceGraphic"
         operator="in"
         k2="1"
         result="composite2"
         id="feComposite108" /></filter><filter
       style="color-interpolation-filters:sRGB;"
       id="filter123"
       x="0"
       y="0"
       width="1"
       height="1"><feComposite
         in2="SourceGraphic"
         operator="arithmetic"
         k1="0"
         k2="1"
         result="composite1"
         id="feComposite122" /><feColorMatrix
         in="composite1"
         values="1"
         type="saturate"
         result="colormatrix1"
         id="feColorMatrix122" /><feFlood
         flood-opacity="1"
         flood-color="rgb(0,0,0)"
         result="flood1"
         id="feFlood122" /><feBlend
         in="flood1"
         in2="colormatrix1"
         mode="multiply"
         result="blend1"
         id="feBlend122" /><feBlend
         in2="blend1"
         mode="screen"
         result="blend2"
         id="feBlend123" /><feColorMatrix
         in="blend2"
         values="1"
         type="saturate"
         result="colormatrix2"
         id="feColorMatrix123" /><feComposite
         in="colormatrix2"
         in2="SourceGraphic"
         operator="in"
         k2="1"
         result="composite2"
         id="feComposite123" /></filter><filter
       style="color-interpolation-filters:sRGB;"
       id="filter137"
       x="0"
       y="0"
       width="1"
       height="1"><feComposite
         in2="SourceGraphic"
         operator="arithmetic"
         k1="0"
         k2="1"
         result="composite1"
         id="feComposite136" /><feColorMatrix
         in="composite1"
         values="1"
         type="saturate"
         result="colormatrix1"
         id="feColorMatrix136" /><feFlood
         flood-opacity="1"
         flood-color="rgb(0,0,0)"
         result="flood1"
         id="feFlood136" /><feBlend
         in="flood1"
         in2="colormatrix1"
         mode="multiply"
         result="blend1"
         id="feBlend136" /><feBlend
         in2="blend1"
         mode="screen"
         result="blend2"
         id="feBlend137" /><feColorMatrix
         in="blend2"
         values="1"
         type="saturate"
         result="colormatrix2"
         id="feColorMatrix137" /><feComposite
         in="colormatrix2"
         in2="SourceGraphic"
         operator="in"
         k2="1"
         result="composite2"
         id="feComposite137" /></filter><filter
       style="color-interpolation-filters:sRGB;"
       id="filter160"
       x="0"
       y="0"
       width="1"
       height="1"><feComposite
         in2="SourceGraphic"
         operator="arithmetic"
         k1="0"
         k2="1"
         result="composite1"
         id="feComposite159" /><feColorMatrix
         in="composite1"
         values="1"
         type="saturate"
         result="colormatrix1"
         id="feColorMatrix159" /><feFlood
         flood-opacity="1"
         flood-color="rgb(0,0,0)"
         result="flood1"
         id="feFlood159" /><feBlend
         in="flood1"
         in2="colormatrix1"
         mode="multiply"
         result="blend1"
         id="feBlend159" /><feBlend
         in2="blend1"
         mode="screen"
         result="blend2"
         id="feBlend160" /><feColorMatrix
         in="blend2"
         values="1"
         type="saturate"
         result="colormatrix2"
         id="feColorMatrix160" /><feComposite
         in="colormatrix2"
         in2="SourceGraphic"
         operator="in"
         k2="1"
         result="composite2"
         id="feComposite160" /></filter><filter
       style="color-interpolation-filters:sRGB;"
       id="filter177"
       x="0"
       y="0"
       width="1"
       height="1"><feComposite
         in2="SourceGraphic"
         operator="arithmetic"
         k1="0"
         k2="1"
         result="composite1"
         id="feComposite176" /><feColorMatrix
         in="composite1"
         values="1"
         type="saturate"
         result="colormatrix1"
         id="feColorMatrix176" /><feFlood
         flood-opacity="1"
         flood-color="rgb(0,0,0)"
         result="flood1"
         id="feFlood176" /><feBlend
         in="flood1"
         in2="colormatrix1"
         mode="multiply"
         result="blend1"
         id="feBlend176" /><feBlend
         in2="blend1"
         mode="screen"
         result="blend2"
         id="feBlend177" /><feColorMatrix
         in="blend2"
         values="1"
         type="saturate"
         result="colormatrix2"
         id="feColorMatrix177" /><feComposite
         in="colormatrix2"
         in2="SourceGraphic"
         operator="in"
         k2="1"
         result="composite2"
         id="feComposite177" /></filter><filter
       style="color-interpolation-filters:sRGB;"
       id="filter198"
       x="0"
       y="0"
       width="1"
       height="1"><feComposite
         in2="SourceGraphic"
         operator="arithmetic"
         k1="0"
         k2="1"
         result="composite1"
         id="feComposite197" /><feColorMatrix
         in="composite1"
         values="1"
         type="saturate"
         result="colormatrix1"
         id="feColorMatrix197" /><feFlood
         flood-opacity="1"
         flood-color="rgb(0,0,0)"
         result="flood1"
         id="feFlood197" /><feBlend
         in="flood1"
         in2="colormatrix1"
         mode="multiply"
         result="blend1"
         id="feBlend197" /><feBlend
         in2="blend1"
         mode="screen"
         result="blend2"
         id="feBlend198" /><feColorMatrix
         in="blend2"
         values="1"
         type="saturate"
         result="colormatrix2"
         id="feColorMatrix198" /><feComposite
         in="colormatrix2"
         in2="SourceGraphic"
         operator="in"
         k2="1"
         result="composite2"
         id="feComposite198" /></filter><filter
       style="color-interpolation-filters:sRGB;"
       id="filter212"
       x="0"
       y="0"
       width="1"
       height="1"><feComposite
         in2="SourceGraphic"
         operator="arithmetic"
         k1="0"
         k2="1"
         result="composite1"
         id="feComposite211" /><feColorMatrix
         in="composite1"
         values="1"
         type="saturate"
         result="colormatrix1"
         id="feColorMatrix211" /><feFlood
         flood-opacity="1"
         flood-color="rgb(0,0,0)"
         result="flood1"
         id="feFlood211" /><feBlend
         in="flood1"
         in2="colormatrix1"
         mode="multiply"
         result="blend1"
         id="feBlend211" /><feBlend
         in2="blend1"
         mode="screen"
         result="blend2"
         id="feBlend212" /><feColorMatrix
         in="blend2"
         values="1"
         type="saturate"
         result="colormatrix2"
         id="feColorMatrix212" /><feComposite
         in="colormatrix2"
         in2="SourceGraphic"
         operator="in"
         k2="1"
         result="composite2"
         id="feComposite212" /></filter></defs><g
     id="layer1"><path
       d="m 49.565967,99.21875 c 0.171795,-0.0042 0.366898,-0.0033 0.582393,0.0026 3.016932,0.08197 10.008953,1.100126 12.181169,1.843816 1.148448,0.39319 3.386155,0.99072 4.972823,1.32757 3.156811,0.6702 3.247295,0.70705 2.861841,1.1715 -0.232258,0.27985 -0.09087,0.31856 1.170988,0.32091 3.145892,0.006 7.642051,0.57102 8.999967,1.1312 0.715497,0.29516 1.584848,0.53692 1.931665,0.53692 0.421307,0 0.630453,0.10389 0.630453,0.31316 0,0.2288 0.239033,0.314 0.887284,0.31626 4.282036,0.0149 10.008942,0.95086 11.223604,1.83451 0.0573,0.0417 -0.31853,0.43647 -0.835091,0.87695 -0.516559,0.44048 -0.892392,0.83678 -0.835091,0.88108 0.0573,0.0443 0.339207,0.18405 0.626318,0.31058 1.942916,0.85626 -8.444155,-0.36088 -10.910445,-1.27848 -0.717672,-0.26702 -2.009806,-0.54901 -2.871142,-0.62632 -2.622268,-0.23535 -6.272787,-0.95563 -8.108033,-1.5999 -0.95662,-0.33582 -2.159885,-0.6103 -2.674255,-0.6103 -0.981691,0 -4.931315,-0.92047 -7.592818,-1.7694 -0.861336,-0.27473 -2.082917,-0.56152 -2.714563,-0.63717 -0.631647,-0.0757 -1.984403,-0.31992 -3.006018,-0.54312 -1.021616,-0.22319 -1.949571,-0.3754 -2.06189,-0.33796 -0.112319,0.0374 1.325824,0.42848 3.195671,0.86868 4.952244,1.16586 4.869582,1.13869 4.571297,1.4981 -0.338206,0.40751 -0.345237,0.40479 1.685685,0.68316 2.809002,0.38502 6.647335,1.38416 8.352462,2.17455 1.465849,0.67946 1.746732,0.73449 4.385262,0.85937 3.869078,0.18313 7.781816,1.54253 6.767546,2.35128 -0.508169,0.4052 -0.540733,0.48933 -0.233578,0.6072 1.12829,0.43297 -1.452627,0.57145 -4.723743,0.25373 -2.333843,-0.22668 -4.940138,-0.79333 -7.343737,-1.59628 -1.033603,-0.34529 -2.771788,-0.8301 -3.862814,-1.07746 -1.091025,-0.24735 -2.970619,-0.8271 -4.176489,-1.28881 -1.205871,-0.4617 -2.850126,-0.96352 -3.654041,-1.11466 -3.8306,-0.72018 -7.646105,-1.91713 -8.3814,-2.62981 -0.556894,-0.53976 -0.861466,-0.67863 -1.390613,-0.63304 -0.50407,0.0434 -0.806157,-0.0783 -1.178739,-0.4749 -0.649158,-0.691 -0.699705,-0.66645 1.954402,-0.93225 1.253633,-0.12556 2.314223,-0.26318 2.356962,-0.30592 0.115595,-0.11559 -1.807826,-1.31436 -2.72128,-1.69602 -0.701501,-0.293113 -1.022265,-0.918828 -0.503846,-0.982888 0.12155,-0.01502 0.270038,-0.02425 0.441834,-0.02842 z"
       style=""
       id="path223"><title
         id="title224">sub tails</title></path><path
       d="m 50.356616,87.810144 c -0.180547,-0.05237 -0.602168,0.156918 -1.231966,0.63717 -1.092073,0.832761 -1.091981,0.832685 -0.961698,4.63641 0.130283,3.803725 0.129998,3.803811 -0.52555,6.110221 -0.842734,2.965005 -0.841758,3.065925 0.02325,2.931605 0.373244,-0.058 1.313042,-0.16341 2.088244,-0.23461 1.751999,-0.16098 1.757602,-0.30092 0.04444,-1.05885 -1.323018,-0.58533 -1.696177,-1.266432 -1.048515,-1.914097 0.482733,-0.48273 11.012543,0.911943 15.672945,2.075847 2.293072,0.57266 4.715972,0.99447 7.725627,1.34513 2.411742,0.28101 5.841663,0.79776 7.621757,1.14877 2.437093,0.48055 4.19052,0.68193 7.099308,0.8139 2.124629,0.0964 5.272768,0.32335 6.995439,0.50437 1.722672,0.18102 3.554785,0.36527 4.071586,0.40927 1.580465,0.13472 3.33088,-0.0252 3.82561,-0.34933 0.37672,-0.24684 1.28472,-0.30404 4.58318,-0.28784 5.53282,0.0273 5.59354,-0.13257 0.58549,-1.55236 -4.63321,-1.31352 -4.72793,-1.3903 -4.08657,-3.321242 0.19534,-0.587965 0.32204,-1.09608 0.28164,-1.12913 -0.64556,-0.527883 -0.93248,-0.491903 -1.65365,0.208773 -0.74507,0.723892 -0.74549,0.724211 -1.937865,0.196887 -0.655804,-0.290026 -1.377621,-0.527616 -1.604036,-0.527616 -0.506068,0 -0.506763,0.05264 0.02481,-1.841748 0.653174,-2.327777 -0.165001,-2.672268 -1.832447,-0.771012 -0.919697,1.048658 -1.080181,1.146367 -1.890324,1.148767 -0.486857,0.0014 -1.379689,0.190497 -1.983858,0.420129 -0.604166,0.229632 -1.109122,0.417488 -1.122412,0.417546 -0.01329,5.8e-5 0.05286,-0.399194 0.147278,-0.887285 0.294859,-1.524184 0.265608,-1.618506 -0.507979,-1.618506 -0.579157,0 -0.844885,0.174037 -1.559595,1.021644 -0.861549,1.021746 -0.861902,1.022006 -2.550749,1.171504 -2.008934,0.177831 -1.932443,0.226588 -1.564245,-0.996838 0.317277,-1.054238 0.288943,-1.117317 -0.555522,-1.226799 -0.45678,-0.05922 -0.677626,0.09055 -1.201994,0.814421 -0.593127,0.818787 -0.715157,0.886768 -1.591117,0.886768 -0.521785,0 -1.240358,0.150539 -1.596802,0.334863 -0.648078,0.335134 -0.647931,0.335333 -0.510046,-1.148251 0.112402,-1.209422 0.08292,-1.48363 -0.159681,-1.48363 -0.163675,0 -0.436449,-0.05321 -0.606164,-0.118339 -0.219448,-0.08421 -0.462297,0.217159 -0.840776,1.043864 -0.519855,1.135509 -0.552286,1.16272 -1.389579,1.16272 -0.471435,0 -1.134463,0.14311 -1.473295,0.318327 -0.736726,0.380975 -0.890924,-0.717228 -0.299723,-2.13217 0.36509,-0.873785 0.372239,-0.856968 -0.451136,-1.021643 -0.582693,-0.116539 -0.675911,-0.04366 -1.333768,1.041797 -0.702793,1.159553 -0.714274,1.166854 -1.721342,1.166854 -0.55751,0 -1.209201,0.104996 -1.448491,0.23306 -0.448506,0.240031 -0.466994,-0.933902 -0.04341,-2.764172 0.29265,-1.264505 -1.085618,-0.922854 -1.85105,0.458887 -0.601302,1.085461 -0.743964,1.211471 -1.50275,1.328084 -0.461156,0.07087 -1.143975,0.184028 -1.51722,0.251147 -0.781422,0.140532 -0.926625,-0.61396 -0.434599,-2.256193 0.25885,-0.863964 0.163007,-1.07995 -0.577226,-1.302762 -0.35994,-0.108344 -0.574636,0.07415 -1.208195,1.028361 -0.423725,0.638175 -1.008134,1.250711 -1.298629,1.361157 -0.679941,0.258514 -0.643079,0.268826 -0.769462,-0.214457 -0.10262,-0.392422 -0.150048,-0.398171 -0.853178,-0.104387 -1.143958,0.477977 -1.092968,0.660722 -0.628385,-2.246891 0.110412,-0.691017 0.07348,-0.786781 -0.315226,-0.814421 -0.242255,-0.01722 -0.539432,-0.04071 -0.660425,-0.05219 -0.120993,-0.01148 -0.473223,0.448969 -0.782898,1.023194 -0.657763,1.219674 -1.502751,1.579903 -1.502751,0.640787 0,-0.729468 -0.408027,-0.676692 -1.090889,0.14056 -0.738343,0.883652 -0.822397,-0.03413 -0.162264,-1.770951 0.527489,-1.387839 0.535674,-1.329909 -0.218075,-1.592668 -0.608007,-0.211953 -0.66496,-0.18021 -1.295011,0.713652 -0.542041,0.768997 -0.69245,0.875789 -0.845943,0.601513 -0.133197,-0.238007 -0.04864,-0.480561 0.295589,-0.846976 0.522639,-0.556326 -0.402964,-1.79322 -0.983403,-1.314132 -0.125412,0.10351 -0.287228,0.128767 -0.359668,0.05633 -0.07244,-0.07244 -0.463081,0.120978 -0.868164,0.429948 -0.859445,0.655531 -0.88924,0.614428 -0.290421,-0.400492 0.333986,-0.566066 0.394487,-0.879863 0.21394,-0.932243 z"
       style=""
       id="path222"><title
         id="title223">tail</title></path><path
       d="m 31.365527,98.426034 c -0.131955,0.0095 -0.208213,0.156822 -0.330212,0.39274 -0.17893,0.346014 -0.573354,0.924395 -0.876949,1.285196 -1.434324,1.7046 0.298256,3.38605 2.39727,2.32647 1.634938,-0.82532 1.688053,-0.81422 1.693953,0.35605 0.0027,0.54551 0.08535,1.33739 0.183451,1.75958 0.178358,0.7676 0.178441,0.76771 -1.367875,0.91261 -1.07843,0.10106 -1.623911,0.2502 -1.801957,0.49351 -0.140411,0.19188 -0.783654,0.60459 -1.429887,0.91726 -1.632658,0.78994 -2.270662,1.47389 -2.270662,2.43447 0,0.83483 0.857908,1.94013 1.145149,1.47536 0.105421,-0.17085 0.220132,-0.17262 0.420647,-0.006 0.215075,0.17849 0.305415,0.0951 0.409277,-0.37775 0.179893,-0.81907 1.009909,-1.27558 1.520837,-0.83664 0.739697,0.63548 1.081747,0.59415 2.763139,-0.3359 1.042069,-0.57641 1.686499,-0.82619 1.740979,-0.67438 0.05427,0.15122 0.2829,0.0606 0.613399,-0.24288 0.428752,-0.39371 0.664469,-0.4575 1.268657,-0.34416 1.547841,0.29038 2.819156,-0.39161 3.490743,-1.87276 0.733598,-1.61791 1.057587,-1.92264 1.511019,-1.42161 0.537009,0.59339 -0.02265,2.98334 -1.207679,5.1573 -1.054052,1.93365 -1.224208,2.04893 -2.919201,1.97043 -0.83059,-0.0385 -1.244858,0.0423 -1.527556,0.29817 -0.213315,0.19305 -0.689554,0.35088 -1.058333,0.35088 -2.011881,0 -3.216068,1.80111 -2.167826,3.2427 v 5.2e-4 c 0.462228,0.63572 0.510302,0.63346 0.918807,-0.0398 0.330786,-0.54515 0.339576,-0.54705 0.480074,-0.10438 0.179163,0.56445 0.450502,0.58047 0.593245,0.0346 0.149212,-0.57059 0.716016,-0.74567 1.148251,-0.3545 0.262986,0.238 0.457257,0.26793 0.733805,0.11317 0.260363,-0.14572 0.464241,-0.13715 0.662492,0.0274 0.222951,0.18503 0.834095,-0.0387 2.755904,-1.00821 1.358126,-0.68517 2.821846,-1.36752 3.252515,-1.51618 0.430668,-0.14866 0.782898,-0.34118 0.782898,-0.42788 0,-0.0867 0.232689,-0.5002 0.516764,-0.91881 0.678397,-0.99968 0.844931,-1.98608 0.527099,-3.12126 -0.220314,-0.78689 -0.204488,-1.12552 0.108004,-2.27996 0.338609,-1.25091 0.344079,-2.87019 0.01085,-3.20342 -0.06881,-0.0688 -1.18038,0.0286 -2.47065,0.21652 -4.797824,0.69865 -7.30797,-0.0919 -10.626741,-3.347082 -0.999108,-0.979952 -1.373776,-1.346971 -1.593702,-1.331184 z"
       style=""
       id="path217"><title
         id="title222">legs</title></path><path
       d="m 13.257072,65.237362 c -1.17826,0.404478 -5.1810727,9.342994 -7.2047283,16.274975 -0.4817098,1.650086 -1.2329567,3.670568 -1.6691487,4.489649 -0.436192,0.81908 -0.8964863,1.989882 -1.0231934,2.601908 -0.2384254,1.151653 -0.8965844,2.258615 -2.3207885,3.904155 -0.82752048,0.956125 -0.82750391,0.956101 -0.41599533,1.728059 0.80226743,1.504993 1.13660763,1.772757 1.32343343,1.058334 0.077687,-0.297077 0.2248087,-0.403356 0.4423503,-0.319877 0.203915,0.07825 0.3255615,0.01011 0.3255615,-0.181901 0,-0.168663 0.1408917,-0.306442 0.3131592,-0.306442 0.1722673,0 0.315868,-0.117409 0.3193603,-0.260966 0.00351,-0.144123 0.1021085,-0.09675 0.2201416,0.105937 0.1175683,0.201888 0.1550568,0.461991 0.083199,0.578259 -0.071858,0.116269 0.1578088,0.603984 0.5105631,1.083655 0.3527544,0.479672 0.6443701,1.111884 0.6480225,1.405082 0.0064,0.513795 0.018199,0.518812 0.3136759,0.128158 0.1686149,-0.22293 0.3064413,-0.669603 0.3064413,-0.992188 0,-0.488587 0.088189,-0.586527 0.5291666,-0.586527 0.4585057,0 0.5007313,-0.05408 0.313676,-0.403593 -0.1780576,-0.332704 -0.1151583,-0.474258 0.3581177,-0.807703 0.8118875,-0.572012 2.2778123,-1.294494 2.6272298,-1.294494 0.1623775,0 0.7202915,-0.237304 1.2397179,-0.527617 1.555357,-0.86931 3.268603,-1.238891 3.622001,-0.781347 0.156997,0.203264 1.246797,1.757013 2.421557,3.453019 2.182911,3.151478 3.103809,3.762265 2.051555,1.360124 -0.425432,-0.971198 -0.823101,-3.986436 -0.991154,-7.513754 -0.103523,-2.172878 -0.121605,-2.239712 -0.642338,-2.413289 -0.535594,-0.178532 -0.535591,-0.178672 0.109037,-0.637687 0.46204,-0.329001 0.684402,-0.691953 0.783932,-1.281059 0.07637,-0.45205 0.272342,-0.932633 0.435632,-1.068152 0.444163,-0.368623 0.359252,-0.612882 -0.212907,-0.612882 -0.682284,0 -0.836456,-0.31433 -0.523999,-1.068669 0.24432,-0.58984 0.215399,-0.671144 -0.501778,-1.405599 -0.422637,-0.43282 -0.761711,-0.990359 -0.761711,-1.253153 0,-0.261038 -0.09307,-0.415552 -0.207739,-0.344682 -0.560521,0.34642 -0.706545,-0.948009 -0.266134,-2.358513 0.738705,-2.365842 0.397267,-3.640189 -0.569991,-2.127518 -0.693103,1.083925 -0.73419,1.113396 -0.79685,0.569991 -0.08656,-0.75065 -0.29221,-0.723233 -1.173055,0.157613 -0.401958,0.401957 -0.827523,0.731221 -0.946196,0.731221 -0.118669,0 -0.216007,0.130726 -0.216007,0.290939 0,0.160212 -0.233187,0.51296 -0.518315,0.783414 -0.285129,0.270456 -0.519932,0.637821 -0.521932,0.816488 -0.002,0.178667 -0.238437,0.643336 -0.525549,1.032495 -1.2240171,1.659062 -0.07178,-5.009519 1.78387,-10.323401 0.679271,-1.945173 1.185546,-3.585739 1.124996,-3.646289 -0.05202,-0.05202 -0.118336,-0.06314 -0.196887,-0.03617 z"
       style=""
       id="path216"><title
         id="title218">head</title></path><path
       d="m 26.060942,73.763973 c 0.340212,0.107185 0.457853,0.660777 0.457853,1.693437 0,1.657655 3.865883,3.251203 5.384167,2.219502 0.925305,-0.628761 1.013177,-0.636371 1.293461,-0.112654 0.191667,0.358132 0.07862,0.498889 -0.901753,1.126029 -0.616302,0.394243 -1.319074,1.037889 -1.561662,1.430404 -0.242587,0.392515 -1.195923,1.345759 -2.118734,2.118217 -1.015177,0.849775 -1.677934,1.561149 -1.677934,1.800924 0,0.577131 0.388214,1.509427 0.828374,1.989542 0.210574,0.22969 0.416743,0.605002 0.458369,0.834058 0.08436,0.464193 1.906898,0.912891 3.783232,0.931209 0.671646,0.0066 1.036659,0.108338 1.114661,0.311609 0.189586,0.494051 5.29694,3.187613 6.343799,3.345532 0.516801,0.07796 1.088413,0.182895 1.270206,0.233578 0.207018,0.05772 0.423915,-0.112083 0.57981,-0.454236 0.246886,-0.541856 0.262044,-0.545177 1.896525,-0.400492 1.627994,0.144109 1.663561,0.136836 2.929537,-0.605132 0.704786,-0.413063 1.308222,-0.750858 1.34152,-0.750858 0.485516,0 0.255358,7.235311 -0.30179,9.485209 -0.901927,3.642199 -0.648835,3.339969 -3.04736,3.644739 -3.231302,0.41058 -3.428785,0.41842 -5.071525,0.2036 -2.371266,-0.31006 -6.862641,-3.770097 -8.929687,-6.878645 -0.54955,-0.826447 -1.128212,-1.455873 -1.401465,-1.524455 -0.820288,-0.205878 -2.343564,-2.723845 -2.796212,-4.62194 -1.00267,-4.204513 -2.775955,-4.806848 -6.619234,-2.248441 -1.044045,0.695002 -1.044134,0.695372 -1.115177,0.117822 -0.03907,-0.317653 -0.179967,-0.652574 -0.313159,-0.744141 -0.168508,-0.115845 -0.09953,-0.266832 0.227376,-0.496093 0.308654,-0.216457 0.469739,-0.543038 0.469739,-0.952397 0,-0.378203 0.247959,-0.936098 0.630452,-1.419035 0.63018,-0.795667 0.630187,-0.795686 -0.05219,-0.942061 -0.961753,-0.206302 -1.005094,-0.254551 -0.771013,-0.870231 0.18317,-0.481774 0.120588,-0.642525 -0.506945,-1.298112 -0.39379,-0.411394 -0.863707,-1.04162 -1.044381,-1.400948 -0.180674,-0.35933 -0.473058,-0.708962 -0.649573,-0.776697 -0.74097,-0.284337 -0.355697,-0.821292 0.49196,-0.685747 0.916164,0.146501 0.919239,0.141494 1.187524,-1.915128 0.119023,-0.9124 0.204039,-1.082122 0.481625,-0.962215 0.185348,0.08007 0.785526,0.209584 1.333768,0.287837 0.548244,0.07825 1.107217,0.25249 1.242302,0.387574 0.633087,0.633088 1.679056,0.28346 3.339331,-1.117245 0.891213,-0.751878 1.453993,-1.091104 1.794206,-0.983919 z"
       style=""
       id="path215"><title
         id="title219">torso</title></path><path
       d="m 71.519149,34.250106 c -0.427965,0.01383 -1.1638,0.148549 -2.254126,0.406177 -2.528136,0.59736 -3.826967,0.665701 -4.311882,0.226859 -0.462304,-0.418379 -8.13434,4.233875 -8.15299,4.943884 -0.02945,1.121441 1.244463,1.469859 3.015319,0.824756 1.237676,-0.450869 2.202061,-0.665075 2.99465,-0.665075 1.455082,0 1.378928,0.06297 -1.898592,1.566829 -2.467461,1.132171 -4.231035,4.223271 -2.23604,3.919141 0.172268,-0.02626 2.051342,-0.394512 4.175973,-0.818038 5.382312,-1.072915 6.335141,-1.104043 8.560201,-0.283187 1.89815,0.700253 3.459445,0.749681 2.914034,0.0925 -0.339359,-0.408903 -0.421103,-0.432193 2.620512,0.743107 2.93616,1.134552 4.446029,1.38611 3.758427,0.626318 -0.878292,-0.9705 1.071742,-0.208734 3.758427,1.468128 1.777376,1.109328 2.770954,1.326933 1.931665,0.422713 -0.525754,-0.566428 0.347104,0.04539 1.931665,1.354439 2.610315,2.156451 3.673052,2.788304 3.410127,2.027266 -0.06943,-0.200978 0.803029,0.540303 1.938383,1.647445 1.839458,1.793748 2.695792,2.476852 3.106787,2.476852 0.07175,0 0.05835,-0.117411 -0.02945,-0.260966 -0.461729,-0.754946 1.391638,1.106526 2.000395,2.009179 0.394165,0.584461 1.154573,1.487099 1.689821,2.006079 0.53524,0.518981 1.5412,1.789479 2.23552,2.823084 1.23065,1.831997 1.67283,2.365168 2.389,2.880444 0.19218,0.138278 0.83203,1.328964 1.42162,2.645834 1.14682,2.561475 1.3137,2.834201 1.9389,3.168798 0.37046,0.198263 0.39119,0.161671 0.2558,-0.454752 -0.17236,-0.784749 -0.10924,-0.763641 1.46348,0.498677 2.04854,1.64424 2.23981,3.06431 0.58084,4.311365 -0.97219,0.730831 -0.97197,0.731034 -0.0455,0.856279 3.04752,0.411972 3.27938,0.308726 3.94757,-1.759066 0.4266,-1.320153 -0.6722,-3.585117 -2.25671,-4.651396 -0.65009,-0.437469 -1.22224,-0.824269 -1.27124,-0.859379 -0.049,-0.03512 0.0903,-0.195343 0.31005,-0.356051 0.38027,-0.278024 0.38227,-0.311699 0.0372,-0.692981 -0.19945,-0.220393 -0.36277,-0.488905 -0.36277,-0.596862 0,-0.107957 -0.93226,-1.125154 -2.07171,-2.260327 -2.07114,-2.063375 -2.07157,-2.063694 -1.62005,-2.42931 0.43985,-0.356152 0.44171,-0.376854 0.0677,-0.790132 -0.2112,-0.233408 -0.32738,-0.516135 -0.25838,-0.627869 0.0691,-0.111733 -0.87311,-0.930736 -2.09341,-1.820044 -2.21873,-1.616923 -2.21877,-1.616617 -1.72341,-2.005045 0.49534,-0.388429 0.49544,-0.388777 0.003,-0.803052 -0.2717,-0.228614 -0.44095,-0.547539 -0.37775,-0.712101 0.0798,-0.208014 -0.5508,-0.686763 -2.08515,-1.581816 -1.95242,-1.138928 -2.158976,-1.313038 -1.83451,-1.550293 0.336069,-0.24574 0.3142,-0.297531 -0.273886,-0.644922 -0.371748,-0.219598 -0.59437,-0.495683 -0.53175,-0.658874 0.06717,-0.175049 -0.156519,-0.389517 -0.593762,-0.569475 -3.991236,-1.642692 -3.958405,-1.6255 -3.697449,-1.939933 0.262779,-0.316629 -0.0395,-0.681863 -0.570508,-0.689363 -0.123959,-0.0018 -0.217873,-0.20495 -0.208773,-0.451652 0.01435,-0.38824 -0.287791,-0.550321 -2.246374,-1.206645 -1.308971,-0.438638 -2.347123,-0.909958 -2.463416,-1.117761 -0.11057,-0.197579 -0.381951,-0.359152 -0.603064,-0.359152 -0.333871,0 -0.381434,-0.104588 -0.279052,-0.616499 0.105327,-0.526631 0.05146,-0.631654 -0.37052,-0.721403 -1.00777,-0.214343 -4.038563,-0.541569 -5.016748,-0.541569 -0.983953,0 -1.010791,-0.01656 -1.010791,-0.626319 0,-0.626426 1.15e-4,-0.626318 -3.357418,-0.626318 -3.357535,0 -3.357434,-1.81e-4 -3.215825,-0.644922 0.139862,-0.63679 -2.531071,-0.765003 -7.416601,-0.356051 -0.684769,0.05732 -0.735187,0.0191 -0.795817,-0.607715 -0.160982,-1.664186 0.94158,-1.922366 3.409094,-0.797884 1.818504,0.82872 1.980241,0.863305 1.980241,0.422714 0,-0.17931 0.187899,-0.31316 0.439766,-0.31316 0.281879,0 0.401566,-0.100355 0.332797,-0.279569 -0.08918,-0.232384 0.163079,-0.230839 1.491381,0.01034 3.014677,0.547364 5.12186,0.686978 5.380551,0.356568 0.654313,-0.835717 4.605898,-0.526615 8.484753,0.663525 0.262884,0.08066 0.330382,0.0237 0.242362,-0.205672 -0.103014,-0.268454 -0.0142,-0.286487 0.575159,-0.115239 0.383596,0.11146 1.919211,0.536423 3.412195,0.944129 5.549069,1.515345 9.284515,2.797453 10.322885,3.543453 0.54957,0.394822 1.90939,1.23333 3.02204,1.863452 2.4066,1.362914 4.38177,3.077858 6.31847,5.48597 0.93084,1.157412 1.67354,1.870151 2.15439,2.068091 0.53595,0.220619 1.29639,1.026889 2.82154,2.990515 2.0826,2.681338 3.65456,4.06743 3.65456,3.223059 0,-0.321473 0.0381,-0.326412 0.36535,-0.04703 0.20098,0.17157 0.97588,0.647864 1.72237,1.058334 2.61876,1.43996 3.1889,2.91445 1.97094,5.097363 -0.39488,0.70773 -0.71778,1.335897 -0.71778,1.396297 0,0.0604 0.93928,-0.277153 2.08772,-0.750342 3.90562,-1.609207 2.67029,-6.391229 -2.13113,-8.248592 -2.12015,-0.820152 -2.1204,-0.819998 -1.45624,-1.212329 0.87617,-0.517566 0.87162,-0.526939 -0.64079,-1.281059 -1.20058,-0.598638 -5.58571,-4.058784 -5.58571,-4.407482 0,-0.08318 0.18786,-0.268418 0.41755,-0.411862 0.61765,-0.385729 0.52871,-0.533323 -0.67851,-1.125512 -0.60294,-0.295764 -1.56621,-0.897859 -2.14044,-1.337903 -0.57422,-0.440046 -1.62908,-1.142978 -2.34404,-1.562179 -1.29992,-0.762183 -1.29979,-0.762398 -0.7829,-1.247986 0.70063,-0.658206 0.66671,-0.739856 -0.46664,-1.126029 -0.54095,-0.18432 -1.60891,-0.706934 -2.3735,-1.161169 -0.7646,-0.454236 -1.84898,-0.926604 -2.40967,-1.049549 -1.90233,-0.41713 -1.86082,-0.383333 -1.25522,-1.015442 0.53448,-0.557874 0.53453,-0.557669 -3.16467,-1.242818 -2.034552,-0.376833 -3.922668,-0.732633 -4.195605,-0.790133 -0.496252,-0.104546 -0.496208,-0.104362 -0.01654,-0.614949 0.647897,-0.689653 -1.304021,-1.050278 -7.473962,-1.381311 -0.872762,-0.04683 -1.251031,-0.552051 -0.678512,-0.905888 0.315585,-0.195042 0.250207,-0.521932 -0.104386,-0.521932 -0.172268,0 -0.313159,-0.10616 -0.313159,-0.235644 0,-0.17149 -1.148684,-0.197621 -4.228683,-0.09715 -3.194925,0.104217 -4.134305,0.08002 -3.843176,-0.09922 1.319832,-0.812584 -0.873659,-1.090925 -3.311426,-0.420129 -2.528058,0.69564 -4.344494,0.851974 -4.154785,0.357601 0.06599,-0.171972 -0.07,-0.332703 -0.341064,-0.403593 -0.251269,-0.06571 -0.388949,-0.216954 -0.311609,-0.342098 0.140249,-0.226927 0.02024,-0.334224 -0.407727,-0.320394 z"
       style=""
       id="path214"><title
         id="title221">wingclaws</title></path><path
       d="m 8.7229818,12.143445 c -0.143163,0.01745 -0.5646527,0.617338 -1.3761434,1.813326 -1.9801229,2.918336 -2.1426805,5.149493 -0.5870443,8.069791 0.5803018,1.089364 1.0587663,2.147734 1.0629842,2.352312 0.00422,0.204578 1.5345963,2.146168 3.4008257,4.314465 1.86623,2.168297 3.393075,3.998729 3.393075,4.067969 0,0.822717 -5.4910386,-1.547828 -5.8652752,-2.532145 -0.3068865,-0.807174 -0.2212491,-1.650449 0.2480469,-2.445846 0.5700151,-0.966104 0.4089303,-0.936518 -1.0572998,0.19172 -1.6600893,1.277409 -1.9153479,3.388611 -0.6438884,5.329907 0.4136999,0.631646 0.8438004,1.310878 0.9554973,1.509468 0.111697,0.19859 1.6067166,1.543883 3.3222782,2.989482 4.71728,3.974966 7.687317,7.517112 7.099825,8.4677 -0.07986,0.12921 -0.0544,0.295163 0.05684,0.368453 0.362395,0.238762 0.891084,2.094783 0.640787,2.249475 -0.150791,0.09319 -0.117653,0.219691 0.09922,0.378272 0.338287,0.247362 0.551178,1.731922 0.305408,2.129586 -0.07726,0.125006 0.04535,0.395065 0.272335,0.60048 0.30683,0.277677 0.412894,0.642979 0.412894,1.423685 0,0.987694 0.06257,1.110124 1.051616,2.06344 0.60375,0.581938 0.989458,1.113797 0.905888,1.24902 -0.08049,0.130238 0.09169,0.430057 0.385506,0.67076 0.781859,0.640528 0.998569,1.471951 0.342098,1.312064 -2.539201,-0.618434 -4.315221,-0.407793 -5.087028,0.604098 -0.671848,0.880837 -0.63787,0.949885 0.359151,0.72502 0.618429,-0.139479 1.276031,-0.01731 3.439583,0.640271 4.772381,1.450498 4.712764,2.721839 -0.144177,3.078882 -1.827327,0.134331 -3.038731,0.6126 -3.220992,1.271757 -0.441605,1.597095 -0.354203,2.010564 0.264583,1.253154 0.591083,-0.723542 2.310369,-1.048182 3.845244,-0.726571 2.772388,0.580913 3.716317,0.946073 3.969783,1.535307 0.131459,0.305604 0.489118,0.931233 0.794784,1.390613 0.53969,0.811092 2.072742,3.741337 2.072742,3.962032 0,0.06029 -0.564085,0.109554 -1.253154,0.109554 -2.124416,0 -1.841226,0.779167 0.613399,1.688785 2.74853,1.01853 2.88565,1.716015 0.222209,1.130164 -2.880638,-0.633625 -2.935542,-0.0321 -0.132808,1.453141 1.954191,1.035577 1.953886,1.035708 3.039091,0.127124 0.596863,-0.499721 1.151109,-0.824857 1.231449,-0.722436 0.08034,0.102422 0.413642,0.48418 0.74104,0.84801 0.724042,0.804609 0.345977,1.622445 -0.860413,1.860868 -0.677093,0.133816 -1.570019,0.98753 -1.984891,1.898076 -0.116454,0.255587 -0.381272,0.493493 -0.588595,0.528133 -1.771667,0.295987 -3.352991,2.698226 -2.529045,3.842143 0.322616,0.447899 0.652462,0.988583 0.732772,1.201477 0.08386,0.222293 0.272253,0.338638 0.44235,0.273368 0.162903,-0.06251 0.4084,0.02163 0.545704,0.187069 0.180678,0.217701 0.729018,0.300757 1.984891,0.300757 1.466544,0 1.75433,0.05652 1.858285,0.365352 0.136754,0.406269 4.668135,3.213519 5.522143,3.42098 1.044895,0.253831 1.74435,0.203592 1.621607,-0.116272 -0.224958,-0.586231 0.846263,-1.015948 2.161625,-0.867131 0.986691,0.111631 1.324608,0.0619 1.90686,-0.281636 0.389229,-0.229651 1.128445,-0.565951 1.642277,-0.747242 0.513833,-0.18129 1.498304,-0.695134 2.187981,-1.141532 0.689675,-0.446398 1.676862,-0.972883 2.193664,-1.169954 1.331233,-0.507638 2.556263,-1.753089 3.018937,-3.069064 0.211088,-0.600391 0.70943,-1.654533 1.106909,-2.342492 0.4627,-0.800843 0.78673,-1.702363 0.900721,-2.505791 0.09792,-0.69018 0.540665,-2.33539 0.983919,-3.656107 0.917734,-2.734479 0.833961,-2.689255 3.477307,-1.866553 1.415638,0.440596 1.501935,0.42118 1.152385,-0.255798 -0.48301,-0.935453 -1.127984,-1.442792 -2.247925,-1.768368 -1.095149,-0.318367 -1.124106,-0.346029 -1.00149,-0.959114 0.06945,-0.347245 0.126608,-0.748776 0.126608,-0.892452 0,-0.207093 0.270206,-0.203372 1.30483,0.0186 3.733253,0.800954 3.992477,0.24647 0.69143,-1.479496 -2.704395,-1.414006 -4.82025,-9.336882 -3.74034,-14.005347 0.05501,-0.237813 -0.04528,-1.058525 -0.222725,-1.823661 -0.229835,-0.99103 -0.263849,-1.546553 -0.117823,-1.930632 0.112745,-0.296532 0.205156,-0.78356 0.205156,-1.082621 0,-0.299062 0.269287,-1.021042 0.598413,-1.604553 0.660689,-1.171341 1.100967,-5.968111 0.54777,-5.968111 -0.500092,0 -1.213088,-1.03824 -1.239717,-1.805058 -0.02616,-0.753227 -0.04912,-0.773201 -1.271757,-1.114144 -0.684705,-0.190935 -1.714525,-0.586993 -2.28875,-0.880566 -0.574224,-0.293574 -1.560984,-0.750209 -2.192631,-1.014409 -0.631647,-0.2642 -1.425655,-0.671161 -1.76475,-0.904854 -0.339094,-0.233692 -1.827912,-0.72459 -3.308325,-1.090373 -1.900279,-0.469523 -2.947203,-0.844974 -3.559989,-1.277958 -0.592203,-0.418438 -1.431781,-0.728738 -2.642733,-0.976168 -0.976181,-0.199459 -2.761328,-0.681262 -3.9672,-1.070735 -3.209939,-1.036748 -6.93343,-2.046354 -7.412984,-2.010214 -0.22969,0.01731 -1.12334,-0.295804 -1.986442,-0.695564 -0.863102,-0.39976 -2.026019,-0.812015 -2.583822,-0.916223 -0.557801,-0.104208 -1.435607,-0.486947 -1.950785,-0.850078 -0.698696,-0.492489 -1.077916,-0.628991 -1.492415,-0.537951 -0.340719,0.07483 -0.715364,9.77e-4 -0.968934,-0.190686 -0.227455,-0.171925 -0.759944,-0.315144 -1.182873,-0.318844 -0.556613,-0.0048 -0.802012,-0.111868 -0.889352,-0.387057 -0.07576,-0.238697 -0.566147,-0.520301 -1.317232,-0.757059 -5.5910389,-1.76242 -8.3635637,-6.004201 -7.0760537,-10.825696 0.302811,-1.133973 0.4382354,-1.699005 0.2950725,-1.681551 z"
       style=""
       id="path213"><title
         id="title220">wings</title></path></g><metadata
     id="metadata17"><rdf:RDF><cc:License
         rdf:about="http://creativecommons.org/licenses/by-nc-sa/4.0/"><cc:permits
           rdf:resource="http://creativecommons.org/ns#Reproduction" /><cc:permits
           rdf:resource="http://creativecommons.org/ns#Distribution" /><cc:requires
           rdf:resource="http://creativecommons.org/ns#Notice" /><cc:requires
           rdf:resource="http://creativecommons.org/ns#Attribution" /><cc:prohibits
           rdf:resource="http://creativecommons.org/ns#CommercialUse" /><cc:permits
           rdf:resource="http://creativecommons.org/ns#DerivativeWorks" /><cc:requires
           rdf:resource="http://creativecommons.org/ns#ShareAlike" /></cc:License><cc:Work
         rdf:about=""><cc:license
           rdf:resource="http://creativecommons.org/licenses/by-nc-sa/4.0/" /><dc:creator><cc:Agent><dc:title>Doriel Rivalet</dc:title></cc:Agent></dc:creator></cc:Work></rdf:RDF></metadata></svg>
