<?xml version="1.0" encoding="UTF-8" standalone="no"?>
<!-- Created with Inkscape (http://www.inkscape.org/) -->

<svg
   width="128mm"
   height="128mm"
   viewBox="0 0 128 128"
   version="1.1"
   id="svg5"
   xml:space="preserve"
   xmlns="http://www.w3.org/2000/svg"
   xmlns:svg="http://www.w3.org/2000/svg"
   xmlns:rdf="http://www.w3.org/1999/02/22-rdf-syntax-ns#"
   xmlns:cc="http://creativecommons.org/ns#"
   xmlns:dc="http://purl.org/dc/elements/1.1/"><defs
     id="defs2"><filter
       style="color-interpolation-filters:sRGB;"
       id="filter2"
       x="0"
       y="0"
       width="1"
       height="1"><feComposite
         in2="SourceGraphic"
         operator="arithmetic"
         k1="0"
         k2="1"
         result="composite1"
         id="feComposite1" /><feColorMatrix
         in="composite1"
         values="1"
         type="saturate"
         result="colormatrix1"
         id="feColorMatrix1" /><feFlood
         flood-opacity="1"
         flood-color="rgb(0,0,0)"
         result="flood1"
         id="feFlood1" /><feBlend
         in="flood1"
         in2="colormatrix1"
         mode="multiply"
         result="blend1"
         id="feBlend1" /><feBlend
         in2="blend1"
         mode="screen"
         result="blend2"
         id="feBlend2" /><feColorMatrix
         in="blend2"
         values="1"
         type="saturate"
         result="colormatrix2"
         id="feColorMatrix2" /><feComposite
         in="colormatrix2"
         in2="SourceGraphic"
         operator="in"
         k2="1"
         result="composite2"
         id="feComposite2" /></filter><filter
       style="color-interpolation-filters:sRGB;"
       id="filter18"
       x="0"
       y="0"
       width="1"
       height="1"><feComposite
         in2="SourceGraphic"
         operator="arithmetic"
         k1="0"
         k2="1"
         result="composite1"
         id="feComposite17" /><feColorMatrix
         in="composite1"
         values="1"
         type="saturate"
         result="colormatrix1"
         id="feColorMatrix17" /><feFlood
         flood-opacity="1"
         flood-color="rgb(0,0,0)"
         result="flood1"
         id="feFlood17" /><feBlend
         in="flood1"
         in2="colormatrix1"
         mode="multiply"
         result="blend1"
         id="feBlend17" /><feBlend
         in2="blend1"
         mode="screen"
         result="blend2"
         id="feBlend18" /><feColorMatrix
         in="blend2"
         values="1"
         type="saturate"
         result="colormatrix2"
         id="feColorMatrix18" /><feComposite
         in="colormatrix2"
         in2="SourceGraphic"
         operator="in"
         k2="1"
         result="composite2"
         id="feComposite18" /></filter><filter
       style="color-interpolation-filters:sRGB;"
       id="filter37"
       x="0"
       y="0"
       width="1"
       height="1"><feComposite
         in2="SourceGraphic"
         operator="arithmetic"
         k1="0"
         k2="1"
         result="composite1"
         id="feComposite36" /><feColorMatrix
         in="composite1"
         values="1"
         type="saturate"
         result="colormatrix1"
         id="feColorMatrix36" /><feFlood
         flood-opacity="1"
         flood-color="rgb(0,0,0)"
         result="flood1"
         id="feFlood36" /><feBlend
         in="flood1"
         in2="colormatrix1"
         mode="multiply"
         result="blend1"
         id="feBlend36" /><feBlend
         in2="blend1"
         mode="screen"
         result="blend2"
         id="feBlend37" /><feColorMatrix
         in="blend2"
         values="1"
         type="saturate"
         result="colormatrix2"
         id="feColorMatrix37" /><feComposite
         in="colormatrix2"
         in2="SourceGraphic"
         operator="in"
         k2="1"
         result="composite2"
         id="feComposite37" /></filter><filter
       style="color-interpolation-filters:sRGB;"
       id="filter51"
       x="0"
       y="0"
       width="1"
       height="1"><feComposite
         in2="SourceGraphic"
         operator="arithmetic"
         k1="0"
         k2="1"
         result="composite1"
         id="feComposite50" /><feColorMatrix
         in="composite1"
         values="1"
         type="saturate"
         result="colormatrix1"
         id="feColorMatrix50" /><feFlood
         flood-opacity="1"
         flood-color="rgb(0,0,0)"
         result="flood1"
         id="feFlood50" /><feBlend
         in="flood1"
         in2="colormatrix1"
         mode="multiply"
         result="blend1"
         id="feBlend50" /><feBlend
         in2="blend1"
         mode="screen"
         result="blend2"
         id="feBlend51" /><feColorMatrix
         in="blend2"
         values="1"
         type="saturate"
         result="colormatrix2"
         id="feColorMatrix51" /><feComposite
         in="colormatrix2"
         in2="SourceGraphic"
         operator="in"
         k2="1"
         result="composite2"
         id="feComposite51" /></filter><filter
       style="color-interpolation-filters:sRGB;"
       id="filter53"
       x="0"
       y="0"
       width="1"
       height="1"><feComposite
         in2="SourceGraphic"
         operator="arithmetic"
         k1="0"
         k2="1"
         result="composite1"
         id="feComposite52" /><feColorMatrix
         in="composite1"
         values="1"
         type="saturate"
         result="colormatrix1"
         id="feColorMatrix52" /><feFlood
         flood-opacity="1"
         flood-color="rgb(0,0,0)"
         result="flood1"
         id="feFlood52" /><feBlend
         in="flood1"
         in2="colormatrix1"
         mode="multiply"
         result="blend1"
         id="feBlend52" /><feBlend
         in2="blend1"
         mode="screen"
         result="blend2"
         id="feBlend53" /><feColorMatrix
         in="blend2"
         values="1"
         type="saturate"
         result="colormatrix2"
         id="feColorMatrix53" /><feComposite
         in="colormatrix2"
         in2="SourceGraphic"
         operator="in"
         k2="1"
         result="composite2"
         id="feComposite53" /></filter><filter
       style="color-interpolation-filters:sRGB;"
       id="filter73"
       x="0"
       y="0"
       width="1"
       height="1"><feComposite
         in2="SourceGraphic"
         operator="arithmetic"
         k1="0"
         k2="1"
         result="composite1"
         id="feComposite72" /><feColorMatrix
         in="composite1"
         values="1"
         type="saturate"
         result="colormatrix1"
         id="feColorMatrix72" /><feFlood
         flood-opacity="1"
         flood-color="rgb(0,0,0)"
         result="flood1"
         id="feFlood72" /><feBlend
         in="flood1"
         in2="colormatrix1"
         mode="multiply"
         result="blend1"
         id="feBlend72" /><feBlend
         in2="blend1"
         mode="screen"
         result="blend2"
         id="feBlend73" /><feColorMatrix
         in="blend2"
         values="1"
         type="saturate"
         result="colormatrix2"
         id="feColorMatrix73" /><feComposite
         in="colormatrix2"
         in2="SourceGraphic"
         operator="in"
         k2="1"
         result="composite2"
         id="feComposite73" /></filter><filter
       style="color-interpolation-filters:sRGB;"
       id="filter88"
       x="0"
       y="0"
       width="1"
       height="1"><feComposite
         in2="SourceGraphic"
         operator="arithmetic"
         k1="0"
         k2="1"
         result="composite1"
         id="feComposite87" /><feColorMatrix
         in="composite1"
         values="1"
         type="saturate"
         result="colormatrix1"
         id="feColorMatrix87" /><feFlood
         flood-opacity="1"
         flood-color="rgb(0,0,0)"
         result="flood1"
         id="feFlood87" /><feBlend
         in="flood1"
         in2="colormatrix1"
         mode="multiply"
         result="blend1"
         id="feBlend87" /><feBlend
         in2="blend1"
         mode="screen"
         result="blend2"
         id="feBlend88" /><feColorMatrix
         in="blend2"
         values="1"
         type="saturate"
         result="colormatrix2"
         id="feColorMatrix88" /><feComposite
         in="colormatrix2"
         in2="SourceGraphic"
         operator="in"
         k2="1"
         result="composite2"
         id="feComposite88" /></filter><filter
       style="color-interpolation-filters:sRGB;"
       id="filter108"
       x="0"
       y="0"
       width="1"
       height="1"><feComposite
         in2="SourceGraphic"
         operator="arithmetic"
         k1="0"
         k2="1"
         result="composite1"
         id="feComposite107" /><feColorMatrix
         in="composite1"
         values="1"
         type="saturate"
         result="colormatrix1"
         id="feColorMatrix107" /><feFlood
         flood-opacity="1"
         flood-color="rgb(0,0,0)"
         result="flood1"
         id="feFlood107" /><feBlend
         in="flood1"
         in2="colormatrix1"
         mode="multiply"
         result="blend1"
         id="feBlend107" /><feBlend
         in2="blend1"
         mode="screen"
         result="blend2"
         id="feBlend108" /><feColorMatrix
         in="blend2"
         values="1"
         type="saturate"
         result="colormatrix2"
         id="feColorMatrix108" /><feComposite
         in="colormatrix2"
         in2="SourceGraphic"
         operator="in"
         k2="1"
         result="composite2"
         id="feComposite108" /></filter><filter
       style="color-interpolation-filters:sRGB;"
       id="filter123"
       x="0"
       y="0"
       width="1"
       height="1"><feComposite
         in2="SourceGraphic"
         operator="arithmetic"
         k1="0"
         k2="1"
         result="composite1"
         id="feComposite122" /><feColorMatrix
         in="composite1"
         values="1"
         type="saturate"
         result="colormatrix1"
         id="feColorMatrix122" /><feFlood
         flood-opacity="1"
         flood-color="rgb(0,0,0)"
         result="flood1"
         id="feFlood122" /><feBlend
         in="flood1"
         in2="colormatrix1"
         mode="multiply"
         result="blend1"
         id="feBlend122" /><feBlend
         in2="blend1"
         mode="screen"
         result="blend2"
         id="feBlend123" /><feColorMatrix
         in="blend2"
         values="1"
         type="saturate"
         result="colormatrix2"
         id="feColorMatrix123" /><feComposite
         in="colormatrix2"
         in2="SourceGraphic"
         operator="in"
         k2="1"
         result="composite2"
         id="feComposite123" /></filter><filter
       style="color-interpolation-filters:sRGB;"
       id="filter137"
       x="0"
       y="0"
       width="1"
       height="1"><feComposite
         in2="SourceGraphic"
         operator="arithmetic"
         k1="0"
         k2="1"
         result="composite1"
         id="feComposite136" /><feColorMatrix
         in="composite1"
         values="1"
         type="saturate"
         result="colormatrix1"
         id="feColorMatrix136" /><feFlood
         flood-opacity="1"
         flood-color="rgb(0,0,0)"
         result="flood1"
         id="feFlood136" /><feBlend
         in="flood1"
         in2="colormatrix1"
         mode="multiply"
         result="blend1"
         id="feBlend136" /><feBlend
         in2="blend1"
         mode="screen"
         result="blend2"
         id="feBlend137" /><feColorMatrix
         in="blend2"
         values="1"
         type="saturate"
         result="colormatrix2"
         id="feColorMatrix137" /><feComposite
         in="colormatrix2"
         in2="SourceGraphic"
         operator="in"
         k2="1"
         result="composite2"
         id="feComposite137" /></filter><filter
       style="color-interpolation-filters:sRGB;"
       id="filter160"
       x="0"
       y="0"
       width="1"
       height="1"><feComposite
         in2="SourceGraphic"
         operator="arithmetic"
         k1="0"
         k2="1"
         result="composite1"
         id="feComposite159" /><feColorMatrix
         in="composite1"
         values="1"
         type="saturate"
         result="colormatrix1"
         id="feColorMatrix159" /><feFlood
         flood-opacity="1"
         flood-color="rgb(0,0,0)"
         result="flood1"
         id="feFlood159" /><feBlend
         in="flood1"
         in2="colormatrix1"
         mode="multiply"
         result="blend1"
         id="feBlend159" /><feBlend
         in2="blend1"
         mode="screen"
         result="blend2"
         id="feBlend160" /><feColorMatrix
         in="blend2"
         values="1"
         type="saturate"
         result="colormatrix2"
         id="feColorMatrix160" /><feComposite
         in="colormatrix2"
         in2="SourceGraphic"
         operator="in"
         k2="1"
         result="composite2"
         id="feComposite160" /></filter><filter
       style="color-interpolation-filters:sRGB;"
       id="filter177"
       x="0"
       y="0"
       width="1"
       height="1"><feComposite
         in2="SourceGraphic"
         operator="arithmetic"
         k1="0"
         k2="1"
         result="composite1"
         id="feComposite176" /><feColorMatrix
         in="composite1"
         values="1"
         type="saturate"
         result="colormatrix1"
         id="feColorMatrix176" /><feFlood
         flood-opacity="1"
         flood-color="rgb(0,0,0)"
         result="flood1"
         id="feFlood176" /><feBlend
         in="flood1"
         in2="colormatrix1"
         mode="multiply"
         result="blend1"
         id="feBlend176" /><feBlend
         in2="blend1"
         mode="screen"
         result="blend2"
         id="feBlend177" /><feColorMatrix
         in="blend2"
         values="1"
         type="saturate"
         result="colormatrix2"
         id="feColorMatrix177" /><feComposite
         in="colormatrix2"
         in2="SourceGraphic"
         operator="in"
         k2="1"
         result="composite2"
         id="feComposite177" /></filter><filter
       style="color-interpolation-filters:sRGB;"
       id="filter198"
       x="0"
       y="0"
       width="1"
       height="1"><feComposite
         in2="SourceGraphic"
         operator="arithmetic"
         k1="0"
         k2="1"
         result="composite1"
         id="feComposite197" /><feColorMatrix
         in="composite1"
         values="1"
         type="saturate"
         result="colormatrix1"
         id="feColorMatrix197" /><feFlood
         flood-opacity="1"
         flood-color="rgb(0,0,0)"
         result="flood1"
         id="feFlood197" /><feBlend
         in="flood1"
         in2="colormatrix1"
         mode="multiply"
         result="blend1"
         id="feBlend197" /><feBlend
         in2="blend1"
         mode="screen"
         result="blend2"
         id="feBlend198" /><feColorMatrix
         in="blend2"
         values="1"
         type="saturate"
         result="colormatrix2"
         id="feColorMatrix198" /><feComposite
         in="colormatrix2"
         in2="SourceGraphic"
         operator="in"
         k2="1"
         result="composite2"
         id="feComposite198" /></filter><filter
       style="color-interpolation-filters:sRGB;"
       id="filter212"
       x="0"
       y="0"
       width="1"
       height="1"><feComposite
         in2="SourceGraphic"
         operator="arithmetic"
         k1="0"
         k2="1"
         result="composite1"
         id="feComposite211" /><feColorMatrix
         in="composite1"
         values="1"
         type="saturate"
         result="colormatrix1"
         id="feColorMatrix211" /><feFlood
         flood-opacity="1"
         flood-color="rgb(0,0,0)"
         result="flood1"
         id="feFlood211" /><feBlend
         in="flood1"
         in2="colormatrix1"
         mode="multiply"
         result="blend1"
         id="feBlend211" /><feBlend
         in2="blend1"
         mode="screen"
         result="blend2"
         id="feBlend212" /><feColorMatrix
         in="blend2"
         values="1"
         type="saturate"
         result="colormatrix2"
         id="feColorMatrix212" /><feComposite
         in="colormatrix2"
         in2="SourceGraphic"
         operator="in"
         k2="1"
         result="composite2"
         id="feComposite212" /></filter><filter
       style="color-interpolation-filters:sRGB;"
       id="filter225"
       x="0"
       y="0"
       width="1"
       height="1"><feComposite
         in2="SourceGraphic"
         operator="arithmetic"
         k1="0"
         k2="1"
         result="composite1"
         id="feComposite224" /><feColorMatrix
         in="composite1"
         values="1"
         type="saturate"
         result="colormatrix1"
         id="feColorMatrix224" /><feFlood
         flood-opacity="1"
         flood-color="rgb(0,0,0)"
         result="flood1"
         id="feFlood224" /><feBlend
         in="flood1"
         in2="colormatrix1"
         mode="multiply"
         result="blend1"
         id="feBlend224" /><feBlend
         in2="blend1"
         mode="screen"
         result="blend2"
         id="feBlend225" /><feColorMatrix
         in="blend2"
         values="1"
         type="saturate"
         result="colormatrix2"
         id="feColorMatrix225" /><feComposite
         in="colormatrix2"
         in2="SourceGraphic"
         operator="in"
         k2="1"
         result="composite2"
         id="feComposite225" /></filter><filter
       style="color-interpolation-filters:sRGB;"
       id="filter244"
       x="0"
       y="0"
       width="1"
       height="1"><feComposite
         in2="SourceGraphic"
         operator="arithmetic"
         k1="0"
         k2="1"
         result="composite1"
         id="feComposite243" /><feColorMatrix
         in="composite1"
         values="1"
         type="saturate"
         result="colormatrix1"
         id="feColorMatrix243" /><feFlood
         flood-opacity="1"
         flood-color="rgb(0,0,0)"
         result="flood1"
         id="feFlood243" /><feBlend
         in="flood1"
         in2="colormatrix1"
         mode="multiply"
         result="blend1"
         id="feBlend243" /><feBlend
         in2="blend1"
         mode="screen"
         result="blend2"
         id="feBlend244" /><feColorMatrix
         in="blend2"
         values="1"
         type="saturate"
         result="colormatrix2"
         id="feColorMatrix244" /><feComposite
         in="colormatrix2"
         in2="SourceGraphic"
         operator="in"
         k2="1"
         result="composite2"
         id="feComposite244" /></filter><filter
       style="color-interpolation-filters:sRGB;"
       id="filter260"
       x="0"
       y="0"
       width="1"
       height="1"><feComposite
         in2="SourceGraphic"
         operator="arithmetic"
         k1="0"
         k2="1"
         result="composite1"
         id="feComposite259" /><feColorMatrix
         in="composite1"
         values="1"
         type="saturate"
         result="colormatrix1"
         id="feColorMatrix259" /><feFlood
         flood-opacity="1"
         flood-color="rgb(0,0,0)"
         result="flood1"
         id="feFlood259" /><feBlend
         in="flood1"
         in2="colormatrix1"
         mode="multiply"
         result="blend1"
         id="feBlend259" /><feBlend
         in2="blend1"
         mode="screen"
         result="blend2"
         id="feBlend260" /><feColorMatrix
         in="blend2"
         values="1"
         type="saturate"
         result="colormatrix2"
         id="feColorMatrix260" /><feComposite
         in="colormatrix2"
         in2="SourceGraphic"
         operator="in"
         k2="1"
         result="composite2"
         id="feComposite260" /></filter><filter
       style="color-interpolation-filters:sRGB;"
       id="filter280"
       x="0"
       y="0"
       width="1"
       height="1"><feComposite
         in2="SourceGraphic"
         operator="arithmetic"
         k1="0"
         k2="1"
         result="composite1"
         id="feComposite279" /><feColorMatrix
         in="composite1"
         values="1"
         type="saturate"
         result="colormatrix1"
         id="feColorMatrix279" /><feFlood
         flood-opacity="1"
         flood-color="rgb(0,0,0)"
         result="flood1"
         id="feFlood279" /><feBlend
         in="flood1"
         in2="colormatrix1"
         mode="multiply"
         result="blend1"
         id="feBlend279" /><feBlend
         in2="blend1"
         mode="screen"
         result="blend2"
         id="feBlend280" /><feColorMatrix
         in="blend2"
         values="1"
         type="saturate"
         result="colormatrix2"
         id="feColorMatrix280" /><feComposite
         in="colormatrix2"
         in2="SourceGraphic"
         operator="in"
         k2="1"
         result="composite2"
         id="feComposite280" /></filter><filter
       style="color-interpolation-filters:sRGB;"
       id="filter290"
       x="0"
       y="0"
       width="1"
       height="1"><feComposite
         in2="SourceGraphic"
         operator="arithmetic"
         k1="0"
         k2="1"
         result="composite1"
         id="feComposite289" /><feColorMatrix
         in="composite1"
         values="1"
         type="saturate"
         result="colormatrix1"
         id="feColorMatrix289" /><feFlood
         flood-opacity="1"
         flood-color="rgb(0,0,0)"
         result="flood1"
         id="feFlood289" /><feBlend
         in="flood1"
         in2="colormatrix1"
         mode="multiply"
         result="blend1"
         id="feBlend289" /><feBlend
         in2="blend1"
         mode="screen"
         result="blend2"
         id="feBlend290" /><feColorMatrix
         in="blend2"
         values="1"
         type="saturate"
         result="colormatrix2"
         id="feColorMatrix290" /><feComposite
         in="colormatrix2"
         in2="SourceGraphic"
         operator="in"
         k2="1"
         result="composite2"
         id="feComposite290" /></filter><filter
       style="color-interpolation-filters:sRGB;"
       id="filter305"
       x="0"
       y="0"
       width="1"
       height="1"><feComposite
         in2="SourceGraphic"
         operator="arithmetic"
         k1="0"
         k2="1"
         result="composite1"
         id="feComposite304" /><feColorMatrix
         in="composite1"
         values="1"
         type="saturate"
         result="colormatrix1"
         id="feColorMatrix304" /><feFlood
         flood-opacity="1"
         flood-color="rgb(0,0,0)"
         result="flood1"
         id="feFlood304" /><feBlend
         in="flood1"
         in2="colormatrix1"
         mode="multiply"
         result="blend1"
         id="feBlend304" /><feBlend
         in2="blend1"
         mode="screen"
         result="blend2"
         id="feBlend305" /><feColorMatrix
         in="blend2"
         values="1"
         type="saturate"
         result="colormatrix2"
         id="feColorMatrix305" /><feComposite
         in="colormatrix2"
         in2="SourceGraphic"
         operator="in"
         k2="1"
         result="composite2"
         id="feComposite305" /></filter></defs><g
     id="layer1"><path
       d="m 116.90759,11.498523 -0.40566,0.07596 -0.40566,0.07545 -0.83819,1.582849 -0.83767,1.583366 -0.26665,1.442806 -0.26665,1.442289 -0.1757,2.989482 -0.17519,2.989481 -0.64027,-0.07235 -0.63975,-0.07183 -0.52504,-0.112138 -0.52451,-0.112138 -0.45837,-0.967899 -0.45837,-0.9679 -1.37511,-2.047937 -1.37459,-2.047937 -1.92082,-1.599902 -1.92029,-1.600419 h -0.0997 -0.10025 l 0.10542,1.344104 0.1049,1.344104 0.27182,1.280025 0.27182,1.280025 0.58704,2.047937 0.58705,2.047937 0.27853,0.720886 0.27854,0.72037 v 0.122473 0.121956 l -1.21646,-0.698148 -1.21595,-0.698149 -1.11828,-0.753959 -1.11879,-0.753959 -1.761653,-0.453202 -1.761133,-0.453203 v 0.185002 0.185518 l 0.989087,2.467033 0.989087,2.46755 1.122932,1.655713 1.12293,1.656229 0.5333,0.249081 0.53278,0.24908 0.9524,1.927014 0.95239,1.927015 -0.30075,0.481624 -0.30076,0.481624 0.81545,2.60811 0.81597,2.608626 h 0.23565 0.23564 l 0.96429,-1.265556 0.96376,-1.265556 0.1633,-0.01447 0.16381,-0.01447 0.17002,0.906921 0.17001,0.907438 -0.16278,0.513147 -0.16278,0.513664 0.41083,0.627352 0.41134,0.627352 h 0.24133 0.24133 l 1.21078,-0.767912 1.2113,-0.767912 h 2.23242 2.23294 l 1.1808,0.505912 1.18081,0.506429 0.15193,-0.762227 0.15244,-0.762227 h 0.10904 0.10852 l 0.75086,0.38809 0.75034,0.38809 1.13998,-2.269629 1.13999,-2.270146 -0.37104,-0.371553 -0.37155,-0.371554 -0.16278,-2.108398 -0.16227,-2.108399 0.69712,-0.728121 0.69763,-0.727604 -0.40566,-2.352828 -0.40618,-2.352311 -0.6537,-2.733683 -0.65371,-2.7342 -0.12971,-0.383956 -0.13022,-0.383956 -0.64441,0.745691 -0.6444,0.745174 -0.22893,-0.361218 -0.22893,-0.361735 -0.004,-0.247531 -0.004,-0.24753 -1.45056,-3.795117 z"
       style=""
       id="path320"><title
         id="title325">tail tip</title></path><path
       d="m 112.76779,41.474471 1.9203,0.0016 1.91978,0.001 1.35806,0.632003 1.35754,0.632002 -0.17984,2.220537 -0.18035,2.220019 0.29456,-0.181901 0.29404,-0.181901 -0.004,0.334863 -0.004,0.33538 -0.37982,1.791622 -0.3793,1.792139 0.004,0.128158 0.004,0.128157 0.23823,-0.376721 0.23823,-0.376721 0.15761,0.15813 0.15813,0.157613 -1.17047,2.330607 -1.17047,2.331124 h 0.38654 0.38654 v 0.205672 0.205672 l -0.79479,1.266589 -0.79478,1.266073 -0.51211,0.557072 -0.51263,0.557589 -0.56948,1.181323 -0.56947,1.18184 -4.16461,4.597135 -4.1646,4.596619 -0.16795,-0.0052 -0.16691,-0.0057 -2.63705,-2.462382 -2.63757,-2.461865 -4.013189,-1.348755 -4.013709,-1.349272 -1.217497,0.462504 -1.217496,0.463021 -1.216464,-2.307353 -1.216463,-2.307352 -1.444873,-1.570964 -1.444873,-1.570447 -1.047481,-0.640271 -1.047481,-0.639754 -0.0067,-0.192236 -0.0067,-0.19172 h 0.278019 0.278019 l 1.833997,-1.267623 1.833996,-1.267622 2.303736,-0.412378 2.304252,-0.412378 0.874882,-0.152446 0.874882,-0.152445 -0.163298,0.424263 -0.162781,0.42478 h 0.08733 0.08785 l 1.120345,-0.481624 1.120345,-0.481107 1.72806,-0.148829 1.728059,-0.149344 v 0.255281 0.255282 l 0.487826,-0.260966 0.487309,-0.260966 1.78852,-0.165882 1.78801,-0.166398 0.17363,0.546737 0.17363,0.54622 1.07074,-0.732255 1.07022,-0.732255 0.83199,-0.426848 0.83199,-0.42633 v 0.174149 0.17415 l 0.54002,-0.487309 0.5395,-0.487825 0.59479,-1.173055 0.5948,-1.172539 0.17467,-1.542541 0.17415,-1.542542 1.44332,-0.931209 z"
       style=""
       id="path319"><title
         id="title326">tail</title></path><path
       d="M 25.371061,-0.01601969 23.117452,0.61805013 20.863843,1.25212 19.911446,2.2722127 18.958533,3.2928223 18.25625,3.374471 l -0.702283,0.081649 -0.200504,0.8960693 -0.200505,0.8955526 0.144694,2.1760946 0.144694,2.1760945 0.491443,4.6079872 0.49196,4.607988 0.230477,1.792138 0.230476,1.792139 1.165304,3.199805 1.164787,3.199804 0.663525,1.49655 0.663009,1.496549 0.639237,-0.418579 0.639238,-0.419096 0.761194,0.449585 0.761193,0.449585 0.0031,0.520899 0.0026,0.520898 0.361735,1.35754 0.361218,1.358057 -0.620634,0.235644 -0.620117,0.236162 -0.0031,0.326078 -0.0026,0.326078 -0.158647,0.960148 -0.158647,0.960148 1.249536,5.17e-4 1.249537,0.001 3.840075,0.382405 3.839559,0.382406 0.922424,0.221175 0.922425,0.221692 0.741557,0.544153 0.741556,0.544669 1.388546,0.260966 1.388546,0.26045 0.12609,0.12609 0.126608,0.126607 h 0.537951 0.538469 l -0.09715,-1.920296 -0.09663,-1.919779 h 0.149862 0.149345 l 0.838191,0.51108 0.838192,0.511079 0.448035,5.17e-4 0.448034,0.001 V 38.530465 38.149093 L 43.141553,34.754468 41.483256,31.359843 40.724646,28.92795 39.966036,26.496057 39.218278,24.575761 38.470003,22.655981 37.125899,19.328019 35.781278,16.000057 33.726107,12.288139 31.670935,8.5762207 30.298926,6.1050537 28.926917,3.6338867 27.839644,2.3409424 26.751855,1.047998 26.061458,0.51624756 Z"
       style=""
       id="path318"><title
         id="title324">horn</title></path><path
       d="m 15.877584,27.392126 -0.989604,1.983859 -0.989604,1.983858 -0.182934,0.767912 -0.182418,0.768428 -1.561662,2.815849 -1.561661,2.815849 -0.9523971,1.295011 -0.9529134,1.294495 -0.5374349,1.265556 -0.5379517,1.265039 0.3503662,1.48363 0.350883,1.484147 0.1524455,0.152446 0.1529622,0.152962 0.3901571,-0.324011 0.390157,-0.324011 v 1.168404 1.168404 l 0.2547648,0.157096 0.2542481,0.157097 0.8976192,-0.684196 0.89762,-0.684713 0.0036,0.350366 0.0041,0.350366 0.236161,0.374138 0.236678,0.37362 0.478007,-0.432532 0.478007,-0.432531 0.341064,0.954463 0.340548,0.954981 0.21394,0.575159 0.214458,0.575675 0.855245,-0.480591 0.855245,-0.480591 0.722953,1.28571 0.722436,1.28571 0.284737,-0.496094 0.284738,-0.496611 0.469738,0.0987 0.470256,0.0987 -0.136943,0.553455 -0.136942,0.552938 -0.28112,1.771468 -0.28112,1.771468 -0.150378,0.276469 -0.149862,0.276469 -0.797884,1.191658 -0.797884,1.192176 -0.896069,0.149345 -0.89607,0.149344 -1.919779,0.0067 -1.920296,0.0062 -0.344165,0.218591 -0.3441655,0.218074 0.4097945,0.73794 0.409277,0.737939 0.406694,0.564824 0.406693,0.56534 -0.599963,0.125057 -0.599964,0.12454 -1.1932086,0.154513 -1.1937255,0.153995 -0.1488282,0.38809 -0.1488281,0.38809 0.3586345,0.693498 0.3586344,0.692981 1.6236735,0.729671 1.623673,0.729155 0.383956,0.187068 0.383956,0.187586 0.077,0.513147 0.077,0.513147 -1.136365,0.156063 -1.136881,0.155546 -1.500167,-0.245463 -1.5006836,-0.24598 -0.3240113,-0.0015 -0.324528,-0.0016 0.673344,1.344104 0.6738606,1.344104 0.3700033,0.420646 0.3700032,0.421163 0.097152,0.769462 0.097668,0.768946 -0.5606893,0.150378 -0.5606893,0.150379 -0.9332764,0.0036 -0.9327596,0.0031 0.2010214,0.890385 0.2005045,0.890385 -0.3302124,0.965833 -0.3302124,0.965832 -0.6893636,0.420647 -0.6898804,0.420646 0.9379273,1.037662 0.9374105,1.037663 1.9202962,1.054199 1.9202962,1.053683 1.0702189,0.211356 1.070219,0.211874 1.69292,0.02791 1.69292,0.02791 1.368908,-0.259415 1.368392,-0.259416 0.664559,-0.636654 0.664042,-0.636136 1.266073,-0.01912 1.266073,-0.01912 1.131197,-0.173116 1.131197,-0.172599 0.182418,-0.640271 0.182934,-0.639755 0.296106,-1.088305 0.296623,-1.087789 1.07797,-0.0021 1.077454,-0.0026 1.282609,-0.153996 1.282609,-0.153996 1.345138,-2.023649 1.345654,-2.023649 0.572058,0.12144 0.572058,0.121439 1.151868,0.148829 1.151867,0.149344 2.944007,0.355018 2.944006,0.355533 0.434599,0.168466 0.434599,0.168465 1.309997,-2.61121 1.310515,-2.610694 0.687296,0.150379 0.687297,0.150378 0.575675,0.164331 0.576192,0.163814 v -1.32705 -1.327051 l 0.483175,0.153479 0.483175,0.152962 7.87032,2.175578 7.869804,2.175578 3.102653,-0.07131 3.102653,-0.07183 L 65.12264,68.284204 59.461487,64.760388 56.829606,60.796289 54.197725,56.83219 H 53.945028 53.69233 l -0.875399,0.541052 -0.875915,0.541052 -0.126091,-0.12609 -0.12609,-0.126091 -0.477491,-2.014864 -0.476973,-2.015381 -0.08733,-0.623217 -0.08682,-0.623218 1.466578,0.06563 1.466577,0.06563 0.23151,-0.143144 0.23151,-0.142627 -1.617472,-3.011702 -1.616955,-3.011186 -2.119768,-1.81591 -2.120284,-1.815909 -0.807186,0.855761 -0.807185,0.856279 h -0.306442 -0.306958 l -0.49506,-0.2651 -0.49506,-0.2651 V 43.37203 42.98549 l -0.319877,0.0615 -0.320394,0.0615 -0.511597,-0.160714 -0.512113,-0.160197 -1.987476,-0.428397 -1.986959,-0.427881 -0.841809,-0.571542 -0.842326,-0.571541 -0.882633,-0.178284 -0.882634,-0.178283 -3.968233,-0.384473 -3.967716,-0.384473 -2.048454,0.04806 -2.047937,0.04806 -0.640271,-0.2651 -0.640271,-0.264583 -0.965833,-1.402498 -0.965832,-1.401982 -0.476974,-1.720308 -0.476973,-1.720309 -0.63717,-0.683679 -0.637171,-0.684196 -0.318843,-2.112016 -0.319361,-2.112016 h -0.09353 z"
       style=""
       id="path317"><title
         id="title323">head</title></path><path
       d="m 30.146997,78.01591 0.322978,0.992187 0.323494,0.991671 2.305286,2.359029 2.305286,2.358513 2.010213,1.339969 2.009696,1.339454 v 0.148828 0.148311 l -0.337964,0.505396 -0.33848,0.504878 -0.57826,1.663981 -0.578776,1.663982 -1.195276,2.402437 -1.195275,2.402954 -3.072164,2.873726 -3.071647,2.873724 -1.632459,1.44333 -1.632458,1.44384 h -1.616439 -1.616439 l -0.15813,-0.25632 -0.158647,-0.2558 h -0.472839 -0.473356 l -0.788582,-0.83199 -0.788583,-0.83199 -1.538924,-1.57975 -1.539441,-1.57975 v -0.932756 -0.933277 l 0.305925,-0.559139 0.306441,-0.559139 0.01447,-2.944006 0.01447,-2.944006 0.560689,-1.21543 0.560689,-1.21543 2.350244,-2.24069 2.350245,-2.24069 0.471289,-1.087789 0.471289,-1.088305 h 0.224792 0.224793 l 0.420646,-0.831991 0.420129,-0.83199 0.269751,-1.087789 0.270268,-1.088306 0.822172,-0.0021 0.821655,-0.0021 1.313615,-0.15813 z"
       style=""
       id="path316"><title
         id="title329">forelegs</title></path><path
       d="m 81.801725,83.455888 h 0.485759 0.485241 l -1.386478,0.961698 -1.386479,0.961699 -0.703833,0.452168 -0.703833,0.452169 v -0.249597 -0.250114 l 0.280086,-0.614949 0.280087,-0.61495 1.324983,-0.548804 z"
       style=""
       id="path323"><title
         id="title330">forelegs</title></path><path
       d="m 67.314237,74.652808 0.09974,0.113688 0.09973,0.113688 1.191142,3.596163 1.191142,3.596163 1.240234,0.926558 1.240752,0.926042 0.182417,1.612305 0.182418,1.612821 0.112655,0.182418 0.113171,0.182934 2.176611,-1.005623 2.177129,-1.00614 h 0.122989 0.123507 v 0.384473 0.383955 h 0.383956 0.383956 l -0.01602,0.19172 -0.0155,0.192236 -1.916162,1.255738 -1.916162,1.256254 0.141077,0.367936 0.141076,0.367419 0.142111,0.566374 0.14211,0.565857 -2.078426,2.629297 -2.078943,2.629297 0.312125,0.376204 0.312126,0.376205 -0.580843,0.40721 -0.58136,0.406693 0.164331,1.238168 0.164331,1.238169 -1.480013,0.75344 -1.479496,0.75396 -1.152384,1.18907 -1.151868,1.1896 -0.896069,0.55242 -0.89607,0.55242 -0.255798,0.21187 -0.255798,0.21187 -1.792139,1.25367 -1.792139,1.25316 -0.842326,0.59066 -0.842842,0.59066 -0.86403,0.65939 -0.864547,0.65939 -0.621667,0.7488 -0.621151,0.74879 -0.159164,0.82062 -0.158646,0.82062 0.439249,-0.16071 0.43925,-0.16123 0.896069,-0.601 0.89607,-0.60151 0.0832,0.81442 0.0832,0.8139 -0.444417,1.17564 -0.443901,1.17512 -1.175122,1.50947 -1.175122,1.50947 -1.172022,1.56269 -1.172021,1.56218 -1.068669,0.96015 -1.068668,0.96015 h -0.280603 -0.280603 l -0.806669,0.36483 -0.80667,0.36484 -2.629296,1.04335 -2.629297,1.04283 -3.642672,5.1e-4 H 34.94412 l -2.176094,0.38344 -2.176095,0.38344 h -0.409794 l -0.409794,5.2e-4 -1.159619,-0.6165 -1.160136,-0.6165 -0.350366,0.0165 -0.350367,0.017 -0.974617,-0.0403 -0.975134,-0.0403 -1.149801,-1.08779 -1.149801,-1.0883 -0.297139,-1.73995 -0.297656,-1.73994 0.310058,-0.49661 0.310059,-0.4961 v -0.89245 -0.89193 l 0.37052,-1.86346 0.370003,-1.86345 0.291972,-1.8495 0.291972,-1.85001 0.937927,-1.90686 0.937927,-1.90738 3.711918,-3.38067 3.711919,-3.38068 1.588016,-1.516698 1.588534,-1.516704 1.995744,-1.022676 1.995744,-1.023194 1.831412,-0.967899 1.83193,-0.968417 0.460954,-0.460953 0.46147,-0.461471 0.773596,-0.325045 0.77308,-0.325561 2.625163,-3.288172 2.625162,-3.288171 0.0047,-1.427303 0.0047,-1.426786 1.119828,-1.44229 1.119829,-1.442289 1.376143,-1.57303 1.376143,-1.573031 1.250053,-0.635103 1.250053,-0.635104 2.183846,0.310059 2.183846,0.310058 1.871204,-0.466121 z"
       style=""
       id="path322"><title
         id="title328">forelegs</title></path><path
       d="m 63.101575,49.664152 -1.790589,0.677995 -1.791105,0.677995 -1.792138,0.60358 -1.791622,0.604098 -0.551388,0.623734 -0.551904,0.623735 -1.368392,0.07855 -1.368392,0.07803 0.06253,1.024227 0.06253,1.023711 0.124023,0.327111 0.124024,0.326595 1.010274,-0.638204 1.010274,-0.637687 0.700216,1.207162 0.699699,1.207161 2.071191,3.147612 2.071192,3.147611 4.352189,2.711463 4.351672,2.710945 2.906283,1.821078 2.906282,1.821077 -4.826062,0.0801 -4.826579,0.0801 -1.407666,-0.289388 -1.408182,-0.288871 -1.151868,-0.348299 -1.151868,-0.3483 -3.45612,-0.933276 -3.456119,-0.933276 -1.151868,-0.347266 -1.151868,-0.347265 -0.800984,-0.159681 -0.800985,-0.159163 -0.178801,1.193209 -0.179317,1.193725 -0.811836,-0.182934 -0.812354,-0.183452 -0.56379,-0.128157 -0.564307,-0.128674 -1.227832,2.480468 -1.227832,2.480469 -1.024226,-0.168982 -1.023711,-0.168465 -3.712434,-0.487309 -3.711919,-0.487309 -0.539502,-0.0052 -0.540018,-0.0047 -0.922941,1.390096 -0.922425,1.390096 0.40566,1.234033 0.406177,1.234033 2.080493,2.131653 2.080493,2.131136 2.249992,1.551327 2.249475,1.55081 0.373104,0.532784 0.373104,0.532267 1.985409,1.575097 1.984891,1.574581 0.42013,-0.216007 0.419612,-0.215491 1.261939,-1.606103 1.261422,-1.606104 0.942578,-1.235583 0.942578,-1.235584 v -1.37511 -1.374593 l 1.314648,-1.741496 1.314132,-1.742012 1.542541,-1.74408 1.542542,-1.744596 1.302763,-0.663525 1.303279,-0.663526 2.431893,0.29869 2.431893,0.29869 2.240174,-0.618567 2.240173,-0.618567 0.0047,0.03979 0.0047,0.03979 1.374076,4.073136 1.374076,4.073653 1.144633,0.83044 1.144633,0.830957 0.164331,0.428915 0.164848,0.428914 v 0.874882 0.875399 h 0.38964 0.389641 l 1.995744,-1.003556 1.995743,-1.003557 2.091862,-5.554183 2.091346,-5.554183 1.723925,-2.703194 1.723409,-2.703711 1.124996,-0.787032 1.125513,-0.786515 0.406177,-0.290938 0.406177,-0.290422 -0.500228,-1.115177 -0.499711,-1.115178 -1.183908,-1.794205 -1.183907,-1.794206 -1.120345,-1.044898 -1.119828,-1.045414 -1.127063,-0.802018 -1.126546,-0.802535 -0.152962,0.08578 -0.153479,0.08527 -1.898593,0.580326 -1.898075,0.580327 -0.305924,-0.41858 -0.305925,-0.418579 h -0.975651 -0.975651 l -0.473356,-0.428397 -0.473356,-0.428398 0.684713,-0.714685 0.684712,-0.714685 -0.615466,-0.237195 -0.615466,-0.236678 -1.480013,-0.657324 -1.48053,-0.657324 -1.114661,-0.91364 -1.11466,-0.913122 -1.643311,-0.153479 -1.64331,-0.153479 -0.805119,0.416512 -0.805119,0.415995 h -0.14056 -0.141077 v -0.512113 -0.511597 h -0.06511 z"
       style=""
       id="path321"><title
         id="title331">torso</title></path><path
       d="m 92.412447,64.727315 0.961699,0.294556 0.961698,0.295072 2.881478,1.034046 2.881478,1.034045 2.75074,2.674256 2.75022,2.674255 -0.6041,0.497127 -0.60462,0.497127 h -0.32401 -0.32453 l -0.30075,0.363286 -0.30128,0.362768 0.76947,1.441773 0.76946,1.442289 0.87488,1.203027 0.8754,1.203028 0.40463,0.7953 0.40462,0.794784 -0.94723,0.28267 -0.94774,0.282153 -0.9555,0.285254 -0.95601,0.284737 -0.51057,0.717786 -0.51108,0.717269 -0.78858,2.144055 -0.78858,2.144055 -0.35037,0.538468 -0.35036,0.538985 0.20153,0.869198 0.20154,0.869198 0.42117,0.994771 0.42167,0.994255 0.88005,0.9741 0.88005,0.974618 0.39791,1.338419 0.39739,1.338937 -0.10697,0.10697 -0.10697,0.10697 -1.17202,-0.68678 -1.17202,-0.686779 v 0.681095 0.680579 l 0.65267,2.607593 0.65268,2.60759 0.23978,0.91468 0.24029,0.91518 0.63872,0.3421 0.63924,0.34158 0.15761,0.49765 0.15813,0.49764 0.55759,0.82114 0.55759,0.82166 0.34417,2.32544 0.34468,2.32492 -0.16433,0.26613 -0.16433,0.26562 -2.71612,-1.64693 -2.71663,-1.64693 h -0.46354 -0.46405 l -0.148312,-0.23926 -0.147794,-0.23926 -0.672311,0.62322 -0.672827,0.62321 h -0.49816 -0.498678 l -1.576131,1.43196 -1.576131,1.43144 -0.686263,0.49299 -0.685747,0.49299 -0.119372,-0.19689 -0.118856,-0.19637 -0.38964,-1.31878 -0.389641,-1.31878 0.22841,-0.98547 0.228927,-0.98495 0.0062,-0.20102 0.0057,-0.20103 -0.511596,0.27389 -0.511597,0.27337 -1.600419,-0.0362 -1.599902,-0.0362 -1.152385,0.25373 -1.151868,0.25425 -1.408182,0.38964 -1.407666,0.38964 -0.448035,0.17932 -0.448035,0.17931 v -0.35191 -0.35192 l 0.603581,-0.89142 0.604098,-0.89142 0.169498,-0.5395 0.170016,-0.5395 1.722375,-1.65933 1.722376,-1.65933 1.044897,-0.16536 1.044898,-0.16537 0.466638,-0.51573 0.466638,-0.51625 h 1.187008 1.187007 l 0.639754,-1.34358 0.639238,-1.34411 -0.09457,-0.595311 -0.09405,-0.595829 -1.457275,1.55546 -1.457276,1.55546 -1.338419,0.032 -1.33842,0.032 -0.448035,0.032 -0.448034,0.032 -0.175183,-1.77095 -0.174667,-1.770437 -0.141593,-0.563273 -0.141077,-0.562757 -1.347721,-1.155485 -1.347722,-1.156001 -1.521871,-1.556495 -1.52187,-1.556494 -0.557589,0.949813 -0.557589,0.949813 -0.540019,1.920296 -0.540018,1.91978 -0.270268,1.088305 -0.270785,1.087785 h -0.21239 -0.212907 l -0.289388,-2.257222 -0.289388,-2.257227 v -1.39268 -1.392163 l 0.238229,-0.83044 0.238228,-0.83044 h -0.482141 -0.482141 l -0.262,-0.948263 -0.261999,-0.948779 0.314193,-0.181901 0.313675,-0.181901 4.53099,-3.149162 4.530473,-3.149679 -0.06149,-0.0615 -0.0615,-0.06149 -1.908927,-0.23306 -1.909445,-0.233578 -0.69143,0.350883 -0.691431,0.350366 H 79.904683 79.65612 l 0.843876,-2.112015 0.843876,-2.111499 0.975651,-2.688208 0.975651,-2.688208 1.533757,-2.431893 1.533239,-2.431893 0.358635,-0.425814 0.358634,-0.425814 1.452108,-0.991154 1.452625,-0.991154 1.213879,-0.459403 z"
       style=""
       id="path314"><title
         id="title327">legs</title></path></g><metadata
     id="metadata17"><rdf:RDF><cc:License
         rdf:about="http://creativecommons.org/licenses/by-nc-sa/4.0/"><cc:permits
           rdf:resource="http://creativecommons.org/ns#Reproduction" /><cc:permits
           rdf:resource="http://creativecommons.org/ns#Distribution" /><cc:requires
           rdf:resource="http://creativecommons.org/ns#Notice" /><cc:requires
           rdf:resource="http://creativecommons.org/ns#Attribution" /><cc:prohibits
           rdf:resource="http://creativecommons.org/ns#CommercialUse" /><cc:permits
           rdf:resource="http://creativecommons.org/ns#DerivativeWorks" /><cc:requires
           rdf:resource="http://creativecommons.org/ns#ShareAlike" /></cc:License><cc:Work
         rdf:about=""><cc:license
           rdf:resource="http://creativecommons.org/licenses/by-nc-sa/4.0/" /><dc:creator><cc:Agent><dc:title>Doriel Rivalet</dc:title></cc:Agent></dc:creator></cc:Work></rdf:RDF></metadata></svg>
