<?xml version="1.0" encoding="UTF-8" standalone="no"?>
<!-- Created with Inkscape (http://www.inkscape.org/) -->

<svg
   width="128mm"
   height="128mm"
   viewBox="0 0 128 128"
   version="1.1"
   id="svg5"
   xml:space="preserve"
   xmlns="http://www.w3.org/2000/svg"
   xmlns:svg="http://www.w3.org/2000/svg"
   xmlns:rdf="http://www.w3.org/1999/02/22-rdf-syntax-ns#"
   xmlns:cc="http://creativecommons.org/ns#"
   xmlns:dc="http://purl.org/dc/elements/1.1/"><defs
     id="defs2"><filter
       style="color-interpolation-filters:sRGB;"
       id="filter2"
       x="0"
       y="0"
       width="1"
       height="1"><feComposite
         in2="SourceGraphic"
         operator="arithmetic"
         k1="0"
         k2="1"
         result="composite1"
         id="feComposite1" /><feColorMatrix
         in="composite1"
         values="1"
         type="saturate"
         result="colormatrix1"
         id="feColorMatrix1" /><feFlood
         flood-opacity="1"
         flood-color="rgb(0,0,0)"
         result="flood1"
         id="feFlood1" /><feBlend
         in="flood1"
         in2="colormatrix1"
         mode="multiply"
         result="blend1"
         id="feBlend1" /><feBlend
         in2="blend1"
         mode="screen"
         result="blend2"
         id="feBlend2" /><feColorMatrix
         in="blend2"
         values="1"
         type="saturate"
         result="colormatrix2"
         id="feColorMatrix2" /><feComposite
         in="colormatrix2"
         in2="SourceGraphic"
         operator="in"
         k2="1"
         result="composite2"
         id="feComposite2" /></filter><filter
       style="color-interpolation-filters:sRGB;"
       id="filter18"
       x="0"
       y="0"
       width="1"
       height="1"><feComposite
         in2="SourceGraphic"
         operator="arithmetic"
         k1="0"
         k2="1"
         result="composite1"
         id="feComposite17" /><feColorMatrix
         in="composite1"
         values="1"
         type="saturate"
         result="colormatrix1"
         id="feColorMatrix17" /><feFlood
         flood-opacity="1"
         flood-color="rgb(0,0,0)"
         result="flood1"
         id="feFlood17" /><feBlend
         in="flood1"
         in2="colormatrix1"
         mode="multiply"
         result="blend1"
         id="feBlend17" /><feBlend
         in2="blend1"
         mode="screen"
         result="blend2"
         id="feBlend18" /><feColorMatrix
         in="blend2"
         values="1"
         type="saturate"
         result="colormatrix2"
         id="feColorMatrix18" /><feComposite
         in="colormatrix2"
         in2="SourceGraphic"
         operator="in"
         k2="1"
         result="composite2"
         id="feComposite18" /></filter><filter
       style="color-interpolation-filters:sRGB;"
       id="filter37"
       x="0"
       y="0"
       width="1"
       height="1"><feComposite
         in2="SourceGraphic"
         operator="arithmetic"
         k1="0"
         k2="1"
         result="composite1"
         id="feComposite36" /><feColorMatrix
         in="composite1"
         values="1"
         type="saturate"
         result="colormatrix1"
         id="feColorMatrix36" /><feFlood
         flood-opacity="1"
         flood-color="rgb(0,0,0)"
         result="flood1"
         id="feFlood36" /><feBlend
         in="flood1"
         in2="colormatrix1"
         mode="multiply"
         result="blend1"
         id="feBlend36" /><feBlend
         in2="blend1"
         mode="screen"
         result="blend2"
         id="feBlend37" /><feColorMatrix
         in="blend2"
         values="1"
         type="saturate"
         result="colormatrix2"
         id="feColorMatrix37" /><feComposite
         in="colormatrix2"
         in2="SourceGraphic"
         operator="in"
         k2="1"
         result="composite2"
         id="feComposite37" /></filter><filter
       style="color-interpolation-filters:sRGB;"
       id="filter51"
       x="0"
       y="0"
       width="1"
       height="1"><feComposite
         in2="SourceGraphic"
         operator="arithmetic"
         k1="0"
         k2="1"
         result="composite1"
         id="feComposite50" /><feColorMatrix
         in="composite1"
         values="1"
         type="saturate"
         result="colormatrix1"
         id="feColorMatrix50" /><feFlood
         flood-opacity="1"
         flood-color="rgb(0,0,0)"
         result="flood1"
         id="feFlood50" /><feBlend
         in="flood1"
         in2="colormatrix1"
         mode="multiply"
         result="blend1"
         id="feBlend50" /><feBlend
         in2="blend1"
         mode="screen"
         result="blend2"
         id="feBlend51" /><feColorMatrix
         in="blend2"
         values="1"
         type="saturate"
         result="colormatrix2"
         id="feColorMatrix51" /><feComposite
         in="colormatrix2"
         in2="SourceGraphic"
         operator="in"
         k2="1"
         result="composite2"
         id="feComposite51" /></filter><filter
       style="color-interpolation-filters:sRGB;"
       id="filter53"
       x="0"
       y="0"
       width="1"
       height="1"><feComposite
         in2="SourceGraphic"
         operator="arithmetic"
         k1="0"
         k2="1"
         result="composite1"
         id="feComposite52" /><feColorMatrix
         in="composite1"
         values="1"
         type="saturate"
         result="colormatrix1"
         id="feColorMatrix52" /><feFlood
         flood-opacity="1"
         flood-color="rgb(0,0,0)"
         result="flood1"
         id="feFlood52" /><feBlend
         in="flood1"
         in2="colormatrix1"
         mode="multiply"
         result="blend1"
         id="feBlend52" /><feBlend
         in2="blend1"
         mode="screen"
         result="blend2"
         id="feBlend53" /><feColorMatrix
         in="blend2"
         values="1"
         type="saturate"
         result="colormatrix2"
         id="feColorMatrix53" /><feComposite
         in="colormatrix2"
         in2="SourceGraphic"
         operator="in"
         k2="1"
         result="composite2"
         id="feComposite53" /></filter><filter
       style="color-interpolation-filters:sRGB;"
       id="filter73"
       x="0"
       y="0"
       width="1"
       height="1"><feComposite
         in2="SourceGraphic"
         operator="arithmetic"
         k1="0"
         k2="1"
         result="composite1"
         id="feComposite72" /><feColorMatrix
         in="composite1"
         values="1"
         type="saturate"
         result="colormatrix1"
         id="feColorMatrix72" /><feFlood
         flood-opacity="1"
         flood-color="rgb(0,0,0)"
         result="flood1"
         id="feFlood72" /><feBlend
         in="flood1"
         in2="colormatrix1"
         mode="multiply"
         result="blend1"
         id="feBlend72" /><feBlend
         in2="blend1"
         mode="screen"
         result="blend2"
         id="feBlend73" /><feColorMatrix
         in="blend2"
         values="1"
         type="saturate"
         result="colormatrix2"
         id="feColorMatrix73" /><feComposite
         in="colormatrix2"
         in2="SourceGraphic"
         operator="in"
         k2="1"
         result="composite2"
         id="feComposite73" /></filter><filter
       style="color-interpolation-filters:sRGB;"
       id="filter88"
       x="0"
       y="0"
       width="1"
       height="1"><feComposite
         in2="SourceGraphic"
         operator="arithmetic"
         k1="0"
         k2="1"
         result="composite1"
         id="feComposite87" /><feColorMatrix
         in="composite1"
         values="1"
         type="saturate"
         result="colormatrix1"
         id="feColorMatrix87" /><feFlood
         flood-opacity="1"
         flood-color="rgb(0,0,0)"
         result="flood1"
         id="feFlood87" /><feBlend
         in="flood1"
         in2="colormatrix1"
         mode="multiply"
         result="blend1"
         id="feBlend87" /><feBlend
         in2="blend1"
         mode="screen"
         result="blend2"
         id="feBlend88" /><feColorMatrix
         in="blend2"
         values="1"
         type="saturate"
         result="colormatrix2"
         id="feColorMatrix88" /><feComposite
         in="colormatrix2"
         in2="SourceGraphic"
         operator="in"
         k2="1"
         result="composite2"
         id="feComposite88" /></filter><filter
       style="color-interpolation-filters:sRGB;"
       id="filter108"
       x="0"
       y="0"
       width="1"
       height="1"><feComposite
         in2="SourceGraphic"
         operator="arithmetic"
         k1="0"
         k2="1"
         result="composite1"
         id="feComposite107" /><feColorMatrix
         in="composite1"
         values="1"
         type="saturate"
         result="colormatrix1"
         id="feColorMatrix107" /><feFlood
         flood-opacity="1"
         flood-color="rgb(0,0,0)"
         result="flood1"
         id="feFlood107" /><feBlend
         in="flood1"
         in2="colormatrix1"
         mode="multiply"
         result="blend1"
         id="feBlend107" /><feBlend
         in2="blend1"
         mode="screen"
         result="blend2"
         id="feBlend108" /><feColorMatrix
         in="blend2"
         values="1"
         type="saturate"
         result="colormatrix2"
         id="feColorMatrix108" /><feComposite
         in="colormatrix2"
         in2="SourceGraphic"
         operator="in"
         k2="1"
         result="composite2"
         id="feComposite108" /></filter><filter
       style="color-interpolation-filters:sRGB;"
       id="filter123"
       x="0"
       y="0"
       width="1"
       height="1"><feComposite
         in2="SourceGraphic"
         operator="arithmetic"
         k1="0"
         k2="1"
         result="composite1"
         id="feComposite122" /><feColorMatrix
         in="composite1"
         values="1"
         type="saturate"
         result="colormatrix1"
         id="feColorMatrix122" /><feFlood
         flood-opacity="1"
         flood-color="rgb(0,0,0)"
         result="flood1"
         id="feFlood122" /><feBlend
         in="flood1"
         in2="colormatrix1"
         mode="multiply"
         result="blend1"
         id="feBlend122" /><feBlend
         in2="blend1"
         mode="screen"
         result="blend2"
         id="feBlend123" /><feColorMatrix
         in="blend2"
         values="1"
         type="saturate"
         result="colormatrix2"
         id="feColorMatrix123" /><feComposite
         in="colormatrix2"
         in2="SourceGraphic"
         operator="in"
         k2="1"
         result="composite2"
         id="feComposite123" /></filter><filter
       style="color-interpolation-filters:sRGB;"
       id="filter137"
       x="0"
       y="0"
       width="1"
       height="1"><feComposite
         in2="SourceGraphic"
         operator="arithmetic"
         k1="0"
         k2="1"
         result="composite1"
         id="feComposite136" /><feColorMatrix
         in="composite1"
         values="1"
         type="saturate"
         result="colormatrix1"
         id="feColorMatrix136" /><feFlood
         flood-opacity="1"
         flood-color="rgb(0,0,0)"
         result="flood1"
         id="feFlood136" /><feBlend
         in="flood1"
         in2="colormatrix1"
         mode="multiply"
         result="blend1"
         id="feBlend136" /><feBlend
         in2="blend1"
         mode="screen"
         result="blend2"
         id="feBlend137" /><feColorMatrix
         in="blend2"
         values="1"
         type="saturate"
         result="colormatrix2"
         id="feColorMatrix137" /><feComposite
         in="colormatrix2"
         in2="SourceGraphic"
         operator="in"
         k2="1"
         result="composite2"
         id="feComposite137" /></filter><filter
       style="color-interpolation-filters:sRGB;"
       id="filter160"
       x="0"
       y="0"
       width="1"
       height="1"><feComposite
         in2="SourceGraphic"
         operator="arithmetic"
         k1="0"
         k2="1"
         result="composite1"
         id="feComposite159" /><feColorMatrix
         in="composite1"
         values="1"
         type="saturate"
         result="colormatrix1"
         id="feColorMatrix159" /><feFlood
         flood-opacity="1"
         flood-color="rgb(0,0,0)"
         result="flood1"
         id="feFlood159" /><feBlend
         in="flood1"
         in2="colormatrix1"
         mode="multiply"
         result="blend1"
         id="feBlend159" /><feBlend
         in2="blend1"
         mode="screen"
         result="blend2"
         id="feBlend160" /><feColorMatrix
         in="blend2"
         values="1"
         type="saturate"
         result="colormatrix2"
         id="feColorMatrix160" /><feComposite
         in="colormatrix2"
         in2="SourceGraphic"
         operator="in"
         k2="1"
         result="composite2"
         id="feComposite160" /></filter><filter
       style="color-interpolation-filters:sRGB;"
       id="filter177"
       x="0"
       y="0"
       width="1"
       height="1"><feComposite
         in2="SourceGraphic"
         operator="arithmetic"
         k1="0"
         k2="1"
         result="composite1"
         id="feComposite176" /><feColorMatrix
         in="composite1"
         values="1"
         type="saturate"
         result="colormatrix1"
         id="feColorMatrix176" /><feFlood
         flood-opacity="1"
         flood-color="rgb(0,0,0)"
         result="flood1"
         id="feFlood176" /><feBlend
         in="flood1"
         in2="colormatrix1"
         mode="multiply"
         result="blend1"
         id="feBlend176" /><feBlend
         in2="blend1"
         mode="screen"
         result="blend2"
         id="feBlend177" /><feColorMatrix
         in="blend2"
         values="1"
         type="saturate"
         result="colormatrix2"
         id="feColorMatrix177" /><feComposite
         in="colormatrix2"
         in2="SourceGraphic"
         operator="in"
         k2="1"
         result="composite2"
         id="feComposite177" /></filter><filter
       style="color-interpolation-filters:sRGB;"
       id="filter198"
       x="0"
       y="0"
       width="1"
       height="1"><feComposite
         in2="SourceGraphic"
         operator="arithmetic"
         k1="0"
         k2="1"
         result="composite1"
         id="feComposite197" /><feColorMatrix
         in="composite1"
         values="1"
         type="saturate"
         result="colormatrix1"
         id="feColorMatrix197" /><feFlood
         flood-opacity="1"
         flood-color="rgb(0,0,0)"
         result="flood1"
         id="feFlood197" /><feBlend
         in="flood1"
         in2="colormatrix1"
         mode="multiply"
         result="blend1"
         id="feBlend197" /><feBlend
         in2="blend1"
         mode="screen"
         result="blend2"
         id="feBlend198" /><feColorMatrix
         in="blend2"
         values="1"
         type="saturate"
         result="colormatrix2"
         id="feColorMatrix198" /><feComposite
         in="colormatrix2"
         in2="SourceGraphic"
         operator="in"
         k2="1"
         result="composite2"
         id="feComposite198" /></filter><filter
       style="color-interpolation-filters:sRGB;"
       id="filter212"
       x="0"
       y="0"
       width="1"
       height="1"><feComposite
         in2="SourceGraphic"
         operator="arithmetic"
         k1="0"
         k2="1"
         result="composite1"
         id="feComposite211" /><feColorMatrix
         in="composite1"
         values="1"
         type="saturate"
         result="colormatrix1"
         id="feColorMatrix211" /><feFlood
         flood-opacity="1"
         flood-color="rgb(0,0,0)"
         result="flood1"
         id="feFlood211" /><feBlend
         in="flood1"
         in2="colormatrix1"
         mode="multiply"
         result="blend1"
         id="feBlend211" /><feBlend
         in2="blend1"
         mode="screen"
         result="blend2"
         id="feBlend212" /><feColorMatrix
         in="blend2"
         values="1"
         type="saturate"
         result="colormatrix2"
         id="feColorMatrix212" /><feComposite
         in="colormatrix2"
         in2="SourceGraphic"
         operator="in"
         k2="1"
         result="composite2"
         id="feComposite212" /></filter><filter
       style="color-interpolation-filters:sRGB;"
       id="filter225"
       x="0"
       y="0"
       width="1"
       height="1"><feComposite
         in2="SourceGraphic"
         operator="arithmetic"
         k1="0"
         k2="1"
         result="composite1"
         id="feComposite224" /><feColorMatrix
         in="composite1"
         values="1"
         type="saturate"
         result="colormatrix1"
         id="feColorMatrix224" /><feFlood
         flood-opacity="1"
         flood-color="rgb(0,0,0)"
         result="flood1"
         id="feFlood224" /><feBlend
         in="flood1"
         in2="colormatrix1"
         mode="multiply"
         result="blend1"
         id="feBlend224" /><feBlend
         in2="blend1"
         mode="screen"
         result="blend2"
         id="feBlend225" /><feColorMatrix
         in="blend2"
         values="1"
         type="saturate"
         result="colormatrix2"
         id="feColorMatrix225" /><feComposite
         in="colormatrix2"
         in2="SourceGraphic"
         operator="in"
         k2="1"
         result="composite2"
         id="feComposite225" /></filter><filter
       style="color-interpolation-filters:sRGB;"
       id="filter244"
       x="0"
       y="0"
       width="1"
       height="1"><feComposite
         in2="SourceGraphic"
         operator="arithmetic"
         k1="0"
         k2="1"
         result="composite1"
         id="feComposite243" /><feColorMatrix
         in="composite1"
         values="1"
         type="saturate"
         result="colormatrix1"
         id="feColorMatrix243" /><feFlood
         flood-opacity="1"
         flood-color="rgb(0,0,0)"
         result="flood1"
         id="feFlood243" /><feBlend
         in="flood1"
         in2="colormatrix1"
         mode="multiply"
         result="blend1"
         id="feBlend243" /><feBlend
         in2="blend1"
         mode="screen"
         result="blend2"
         id="feBlend244" /><feColorMatrix
         in="blend2"
         values="1"
         type="saturate"
         result="colormatrix2"
         id="feColorMatrix244" /><feComposite
         in="colormatrix2"
         in2="SourceGraphic"
         operator="in"
         k2="1"
         result="composite2"
         id="feComposite244" /></filter><filter
       style="color-interpolation-filters:sRGB;"
       id="filter260"
       x="0"
       y="0"
       width="1"
       height="1"><feComposite
         in2="SourceGraphic"
         operator="arithmetic"
         k1="0"
         k2="1"
         result="composite1"
         id="feComposite259" /><feColorMatrix
         in="composite1"
         values="1"
         type="saturate"
         result="colormatrix1"
         id="feColorMatrix259" /><feFlood
         flood-opacity="1"
         flood-color="rgb(0,0,0)"
         result="flood1"
         id="feFlood259" /><feBlend
         in="flood1"
         in2="colormatrix1"
         mode="multiply"
         result="blend1"
         id="feBlend259" /><feBlend
         in2="blend1"
         mode="screen"
         result="blend2"
         id="feBlend260" /><feColorMatrix
         in="blend2"
         values="1"
         type="saturate"
         result="colormatrix2"
         id="feColorMatrix260" /><feComposite
         in="colormatrix2"
         in2="SourceGraphic"
         operator="in"
         k2="1"
         result="composite2"
         id="feComposite260" /></filter><filter
       style="color-interpolation-filters:sRGB;"
       id="filter280"
       x="0"
       y="0"
       width="1"
       height="1"><feComposite
         in2="SourceGraphic"
         operator="arithmetic"
         k1="0"
         k2="1"
         result="composite1"
         id="feComposite279" /><feColorMatrix
         in="composite1"
         values="1"
         type="saturate"
         result="colormatrix1"
         id="feColorMatrix279" /><feFlood
         flood-opacity="1"
         flood-color="rgb(0,0,0)"
         result="flood1"
         id="feFlood279" /><feBlend
         in="flood1"
         in2="colormatrix1"
         mode="multiply"
         result="blend1"
         id="feBlend279" /><feBlend
         in2="blend1"
         mode="screen"
         result="blend2"
         id="feBlend280" /><feColorMatrix
         in="blend2"
         values="1"
         type="saturate"
         result="colormatrix2"
         id="feColorMatrix280" /><feComposite
         in="colormatrix2"
         in2="SourceGraphic"
         operator="in"
         k2="1"
         result="composite2"
         id="feComposite280" /></filter><filter
       style="color-interpolation-filters:sRGB;"
       id="filter290"
       x="0"
       y="0"
       width="1"
       height="1"><feComposite
         in2="SourceGraphic"
         operator="arithmetic"
         k1="0"
         k2="1"
         result="composite1"
         id="feComposite289" /><feColorMatrix
         in="composite1"
         values="1"
         type="saturate"
         result="colormatrix1"
         id="feColorMatrix289" /><feFlood
         flood-opacity="1"
         flood-color="rgb(0,0,0)"
         result="flood1"
         id="feFlood289" /><feBlend
         in="flood1"
         in2="colormatrix1"
         mode="multiply"
         result="blend1"
         id="feBlend289" /><feBlend
         in2="blend1"
         mode="screen"
         result="blend2"
         id="feBlend290" /><feColorMatrix
         in="blend2"
         values="1"
         type="saturate"
         result="colormatrix2"
         id="feColorMatrix290" /><feComposite
         in="colormatrix2"
         in2="SourceGraphic"
         operator="in"
         k2="1"
         result="composite2"
         id="feComposite290" /></filter><filter
       style="color-interpolation-filters:sRGB;"
       id="filter305"
       x="0"
       y="0"
       width="1"
       height="1"><feComposite
         in2="SourceGraphic"
         operator="arithmetic"
         k1="0"
         k2="1"
         result="composite1"
         id="feComposite304" /><feColorMatrix
         in="composite1"
         values="1"
         type="saturate"
         result="colormatrix1"
         id="feColorMatrix304" /><feFlood
         flood-opacity="1"
         flood-color="rgb(0,0,0)"
         result="flood1"
         id="feFlood304" /><feBlend
         in="flood1"
         in2="colormatrix1"
         mode="multiply"
         result="blend1"
         id="feBlend304" /><feBlend
         in2="blend1"
         mode="screen"
         result="blend2"
         id="feBlend305" /><feColorMatrix
         in="blend2"
         values="1"
         type="saturate"
         result="colormatrix2"
         id="feColorMatrix305" /><feComposite
         in="colormatrix2"
         in2="SourceGraphic"
         operator="in"
         k2="1"
         result="composite2"
         id="feComposite305" /></filter><filter
       style="color-interpolation-filters:sRGB;"
       id="filter332"
       x="0"
       y="0"
       width="1"
       height="1"><feComposite
         in2="SourceGraphic"
         operator="arithmetic"
         k1="0"
         k2="1"
         result="composite1"
         id="feComposite331" /><feColorMatrix
         in="composite1"
         values="1"
         type="saturate"
         result="colormatrix1"
         id="feColorMatrix331" /><feFlood
         flood-opacity="1"
         flood-color="rgb(0,0,0)"
         result="flood1"
         id="feFlood331" /><feBlend
         in="flood1"
         in2="colormatrix1"
         mode="multiply"
         result="blend1"
         id="feBlend331" /><feBlend
         in2="blend1"
         mode="screen"
         result="blend2"
         id="feBlend332" /><feColorMatrix
         in="blend2"
         values="1"
         type="saturate"
         result="colormatrix2"
         id="feColorMatrix332" /><feComposite
         in="colormatrix2"
         in2="SourceGraphic"
         operator="in"
         k2="1"
         result="composite2"
         id="feComposite332" /></filter><filter
       style="color-interpolation-filters:sRGB;"
       id="filter346"
       x="0"
       y="0"
       width="1"
       height="1"><feComposite
         in2="SourceGraphic"
         operator="arithmetic"
         k1="0"
         k2="1"
         result="composite1"
         id="feComposite345" /><feColorMatrix
         in="composite1"
         values="1"
         type="saturate"
         result="colormatrix1"
         id="feColorMatrix345" /><feFlood
         flood-opacity="1"
         flood-color="rgb(0,0,0)"
         result="flood1"
         id="feFlood345" /><feBlend
         in="flood1"
         in2="colormatrix1"
         mode="multiply"
         result="blend1"
         id="feBlend345" /><feBlend
         in2="blend1"
         mode="screen"
         result="blend2"
         id="feBlend346" /><feColorMatrix
         in="blend2"
         values="1"
         type="saturate"
         result="colormatrix2"
         id="feColorMatrix346" /><feComposite
         in="colormatrix2"
         in2="SourceGraphic"
         operator="in"
         k2="1"
         result="composite2"
         id="feComposite346" /></filter><filter
       style="color-interpolation-filters:sRGB;"
       id="filter350"
       x="0"
       y="0"
       width="1"
       height="1"><feComposite
         in2="SourceGraphic"
         operator="arithmetic"
         k1="0"
         k2="1"
         result="composite1"
         id="feComposite349" /><feColorMatrix
         in="composite1"
         values="1"
         type="saturate"
         result="colormatrix1"
         id="feColorMatrix349" /><feFlood
         flood-opacity="1"
         flood-color="rgb(0,0,0)"
         result="flood1"
         id="feFlood349" /><feBlend
         in="flood1"
         in2="colormatrix1"
         mode="multiply"
         result="blend1"
         id="feBlend349" /><feBlend
         in2="blend1"
         mode="screen"
         result="blend2"
         id="feBlend350" /><feColorMatrix
         in="blend2"
         values="1"
         type="saturate"
         result="colormatrix2"
         id="feColorMatrix350" /><feComposite
         in="colormatrix2"
         in2="SourceGraphic"
         operator="in"
         k2="1"
         result="composite2"
         id="feComposite350" /></filter><filter
       style="color-interpolation-filters:sRGB;"
       id="filter370"
       x="0"
       y="0"
       width="1"
       height="1"><feComposite
         in2="SourceGraphic"
         operator="arithmetic"
         k1="0"
         k2="1"
         result="composite1"
         id="feComposite369" /><feColorMatrix
         in="composite1"
         values="1"
         type="saturate"
         result="colormatrix1"
         id="feColorMatrix369" /><feFlood
         flood-opacity="1"
         flood-color="rgb(0,0,0)"
         result="flood1"
         id="feFlood369" /><feBlend
         in="flood1"
         in2="colormatrix1"
         mode="multiply"
         result="blend1"
         id="feBlend369" /><feBlend
         in2="blend1"
         mode="screen"
         result="blend2"
         id="feBlend370" /><feColorMatrix
         in="blend2"
         values="1"
         type="saturate"
         result="colormatrix2"
         id="feColorMatrix370" /><feComposite
         in="colormatrix2"
         in2="SourceGraphic"
         operator="in"
         k2="1"
         result="composite2"
         id="feComposite370" /></filter><filter
       style="color-interpolation-filters:sRGB;"
       id="filter389"
       x="0"
       y="0"
       width="1"
       height="1"><feComposite
         in2="SourceGraphic"
         operator="arithmetic"
         k1="0"
         k2="1"
         result="composite1"
         id="feComposite388" /><feColorMatrix
         in="composite1"
         values="1"
         type="saturate"
         result="colormatrix1"
         id="feColorMatrix388" /><feFlood
         flood-opacity="1"
         flood-color="rgb(0,0,0)"
         result="flood1"
         id="feFlood388" /><feBlend
         in="flood1"
         in2="colormatrix1"
         mode="multiply"
         result="blend1"
         id="feBlend388" /><feBlend
         in2="blend1"
         mode="screen"
         result="blend2"
         id="feBlend389" /><feColorMatrix
         in="blend2"
         values="1"
         type="saturate"
         result="colormatrix2"
         id="feColorMatrix389" /><feComposite
         in="colormatrix2"
         in2="SourceGraphic"
         operator="in"
         k2="1"
         result="composite2"
         id="feComposite389" /></filter><filter
       style="color-interpolation-filters:sRGB;"
       id="filter404"
       x="0"
       y="0"
       width="1"
       height="1"><feComposite
         in2="SourceGraphic"
         operator="arithmetic"
         k1="0"
         k2="1"
         result="composite1"
         id="feComposite403" /><feColorMatrix
         in="composite1"
         values="1"
         type="saturate"
         result="colormatrix1"
         id="feColorMatrix403" /><feFlood
         flood-opacity="1"
         flood-color="rgb(0,0,0)"
         result="flood1"
         id="feFlood403" /><feBlend
         in="flood1"
         in2="colormatrix1"
         mode="multiply"
         result="blend1"
         id="feBlend403" /><feBlend
         in2="blend1"
         mode="screen"
         result="blend2"
         id="feBlend404" /><feColorMatrix
         in="blend2"
         values="1"
         type="saturate"
         result="colormatrix2"
         id="feColorMatrix404" /><feComposite
         in="colormatrix2"
         in2="SourceGraphic"
         operator="in"
         k2="1"
         result="composite2"
         id="feComposite404" /></filter><filter
       style="color-interpolation-filters:sRGB;"
       id="filter416"
       x="0"
       y="0"
       width="1"
       height="1"><feComposite
         in2="SourceGraphic"
         operator="arithmetic"
         k1="0"
         k2="1"
         result="composite1"
         id="feComposite415" /><feColorMatrix
         in="composite1"
         values="1"
         type="saturate"
         result="colormatrix1"
         id="feColorMatrix415" /><feFlood
         flood-opacity="1"
         flood-color="rgb(0,0,0)"
         result="flood1"
         id="feFlood415" /><feBlend
         in="flood1"
         in2="colormatrix1"
         mode="multiply"
         result="blend1"
         id="feBlend415" /><feBlend
         in2="blend1"
         mode="screen"
         result="blend2"
         id="feBlend416" /><feColorMatrix
         in="blend2"
         values="1"
         type="saturate"
         result="colormatrix2"
         id="feColorMatrix416" /><feComposite
         in="colormatrix2"
         in2="SourceGraphic"
         operator="in"
         k2="1"
         result="composite2"
         id="feComposite416" /></filter><filter
       style="color-interpolation-filters:sRGB;"
       id="filter430"
       x="0"
       y="0"
       width="1"
       height="1"><feComposite
         in2="SourceGraphic"
         operator="arithmetic"
         k1="0"
         k2="1"
         result="composite1"
         id="feComposite429" /><feColorMatrix
         in="composite1"
         values="1"
         type="saturate"
         result="colormatrix1"
         id="feColorMatrix429" /><feFlood
         flood-opacity="1"
         flood-color="rgb(0,0,0)"
         result="flood1"
         id="feFlood429" /><feBlend
         in="flood1"
         in2="colormatrix1"
         mode="multiply"
         result="blend1"
         id="feBlend429" /><feBlend
         in2="blend1"
         mode="screen"
         result="blend2"
         id="feBlend430" /><feColorMatrix
         in="blend2"
         values="1"
         type="saturate"
         result="colormatrix2"
         id="feColorMatrix430" /><feComposite
         in="colormatrix2"
         in2="SourceGraphic"
         operator="in"
         k2="1"
         result="composite2"
         id="feComposite430" /></filter><filter
       style="color-interpolation-filters:sRGB;"
       id="filter445"
       x="0"
       y="0"
       width="1"
       height="1"><feComposite
         in2="SourceGraphic"
         operator="arithmetic"
         k1="0"
         k2="1"
         result="composite1"
         id="feComposite444" /><feColorMatrix
         in="composite1"
         values="1"
         type="saturate"
         result="colormatrix1"
         id="feColorMatrix444" /><feFlood
         flood-opacity="1"
         flood-color="rgb(0,0,0)"
         result="flood1"
         id="feFlood444" /><feBlend
         in="flood1"
         in2="colormatrix1"
         mode="multiply"
         result="blend1"
         id="feBlend444" /><feBlend
         in2="blend1"
         mode="screen"
         result="blend2"
         id="feBlend445" /><feColorMatrix
         in="blend2"
         values="1"
         type="saturate"
         result="colormatrix2"
         id="feColorMatrix445" /><feComposite
         in="colormatrix2"
         in2="SourceGraphic"
         operator="in"
         k2="1"
         result="composite2"
         id="feComposite445" /></filter><filter
       style="color-interpolation-filters:sRGB;"
       id="filter457"
       x="0"
       y="0"
       width="1"
       height="1"><feComposite
         in2="SourceGraphic"
         operator="arithmetic"
         k1="0"
         k2="1"
         result="composite1"
         id="feComposite456" /><feColorMatrix
         in="composite1"
         values="1"
         type="saturate"
         result="colormatrix1"
         id="feColorMatrix456" /><feFlood
         flood-opacity="1"
         flood-color="rgb(0,0,0)"
         result="flood1"
         id="feFlood456" /><feBlend
         in="flood1"
         in2="colormatrix1"
         mode="multiply"
         result="blend1"
         id="feBlend456" /><feBlend
         in2="blend1"
         mode="screen"
         result="blend2"
         id="feBlend457" /><feColorMatrix
         in="blend2"
         values="1"
         type="saturate"
         result="colormatrix2"
         id="feColorMatrix457" /><feComposite
         in="colormatrix2"
         in2="SourceGraphic"
         operator="in"
         k2="1"
         result="composite2"
         id="feComposite457" /></filter><filter
       style="color-interpolation-filters:sRGB;"
       id="filter473"
       x="0"
       y="0"
       width="1"
       height="1"><feComposite
         in2="SourceGraphic"
         operator="arithmetic"
         k1="0"
         k2="1"
         result="composite1"
         id="feComposite472" /><feColorMatrix
         in="composite1"
         values="1"
         type="saturate"
         result="colormatrix1"
         id="feColorMatrix472" /><feFlood
         flood-opacity="1"
         flood-color="rgb(0,0,0)"
         result="flood1"
         id="feFlood472" /><feBlend
         in="flood1"
         in2="colormatrix1"
         mode="multiply"
         result="blend1"
         id="feBlend472" /><feBlend
         in2="blend1"
         mode="screen"
         result="blend2"
         id="feBlend473" /><feColorMatrix
         in="blend2"
         values="1"
         type="saturate"
         result="colormatrix2"
         id="feColorMatrix473" /><feComposite
         in="colormatrix2"
         in2="SourceGraphic"
         operator="in"
         k2="1"
         result="composite2"
         id="feComposite473" /></filter><filter
       style="color-interpolation-filters:sRGB;"
       id="filter493"
       x="0"
       y="0"
       width="1"
       height="1"><feComposite
         in2="SourceGraphic"
         operator="arithmetic"
         k1="0"
         k2="1"
         result="composite1"
         id="feComposite492" /><feColorMatrix
         in="composite1"
         values="1"
         type="saturate"
         result="colormatrix1"
         id="feColorMatrix492" /><feFlood
         flood-opacity="1"
         flood-color="rgb(0,0,0)"
         result="flood1"
         id="feFlood492" /><feBlend
         in="flood1"
         in2="colormatrix1"
         mode="multiply"
         result="blend1"
         id="feBlend492" /><feBlend
         in2="blend1"
         mode="screen"
         result="blend2"
         id="feBlend493" /><feColorMatrix
         in="blend2"
         values="1"
         type="saturate"
         result="colormatrix2"
         id="feColorMatrix493" /><feComposite
         in="colormatrix2"
         in2="SourceGraphic"
         operator="in"
         k2="1"
         result="composite2"
         id="feComposite493" /></filter><filter
       style="color-interpolation-filters:sRGB;"
       id="filter507"
       x="0"
       y="0"
       width="1"
       height="1"><feComposite
         in2="SourceGraphic"
         operator="arithmetic"
         k1="0"
         k2="1"
         result="composite1"
         id="feComposite506" /><feColorMatrix
         in="composite1"
         values="1"
         type="saturate"
         result="colormatrix1"
         id="feColorMatrix506" /><feFlood
         flood-opacity="1"
         flood-color="rgb(0,0,0)"
         result="flood1"
         id="feFlood506" /><feBlend
         in="flood1"
         in2="colormatrix1"
         mode="multiply"
         result="blend1"
         id="feBlend506" /><feBlend
         in2="blend1"
         mode="screen"
         result="blend2"
         id="feBlend507" /><feColorMatrix
         in="blend2"
         values="1"
         type="saturate"
         result="colormatrix2"
         id="feColorMatrix507" /><feComposite
         in="colormatrix2"
         in2="SourceGraphic"
         operator="in"
         k2="1"
         result="composite2"
         id="feComposite507" /></filter><filter
       style="color-interpolation-filters:sRGB;"
       id="filter538"
       x="0"
       y="0"
       width="1"
       height="1"><feComposite
         in2="SourceGraphic"
         operator="arithmetic"
         k1="0"
         k2="1"
         result="composite1"
         id="feComposite537" /><feColorMatrix
         in="composite1"
         values="1"
         type="saturate"
         result="colormatrix1"
         id="feColorMatrix537" /><feFlood
         flood-opacity="1"
         flood-color="rgb(0,0,0)"
         result="flood1"
         id="feFlood537" /><feBlend
         in="flood1"
         in2="colormatrix1"
         mode="multiply"
         result="blend1"
         id="feBlend537" /><feBlend
         in2="blend1"
         mode="screen"
         result="blend2"
         id="feBlend538" /><feColorMatrix
         in="blend2"
         values="1"
         type="saturate"
         result="colormatrix2"
         id="feColorMatrix538" /><feComposite
         in="colormatrix2"
         in2="SourceGraphic"
         operator="in"
         k2="1"
         result="composite2"
         id="feComposite538" /></filter><filter
       style="color-interpolation-filters:sRGB;"
       id="filter555"
       x="0"
       y="0"
       width="1"
       height="1"><feComposite
         in2="SourceGraphic"
         operator="arithmetic"
         k1="0"
         k2="1"
         result="composite1"
         id="feComposite554" /><feColorMatrix
         in="composite1"
         values="1"
         type="saturate"
         result="colormatrix1"
         id="feColorMatrix554" /><feFlood
         flood-opacity="1"
         flood-color="rgb(0,0,0)"
         result="flood1"
         id="feFlood554" /><feBlend
         in="flood1"
         in2="colormatrix1"
         mode="multiply"
         result="blend1"
         id="feBlend554" /><feBlend
         in2="blend1"
         mode="screen"
         result="blend2"
         id="feBlend555" /><feColorMatrix
         in="blend2"
         values="1"
         type="saturate"
         result="colormatrix2"
         id="feColorMatrix555" /><feComposite
         in="colormatrix2"
         in2="SourceGraphic"
         operator="in"
         k2="1"
         result="composite2"
         id="feComposite555" /></filter><filter
       style="color-interpolation-filters:sRGB;"
       id="filter573"
       x="0"
       y="0"
       width="1"
       height="1"><feComposite
         in2="SourceGraphic"
         operator="arithmetic"
         k1="0"
         k2="1"
         result="composite1"
         id="feComposite572" /><feColorMatrix
         in="composite1"
         values="1"
         type="saturate"
         result="colormatrix1"
         id="feColorMatrix572" /><feFlood
         flood-opacity="1"
         flood-color="rgb(0,0,0)"
         result="flood1"
         id="feFlood572" /><feBlend
         in="flood1"
         in2="colormatrix1"
         mode="multiply"
         result="blend1"
         id="feBlend572" /><feBlend
         in2="blend1"
         mode="screen"
         result="blend2"
         id="feBlend573" /><feColorMatrix
         in="blend2"
         values="1"
         type="saturate"
         result="colormatrix2"
         id="feColorMatrix573" /><feComposite
         in="colormatrix2"
         in2="SourceGraphic"
         operator="in"
         k2="1"
         result="composite2"
         id="feComposite573" /></filter></defs><g
     id="layer1"><path
       d="m 76.433577,83.348918 c 0.10607,0.06666 0.305742,0.2848 0.63407,0.676961 0.600376,0.71709 0.92389,0.875568 1.151868,0.56379 0.106799,-0.146053 0.158786,-0.155668 0.317293,-0.05736 0.360844,0.223804 0.527129,0.29857 0.785999,0.35295 0.40841,0.08579 0.704,0.908551 0.586527,1.632458 -0.0645,0.397478 -0.354999,0.451538 -0.548803,0.10232 -0.312428,-0.562954 -0.815296,-0.657248 -1.262972,-0.236678 -0.113521,0.106647 -0.353259,0.209411 -0.532784,0.227893 -0.179526,0.01848 -0.405264,0.06588 -0.501262,0.10542 -0.09996,0.04117 -0.27674,0.01708 -0.413928,-0.05633 -0.188818,-0.101052 -0.278561,-0.103893 -0.424264,-0.01292 -0.22441,0.140147 -0.634227,0.151511 -0.715718,0.01964 -0.07897,-0.127778 -0.558958,-0.123204 -0.688847,0.0067 -0.115608,0.115608 -1.531641,0.180461 -2.622062,0.11989 -0.720611,-0.04003 -1.05885,-0.192969 -1.05885,-0.478007 0,-0.233553 -0.438792,-0.134897 -0.723987,0.16278 -0.498592,0.520419 -1.084461,-0.260593 -0.617533,-0.823205 0.06043,-0.07281 0.08288,-0.175428 0.05013,-0.22841 -0.05349,-0.08655 0.10242,-0.462338 0.242362,-0.58446 0.03026,-0.02642 0.08568,-0.113009 0.123507,-0.192237 0.448485,-0.939199 1.021643,-1.295236 1.021643,-0.634586 0,0.584571 0.564549,0.611808 1.108976,0.05323 0.384183,-0.394171 1.107167,-0.483831 1.431437,-0.17725 0.181747,0.171835 0.340548,0.08539 0.340548,-0.185518 0,-0.410248 0.09073,-0.42672 0.474906,-0.0863 0.880798,0.780493 0.983114,0.838192 1.476396,0.838192 0.473663,0 0.473949,2.65e-4 0.413928,-0.287838 -0.03301,-0.158456 -0.08856,-0.423581 -0.12299,-0.589111 -0.04446,-0.213769 -0.03166,-0.298683 0.07441,-0.232027 z"
       style="stroke-width:0.362964"
       id="path654"><title
         id="title665">hindlegs</title></path><path
       d="m 32.362882,50.120455 c -0.281972,0.0101 -0.624368,0.09832 -1.226281,0.230477 -1.767602,0.388093 -2.27522,0.667666 -3.092835,1.703255 -0.689223,0.872967 -0.739308,0.97356 -1.128096,2.262911 -0.212006,0.703074 -0.277413,0.822895 -0.428398,0.783415 -0.185903,-0.04861 -0.204451,-2.98e-4 -0.860929,2.24224 -0.341744,1.167403 0.08549,2.59545 1.393196,4.658114 0.953174,1.503452 0.952864,1.503545 2.513542,2.204516 1.677485,0.753438 2.988333,2.348349 2.997233,3.646806 0.0016,0.233348 0.02819,0.807744 0.05891,1.276408 0.03628,0.553407 0.01963,0.888327 -0.04754,0.955497 -0.130331,0.130274 -0.136052,0.705665 -0.0078,0.784965 0.0575,0.03554 0.09612,0.6717 0.09612,1.584916 0,0.913218 -0.03862,1.54886 -0.09612,1.5844 -0.05282,0.03264 -0.0956,0.31614 -0.0956,0.629936 0,0.316334 -0.04287,0.570507 -0.09612,0.570507 -0.0546,0 -0.09612,0.281859 -0.09612,0.65319 0,0.359169 -0.04147,0.694148 -0.09198,0.744658 -0.05051,0.05051 -0.12168,0.449684 -0.15813,0.886767 -0.03645,0.437086 -0.103222,0.817547 -0.148312,0.845427 -0.04508,0.02786 -0.08165,0.218191 -0.08165,0.42323 0,0.205042 -0.0433,0.399385 -0.09612,0.432015 -0.05281,0.03265 -0.09612,0.163799 -0.09612,0.290938 0,0.20538 -0.257761,0.879312 -0.384472,1.005624 -0.209667,0.209 -0.308611,0.579628 -0.192237,0.719852 0.147458,0.177675 -0.199384,0.624768 -0.484725,0.624768 -0.08996,0 -0.217436,0.06495 -0.283186,0.144178 -0.06575,0.07923 -0.191964,0.14366 -0.280603,0.14366 -0.255565,0 -0.678194,0.228082 -0.679029,0.366386 -0.0013,0.224163 -0.610951,0.09719 -0.719336,-0.149862 -0.180738,-0.411959 -0.637233,-0.05662 -0.770495,0.599964 -0.09045,0.445642 -0.508858,0.803665 -0.75706,0.648022 -0.107026,-0.06711 -0.156537,-0.07842 -0.466638,-0.10542 -0.116559,-0.01014 -0.167949,-0.09669 -0.167949,-0.283187 0,-0.147894 -0.05186,-0.321092 -0.115238,-0.384472 -0.08963,-0.08961 -0.0029,-0.115239 0.390674,-0.115239 0.587607,0 0.689603,-0.312968 0.180867,-0.556038 -0.145252,-0.0694 -0.264583,-0.159892 -0.264583,-0.201022 0,-0.155409 0.123294,-0.187571 0.29869,-0.07803 0.140683,0.08779 0.224897,0.08655 0.372587,-0.0057 0.104921,-0.06552 0.259411,-0.119373 0.343131,-0.119373 0.195213,0 0.426331,-0.230679 0.426331,-0.425297 0,-0.083 -0.05619,-0.150895 -0.125057,-0.150895 -0.223682,0 -0.733773,-0.61942 -0.793233,-0.963249 -0.03172,-0.183414 -0.106155,-0.4329 -0.165365,-0.555005 -0.0807,-0.166553 -0.07885,-0.268536 0.0078,-0.40721 0.06348,-0.101659 0.115755,-0.357998 0.115755,-0.569991 0,-0.211993 0.0433,-0.385506 0.09612,-0.385506 0.05281,0 0.0956,0.06527 0.0956,0.145211 0,0.07994 0.05439,0.23373 0.120406,0.341581 0.101294,0.165476 0.09376,0.210885 -0.04806,0.291455 -0.232809,0.132265 -0.210495,0.308804 0.0832,0.657841 0.519405,0.617277 1.636844,0.892019 1.999362,0.491443 0.225133,-0.248772 0.118664,-0.58291 -0.185519,-0.58291 -0.158248,0 -0.272234,-0.09182 -0.377755,-0.303341 -0.168384,-0.337532 -0.203508,-0.945162 -0.05478,-0.945162 0.05818,0 0.09612,-0.414648 0.09612,-1.051099 0,-0.59688 -0.04156,-1.076289 -0.09612,-1.110009 -0.05281,-0.03264 -0.09612,-0.183675 -0.09612,-0.335897 0,-0.152222 -0.0433,-0.303764 -0.09612,-0.336414 -0.237458,-0.146757 -0.04506,-1.964938 0.208256,-1.967838 0.03542,-4.12e-4 0.09297,-0.129987 0.127641,-0.287838 0.03467,-0.157851 0.103179,-0.311451 0.151929,-0.341581 0.04876,-0.03013 0.08837,-0.222325 0.08837,-0.427364 0,-0.205041 0.03844,-0.396874 0.08527,-0.425814 0.04683,-0.02894 0.112298,-0.198007 0.145728,-0.376205 0.03343,-0.178196 0.146544,-0.40194 0.251147,-0.49661 0.1046,-0.09467 0.19017,-0.224808 0.19017,-0.289388 0,-0.06457 0.06038,-0.167527 0.134358,-0.228927 0.07398,-0.0614 0.294166,-0.433826 0.488859,-0.827856 0.194695,-0.394033 0.393077,-0.716752 0.441317,-0.716752 0.04824,0 0.08785,-0.08191 0.08785,-0.181901 0,-0.09999 0.06495,-0.206278 0.144177,-0.236678 0.07923,-0.0304 0.144178,-0.113485 0.144178,-0.184485 0,-0.071 0.127297,-0.251141 0.283186,-0.400493 0.614585,-0.588809 -0.175504,-2.539239 -1.218013,-3.007051 -0.251953,-0.113062 -0.953755,-0.426194 -1.560112,-0.695565 -0.606354,-0.269371 -1.171804,-0.552472 -1.256254,-0.628902 -0.307179,-0.277995 -1.915128,-0.191589 -1.915128,0.102836 0,0.240308 0.127353,0.528802 0.364835,0.82734 0.131583,0.165414 0.06662,0.659908 -0.08682,0.659908 -0.04709,0 -0.08578,0.105164 -0.08578,0.234094 0,0.12893 -0.0433,0.261389 -0.09612,0.294039 -0.05282,0.03264 -0.09612,0.183675 -0.09612,0.335897 0,0.15222 -0.03997,0.301532 -0.08888,0.331762 -0.04891,0.03023 -0.119449,0.443105 -0.156579,0.917774 -0.03713,0.474668 -0.104885,0.863513 -0.150895,0.863513 -0.04601,0 -0.08372,0.148463 -0.08372,0.330212 0,0.181749 -0.0433,0.356991 -0.09612,0.389641 -0.05281,0.03264 -0.09612,0.227492 -0.09612,0.432531 0,0.205042 -0.047,0.40192 -0.104903,0.4377 -0.05789,0.03578 -0.08566,0.199676 -0.06149,0.364319 0.02416,0.164641 0.01139,0.364944 -0.02842,0.444934 -0.704077,1.414573 -0.765328,1.579042 -0.765328,2.056722 0,0.274512 0.05387,0.553063 0.11989,0.619083 0.446983,0.446939 0.09852,6.064746 -0.376205,6.064746 -0.376034,0 -0.309256,0.551864 0.116789,0.964799 0.541764,0.525101 0.667139,0.846164 0.374137,0.957565 -0.599303,0.227852 0.405646,1.143084 1.261939,1.149284 0.353511,0.0026 0.341058,0.124827 -0.05374,0.527099 -0.407102,0.41481 -0.770495,1.034491 -0.770495,1.313615 0,0.09135 -0.0433,0.192679 -0.09612,0.225309 -0.05282,0.03265 -0.09612,0.378521 -0.09612,0.768429 0,0.389905 0.0433,0.735282 0.09612,0.767912 0.05281,0.03264 0.09612,0.174055 0.09612,0.313676 0,0.293183 0.523119,0.886767 0.781347,0.886767 0.200354,0 0.356835,-0.212474 0.195854,-0.266133 -0.17437,-0.05812 -0.145422,-1.027854 0.03514,-1.177706 0.217766,-0.180731 0.316826,-0.01915 0.350366,0.569991 0.0387,0.679623 0.465638,1.007903 0.498678,0.383439 0.01678,-0.317257 0.294447,-0.45126 0.517281,-0.249597 0.116464,0.105394 0.34167,0.163814 0.629936,0.163814 0.44345,0 0.448551,0.004 0.448551,0.317293 0,0.174303 0.05186,0.368635 0.115238,0.432015 0.210611,0.21061 0.41704,0.05525 0.47594,-0.358117 0.03321,-0.23309 0.03304,-0.23296 1.192176,-0.20929 0.955978,0.01952 1.181005,-0.0028 1.284159,-0.127124 0.06879,-0.08289 0.24697,-0.150378 0.395842,-0.150378 0.14887,0 0.297045,-0.0433 0.329695,-0.09612 0.03264,-0.05281 0.186329,-0.09612 0.341065,-0.09612 0.319333,0 0.64475,-0.233662 0.769978,-0.552421 0.204989,-0.52177 0.900955,-0.723012 1.242302,-0.359668 0.240688,0.256202 1.732005,0.370559 1.872237,0.143661 0.124989,-0.202236 0.432532,-0.103767 0.432532,0.138492 0,0.128929 0.04278,0.261409 0.0956,0.294039 0.05282,0.03265 0.09612,0.383783 0.09612,0.780315 0,0.776549 0.345238,1.019775 0.630453,0.444417 0.05873,-0.118479 0.17891,-0.294758 0.26665,-0.391708 0.08774,-0.09696 0.15968,-0.284222 0.15968,-0.416512 0,-0.132287 0.02801,-0.26882 0.06253,-0.30334 0.07648,-0.07655 0.06947,-1.693732 -0.0078,-1.770952 -0.03029,-0.03029 -0.05529,-0.242408 -0.05529,-0.471289 0,-0.22888 -0.04278,-0.415995 -0.0956,-0.415995 -0.05282,0 -0.09612,-0.131804 -0.09612,-0.292489 0,-0.311893 -0.0013,-0.313224 -0.52865,-0.925008 -0.343143,-0.398072 -0.353289,-0.59078 -0.04754,-0.895552 0.161935,-0.161421 0.279752,-0.62489 0.328662,-1.291911 0.03081,-0.42015 0.09935,-0.806799 0.151929,-0.859379 0.05258,-0.05258 0.0956,-0.188424 0.0956,-0.30179 0,-0.364435 0.262598,-0.746398 1.052132,-1.529623 0.424706,-0.421309 0.772563,-0.80153 0.772563,-0.84491 0,-0.04337 0.107732,-0.179413 0.239779,-0.30179 0.132046,-0.122378 0.240295,-0.26448 0.240295,-0.31626 0,-0.05178 0.08391,-0.170143 0.186552,-0.263033 0.102644,-0.09289 0.21393,-0.294021 0.24753,-0.447001 0.0336,-0.15298 0.09096,-0.278536 0.127124,-0.278536 0.06959,0 0.435708,-0.748837 0.445968,-0.912089 0.0033,-0.05282 0.03501,-0.142227 0.07028,-0.198437 0.03527,-0.05621 0.06256,-0.320448 0.06046,-0.587045 -0.0032,-0.413237 0.116714,-0.805044 0.302824,-0.991154 0.164175,-0.164173 0.714636,-1.243068 0.719336,-1.409733 0.0018,-0.06229 0.03496,-0.145028 0.0739,-0.183968 0.03894,-0.03894 0.0708,-0.171828 0.0708,-0.295072 0,-0.123244 0.0433,-0.224276 0.09612,-0.224276 0.195307,0 0.104827,-0.551254 -0.09922,-0.604614 -0.195041,-0.05101 -0.195041,-0.05117 0,-0.398425 0.107267,-0.19099 0.195337,-0.451455 0.195337,-0.578776 0,-0.127324 0.03772,-0.254757 0.08372,-0.283187 0.09816,-0.06067 0.236483,-0.609142 0.211873,-0.839226 -0.0094,-0.08775 0.02837,-0.187482 0.08372,-0.221691 0.05535,-0.03421 0.100769,-0.210994 0.100769,-0.392741 0,-0.181749 0.0433,-0.330213 0.09612,-0.330213 0.380509,0 -0.10703,-0.85939 -0.571024,-1.006657 -0.180148,-0.05718 -0.194348,-0.156401 -0.219108,-1.52032 -0.03096,-1.705605 -0.04955,-1.726185 -0.737423,-0.817521 -0.582329,0.769239 -0.52344,0.730141 -1.423169,0.95498 -0.970475,0.242518 -0.938428,0.250156 -1.3224,-0.328145 -0.363146,-0.54694 -1.529272,-3.869366 -1.877405,-5.349545 -0.105592,-0.448959 -0.277333,-1.152486 -0.381888,-1.563212 -0.213465,-0.838515 -0.235016,-1.216649 -0.09302,-1.646928 0.05353,-0.162205 0.248401,-0.920124 0.432532,-1.684135 0.384207,-1.594197 0.409262,-1.506845 -0.529684,-1.828312 -0.343321,-0.117544 -1.283956,-0.576124 -2.090311,-1.019059 -0.843306,-0.463229 -1.205322,-0.684361 -1.557011,-0.745691 -0.08792,-0.01533 -0.175244,-0.02042 -0.269235,-0.01705 z"
       style="stroke-width:0.362964"
       id="path658"><title
         id="title661">forelegs</title></path><path
       d="m 49.648649,63.387862 c 0.06814,0.02974 0.987944,1.047535 2.04432,2.261878 1.920683,2.207895 1.920787,2.207981 3.073197,2.887162 3.683844,2.171101 3.442505,1.876107 2.171444,2.657202 -1.174765,0.721918 -3.122318,2.030744 -3.15898,2.122868 -0.01495,0.03756 0.254899,0.316134 0.599963,0.619084 0.345065,0.302948 0.627352,0.596318 0.627352,0.651639 0,0.05532 0.142977,0.235282 0.317293,0.399976 0.174315,0.164693 0.348542,0.364156 0.387573,0.443384 0.267725,0.543438 0.605618,0.960148 0.778247,0.960148 0.05982,0 0.319997,0.21426 0.577743,0.47594 0.517951,0.525859 0.600907,0.496178 0.770496,-0.275952 0.120586,-0.549032 0.612604,-0.227394 0.505912,0.330729 -0.02546,0.13321 -0.0086,0.265254 0.03721,0.293522 0.04574,0.02827 0.0832,0.265091 0.0832,0.526066 0,0.492857 0.211279,0.681621 0.315743,0.282153 0.02763,-0.105637 0.101622,-0.191719 0.164331,-0.191719 0.06271,0 0.136706,0.08608 0.164331,0.191719 0.02763,0.105638 0.08822,0.192237 0.134876,0.192237 0.04666,0 0.08475,0.142524 0.08475,0.316776 0,0.274916 0.04475,0.333266 0.336413,0.438733 0.255738,0.09248 0.335897,0.175706 0.335897,0.349333 0,0.125514 0.0433,0.255198 0.09612,0.287837 0.222818,0.137709 0.0701,1.71827 -0.190169,1.968356 -0.07651,0.07352 -0.266764,0.396014 -0.453202,0.768428 -0.09255,0.184865 -0.243555,0.422498 -0.335897,0.528133 -0.867086,0.991936 -0.884452,1.019724 -0.767395,1.207162 0.06284,0.100629 0.114205,0.375533 0.114205,0.610815 0,0.235285 0.04279,0.454147 0.0956,0.486792 0.05282,0.03263 0.09612,0.335222 0.09612,0.672311 0,0.337086 -0.0433,0.639669 -0.09612,0.67231 -0.05282,0.03263 -0.09676,0.218974 -0.09819,0.413928 -0.002,0.269853 -0.08255,0.440518 -0.337447,0.714685 -0.391525,0.421126 -0.524516,0.451373 -0.524516,0.11989 0,-0.132046 -0.0433,-0.240296 -0.09612,-0.240296 -0.05282,0 -0.09702,-0.140463 -0.0987,-0.312125 -0.0039,-0.401701 -0.237689,-0.734345 -0.401009,-0.571025 -0.145856,0.145857 -3.39622,0.163712 -3.485575,0.01912 -0.122282,-0.197854 -0.530032,-0.104153 -0.624252,0.143661 -0.08608,0.226407 -0.131728,0.240295 -0.805635,0.240295 -0.486134,0 -0.728025,0.03823 -0.75551,0.11989 -0.03181,0.0945 -0.07044,0.09553 -0.181901,0.0036 -0.439308,-0.362388 -1.617989,-0.129032 -1.617989,0.320394 0,0.164307 -0.05403,0.22841 -0.192236,0.22841 -0.139612,0 -0.192237,-0.06421 -0.192237,-0.234611 0,-0.128928 -0.04279,-0.260881 -0.0956,-0.293523 -0.05282,-0.03263 -0.09612,-0.143456 -0.09612,-0.245979 0,-0.120486 -0.06606,-0.186035 -0.186552,-0.186035 -0.102521,0 -0.213336,-0.04331 -0.24598,-0.09612 -0.185615,-0.30033 -0.872441,0.03277 -1.038696,0.503846 -0.158441,0.448927 -0.492871,0.117252 -0.463021,-0.459404 0.03461,-0.668615 -0.617305,-0.830851 -0.91984,-0.228927 -0.269474,0.536138 -0.609047,-0.5701 -0.35295,-1.1498 0.03746,-0.08479 0.05986,-0.205126 0.05013,-0.267167 -0.0097,-0.06204 0.02691,-0.14012 0.08113,-0.173633 0.05422,-0.0335 0.0987,-0.166657 0.0987,-0.295589 0,-0.128928 0.0381,-0.234095 0.08475,-0.234095 0.04666,0 0.112315,-0.07603 0.145728,-0.168465 0.171416,-0.474189 1.215628,-1.656229 1.462959,-1.656229 0.06343,0 0.132239,-0.051 0.152963,-0.113172 0.09429,-0.282857 0.266133,0.07307 0.266133,0.550871 0,0.400441 0.03379,0.522449 0.144177,0.522449 0.07923,0 0.144178,0.04331 0.144178,0.09612 0,0.05282 0.126813,0.09612 0.282153,0.09612 0.155339,0 0.309454,-0.0433 0.342098,-0.09612 0.03265,-0.05282 0.226974,-0.09612 0.432015,-0.09612 0.205041,0 0.399371,-0.0433 0.432015,-0.09612 0.03264,-0.05282 0.132376,-0.09631 0.221692,-0.09664 0.08932,-3.24e-4 0.28641,-0.06476 0.437699,-0.143661 0.15129,-0.07891 0.464435,-0.14366 0.696082,-0.14366 0.231648,0 0.421163,-0.03303 0.421163,-0.07338 0,-0.09219 0.716239,-0.406693 0.926041,-0.406693 0.615939,0 0.718747,-1.202003 0.150379,-1.756999 -0.200298,-0.195587 -0.416277,-0.356051 -0.480074,-0.356051 -0.0638,0 -0.116272,-0.04279 -0.116272,-0.0956 0,-0.05282 -0.162113,-0.09632 -0.360185,-0.09664 -0.19807,-3.27e-4 -0.483816,-0.06527 -0.635103,-0.144177 -0.15129,-0.0789 -0.356188,-0.143661 -0.455786,-0.143661 -0.0996,0 -0.181385,-0.0433 -0.181385,-0.09612 0,-0.05282 -0.148463,-0.0956 -0.330212,-0.0956 -0.181749,0 -0.354095,-0.03862 -0.382923,-0.08527 -0.02883,-0.04665 -0.29644,-0.115234 -0.594279,-0.152446 -0.297836,-0.03721 -0.677808,-0.144372 -0.844909,-0.238228 -0.1671,-0.09386 -0.57185,-0.189747 -0.89917,-0.213424 -0.455114,-0.03292 -0.652034,-0.09632 -0.836642,-0.269751 -0.132769,-0.124733 -0.241328,-0.176232 -0.241328,-0.114205 0,0.06614 -0.147516,0.112655 -0.357085,0.112655 -0.368265,0 -1.46761,-0.914559 -1.46761,-1.221114 0,-0.06768 -0.0433,-0.123507 -0.09612,-0.123507 -0.05282,0 -0.0956,-0.05953 -0.0956,-0.132292 0,-0.225918 -0.221224,-0.346095 -0.398425,-0.216524 -0.21374,0.156293 -0.56224,0.790993 -0.56224,1.024227 0,0.237379 -0.208325,0.244033 -0.417029,0.01344 -0.184932,-0.204349 -0.241469,-2.931401 -0.06305,-3.041675 0.05282,-0.03265 0.09612,-0.226974 0.09612,-0.432015 0,-0.205041 0.0433,-0.399371 0.09612,-0.432015 0.05282,-0.03264 0.0956,-0.159777 0.0956,-0.28267 0,-0.260793 0.220277,-0.718749 0.402043,-0.836125 0.102766,-0.06636 0.10013,-0.09854 -0.01344,-0.171565 -0.132904,-0.08547 -0.01935,-0.486079 0.192236,-0.678512 0.156173,-0.142034 0.691827,-0.965093 0.845943,-1.300179 0.04959,-0.107809 0.159182,-0.253691 0.243913,-0.324011 0.08473,-0.07032 0.153996,-0.183004 0.153996,-0.250114 0,-0.06711 0.06494,-0.146847 0.144177,-0.17725 0.07923,-0.0304 0.144177,-0.151108 0.144177,-0.268718 0,-0.11761 0.105966,-0.324564 0.235645,-0.45992 0.129678,-0.135355 0.335092,-0.428378 0.456303,-0.650606 0.121211,-0.222229 0.648936,-0.891718 1.172538,-1.487765 0.865201,-0.98491 1.015755,-1.217023 1.652612,-2.546614 0.477065,-0.995986 0.740417,-1.44552 0.824756,-1.4087 z"
       style="stroke-width:0.362964"
       id="path657"><title
         id="title662">hindlegs</title></path><path
       d="m 71.655575,65.686947 c 0.227201,0.03329 0.417053,0.270598 0.572058,0.714168 0.590478,1.689758 2.453262,3.364621 5.43636,4.888074 2.823925,1.442162 2.745789,1.420617 5.2896,1.473295 2.762433,0.0572 3.00424,0.157285 2.011763,0.83199 -0.40564,0.275762 -0.596179,0.49196 -0.433048,0.49196 0.02407,0 0.569883,0.134306 1.212846,0.298173 1.277444,0.325573 1.191311,0.326878 3.298506,-0.05426 1.108913,-0.200576 1.234534,-0.05592 0.373621,0.429948 -0.647639,0.365502 -0.631226,0.38058 0.689364,0.632002 1.154105,0.219728 2.148575,0.228583 4.753715,0.04186 3.388426,-0.242874 3.537181,-0.209921 2.357995,0.525033 -0.753889,0.469878 -0.830835,0.624114 -0.311609,0.624768 0.168542,2.12e-4 0.712473,0.06628 1.208712,0.146761 0.902259,0.146326 0.902159,0.146334 2.256712,-0.155029 2.10108,-0.467455 2.19835,-0.483651 2.30528,-0.376722 0.0653,0.06533 -0.0345,0.231479 -0.30644,0.508497 -0.48482,0.493987 -0.49472,0.548287 -0.0961,0.548287 0.16941,0 0.85008,0.06993 1.51257,0.155546 1.32682,0.171488 1.34265,0.169654 2.99982,-0.358635 1.10079,-0.350918 1.30187,-0.256441 0.65371,0.306958 -0.34042,0.295906 -0.3916,0.375947 -0.2403,0.376205 0.10564,1.81e-4 1.07832,0.0837 2.16111,0.186035 1.08279,0.102334 2.41139,0.216217 2.95279,0.252697 0.54139,0.03648 0.98444,0.101009 0.98444,0.143661 0,0.265106 -5.76037,3.115762 -7.65845,3.78995 -0.3555,0.12627 -0.50436,0.230379 -0.50436,0.352433 0,0.142329 -0.0812,0.173281 -0.4563,0.174149 -1.46132,0.0033 -1.72907,0.44682 -0.7922,1.311548 0.31989,0.29525 0.32827,0.318353 0.16898,0.479041 -0.13073,0.131879 -0.19317,0.143255 -0.28371,0.05271 -0.0638,-0.06376 -0.17816,-0.115756 -0.25476,-0.115756 -0.0766,0 -0.36006,-0.103604 -0.62942,-0.22996 -0.26935,-0.126355 -0.55432,-0.25619 -0.63355,-0.288871 -0.0792,-0.03267 -0.27357,-0.142201 -0.43202,-0.243396 -0.15846,-0.101198 -0.44192,-0.187341 -0.62942,-0.191203 -0.18751,-0.0038 -0.3889,-0.05559 -0.44803,-0.114721 -0.26278,-0.262782 -0.69918,0.114117 -0.69918,0.60358 0,0.246802 0.0362,0.462983 0.0811,0.480591 0.12493,0.04909 0.58461,0.918654 0.51986,0.983403 -0.19324,0.19324 -0.953637,-0.104821 -1.508432,-0.591179 -0.135567,-0.118842 -0.281836,-0.216007 -0.325044,-0.216007 -0.04321,0 -0.180321,-0.108249 -0.304375,-0.240296 -0.12405,-0.132044 -0.277513,-0.240295 -0.341064,-0.240295 -0.06356,0 -0.169373,-0.06443 -0.235128,-0.14366 -0.0834,-0.10049 -0.304483,-0.144178 -0.731738,-0.144178 -0.701692,0 -0.8092,0.166015 -0.372587,0.576192 0.189649,0.178165 0.240295,0.319957 0.240295,0.674378 0,0.427504 0.1973,0.986682 0.390157,1.105876 0.04947,0.03056 0.08992,0.139326 0.08992,0.241845 0,0.294713 -0.774922,0.215199 -1.056266,-0.10852 -0.02642,-0.03038 -0.19855,-0.138637 -0.382406,-0.240296 -0.183854,-0.101659 -0.539809,-0.325463 -0.791166,-0.497127 -0.25136,-0.171661 -0.501125,-0.312126 -0.554488,-0.312126 -0.05336,0 -0.09664,-0.03256 -0.09664,-0.07286 0,-0.07648 -0.07801,-0.123633 -0.798918,-0.479041 -0.240774,-0.118703 -0.46593,-0.261282 -0.500227,-0.316776 -0.07047,-0.114021 -0.901415,-0.02562 -1.049032,0.111621 -0.05018,0.04665 -0.29316,0.08527 -0.540019,0.08527 -0.442612,0 -0.447926,0.0037 -0.378788,0.264066 0.134184,0.505446 0.216451,0.696082 0.300757,0.696082 0.04666,0 0.08527,0.146131 0.08527,0.324528 0,0.1784 0.06443,0.378147 0.143661,0.4439 0.07923,0.06575 0.144177,0.178905 0.144177,0.251665 0,0.07276 0.03222,0.132398 0.07183,0.132808 0.09709,0.0011 0.303694,0.456467 0.237195,0.522966 -0.112384,0.112385 -0.568081,0.02269 -0.975651,-0.192237 v -5.16e-4 c -0.234493,-0.123658 -0.610049,-0.378178 -0.834575,-0.565857 -0.224524,-0.187682 -0.447283,-0.341065 -0.49506,-0.341065 -0.04778,0 -0.16675,-0.08879 -0.264583,-0.196887 -0.09783,-0.108102 -0.331692,-0.267728 -0.519348,-0.355017 -0.187653,-0.08729 -0.428567,-0.258302 -0.535885,-0.379822 -0.107321,-0.121521 -0.270268,-0.220658 -0.361735,-0.220658 -0.16095,0 -0.258232,-0.03741 -0.714685,-0.273369 -0.118127,-0.06106 -0.292817,-0.111104 -0.388607,-0.111104 -0.09579,0 -0.215437,-0.03889 -0.265617,-0.08682 -0.809968,-0.773666 -1.433578,0.154822 -0.861446,1.282609 0.473113,0.932599 0.285194,1.042654 -0.668693,0.392224 -0.414812,-0.282855 -0.724219,-0.435633 -0.8816,-0.435633 -0.07571,0 -0.237809,-0.107732 -0.360184,-0.239778 -0.122377,-0.132047 -0.26395,-0.240296 -0.31471,-0.240296 -0.05076,0 -0.193756,-0.107732 -0.31781,-0.239778 -0.12405,-0.132047 -0.269051,-0.240296 -0.322461,-0.240296 -0.05341,0 -0.203302,-0.09716 -0.332796,-0.216007 -0.163541,-0.150093 -0.24826,-0.179507 -0.278019,-0.09612 -0.02356,0.06602 -0.171868,0.119889 -0.329696,0.119889 -0.442657,0 -0.561723,0.189918 -0.561723,0.898136 0,0.889321 -0.902974,0.384835 -1.305863,-0.729671 -0.03343,-0.09244 -0.09907,-0.168465 -0.145728,-0.168465 -0.04666,0 -0.08475,-0.06132 -0.08475,-0.136426 0,-0.142779 -0.737354,-0.823722 -0.891935,-0.823722 -0.04896,0 -0.06352,0.06683 -0.03204,0.148828 0.220805,0.575402 -0.375792,0.674877 -0.924491,0.153996 -0.325905,-0.30938 -0.360185,-0.322233 -0.360185,-0.135909 0,0.493506 -0.583363,0.318899 -1.266589,-0.379305 -0.638912,-0.652918 -0.942578,-0.646598 -0.942578,0.02015 0,0.393517 -0.03022,0.480065 -0.167949,0.479557 -0.234601,-7.26e-4 -1.090092,-0.754456 -1.058333,-0.932243 0.02637,-0.147607 -0.103412,-0.251086 -0.454236,-0.362768 -0.275385,-0.08767 -0.288525,-0.07509 -0.255281,0.241845 0.0735,0.700718 -1.174957,0.30001 -1.548743,-0.497127 -0.09043,-0.192847 -0.164331,-0.379554 -0.164331,-0.414962 0,-0.431733 -0.695349,-0.433917 -0.864547,-0.0026 -0.07254,0.184868 -0.166845,0.335897 -0.209806,0.335897 -0.04296,0 -0.07855,0.108249 -0.07855,0.240296 0,0.391963 -0.311545,0.30276 -0.505396,-0.144694 -0.09169,-0.211637 -0.166398,-0.42762 -0.166398,-0.480074 0,-0.05246 -0.03274,-0.0957 -0.07235,-0.09612 -0.0981,-0.0011 -0.312126,-0.476493 -0.312126,-0.693497 0,-0.254416 -0.27193,-0.323524 -0.433565,-0.110071 -0.07501,0.09906 -0.137846,0.339379 -0.139526,0.534334 -0.0017,0.194952 -0.04986,0.383285 -0.106971,0.418579 -0.119794,0.07404 -0.664042,-0.413105 -0.664042,-0.594279 0,-0.06672 -0.05438,-0.155684 -0.120406,-0.19792 -0.16134,-0.10322 -0.56429,-0.891406 -0.504879,-0.987537 0.02597,-0.04202 -0.06331,-0.14917 -0.198437,-0.237712 -0.278386,-0.182404 -0.520898,-0.06941 -0.520898,0.242363 0,0.09606 -0.04331,0.201449 -0.09612,0.234094 -0.05282,0.03263 -0.09612,0.167635 -0.09612,0.30024 0,0.419631 -0.37753,0.254113 -0.681095,-0.29869 -0.144537,-0.263201 -0.244006,-0.508764 -0.221175,-0.545703 0.05887,-0.09525 -0.275938,-0.669317 -0.45682,-0.783415 -0.225703,-0.142371 -0.465605,-0.0072 -0.465605,0.262517 0,0.130591 -0.0433,0.263983 -0.09612,0.296622 -0.05282,0.03263 -0.0956,0.186244 -0.0956,0.341582 0,0.583859 -0.36357,0.206369 -0.95188,-0.989604 -0.5093,-1.035354 -0.872815,-1.035155 -0.872815,0.001 0,0.379252 -0.418597,0.427516 -0.61495,0.0708 -0.05815,-0.105637 -0.127069,-0.213882 -0.153479,-0.240295 -0.134075,-0.134076 -0.473462,-0.893159 -0.430464,-0.962732 0.02729,-0.04415 0.0056,-0.107381 -0.04806,-0.14056 -0.05368,-0.03317 -0.09767,-0.160726 -0.09767,-0.283187 0,-0.291003 -0.212083,-0.475731 -0.367419,-0.320394 -0.06213,0.06212 -0.112655,0.20978 -0.112655,0.328146 0,0.118367 -0.04399,0.24226 -0.09767,0.275435 -0.05368,0.03317 -0.0712,0.103047 -0.03876,0.155546 0.135499,0.219241 -0.262822,0.48378 -0.45992,0.305408 -0.223087,-0.201891 -0.567049,-0.947964 -0.611332,-1.326017 -0.103266,-0.881605 -0.580895,-1.050797 -0.672827,-0.238229 -0.09472,0.837227 -1.28881,0.382859 -1.28881,-0.490409 0,-0.10267 -0.0433,-0.272317 -0.09612,-0.377238 -0.05282,-0.104921 -0.1389,-0.276451 -0.191719,-0.381372 -0.05282,-0.104921 -0.09612,-0.278118 -0.09612,-0.384473 0,-0.252366 -0.461484,-0.274069 -0.538469,-0.02532 -0.02861,0.09243 -0.09212,0.243147 -0.141076,0.334863 -0.04896,0.09172 -0.08888,0.318779 -0.08888,0.504362 0,0.295895 -0.02976,0.337447 -0.240295,0.337447 -0.14311,0 -0.239779,-0.05481 -0.239779,-0.135909 0,-0.07483 -0.03389,-0.150858 -0.07545,-0.168465 -0.07628,-0.03232 -0.596862,-1.053105 -0.596862,-1.170471 0,-0.113761 -0.521875,-0.590375 -0.804086,-0.734322 -0.59756,-0.304801 -0.516862,-0.406235 1.28416,-1.616956 2.465007,-1.657079 7.251986,-3.807297 13.060701,-5.866825 0.924329,-0.32773 1.783081,-0.637853 1.908411,-0.688847 0.08409,-0.03421 0.164044,-0.04572 0.239779,-0.03462 z"
       style="stroke-width:0.362964"
       id="path656"><title
         id="title663">tail</title></path><path
       d="m 37.803377,52.49137 c -0.143017,0.02547 -0.214332,0.149649 -0.265617,0.347265 -0.836988,3.224992 -0.823208,3.083602 -0.446484,4.659664 0.673263,2.816679 1.976027,6.405878 2.325956,6.407878 0.778286,0.0045 1.106657,-0.212922 1.945101,-1.286743 1.493913,-1.913299 1.345555,-1.971901 1.348755,0.531233 0.0032,2.488001 -0.165907,2.1453 1.299146,2.637049 1.080009,0.362508 1.698643,0.650766 1.911511,0.890385 0.100619,0.113261 0.264175,0.205672 0.363285,0.205672 0.09911,0 0.205245,0.06495 0.235645,0.144177 0.121646,0.317004 0.467278,0.155951 0.773079,-0.360185 0.882262,-1.489095 1.182357,-2.055968 1.182357,-2.233455 0,-0.425894 0.649601,-1.584448 0.884184,-1.576648 0.56356,0.01873 0.856045,0.249772 2.067057,1.632458 2.909372,3.32181 2.406585,2.870188 4.819344,4.329969 2.112985,1.278407 2.430096,1.431564 2.552816,1.232999 0.03264,-0.05281 0.146858,-0.09612 0.253731,-0.09612 0.20725,0 0.892792,-0.286801 2.554883,-1.068668 1.239615,-0.583131 3.775619,-1.605068 6.074564,-2.447913 2.597759,-0.952398 2.916604,-1.068817 3.096969,-1.128097 0.09244,-0.03038 0.167065,-0.110603 0.165365,-0.178283 -0.0029,-0.113024 -4.411911,-3.50053 -6.264218,-4.813143 -3.592748,-2.545955 -8.63666,-3.457804 -12.84366,-2.321305 -0.984697,0.266009 -3.41165,0.155315 -4.99401,-0.227894 -2.239873,-0.54244 -2.661759,-0.772388 -5.690092,-3.10627 -1.871101,-1.442021 -2.744379,-2.069519 -3.180685,-2.165759 -0.06544,-0.01444 -0.121309,-0.01676 -0.168982,-0.0083 z"
       style="stroke-width:0.362964"
       id="path655"><title
         id="title666">torso</title></path><path
       d="m 81.079806,41.191284 c 2.075805,-1.4e-5 4.143444,0.04226 4.801257,0.126607 1.996782,0.256045 3.271206,0.472039 4.658113,0.790133 0.75623,0.173444 1.980845,0.500309 2.160592,0.576709 0.105637,0.0449 0.364918,0.133646 0.576192,0.196887 1.080029,0.323283 2.24241,0.789793 3.937228,1.580266 1.559435,0.72733 2.227977,1.027459 3.025142,1.358056 0.44896,0.186192 0.98916,0.415659 1.20044,0.510047 0.21128,0.09439 0.4922,0.203267 0.62425,0.241845 0.13205,0.03858 0.36967,0.126197 0.52813,0.19482 1.21903,0.52793 5.74802,2.010285 7.29878,2.389002 0.31691,0.07739 1.41898,0.355769 2.44895,0.618567 1.02997,0.262797 2.13204,0.529437 2.44895,0.592212 0.31692,0.06278 0.74886,0.153262 0.96014,0.201021 0.40285,0.09107 1.67994,0.32719 2.49701,0.461987 3.87605,0.639461 6.28852,0.951852 8.66924,1.122412 1.16593,0.08353 1.18438,0.429601 0.0532,0.999423 -0.14926,0.07519 -0.37954,0.207264 -0.51159,0.293522 -0.13205,0.08626 -0.36968,0.203622 -0.52814,0.260966 -0.15846,0.05734 -0.61258,0.239887 -1.00872,0.40566 -0.7569,0.316736 -2.56133,0.815884 -3.45715,0.956014 -0.2905,0.04544 -0.98174,0.160604 -1.53634,0.256315 -0.85691,0.147884 -1.58541,0.174801 -4.84984,0.17725 -3.67861,0.0028 -4.30655,-0.02954 -6.48229,-0.332279 -1.39695,-0.194379 -2.19223,-0.309015 -2.78484,-0.40101 -0.72856,-0.113101 -1.35053,-0.204309 -2.54507,-0.37362 -1.11326,-0.157793 -5.666244,-0.162957 -6.770642,-0.0078 -0.448961,0.06311 -1.053598,0.15498 -1.344104,0.204122 -0.290502,0.04914 -0.787413,0.13202 -1.104325,0.183968 -0.316915,0.05195 -0.878769,0.16267 -1.248503,0.24598 -0.369729,0.08331 -0.845509,0.18908 -1.056783,0.235128 -1.252597,0.273006 -4.349966,1.24826 -5.425508,1.708423 -0.184868,0.07909 -0.422497,0.179947 -0.528134,0.224276 -0.105637,0.04433 -0.50198,0.213092 -0.880566,0.374654 -0.378586,0.161561 -0.715018,0.293522 -0.747758,0.293522 -0.122892,0 -4.165541,2.058939 -4.949569,2.520776 -2.084217,1.227726 -2.535422,1.508801 -3.794083,2.36368 -0.739464,0.502243 -1.58225,1.093615 -1.872754,1.314132 -1.130629,0.858246 -1.661687,0.987837 -2.210718,0.539502 -0.183696,-0.150005 -0.895687,-0.699336 -1.582332,-1.220597 -0.686645,-0.521261 -1.941917,-1.473916 -2.789494,-2.117184 -5.118323,-3.884544 -9.736484,-5.135601 -14.583089,-3.950146 -2.900464,0.709439 -7.819327,-0.300009 -9.581844,-1.966289 -0.339726,-0.321175 -3.420261,-2.722808 -3.824573,-2.98173 -0.230458,-0.147586 -1.036261,-0.451567 -2.253609,-0.850077 -0.314939,-0.103098 -0.89793,-0.364801 -1.296045,-0.581877 -0.398115,-0.217076 -0.961618,-0.523901 -1.25212,-0.681612 -0.643149,-0.349158 -0.682282,-0.38247 -0.596346,-0.50953 0.06494,-0.09602 0.216083,-0.172564 1.652612,-0.836641 0.343323,-0.158711 1.411806,-0.668311 2.374532,-1.132747 1.75041,-0.844431 1.750679,-0.844501 3.265434,-1.095024 0.833115,-0.137787 1.708966,-0.288178 1.946651,-0.334346 1.727557,-0.33557 1.729954,-0.335523 2.901115,0.03204 1.546977,0.485505 2.055612,0.607568 3.677295,0.882633 0.792283,0.134385 1.583753,0.269327 1.758549,0.30024 0.174796,0.03091 0.476858,0.0071 0.671793,-0.05271 0.194936,-0.05982 0.916358,-0.262142 1.603003,-0.450102 1.811968,-0.496 3.120998,-0.909249 3.505213,-1.105876 0.732881,-0.37506 4.499835,-1.624592 6.487459,-2.152323 0.525493,-0.139522 1.171477,-0.314453 1.435571,-0.388607 1.126493,-0.316302 3.979547,-0.957833 5.329908,-1.198377 0.343321,-0.06116 0.818581,-0.149148 1.056266,-0.195853 0.669504,-0.131559 2.537713,-0.38975 4.99401,-0.689881 0.690409,-0.08436 2.774028,-0.126592 4.849834,-0.126607 z"
       style="stroke-width:0.362964"
       id="path651"><title
         id="title659">wings</title></path><path
       d="m 45.102157,40.00531 c -0.260277,-0.0118 -0.740478,0.04627 -1.620057,0.166398 -1.863369,0.254487 -2.470036,0.303792 -4.897892,0.398942 -2.55033,0.09995 -5.790168,0.248566 -8.306986,0.381372 -0.760745,0.04014 -1.948871,0.185958 -2.736784,0.33538 -0.765873,0.145243 -1.56877,0.29484 -1.784387,0.33228 -0.369404,0.06414 -1.186812,0.466503 -2.033468,1.000972 -0.363444,0.229433 -0.961137,0.867649 -1.870687,1.998328 -0.554427,0.689225 -0.883217,1.844446 -0.645438,2.268079 0.186455,0.332192 0.314984,0.296782 0.412894,-0.113689 0.13518,-0.566699 2.1406,-1.437754 4.048332,-1.758032 0.351408,-0.059 0.453392,-0.166886 -1.475362,1.563729 -2.26601,2.033223 -2.864369,3.079865 -2.330607,4.076237 0.304427,0.568274 0.431265,0.487634 0.841292,-0.535885 0.371882,-0.928301 0.371555,-0.928471 2.148189,-1.670182 0.977148,-0.40794 1.884885,-0.78939 2.016931,-0.84801 0.42662,-0.189397 2.309035,-0.382615 2.300635,-0.236161 -0.0023,0.03961 -0.436876,0.525439 -0.965832,1.080037 -2.437251,2.555398 -2.952242,3.841583 -2.031918,5.074109 0.28581,0.382763 0.344747,0.338439 0.59583,-0.447518 0.471175,-1.474908 1.880674,-2.6954 3.517098,-3.045809 0.418974,-0.08971 0.934391,-0.201694 1.145666,-0.248564 0.211276,-0.04687 0.535504,-0.113651 0.72037,-0.148311 0.184865,-0.03466 0.833322,-0.296297 1.440739,-0.58136 0.607416,-0.285064 1.492985,-0.69853 1.968355,-0.918807 0.475369,-0.220277 1.455055,-0.690199 2.177128,-1.04438 0.978956,-0.480185 1.479833,-0.668304 1.968872,-0.740524 0.360713,-0.05327 1.195982,-0.186185 1.856217,-0.295072 0.660236,-0.108887 1.481373,-0.244157 1.824695,-0.300757 0.343323,-0.0566 0.777647,-0.141626 0.964799,-0.189136 0.259018,-0.06576 0.465135,-0.04314 0.86403,0.09612 0.990866,0.345915 2.737462,0.869715 2.901115,0.869715 0.177984,0 1.489082,0.233294 2.185913,0.389123 0.994773,0.222456 2.532259,-0.109413 6.185152,-1.334802 1.206733,-0.404807 0.140556,-1.647445 -1.41335,-1.647445 -0.820823,0 -1.275751,-0.178551 -1.431954,-0.562239 -0.13621,-0.334564 -0.159711,-0.586683 -0.06046,-0.648023 0.159708,-0.09871 0.07663,-0.510109 -0.132809,-0.656807 -0.249616,-0.174836 -2.515878,-0.221373 -2.619478,-0.05374 -0.160712,0.260037 -0.816488,0.105616 -0.816488,-0.192236 0,-0.158457 0.0433,-0.287838 0.09612,-0.287838 0.05281,0 0.09612,-0.04721 0.09612,-0.104903 0,-0.05769 0.08633,-0.215208 0.192237,-0.349849 0.35281,-0.448522 0.167333,-0.505396 -1.639177,-0.505396 -0.97318,0 -1.638556,0.03774 -1.674316,0.0956 -0.03264,0.05281 -0.143776,0.09612 -0.247013,0.09612 -0.103237,0 -0.270497,0.05161 -0.371554,0.114721 -0.306936,0.191685 -1.061951,-0.248129 -1.061951,-0.618566 0,-0.159992 -0.04048,-0.241419 -0.300756,-0.253215 z"
       style="stroke-width:0.362964"
       id="path650"><title
         id="title660">winged foot</title></path><path
       d="m 20.567737,46.080391 c -0.07514,-0.03323 -0.300256,0.175792 -0.808736,0.690398 -0.39482,0.399575 -0.90155,0.811149 -1.12603,0.914672 -0.376362,0.173569 -0.459018,0.275823 -0.413928,0.512114 0.02904,0.15222 -1.75712,1.880505 -1.943551,1.880505 -0.228893,0 -0.451135,0.224683 -0.451135,0.456303 0,0.100203 -0.108248,0.283675 -0.240295,0.407727 -0.132047,0.124052 -0.240296,0.270919 -0.240296,0.326078 0,0.190062 -0.998699,1.114661 -1.204061,1.114661 -0.257338,0 -0.585348,0.347441 -0.677478,0.718303 -0.04286,0.172531 -0.370137,0.583152 -0.823205,1.031978 -0.937747,0.928966 -1.072675,0.672405 1.169954,2.224154 1.057229,0.73153 2.002204,1.443844 2.099614,1.582849 0.178951,0.255364 2.218932,3.767012 2.724381,4.689636 0.186254,0.33998 0.317975,0.481881 0.412895,0.445451 0.100482,-0.03856 0.139526,0.01837 0.139526,0.203605 0,0.209161 0.03868,0.251313 0.208256,0.226343 0.215015,-0.03166 0.604074,-0.602064 0.512114,-0.750859 -0.02819,-0.0456 -0.0072,-0.109974 0.04651,-0.143144 0.05368,-0.03318 0.09767,-0.169492 0.09767,-0.302824 0,-0.324091 0.230268,-0.244322 0.270268,0.09354 0.0669,0.565096 0.785998,-0.121889 0.785998,-0.750859 0,-0.177369 0.05059,-0.241329 0.19172,-0.241329 0.160059,0 0.192236,0.06436 0.192236,0.384473 0,0.362798 0.01626,0.383956 0.288355,0.383956 0.180686,0 0.287837,-0.04932 0.287837,-0.132292 0,-0.07276 0.06243,-0.183893 0.138493,-0.247013 0.07606,-0.06312 0.151569,-0.205391 0.167949,-0.31626 0.0656,-0.444115 0.269751,-0.287338 0.269751,0.207223 0,0.616042 0.31622,0.684794 0.835607,0.181384 0.291733,-0.282758 0.316777,-0.290872 0.316777,-0.101803 0,0.112882 0.0433,0.231944 0.09612,0.264584 0.05281,0.03264 0.09612,0.230058 0.09612,0.438216 0,0.442287 0.189814,0.504246 0.538986,0.176216 0.227915,-0.214118 0.421162,-0.177385 0.421162,0.0801 0,0.384072 0.280098,0.505912 1.161687,0.505912 1.085485,0 1.081858,0.02394 0.219108,-1.338419 -0.677769,-1.070258 -0.761103,-1.259553 -1.070219,-2.431893 -0.410598,-1.557214 -0.411656,-1.41062 0.02119,-2.808098 0.805782,-2.601547 0.771462,-2.313609 0.350366,-2.971911 -0.868679,-1.358017 -0.462194,-2.609219 1.602487,-4.932516 0.849683,-0.956112 0.727139,-1.01635 -0.756543,-0.372587 -0.655631,0.284475 -1.407639,0.597615 -1.671733,0.695565 -1.307584,0.484988 -1.372712,0.54864 -1.825728,1.784904 -0.538228,1.468799 -0.545884,1.482091 -0.735356,1.262972 -0.98501,-1.139136 -1.349889,-2.443792 -0.882633,-3.156913 0.153221,-0.233846 0.142753,-0.270834 -0.3483,-1.237134 -0.432709,-0.851528 -0.496466,-1.045972 -0.441316,-1.33997 0.03392,-0.180833 0.0425,-0.288054 -0.0026,-0.307992 z"
       style="stroke-width:0.362964"
       id="path649"><title
         id="title664">torso</title></path><path
       d="m 11.540898,55.604358 c -0.159355,-6.34e-4 -0.254752,0.110944 -0.422197,0.283704 -0.179179,0.184865 -0.373348,0.335896 -0.431498,0.335896 -0.05815,0 -0.273485,0.171407 -0.478007,0.380856 -0.3381863,0.346334 -1.2199755,0.867647 -1.4676107,0.867647 -0.055395,0 -0.346792,0.129898 -0.6480225,0.288354 -0.3012308,0.158456 -0.5906936,0.287838 -0.6433716,0.287838 -0.052677,0 -0.253636,0.06939 -0.4464843,0.153996 -0.1928486,0.08461 -0.4374814,0.189717 -0.5431193,0.233577 -0.5202448,0.216008 -0.9650723,0.424176 -1.0082072,0.471806 -0.070177,0.07749 -0.402918,0.280122 -0.6242513,0.380339 -0.1056378,0.04783 -0.386568,0.289511 -0.6242513,0.536918 -0.2376871,0.247407 -0.5297837,0.488358 -0.6495728,0.535368 -0.1197927,0.04701 -0.2560402,0.183551 -0.3023071,0.30334 -0.046267,0.119789 -0.1931913,0.319324 -0.3265951,0.443384 -0.1334038,0.124059 -0.2975636,0.361689 -0.3648356,0.528133 -0.067272,0.166445 -0.1487085,0.323957 -0.1808675,0.350367 -0.032159,0.02641 -0.1363195,0.215673 -0.2315104,0.420129 -0.095187,0.204456 -0.244305,0.390155 -0.3312459,0.412895 -0.1758634,0.04599 -0.4212342,0.492267 -0.3415813,0.62115 0.084193,0.136224 0.2146928,0.09378 0.2614828,-0.08527 0.02417,-0.09243 0.049164,-0.0063 0.055294,0.19172 0.011089,0.358486 -0.1370485,0.490445 -0.2423625,0.216007 -0.1040437,-0.27114 -0.2268595,-0.144072 -0.2268595,0.234611 0,0.208158 -0.043299,0.40505 -0.096118,0.4377 -0.052818,0.03264 -0.096118,0.162541 -0.096118,0.288354 0,0.125813 -0.042782,0.255188 -0.095601,0.287838 -0.0528185,0.03264 -0.0964257,0.132372 -0.0971517,0.221692 -0.001053,0.172584 -0.31328876,0.79005 -0.61029867,1.207161 -0.2153575,0.302446 -0.15352061,0.980261 0.11575521,1.270207 0.0930241,0.100162 0.19834227,0.258803 0.23409424,0.352433 0.0357483,0.09363 0.14149396,0.199151 0.23512776,0.234611 0.19852691,0.07519 0.41031091,0.269003 0.41031091,0.375688 0,0.122937 0.6050832,0.707967 0.732255,0.707967 0.1339556,0 0.4201294,0.522446 0.4201294,0.766878 0,0.08872 0.026915,0.188165 0.059945,0.221175 0.033019,0.03301 0.060461,0.301441 0.060461,0.596346 0,0.294905 -0.027468,0.563336 -0.060461,0.596346 -0.033016,0.03301 -0.059945,0.139332 -0.059945,0.236162 0,0.112043 0.070012,0.176216 0.1922363,0.176216 0.1056408,0 0.1922364,-0.03975 0.1922364,-0.08837 0,-0.04862 0.1241316,-0.115995 0.2759521,-0.149345 0.1518244,-0.03335 0.3751337,-0.166283 0.4966105,-0.295589 0.2494581,-0.265533 0.5857112,-0.305508 0.7637777,-0.09095 0.1754177,0.211362 0.2883545,0.175953 0.2883545,-0.09043 0,-0.12893 0.042782,-0.261389 0.095601,-0.294039 0.052819,-0.03264 0.096118,-0.155144 0.096118,-0.272334 0,-0.245321 0.3063652,-0.543636 0.5581054,-0.543636 0.09447,0 0.2160448,-0.04448 0.2702678,-0.0987 0.188881,-0.188879 1.0924397,-0.237617 1.0924397,-0.05891 0,0.212514 0.071318,0.199135 0.4408,-0.08268 0.4673624,-0.35648 0.7115845,-0.323419 0.7115845,0.09612 0,0.47958 0.073689,0.447459 0.605131,-0.264066 0.3923073,-0.525246 0.5472534,-0.477761 0.5472534,0.167948 0,0.290503 0.039664,0.528133 0.088367,0.528133 0.1707071,0 0.77618,-0.804812 0.77618,-1.031978 0,-0.183051 0.043649,-0.223434 0.2160073,-0.198954 0.139891,0.01987 0.206326,0.08709 0.189136,0.191202 -0.0146,0.08845 0.01813,0.188699 0.07235,0.222209 0.05422,0.03351 0.0987,0.228525 0.0987,0.433565 0,0.713448 0.335795,0.489401 0.823722,-0.548803 0.154186,-0.328074 0.309976,-0.597964 0.345716,-0.599964 0.107358,-0.0061 0.366902,0.584704 0.366902,0.835091 0,0.281074 0.198128,0.249998 0.334864,-0.05271 0.05214,-0.115424 0.12474,-0.209806 0.16123,-0.209806 0.0365,0 0.09567,-0.236626 0.131775,-0.525549 0.06133,-0.49083 0.332279,-0.97246 0.332279,-0.590662 0,0.0857 0.0433,0.155546 0.09612,0.155546 0.05281,0 0.09612,0.151548 0.09612,0.336414 0,0.413312 0.06645,0.418591 0.427881,0.03566 0.197796,-0.209562 0.277206,-0.383451 0.262516,-0.576193 -0.01156,-0.151831 0.02282,-0.275952 0.07648,-0.275952 0.05366,0 0.09767,-0.09918 0.09767,-0.220658 0,-0.244379 0.162634,-0.451652 0.355018,-0.451652 0.08578,0 0.125056,0.150627 0.125056,0.480591 0,0.39635 0.02996,0.480074 0.171049,0.480074 0.116246,0 0.230362,-0.153516 0.357085,-0.480074 0.102484,-0.264095 0.219776,-0.480591 0.260966,-0.480591 0.04119,0 0.07493,-0.19768 0.07493,-0.439767 0,-0.499738 0.173129,-0.545154 0.313676,-0.08217 0.0471,0.155156 0.105075,0.342572 0.128675,0.416512 0.07272,0.22778 0.518314,-0.268883 0.518314,-0.577743 0,-0.146131 0.0433,-0.292394 0.09612,-0.325044 0.05282,-0.03264 0.0956,-0.179958 0.0956,-0.327112 0,-0.290309 0.309386,-0.64303 0.47439,-0.541052 0.05614,0.0347 0.101802,0.148518 0.101802,0.252697 0,0.104178 0.06583,0.214287 0.145728,0.244947 0.203541,0.07811 0.430464,-0.137679 0.430464,-0.409278 0,-0.12558 0.0433,-0.22841 0.09612,-0.22841 0.05282,0 0.09612,-0.169248 0.09612,-0.376204 0,-0.425361 0.07602,-0.680062 0.202571,-0.680062 0.04717,0 0.08578,0.08608 0.08578,0.19172 0,0.25674 0.350485,0.256347 0.432015,-5.17e-4 0.125065,-0.394046 -0.271871,-1.27716 -1.62264,-3.608049 -1.733222,-2.990855 -1.447475,-2.659801 -3.541386,-4.100524 -1.244247,-0.85611 -1.686744,-1.168382 -1.952335,-1.169438 z"
       style="stroke-width:0.362964"
       id="path648"><title
         id="title658">head</title></path></g><metadata
     id="metadata17"><rdf:RDF><cc:License
         rdf:about="http://creativecommons.org/licenses/by-nc-sa/4.0/"><cc:permits
           rdf:resource="http://creativecommons.org/ns#Reproduction" /><cc:permits
           rdf:resource="http://creativecommons.org/ns#Distribution" /><cc:requires
           rdf:resource="http://creativecommons.org/ns#Notice" /><cc:requires
           rdf:resource="http://creativecommons.org/ns#Attribution" /><cc:prohibits
           rdf:resource="http://creativecommons.org/ns#CommercialUse" /><cc:permits
           rdf:resource="http://creativecommons.org/ns#DerivativeWorks" /><cc:requires
           rdf:resource="http://creativecommons.org/ns#ShareAlike" /></cc:License><cc:Work
         rdf:about=""><cc:license
           rdf:resource="http://creativecommons.org/licenses/by-nc-sa/4.0/" /><dc:creator><cc:Agent><dc:title>Doriel Rivalet</dc:title></cc:Agent></dc:creator></cc:Work></rdf:RDF></metadata></svg>
