<?xml version="1.0" encoding="UTF-8" standalone="no"?>
<!-- Created with Inkscape (http://www.inkscape.org/) -->

<svg
   width="128mm"
   height="128mm"
   viewBox="0 0 128 128"
   version="1.1"
   id="svg5"
   xml:space="preserve"
   xmlns="http://www.w3.org/2000/svg"
   xmlns:svg="http://www.w3.org/2000/svg"
   xmlns:rdf="http://www.w3.org/1999/02/22-rdf-syntax-ns#"
   xmlns:cc="http://creativecommons.org/ns#"
   xmlns:dc="http://purl.org/dc/elements/1.1/"><defs
     id="defs2"><filter
       style="color-interpolation-filters:sRGB;"
       id="filter2"
       x="0"
       y="0"
       width="1"
       height="1"><feComposite
         in2="SourceGraphic"
         operator="arithmetic"
         k1="0"
         k2="1"
         result="composite1"
         id="feComposite1" /><feColorMatrix
         in="composite1"
         values="1"
         type="saturate"
         result="colormatrix1"
         id="feColorMatrix1" /><feFlood
         flood-opacity="1"
         flood-color="rgb(0,0,0)"
         result="flood1"
         id="feFlood1" /><feBlend
         in="flood1"
         in2="colormatrix1"
         mode="multiply"
         result="blend1"
         id="feBlend1" /><feBlend
         in2="blend1"
         mode="screen"
         result="blend2"
         id="feBlend2" /><feColorMatrix
         in="blend2"
         values="1"
         type="saturate"
         result="colormatrix2"
         id="feColorMatrix2" /><feComposite
         in="colormatrix2"
         in2="SourceGraphic"
         operator="in"
         k2="1"
         result="composite2"
         id="feComposite2" /></filter><filter
       style="color-interpolation-filters:sRGB;"
       id="filter18"
       x="0"
       y="0"
       width="1"
       height="1"><feComposite
         in2="SourceGraphic"
         operator="arithmetic"
         k1="0"
         k2="1"
         result="composite1"
         id="feComposite17" /><feColorMatrix
         in="composite1"
         values="1"
         type="saturate"
         result="colormatrix1"
         id="feColorMatrix17" /><feFlood
         flood-opacity="1"
         flood-color="rgb(0,0,0)"
         result="flood1"
         id="feFlood17" /><feBlend
         in="flood1"
         in2="colormatrix1"
         mode="multiply"
         result="blend1"
         id="feBlend17" /><feBlend
         in2="blend1"
         mode="screen"
         result="blend2"
         id="feBlend18" /><feColorMatrix
         in="blend2"
         values="1"
         type="saturate"
         result="colormatrix2"
         id="feColorMatrix18" /><feComposite
         in="colormatrix2"
         in2="SourceGraphic"
         operator="in"
         k2="1"
         result="composite2"
         id="feComposite18" /></filter><filter
       style="color-interpolation-filters:sRGB;"
       id="filter37"
       x="0"
       y="0"
       width="1"
       height="1"><feComposite
         in2="SourceGraphic"
         operator="arithmetic"
         k1="0"
         k2="1"
         result="composite1"
         id="feComposite36" /><feColorMatrix
         in="composite1"
         values="1"
         type="saturate"
         result="colormatrix1"
         id="feColorMatrix36" /><feFlood
         flood-opacity="1"
         flood-color="rgb(0,0,0)"
         result="flood1"
         id="feFlood36" /><feBlend
         in="flood1"
         in2="colormatrix1"
         mode="multiply"
         result="blend1"
         id="feBlend36" /><feBlend
         in2="blend1"
         mode="screen"
         result="blend2"
         id="feBlend37" /><feColorMatrix
         in="blend2"
         values="1"
         type="saturate"
         result="colormatrix2"
         id="feColorMatrix37" /><feComposite
         in="colormatrix2"
         in2="SourceGraphic"
         operator="in"
         k2="1"
         result="composite2"
         id="feComposite37" /></filter><filter
       style="color-interpolation-filters:sRGB;"
       id="filter51"
       x="0"
       y="0"
       width="1"
       height="1"><feComposite
         in2="SourceGraphic"
         operator="arithmetic"
         k1="0"
         k2="1"
         result="composite1"
         id="feComposite50" /><feColorMatrix
         in="composite1"
         values="1"
         type="saturate"
         result="colormatrix1"
         id="feColorMatrix50" /><feFlood
         flood-opacity="1"
         flood-color="rgb(0,0,0)"
         result="flood1"
         id="feFlood50" /><feBlend
         in="flood1"
         in2="colormatrix1"
         mode="multiply"
         result="blend1"
         id="feBlend50" /><feBlend
         in2="blend1"
         mode="screen"
         result="blend2"
         id="feBlend51" /><feColorMatrix
         in="blend2"
         values="1"
         type="saturate"
         result="colormatrix2"
         id="feColorMatrix51" /><feComposite
         in="colormatrix2"
         in2="SourceGraphic"
         operator="in"
         k2="1"
         result="composite2"
         id="feComposite51" /></filter><filter
       style="color-interpolation-filters:sRGB;"
       id="filter53"
       x="0"
       y="0"
       width="1"
       height="1"><feComposite
         in2="SourceGraphic"
         operator="arithmetic"
         k1="0"
         k2="1"
         result="composite1"
         id="feComposite52" /><feColorMatrix
         in="composite1"
         values="1"
         type="saturate"
         result="colormatrix1"
         id="feColorMatrix52" /><feFlood
         flood-opacity="1"
         flood-color="rgb(0,0,0)"
         result="flood1"
         id="feFlood52" /><feBlend
         in="flood1"
         in2="colormatrix1"
         mode="multiply"
         result="blend1"
         id="feBlend52" /><feBlend
         in2="blend1"
         mode="screen"
         result="blend2"
         id="feBlend53" /><feColorMatrix
         in="blend2"
         values="1"
         type="saturate"
         result="colormatrix2"
         id="feColorMatrix53" /><feComposite
         in="colormatrix2"
         in2="SourceGraphic"
         operator="in"
         k2="1"
         result="composite2"
         id="feComposite53" /></filter><filter
       style="color-interpolation-filters:sRGB;"
       id="filter73"
       x="0"
       y="0"
       width="1"
       height="1"><feComposite
         in2="SourceGraphic"
         operator="arithmetic"
         k1="0"
         k2="1"
         result="composite1"
         id="feComposite72" /><feColorMatrix
         in="composite1"
         values="1"
         type="saturate"
         result="colormatrix1"
         id="feColorMatrix72" /><feFlood
         flood-opacity="1"
         flood-color="rgb(0,0,0)"
         result="flood1"
         id="feFlood72" /><feBlend
         in="flood1"
         in2="colormatrix1"
         mode="multiply"
         result="blend1"
         id="feBlend72" /><feBlend
         in2="blend1"
         mode="screen"
         result="blend2"
         id="feBlend73" /><feColorMatrix
         in="blend2"
         values="1"
         type="saturate"
         result="colormatrix2"
         id="feColorMatrix73" /><feComposite
         in="colormatrix2"
         in2="SourceGraphic"
         operator="in"
         k2="1"
         result="composite2"
         id="feComposite73" /></filter><filter
       style="color-interpolation-filters:sRGB;"
       id="filter88"
       x="0"
       y="0"
       width="1"
       height="1"><feComposite
         in2="SourceGraphic"
         operator="arithmetic"
         k1="0"
         k2="1"
         result="composite1"
         id="feComposite87" /><feColorMatrix
         in="composite1"
         values="1"
         type="saturate"
         result="colormatrix1"
         id="feColorMatrix87" /><feFlood
         flood-opacity="1"
         flood-color="rgb(0,0,0)"
         result="flood1"
         id="feFlood87" /><feBlend
         in="flood1"
         in2="colormatrix1"
         mode="multiply"
         result="blend1"
         id="feBlend87" /><feBlend
         in2="blend1"
         mode="screen"
         result="blend2"
         id="feBlend88" /><feColorMatrix
         in="blend2"
         values="1"
         type="saturate"
         result="colormatrix2"
         id="feColorMatrix88" /><feComposite
         in="colormatrix2"
         in2="SourceGraphic"
         operator="in"
         k2="1"
         result="composite2"
         id="feComposite88" /></filter><filter
       style="color-interpolation-filters:sRGB;"
       id="filter108"
       x="0"
       y="0"
       width="1"
       height="1"><feComposite
         in2="SourceGraphic"
         operator="arithmetic"
         k1="0"
         k2="1"
         result="composite1"
         id="feComposite107" /><feColorMatrix
         in="composite1"
         values="1"
         type="saturate"
         result="colormatrix1"
         id="feColorMatrix107" /><feFlood
         flood-opacity="1"
         flood-color="rgb(0,0,0)"
         result="flood1"
         id="feFlood107" /><feBlend
         in="flood1"
         in2="colormatrix1"
         mode="multiply"
         result="blend1"
         id="feBlend107" /><feBlend
         in2="blend1"
         mode="screen"
         result="blend2"
         id="feBlend108" /><feColorMatrix
         in="blend2"
         values="1"
         type="saturate"
         result="colormatrix2"
         id="feColorMatrix108" /><feComposite
         in="colormatrix2"
         in2="SourceGraphic"
         operator="in"
         k2="1"
         result="composite2"
         id="feComposite108" /></filter><filter
       style="color-interpolation-filters:sRGB;"
       id="filter123"
       x="0"
       y="0"
       width="1"
       height="1"><feComposite
         in2="SourceGraphic"
         operator="arithmetic"
         k1="0"
         k2="1"
         result="composite1"
         id="feComposite122" /><feColorMatrix
         in="composite1"
         values="1"
         type="saturate"
         result="colormatrix1"
         id="feColorMatrix122" /><feFlood
         flood-opacity="1"
         flood-color="rgb(0,0,0)"
         result="flood1"
         id="feFlood122" /><feBlend
         in="flood1"
         in2="colormatrix1"
         mode="multiply"
         result="blend1"
         id="feBlend122" /><feBlend
         in2="blend1"
         mode="screen"
         result="blend2"
         id="feBlend123" /><feColorMatrix
         in="blend2"
         values="1"
         type="saturate"
         result="colormatrix2"
         id="feColorMatrix123" /><feComposite
         in="colormatrix2"
         in2="SourceGraphic"
         operator="in"
         k2="1"
         result="composite2"
         id="feComposite123" /></filter><filter
       style="color-interpolation-filters:sRGB;"
       id="filter137"
       x="0"
       y="0"
       width="1"
       height="1"><feComposite
         in2="SourceGraphic"
         operator="arithmetic"
         k1="0"
         k2="1"
         result="composite1"
         id="feComposite136" /><feColorMatrix
         in="composite1"
         values="1"
         type="saturate"
         result="colormatrix1"
         id="feColorMatrix136" /><feFlood
         flood-opacity="1"
         flood-color="rgb(0,0,0)"
         result="flood1"
         id="feFlood136" /><feBlend
         in="flood1"
         in2="colormatrix1"
         mode="multiply"
         result="blend1"
         id="feBlend136" /><feBlend
         in2="blend1"
         mode="screen"
         result="blend2"
         id="feBlend137" /><feColorMatrix
         in="blend2"
         values="1"
         type="saturate"
         result="colormatrix2"
         id="feColorMatrix137" /><feComposite
         in="colormatrix2"
         in2="SourceGraphic"
         operator="in"
         k2="1"
         result="composite2"
         id="feComposite137" /></filter><filter
       style="color-interpolation-filters:sRGB;"
       id="filter160"
       x="0"
       y="0"
       width="1"
       height="1"><feComposite
         in2="SourceGraphic"
         operator="arithmetic"
         k1="0"
         k2="1"
         result="composite1"
         id="feComposite159" /><feColorMatrix
         in="composite1"
         values="1"
         type="saturate"
         result="colormatrix1"
         id="feColorMatrix159" /><feFlood
         flood-opacity="1"
         flood-color="rgb(0,0,0)"
         result="flood1"
         id="feFlood159" /><feBlend
         in="flood1"
         in2="colormatrix1"
         mode="multiply"
         result="blend1"
         id="feBlend159" /><feBlend
         in2="blend1"
         mode="screen"
         result="blend2"
         id="feBlend160" /><feColorMatrix
         in="blend2"
         values="1"
         type="saturate"
         result="colormatrix2"
         id="feColorMatrix160" /><feComposite
         in="colormatrix2"
         in2="SourceGraphic"
         operator="in"
         k2="1"
         result="composite2"
         id="feComposite160" /></filter><filter
       style="color-interpolation-filters:sRGB;"
       id="filter177"
       x="0"
       y="0"
       width="1"
       height="1"><feComposite
         in2="SourceGraphic"
         operator="arithmetic"
         k1="0"
         k2="1"
         result="composite1"
         id="feComposite176" /><feColorMatrix
         in="composite1"
         values="1"
         type="saturate"
         result="colormatrix1"
         id="feColorMatrix176" /><feFlood
         flood-opacity="1"
         flood-color="rgb(0,0,0)"
         result="flood1"
         id="feFlood176" /><feBlend
         in="flood1"
         in2="colormatrix1"
         mode="multiply"
         result="blend1"
         id="feBlend176" /><feBlend
         in2="blend1"
         mode="screen"
         result="blend2"
         id="feBlend177" /><feColorMatrix
         in="blend2"
         values="1"
         type="saturate"
         result="colormatrix2"
         id="feColorMatrix177" /><feComposite
         in="colormatrix2"
         in2="SourceGraphic"
         operator="in"
         k2="1"
         result="composite2"
         id="feComposite177" /></filter><filter
       style="color-interpolation-filters:sRGB;"
       id="filter198"
       x="0"
       y="0"
       width="1"
       height="1"><feComposite
         in2="SourceGraphic"
         operator="arithmetic"
         k1="0"
         k2="1"
         result="composite1"
         id="feComposite197" /><feColorMatrix
         in="composite1"
         values="1"
         type="saturate"
         result="colormatrix1"
         id="feColorMatrix197" /><feFlood
         flood-opacity="1"
         flood-color="rgb(0,0,0)"
         result="flood1"
         id="feFlood197" /><feBlend
         in="flood1"
         in2="colormatrix1"
         mode="multiply"
         result="blend1"
         id="feBlend197" /><feBlend
         in2="blend1"
         mode="screen"
         result="blend2"
         id="feBlend198" /><feColorMatrix
         in="blend2"
         values="1"
         type="saturate"
         result="colormatrix2"
         id="feColorMatrix198" /><feComposite
         in="colormatrix2"
         in2="SourceGraphic"
         operator="in"
         k2="1"
         result="composite2"
         id="feComposite198" /></filter><filter
       style="color-interpolation-filters:sRGB;"
       id="filter212"
       x="0"
       y="0"
       width="1"
       height="1"><feComposite
         in2="SourceGraphic"
         operator="arithmetic"
         k1="0"
         k2="1"
         result="composite1"
         id="feComposite211" /><feColorMatrix
         in="composite1"
         values="1"
         type="saturate"
         result="colormatrix1"
         id="feColorMatrix211" /><feFlood
         flood-opacity="1"
         flood-color="rgb(0,0,0)"
         result="flood1"
         id="feFlood211" /><feBlend
         in="flood1"
         in2="colormatrix1"
         mode="multiply"
         result="blend1"
         id="feBlend211" /><feBlend
         in2="blend1"
         mode="screen"
         result="blend2"
         id="feBlend212" /><feColorMatrix
         in="blend2"
         values="1"
         type="saturate"
         result="colormatrix2"
         id="feColorMatrix212" /><feComposite
         in="colormatrix2"
         in2="SourceGraphic"
         operator="in"
         k2="1"
         result="composite2"
         id="feComposite212" /></filter><filter
       style="color-interpolation-filters:sRGB;"
       id="filter225"
       x="0"
       y="0"
       width="1"
       height="1"><feComposite
         in2="SourceGraphic"
         operator="arithmetic"
         k1="0"
         k2="1"
         result="composite1"
         id="feComposite224" /><feColorMatrix
         in="composite1"
         values="1"
         type="saturate"
         result="colormatrix1"
         id="feColorMatrix224" /><feFlood
         flood-opacity="1"
         flood-color="rgb(0,0,0)"
         result="flood1"
         id="feFlood224" /><feBlend
         in="flood1"
         in2="colormatrix1"
         mode="multiply"
         result="blend1"
         id="feBlend224" /><feBlend
         in2="blend1"
         mode="screen"
         result="blend2"
         id="feBlend225" /><feColorMatrix
         in="blend2"
         values="1"
         type="saturate"
         result="colormatrix2"
         id="feColorMatrix225" /><feComposite
         in="colormatrix2"
         in2="SourceGraphic"
         operator="in"
         k2="1"
         result="composite2"
         id="feComposite225" /></filter><filter
       style="color-interpolation-filters:sRGB;"
       id="filter244"
       x="0"
       y="0"
       width="1"
       height="1"><feComposite
         in2="SourceGraphic"
         operator="arithmetic"
         k1="0"
         k2="1"
         result="composite1"
         id="feComposite243" /><feColorMatrix
         in="composite1"
         values="1"
         type="saturate"
         result="colormatrix1"
         id="feColorMatrix243" /><feFlood
         flood-opacity="1"
         flood-color="rgb(0,0,0)"
         result="flood1"
         id="feFlood243" /><feBlend
         in="flood1"
         in2="colormatrix1"
         mode="multiply"
         result="blend1"
         id="feBlend243" /><feBlend
         in2="blend1"
         mode="screen"
         result="blend2"
         id="feBlend244" /><feColorMatrix
         in="blend2"
         values="1"
         type="saturate"
         result="colormatrix2"
         id="feColorMatrix244" /><feComposite
         in="colormatrix2"
         in2="SourceGraphic"
         operator="in"
         k2="1"
         result="composite2"
         id="feComposite244" /></filter><filter
       style="color-interpolation-filters:sRGB;"
       id="filter260"
       x="0"
       y="0"
       width="1"
       height="1"><feComposite
         in2="SourceGraphic"
         operator="arithmetic"
         k1="0"
         k2="1"
         result="composite1"
         id="feComposite259" /><feColorMatrix
         in="composite1"
         values="1"
         type="saturate"
         result="colormatrix1"
         id="feColorMatrix259" /><feFlood
         flood-opacity="1"
         flood-color="rgb(0,0,0)"
         result="flood1"
         id="feFlood259" /><feBlend
         in="flood1"
         in2="colormatrix1"
         mode="multiply"
         result="blend1"
         id="feBlend259" /><feBlend
         in2="blend1"
         mode="screen"
         result="blend2"
         id="feBlend260" /><feColorMatrix
         in="blend2"
         values="1"
         type="saturate"
         result="colormatrix2"
         id="feColorMatrix260" /><feComposite
         in="colormatrix2"
         in2="SourceGraphic"
         operator="in"
         k2="1"
         result="composite2"
         id="feComposite260" /></filter><filter
       style="color-interpolation-filters:sRGB;"
       id="filter280"
       x="0"
       y="0"
       width="1"
       height="1"><feComposite
         in2="SourceGraphic"
         operator="arithmetic"
         k1="0"
         k2="1"
         result="composite1"
         id="feComposite279" /><feColorMatrix
         in="composite1"
         values="1"
         type="saturate"
         result="colormatrix1"
         id="feColorMatrix279" /><feFlood
         flood-opacity="1"
         flood-color="rgb(0,0,0)"
         result="flood1"
         id="feFlood279" /><feBlend
         in="flood1"
         in2="colormatrix1"
         mode="multiply"
         result="blend1"
         id="feBlend279" /><feBlend
         in2="blend1"
         mode="screen"
         result="blend2"
         id="feBlend280" /><feColorMatrix
         in="blend2"
         values="1"
         type="saturate"
         result="colormatrix2"
         id="feColorMatrix280" /><feComposite
         in="colormatrix2"
         in2="SourceGraphic"
         operator="in"
         k2="1"
         result="composite2"
         id="feComposite280" /></filter><filter
       style="color-interpolation-filters:sRGB;"
       id="filter290"
       x="0"
       y="0"
       width="1"
       height="1"><feComposite
         in2="SourceGraphic"
         operator="arithmetic"
         k1="0"
         k2="1"
         result="composite1"
         id="feComposite289" /><feColorMatrix
         in="composite1"
         values="1"
         type="saturate"
         result="colormatrix1"
         id="feColorMatrix289" /><feFlood
         flood-opacity="1"
         flood-color="rgb(0,0,0)"
         result="flood1"
         id="feFlood289" /><feBlend
         in="flood1"
         in2="colormatrix1"
         mode="multiply"
         result="blend1"
         id="feBlend289" /><feBlend
         in2="blend1"
         mode="screen"
         result="blend2"
         id="feBlend290" /><feColorMatrix
         in="blend2"
         values="1"
         type="saturate"
         result="colormatrix2"
         id="feColorMatrix290" /><feComposite
         in="colormatrix2"
         in2="SourceGraphic"
         operator="in"
         k2="1"
         result="composite2"
         id="feComposite290" /></filter><filter
       style="color-interpolation-filters:sRGB;"
       id="filter305"
       x="0"
       y="0"
       width="1"
       height="1"><feComposite
         in2="SourceGraphic"
         operator="arithmetic"
         k1="0"
         k2="1"
         result="composite1"
         id="feComposite304" /><feColorMatrix
         in="composite1"
         values="1"
         type="saturate"
         result="colormatrix1"
         id="feColorMatrix304" /><feFlood
         flood-opacity="1"
         flood-color="rgb(0,0,0)"
         result="flood1"
         id="feFlood304" /><feBlend
         in="flood1"
         in2="colormatrix1"
         mode="multiply"
         result="blend1"
         id="feBlend304" /><feBlend
         in2="blend1"
         mode="screen"
         result="blend2"
         id="feBlend305" /><feColorMatrix
         in="blend2"
         values="1"
         type="saturate"
         result="colormatrix2"
         id="feColorMatrix305" /><feComposite
         in="colormatrix2"
         in2="SourceGraphic"
         operator="in"
         k2="1"
         result="composite2"
         id="feComposite305" /></filter><filter
       style="color-interpolation-filters:sRGB;"
       id="filter332"
       x="0"
       y="0"
       width="1"
       height="1"><feComposite
         in2="SourceGraphic"
         operator="arithmetic"
         k1="0"
         k2="1"
         result="composite1"
         id="feComposite331" /><feColorMatrix
         in="composite1"
         values="1"
         type="saturate"
         result="colormatrix1"
         id="feColorMatrix331" /><feFlood
         flood-opacity="1"
         flood-color="rgb(0,0,0)"
         result="flood1"
         id="feFlood331" /><feBlend
         in="flood1"
         in2="colormatrix1"
         mode="multiply"
         result="blend1"
         id="feBlend331" /><feBlend
         in2="blend1"
         mode="screen"
         result="blend2"
         id="feBlend332" /><feColorMatrix
         in="blend2"
         values="1"
         type="saturate"
         result="colormatrix2"
         id="feColorMatrix332" /><feComposite
         in="colormatrix2"
         in2="SourceGraphic"
         operator="in"
         k2="1"
         result="composite2"
         id="feComposite332" /></filter><filter
       style="color-interpolation-filters:sRGB;"
       id="filter346"
       x="0"
       y="0"
       width="1"
       height="1"><feComposite
         in2="SourceGraphic"
         operator="arithmetic"
         k1="0"
         k2="1"
         result="composite1"
         id="feComposite345" /><feColorMatrix
         in="composite1"
         values="1"
         type="saturate"
         result="colormatrix1"
         id="feColorMatrix345" /><feFlood
         flood-opacity="1"
         flood-color="rgb(0,0,0)"
         result="flood1"
         id="feFlood345" /><feBlend
         in="flood1"
         in2="colormatrix1"
         mode="multiply"
         result="blend1"
         id="feBlend345" /><feBlend
         in2="blend1"
         mode="screen"
         result="blend2"
         id="feBlend346" /><feColorMatrix
         in="blend2"
         values="1"
         type="saturate"
         result="colormatrix2"
         id="feColorMatrix346" /><feComposite
         in="colormatrix2"
         in2="SourceGraphic"
         operator="in"
         k2="1"
         result="composite2"
         id="feComposite346" /></filter><filter
       style="color-interpolation-filters:sRGB;"
       id="filter350"
       x="0"
       y="0"
       width="1"
       height="1"><feComposite
         in2="SourceGraphic"
         operator="arithmetic"
         k1="0"
         k2="1"
         result="composite1"
         id="feComposite349" /><feColorMatrix
         in="composite1"
         values="1"
         type="saturate"
         result="colormatrix1"
         id="feColorMatrix349" /><feFlood
         flood-opacity="1"
         flood-color="rgb(0,0,0)"
         result="flood1"
         id="feFlood349" /><feBlend
         in="flood1"
         in2="colormatrix1"
         mode="multiply"
         result="blend1"
         id="feBlend349" /><feBlend
         in2="blend1"
         mode="screen"
         result="blend2"
         id="feBlend350" /><feColorMatrix
         in="blend2"
         values="1"
         type="saturate"
         result="colormatrix2"
         id="feColorMatrix350" /><feComposite
         in="colormatrix2"
         in2="SourceGraphic"
         operator="in"
         k2="1"
         result="composite2"
         id="feComposite350" /></filter><filter
       style="color-interpolation-filters:sRGB;"
       id="filter370"
       x="0"
       y="0"
       width="1"
       height="1"><feComposite
         in2="SourceGraphic"
         operator="arithmetic"
         k1="0"
         k2="1"
         result="composite1"
         id="feComposite369" /><feColorMatrix
         in="composite1"
         values="1"
         type="saturate"
         result="colormatrix1"
         id="feColorMatrix369" /><feFlood
         flood-opacity="1"
         flood-color="rgb(0,0,0)"
         result="flood1"
         id="feFlood369" /><feBlend
         in="flood1"
         in2="colormatrix1"
         mode="multiply"
         result="blend1"
         id="feBlend369" /><feBlend
         in2="blend1"
         mode="screen"
         result="blend2"
         id="feBlend370" /><feColorMatrix
         in="blend2"
         values="1"
         type="saturate"
         result="colormatrix2"
         id="feColorMatrix370" /><feComposite
         in="colormatrix2"
         in2="SourceGraphic"
         operator="in"
         k2="1"
         result="composite2"
         id="feComposite370" /></filter><filter
       style="color-interpolation-filters:sRGB;"
       id="filter389"
       x="0"
       y="0"
       width="1"
       height="1"><feComposite
         in2="SourceGraphic"
         operator="arithmetic"
         k1="0"
         k2="1"
         result="composite1"
         id="feComposite388" /><feColorMatrix
         in="composite1"
         values="1"
         type="saturate"
         result="colormatrix1"
         id="feColorMatrix388" /><feFlood
         flood-opacity="1"
         flood-color="rgb(0,0,0)"
         result="flood1"
         id="feFlood388" /><feBlend
         in="flood1"
         in2="colormatrix1"
         mode="multiply"
         result="blend1"
         id="feBlend388" /><feBlend
         in2="blend1"
         mode="screen"
         result="blend2"
         id="feBlend389" /><feColorMatrix
         in="blend2"
         values="1"
         type="saturate"
         result="colormatrix2"
         id="feColorMatrix389" /><feComposite
         in="colormatrix2"
         in2="SourceGraphic"
         operator="in"
         k2="1"
         result="composite2"
         id="feComposite389" /></filter></defs><g
     id="layer1"><path
       d="m 127.09974,34.181376 c 0.7483,0.189458 0.98415,1.705529 0.58136,4.381128 -0.43099,2.862877 -0.42734,4.663781 0.0134,6.300907 0.29823,1.107702 0.33023,2.144571 0.21291,6.883818 -0.28258,11.414323 -0.70743,12.789075 -5.46789,17.687809 -4.83721,4.97772 -5.90546,5.536759 -13.5847,7.10861 -4.67066,0.956032 -4.01696,1.156245 -5.08754,-1.554944 -1.07311,-2.717598 -1.16069,-3.445996 -0.43718,-3.620967 0.27077,-0.06548 2.60923,-0.437616 5.19658,-0.826823 10.74907,-1.616947 14.63698,-7.588241 12.8173,-19.684587 -0.79676,-5.296546 0.95043,-12.292578 3.88245,-15.546854 0.79073,-0.877636 1.42429,-1.241771 1.87328,-1.128097 z"
       style=""
       id="path395"><title
         id="title400">tail</title></path><path
       d="m 91.465735,80.783183 c 0.740476,-0.09692 1.692928,0.834393 2.723348,2.871659 2.108314,4.168396 6.349287,6.630041 6.994407,4.059701 0.12706,-0.506255 0.20512,-0.535802 1.07642,-0.405144 0.83686,0.125495 0.97883,0.08178 1.29449,-0.399975 1.15937,-1.769423 4.48706,0.471739 4.97231,3.348633 0.20371,1.207706 0.33834,1.530139 0.6382,1.530139 1.22524,0 4.50114,3.06395 4.65037,4.349605 0.28098,2.420737 5.93038,12.542789 8.34057,14.943789 1.85968,1.85259 1.90583,1.92376 1.90583,2.93471 0,1.29035 -1.07818,3.1511 -1.82831,3.15588 -0.25822,0.002 -0.69674,0.0641 -0.97462,0.13849 -0.38735,0.10374 -0.53221,0.0322 -0.62064,-0.30593 -0.13951,-0.53346 -0.8753,-0.42397 -1.05988,0.15762 -0.17022,0.53631 -3.92711,0.51566 -4.98471,-0.0274 -1.28614,-0.66038 -1.99868,-2.46873 -1.66863,-4.2354 0.86309,-4.61988 -3.1195,-10.95264 -6.03942,-9.60355 -0.88691,0.40977 -1.71575,0.74517 -1.84227,0.74517 -0.12653,0 -0.49698,0.40311 -0.8232,0.89607 -0.56128,0.84816 -0.63776,0.88918 -1.42524,0.76326 -0.83219,-0.13306 -0.83251,-0.13308 -0.83251,1.09813 0,3.7067 -11.336335,-1.55483 -14.306102,-6.63991 -0.09377,-0.16056 0.237301,-0.833487 0.807703,-1.641239 1.167771,-1.653694 1.561742,-4.952348 1.48363,-12.424565 -0.03513,-3.36064 0.566214,-5.185139 1.518254,-5.309753 z"
       style=""
       id="path394"><title
         id="title402">hindlegs</title></path><path
       d="m 46.556331,101.03363 c -0.271899,-0.0414 -0.331942,0.36948 -0.495577,1.18442 -0.374901,1.86711 -8.484928,9.12703 -10.553877,9.44749 -2.414196,0.37394 -3.193055,0.94988 -3.953247,2.92488 -0.810907,2.10676 -0.660432,4.16131 0.260449,3.55792 0.454062,-0.29751 0.533244,-0.28715 0.900203,0.11834 0.306149,0.33829 0.443163,0.37791 0.574125,0.16588 0.128394,-0.20787 1.381059,-0.29855 4.929415,-0.35605 5.852112,-0.0949 6.46805,-0.45442 10.119279,-5.90971 1.801807,-2.69208 2.391277,-3.39437 3.697966,-4.40594 1.908506,-1.47744 1.916907,-1.31406 -0.124024,-2.42104 -1.144878,-0.62097 -2.309987,-1.52294 -3.586861,-2.77709 -1.011934,-0.99392 -1.495951,-1.4877 -1.767851,-1.5291 z"
       style=""
       id="path393"><title
         id="title403">hindlegs</title></path><path
       d="m 28.663367,47.2705 c -0.136633,0.07299 0.222062,8.265083 0.368453,8.41499 0.05876,0.06017 0.297383,-0.126112 0.530717,-0.413928 0.557747,-0.687982 0.505129,-0.869339 0.952913,3.258199 0.326242,3.007198 0.500386,3.85371 1.04283,5.066357 0.651225,1.455828 0.651383,1.455784 -1.303796,4.047815 -1.753618,2.324819 -2.086303,2.924591 -3.223059,5.817733 -1.245957,3.171068 -1.304039,3.268816 -3.456637,5.767606 -1.204316,1.398004 -2.098383,2.604907 -1.986442,2.682007 2.348799,1.617778 2.259058,1.51233 2.133203,2.499073 -1.414448,11.089738 -1.031551,12.098396 4.81211,12.68243 2.488887,0.248747 2.488787,0.248683 3.608565,-0.758094 1.290133,-1.15994 2.335667,-1.018644 4.2323,0.571542 1.514945,1.270168 1.843933,0.206381 0.592212,-1.915129 -0.638853,-1.082775 -0.44837,-2.349658 0.567924,-3.779097 1.029902,-1.44858 0.990886,-1.475334 -0.897103,-0.61495 -0.90923,0.41435 -1.704524,0.753442 -1.767334,0.753442 -0.06281,0 0.348178,-0.541664 0.913639,-1.203544 1.158616,-1.356174 0.9682,-1.493234 -0.755509,-0.543119 -0.651021,0.358846 -1.217065,0.652673 -1.257804,0.652673 -0.04074,0 0.279816,-0.492281 0.712101,-1.09399 0.432284,-0.601709 0.73534,-1.09399 0.67386,-1.09399 -0.06148,0 -0.571256,0.197016 -1.132747,0.4377 -1.288842,0.552463 -1.203328,0.579605 -1.202511,-0.382923 0.0016,-1.868363 3.262161,-5.634396 5.184697,-5.988265 0.698137,-0.128501 1.295597,-0.259015 1.327567,-0.289905 0.03197,-0.03089 -0.425042,-2.064527 -1.015441,-4.51962 -0.761358,-3.165995 -1.118612,-5.163829 -1.228349,-6.870899 -0.15472,-2.406835 -0.154524,-2.406758 -1.120862,-3.28197 -0.966338,-0.875213 -0.966366,-0.875038 -0.518831,-7.862052 0.363802,-5.679764 0.394835,-7.039099 0.166914,-7.26364 -0.475683,-0.468628 -6.837406,-4.838512 -6.95358,-4.776452 z"
       style=""
       id="path392"><title
         id="title399">forelegs</title></path><path
       d="m 55.561466,43.209766 c 0.584301,0.07951 1.322933,0.985511 3.331063,3.121773 7.954185,8.461714 7.383034,7.978095 11.964128,10.134265 3.091822,1.45522 4.350297,2.169578 5.182113,2.942456 1.098629,1.020792 1.098605,1.020672 3.592545,1.307931 3.859042,0.444495 4.741959,1.278388 6.266284,5.917985 0.611257,1.860479 1.574752,4.594543 2.140955,6.075598 1.930026,5.048503 2.216857,6.936314 1.151868,7.578349 -0.496828,0.299513 -1.027137,0.627899 -1.17874,0.730188 -0.216552,0.14611 -0.179691,0.464462 0.172083,1.484663 0.320812,0.930416 0.414038,1.608775 0.329179,2.392619 -0.06514,0.601709 -0.218571,2.829921 -0.341065,4.951119 -0.51523,8.922189 -3.764803,12.806988 -12.57546,15.034738 -5.311998,1.34314 -13.888242,2.15333 -16.738513,1.5813 -3.219018,-0.64604 -6.877992,-2.71683 -9.568408,-5.41517 -3.539991,-3.550413 -3.939418,-4.19804 -5.397603,-8.742103 -2.095576,-6.530325 -1.835154,-5.983042 -3.084567,-6.470923 -0.601343,-0.234818 -1.121632,-0.455523 -1.156518,-0.490409 -0.03489,-0.03489 0.219258,-0.83922 0.564823,-1.787488 0.628299,-1.724124 0.62806,-1.724096 -0.197404,-5.55315 -0.454005,-2.105977 -1.043616,-5.423541 -1.310514,-7.372159 -0.48527,-3.542941 -0.48505,-3.54297 -1.435571,-4.225582 -0.522787,-0.375437 -0.950847,-0.812331 -0.950847,-0.971 0,-0.433199 1.064783,-11.245869 1.21543,-12.342399 0.130765,-0.951822 0.131024,-0.951797 2.069124,-0.798401 2.210432,0.174947 10.482331,-4.378197 14.187248,-7.809343 0.749886,-0.694473 1.137955,-1.157641 1.523938,-1.259354 0.08041,-0.02119 0.160958,-0.02686 0.244429,-0.0155 z"
       style=""
       id="path397"><title
         id="title401">torso</title></path><path
       d="m 58.975212,25.413436 c -4.709248,0.372766 -10.836961,5.499167 -11.942941,11.345561 -0.203398,1.075201 -0.418397,1.491134 -1.187524,2.297534 -0.752371,0.788832 -0.95967,1.180703 -1.04128,1.970422 -0.0706,0.683199 -0.414064,1.472712 -1.119312,2.57297 -1.088495,1.698162 -1.170479,1.927531 -0.74414,2.085144 0.169862,0.0628 -0.134398,0.522689 -0.803569,1.213362 -1.023464,1.056352 -1.753192,3.097154 -1.224215,3.424081 0.07647,0.04726 1.392773,-0.988143 2.924887,-2.300635 3.241701,-2.77702 3.959663,-3.273392 1.783353,-1.232483 -0.842391,0.789981 -1.464308,1.440823 -1.381828,1.446423 0.908051,0.06131 7.648786,-4.448357 8.914185,-5.963977 1.852112,-2.218347 2.548062,-2.318395 3.733622,-0.534851 2.887746,4.3443 11.636771,11.73467 16.631543,14.048755 1.595036,0.738982 2.633925,1.388433 3.398242,2.123385 1.100895,1.058599 1.100821,1.0585 3.281971,1.0604 4.303114,0.0038 4.293861,-9.2e-5 4.997111,2.046904 0.336364,0.979084 0.959697,2.567799 1.384928,3.530534 2.5397,5.749952 4.868872,12.828898 4.878772,14.828035 7.48e-4,0.150985 0.51202,0.0869 1.569413,-0.197404 0.23984,-0.06449 0.416758,0.07381 0.514697,0.403076 0.709188,2.38426 4.126593,6.904283 5.4653,7.2285 0.301796,0.07309 0.653017,-0.127652 1.131713,-0.646989 0.58765,-0.637539 0.76161,-0.716741 1.1343,-0.517281 0.73419,0.39292 1.13633,0.269731 1.37718,-0.421163 0.19122,-0.548544 0.34625,-0.656291 0.94309,-0.656291 0.96076,0 1.53896,-2.133714 0.79633,-2.938839 -0.62465,-0.677222 -1.04678,-1.860517 -1.22163,-3.426664 -0.27223,-2.438343 -1.79741,-5.352929 -2.22208,-4.246252 -0.2051,0.534487 -0.42718,0.379871 -0.69143,-0.481108 -0.13663,-0.445163 -0.22723,-0.822365 -0.20103,-0.837675 1.98048,-1.158101 2.45377,-2.485302 1.05937,-2.971395 C 100.31682,69.387533 100.08311,67.4612 99.871423,59.421179 99.629812,50.244372 86.329776,34.023763 79.046855,34.023763 c -1.183648,0 -1.434102,-0.100731 -3.733106,-1.503784 -2.455651,-1.498656 -2.470893,-1.504136 -4.481897,-1.65623 -2.017993,-0.152623 -2.018,-0.152915 -3.551721,-1.666048 -1.377832,-1.359337 -1.644749,-1.527139 -2.62568,-1.654163 -0.807392,-0.10455 -1.24575,-0.304997 -1.681551,-0.768945 -1.015945,-1.08156 -2.42794,-1.485413 -3.997688,-1.361157 z"
       id="path396"
       style=""><title
         id="title398">forelegs</title></path><path
       d="m 34.587553,9.7167196 c -0.06052,0.1147474 0.534631,0.8003964 1.736328,2.1512894 2.200488,2.473686 2.206458,2.200351 -0.05736,2.590023 -0.967687,0.166569 -1.000831,0.283966 -0.273368,0.967383 0.732546,0.688191 0.69299,0.942085 -0.271818,1.737362 -0.819003,0.675091 -0.819054,0.675271 -1.148767,-0.296623 -0.462809,-1.364217 -0.495571,-1.367167 -1.526005,-0.136426 -0.923296,1.102775 -0.923251,1.102775 -2.264978,1.102775 -0.929589,0 -1.789965,0.17576 -2.80138,0.572575 -2.300815,0.902693 -4.332445,0.133886 -7.364925,-2.787427 -4.526187,-4.360262 -13.1166629,-0.959042 -12.2623005,4.855001 0.05776,0.393066 -0.093685,0.542088 -0.8040853,0.789616 -0.481367,0.167725 -1.2533733,0.60823 -1.7151408,0.979268 -0.6447037,0.518032 -1.3770466,0.796209 -3.1563964,1.198377 -1.2744549,0.288053 -2.35926246,0.56609 -2.41070561,0.617533 -0.0514432,0.05144 0.88316391,0.583582 2.07739261,1.182874 2.1713249,1.089622 2.1716135,1.089437 2.2091674,2.452047 0.1146307,4.159255 6.1613026,6.967007 10.5771326,4.911328 2.057882,-0.957996 1.930174,-1.035867 4.138248,2.520776 1.31224,2.113681 1.517737,2.583789 1.517737,3.466972 0,1.021638 4e-6,1.021584 1.835547,1.673283 1.730176,0.614287 2.052196,0.839965 5.611544,3.93361 2.076862,1.805127 4.770907,3.997793 5.986714,4.872571 2.210559,1.590504 2.210851,1.590668 3.516065,1.460892 1.676837,-0.166726 1.589254,-0.0783 1.763717,-1.795756 0.138885,-1.367222 0.221912,-1.548508 1.137915,-2.493388 0.944102,-0.973866 0.972533,-1.040924 0.645438,-1.507918 -0.327474,-0.467536 -0.291484,-0.548464 0.831991,-1.872754 1.003889,-1.183328 1.195854,-1.556508 1.3224,-2.569352 0.12165,-0.973654 0.315435,-1.375861 1.087789,-2.258777 0.678498,-0.775625 1.068413,-1.505288 1.401464,-2.623612 1.095945,-3.679978 2.831737,-6.597331 4.876189,-8.195882 2.363568,-1.848068 2.383435,-1.857624 4.335135,-2.034502 2.76136,-0.250255 2.746989,-0.144848 0.339515,-2.430342 -2.671458,-2.536102 -2.601205,-2.860239 0.481107,-2.214335 1.812612,0.379834 1.727135,0.212272 -0.489376,-0.957048 -2.122245,-1.11959 -2.12638,-1.12487 -1.09709,-1.497066 1.050958,-0.380032 0.959766,-0.797617 -0.273369,-1.25057 -2.932994,-1.077343 -2.889573,-0.58443 -0.316776,-3.597196 1.645851,-1.927306 1.336331,-1.846389 -1.962671,0.51263 -2.911897,2.082213 -2.911763,2.082008 -4.049882,1.005623 -1.316952,-1.245518 -1.356251,-1.254676 -2.218469,-0.529166 -0.779095,0.655565 -0.833705,0.6629 -0.971517,0.135909 -0.232292,-0.888285 -2.999355,-2.465041 -3.022555,-1.722376 -0.0479,1.533486 0.189507,1.615179 -4.771285,-1.643827 -1.4216,-0.933924 -2.137799,-1.3901219 -2.198315,-1.2753744 z"
       style=""
       id="path390"><title
         id="title397">head</title></path></g><metadata
     id="metadata17"><rdf:RDF><cc:License
         rdf:about="http://creativecommons.org/licenses/by-nc-sa/4.0/"><cc:permits
           rdf:resource="http://creativecommons.org/ns#Reproduction" /><cc:permits
           rdf:resource="http://creativecommons.org/ns#Distribution" /><cc:requires
           rdf:resource="http://creativecommons.org/ns#Notice" /><cc:requires
           rdf:resource="http://creativecommons.org/ns#Attribution" /><cc:prohibits
           rdf:resource="http://creativecommons.org/ns#CommercialUse" /><cc:permits
           rdf:resource="http://creativecommons.org/ns#DerivativeWorks" /><cc:requires
           rdf:resource="http://creativecommons.org/ns#ShareAlike" /></cc:License><cc:Work
         rdf:about=""><cc:license
           rdf:resource="http://creativecommons.org/licenses/by-nc-sa/4.0/" /><dc:creator><cc:Agent><dc:title>Doriel Rivalet</dc:title></cc:Agent></dc:creator></cc:Work></rdf:RDF></metadata></svg>
