<?xml version="1.0" encoding="UTF-8" standalone="no"?>
<!-- Created with Inkscape (http://www.inkscape.org/) -->

<svg
   xmlns:dc="http://purl.org/dc/elements/1.1/"
   xmlns:cc="http://creativecommons.org/ns#"
   xmlns:rdf="http://www.w3.org/1999/02/22-rdf-syntax-ns#"
   xmlns:svg="http://www.w3.org/2000/svg"
   xmlns="http://www.w3.org/2000/svg"
   xmlns:sodipodi="http://sodipodi.sourceforge.net/DTD/sodipodi-0.dtd"
   xmlns:inkscape="http://www.inkscape.org/namespaces/inkscape"
   width="64"
   height="64"
   viewBox="0 0 16.933333 16.933334"
   version="1.1"
   id="svg4846"
   inkscape:version="0.92.4 (5da689c313, 2019-01-14)"
   sodipodi:docname="5thGen Item Icon-Bow Yellow.svg">
  <defs
     id="defs4840" />
  <sodipodi:namedview
     id="base"
     pagecolor="#ffffff"
     bordercolor="#666666"
     borderopacity="1.0"
     inkscape:pageopacity="0.0"
     inkscape:pageshadow="2"
     inkscape:zoom="2.8"
     inkscape:cx="29.766401"
     inkscape:cy="37.684739"
     inkscape:document-units="px"
     inkscape:current-layer="layer1"
     showgrid="false"
     units="px"
     inkscape:window-width="1304"
     inkscape:window-height="745"
     inkscape:window-x="-8"
     inkscape:window-y="-8"
     inkscape:window-maximized="1"
     showguides="true"
     inkscape:guide-bbox="true" />
  <metadata
     id="metadata4843">
    <rdf:RDF>
      <cc:Work
         rdf:about="">
        <dc:format>image/svg+xml</dc:format>
        <dc:type
           rdf:resource="http://purl.org/dc/dcmitype/StillImage" />
        <dc:title />
      </cc:Work>
    </rdf:RDF>
  </metadata>
  <g
     inkscape:label="Layer 1"
     inkscape:groupmode="layer"
     id="layer1"
     transform="translate(0,-280.06665)">
    <path
       style="display:inline;opacity:1;vector-effect:none;fill:#ffffff;fill-opacity:1;fill-rule:evenodd;stroke:#000000;stroke-width:0.5291667;stroke-linecap:butt;stroke-linejoin:round;stroke-miterlimit:4;stroke-dasharray:none;stroke-dashoffset:0;stroke-opacity:1"
       d="m 12.964601,289.06247 h -0.529167 l 2.116667,2.11667 H 16.1396 l -2.116666,-2.11667 z"
       id="path2195-2-4"
       inkscape:connector-curvature="0"
       sodipodi:nodetypes="cccccc" />
    <path
       style="display:inline;opacity:1;vector-effect:none;fill:#d0d0d0;fill-opacity:1;fill-rule:evenodd;stroke:#000000;stroke-width:0.5291667;stroke-linecap:butt;stroke-linejoin:round;stroke-miterlimit:4;stroke-dasharray:none;stroke-dashoffset:0;stroke-opacity:1"
       d="m 11.641684,289.06249 v 0.52917 l 1.5875,1.5875 h 1.587499 l -2.116666,-2.11667 z"
       id="path2195-1-3"
       inkscape:connector-curvature="0"
       sodipodi:nodetypes="cccccc" />
    <path
       style="display:inline;opacity:1;vector-effect:none;fill:#ffffff;fill-opacity:1;fill-rule:evenodd;stroke:#000000;stroke-width:0.5291667;stroke-linecap:butt;stroke-linejoin:round;stroke-miterlimit:4;stroke-dasharray:none;stroke-dashoffset:0;stroke-opacity:1"
       d="m 10.318768,289.06248 v 0.52917 l 1.587499,1.5875 h 1.587499 L 11.3771,289.06248 Z"
       id="path2195-9"
       inkscape:connector-curvature="0"
       sodipodi:nodetypes="cccccc" />
    <path
       style="display:inline;opacity:1;vector-effect:none;fill:#ffffff;fill-opacity:1;fill-rule:evenodd;stroke:#000000;stroke-width:0.5291667;stroke-linecap:butt;stroke-linejoin:round;stroke-miterlimit:4;stroke-dasharray:none;stroke-dashoffset:0;stroke-opacity:1"
       d="m 3.4396017,289.06248 v 1.32292 c 0,0 0,0.79374 0.79375,0.79375 h 0.5291659 c 0,0 0.8333869,-9.8e-4 0.79375,-0.79375 v -1.32292 z"
       id="path2178-2"
       inkscape:connector-curvature="0"
       sodipodi:nodetypes="ccscscc" />
    <path
       style="display:inline;opacity:1;vector-effect:none;fill:#ffffff;fill-opacity:1;fill-rule:evenodd;stroke:#000000;stroke-width:0.5291667;stroke-linecap:butt;stroke-linejoin:round;stroke-miterlimit:4;stroke-dasharray:none;stroke-dashoffset:0;stroke-opacity:1"
       d="m 6.3500176,289.06248 v 1.32292 c 0,0 0,0.79375 0.79375,0.79375 l 0.5291669,1e-5 c 0,0 0.79375,0 0.79375,-0.79375 v -1.32292 z"
       id="path2178-8-8"
       inkscape:connector-curvature="0"
       sodipodi:nodetypes="ccscscc" />
    <path
       style="display:inline;opacity:1;vector-effect:none;fill:#ffffff;fill-opacity:1;fill-rule:evenodd;stroke:#000000;stroke-width:0.5291667;stroke-linecap:butt;stroke-linejoin:round;stroke-miterlimit:4;stroke-dasharray:none;stroke-dashoffset:0;stroke-opacity:1"
       d="m 5.2916845,294.61873 c -0.7937497,0.79376 -1.3229169,1.32292 -1.8520828,1.32292 -0.2645841,0 -0.5291671,-0.26458 -0.5291671,-0.52917 0,-0.52916 0.529166,-1.05833 1.3229171,-1.85208 z"
       id="path2174-1"
       inkscape:connector-curvature="0"
       sodipodi:nodetypes="ccccc" />
    <path
       style="display:inline;opacity:1;vector-effect:none;fill:#d0d0d0;fill-opacity:1;fill-rule:evenodd;stroke:#000000;stroke-width:0.5291667;stroke-linecap:butt;stroke-linejoin:round;stroke-miterlimit:4;stroke-dasharray:none;stroke-dashoffset:0;stroke-opacity:1"
       d="m 8.2021017,294.61873 v 0.79375 c 0,0 0,0.52917 0.529167,0.52917 0.5291669,0 1.0583328,0 1.0583328,0 0,0 1.0583335,0 1.0583335,-1.05833 0,-1.05834 0,-1.32292 0,-1.32292 0,0 0,-1.05833 -1.0583335,-1.05833 -1.0583328,0 -3.4395829,0 -3.4395829,0 0,0 -0.2645841,0 -0.2645841,-0.26459 0,-0.26458 0,-0.26458 0,-0.26458 l 0.5291672,-0.52917 v -2.38125 H 5.5562686 v 1.5875 l -1.3229169,1.32292 v 1.32292 c 0,0 0,1.32291 1.3229169,1.32291 1.3229159,0 1.5875,0 1.5875,0 l 1.322917,-0.79375 h 0.2645831 c 0,0 0.264583,0 0.264583,0.26459 0,0.26458 0,0.52916 0,0.52916 z"
       id="path2172-8"
       inkscape:connector-curvature="0" />
    <path
       style="display:inline;opacity:1;vector-effect:none;fill:#ffffff;fill-opacity:1;fill-rule:evenodd;stroke:#000000;stroke-width:0.5291667;stroke-linecap:butt;stroke-linejoin:round;stroke-miterlimit:4;stroke-dasharray:none;stroke-dashoffset:0;stroke-opacity:1"
       d="m 12.964602,288.00414 h -0.529167 l 2.116667,-2.11667 h 1.587499 l -2.116666,2.11667 z"
       id="path2195-2"
       inkscape:connector-curvature="0"
       sodipodi:nodetypes="cccccc" />
    <path
       style="display:inline;opacity:1;vector-effect:none;fill:#d0d0d0;fill-opacity:1;fill-rule:evenodd;stroke:#000000;stroke-width:0.5291667;stroke-linecap:butt;stroke-linejoin:round;stroke-miterlimit:4;stroke-dasharray:none;stroke-dashoffset:0;stroke-opacity:1"
       d="m 11.641685,288.00414 v -0.52917 l 1.5875,-1.5875 h 1.587499 l -2.116666,2.11667 z"
       id="path2195-1"
       inkscape:connector-curvature="0"
       sodipodi:nodetypes="cccccc" />
    <path
       style="display:inline;opacity:1;vector-effect:none;fill:#ffffff;fill-opacity:1;fill-rule:evenodd;stroke:#000000;stroke-width:0.5291667;stroke-linecap:butt;stroke-linejoin:round;stroke-miterlimit:4;stroke-dasharray:none;stroke-dashoffset:0;stroke-opacity:1"
       d="m 10.318769,288.00415 v -0.52917 l 1.587499,-1.5875 h 1.587499 l -2.116666,2.11667 z"
       id="path2195"
       inkscape:connector-curvature="0"
       sodipodi:nodetypes="cccccc" />
    <path
       style="display:inline;opacity:1;vector-effect:none;fill:#ffffff;fill-opacity:1;fill-rule:evenodd;stroke:#000000;stroke-width:0.5291667;stroke-linecap:butt;stroke-linejoin:round;stroke-miterlimit:4;stroke-dasharray:none;stroke-dashoffset:0;stroke-opacity:1"
       d="m 3.4396027,288.00415 v -1.32292 c 0,0 0,-0.79374 0.79375,-0.79375 h 0.5291659 c 0,0 0.833387,9.8e-4 0.79375,0.79375 v 1.32292 z"
       id="path2178"
       inkscape:connector-curvature="0"
       sodipodi:nodetypes="ccscscc" />
    <path
       style="display:inline;opacity:1;vector-effect:none;fill:#ffffff;fill-opacity:1;fill-rule:evenodd;stroke:#000000;stroke-width:0.5291667;stroke-linecap:butt;stroke-linejoin:round;stroke-miterlimit:4;stroke-dasharray:none;stroke-dashoffset:0;stroke-opacity:1"
       d="m 6.3500186,288.00415 v -1.32292 c 0,0 0,-0.79375 0.79375,-0.79375 l 0.529167,-10e-6 c 0,0 0.79375,0 0.79375,0.79375 v 1.32292 z"
       id="path2178-8"
       inkscape:connector-curvature="0"
       sodipodi:nodetypes="ccscscc" />
    <path
       style="display:inline;opacity:1;vector-effect:none;fill:#ffffff;fill-opacity:1;fill-rule:evenodd;stroke:#000000;stroke-width:0.5291667;stroke-linecap:butt;stroke-linejoin:round;stroke-miterlimit:4;stroke-dasharray:none;stroke-dashoffset:0;stroke-opacity:1"
       d="m 5.2916856,282.4479 c -0.7937501,-0.79376 -1.322917,-1.32292 -1.8520829,-1.32292 -0.2645841,0 -0.5291671,0.26458 -0.5291671,0.52917 0,0.52916 0.5291661,1.05833 1.3229171,1.85208 z"
       id="path2174"
       inkscape:connector-curvature="0"
       sodipodi:nodetypes="ccccc" />
    <path
       style="display:inline;opacity:1;vector-effect:none;fill:#d0d0d0;fill-opacity:1;fill-rule:evenodd;stroke:#000000;stroke-width:0.5291667;stroke-linecap:butt;stroke-linejoin:round;stroke-miterlimit:4;stroke-dasharray:none;stroke-dashoffset:0;stroke-opacity:1"
       d="m 8.2021025,282.4479 v -0.79375 c 0,0 0,-0.52917 0.5291672,-0.52917 0.529167,0 1.0583328,0 1.0583328,0 0,0 1.0583335,0 1.0583335,1.05833 0,1.05834 0,1.32292 0,1.32292 0,0 0,1.05833 -1.0583335,1.05833 -1.0583328,0 -3.4395828,0 -3.4395828,0 0,0 -0.2645841,0 -0.2645841,0.26459 0,0.26458 0,0.26458 0,0.26458 l 0.5291669,0.52917 v 2.38125 H 5.5562697 v -1.5875 l -1.322917,-1.32292 v -1.32292 c 0,0 0,-1.32291 1.322917,-1.32291 1.3229159,0 1.5875,0 1.5875,0 l 1.3229169,0.79375 h 0.2645831 c 0,0 0.2645828,0 0.2645828,-0.26459 0,-0.26458 0,-0.52916 0,-0.52916 z"
       id="path2172"
       inkscape:connector-curvature="0" />
    <path
       style="display:inline;opacity:1;vector-effect:none;fill:#ffffff;fill-opacity:1;fill-rule:evenodd;stroke:#000000;stroke-width:0.5291667;stroke-linecap:butt;stroke-linejoin:round;stroke-miterlimit:4;stroke-dasharray:none;stroke-dashoffset:0;stroke-opacity:1"
       d="M 14.287519,288.00415 H 3.7041855 v 1.05833 H 14.287519 Z"
       id="path2176"
       inkscape:connector-curvature="0" />
    <path
       style="display:inline;opacity:1;vector-effect:none;fill:#d0d0d0;fill-opacity:1;fill-rule:evenodd;stroke:#000000;stroke-width:0.5291667;stroke-linecap:butt;stroke-linejoin:round;stroke-miterlimit:4;stroke-dasharray:none;stroke-dashoffset:0;stroke-opacity:1"
       d="M 3.4396027,287.47498 H 1.8521026 l -1.058333,0.79375 v 0.52917 l 1.058333,0.79375 h 1.5875001 z"
       id="path2251"
       inkscape:connector-curvature="0" />
  </g>
</svg>
