<svg xmlns="http://www.w3.org/2000/svg" xmlns:svg="http://www.w3.org/2000/svg" id="svg4846" width="64" height="64" version="1.1" viewBox="0 0 16.933 16.933"><metadata id="metadata4843"/><g id="layer1" transform="translate(0,-280.06665)"><path style="display:inline;opacity:1;vector-effect:none;fill:#d5d5d5;fill-opacity:1;fill-rule:evenodd;stroke:#000;stroke-width:.5291667;stroke-linecap:butt;stroke-linejoin:round;stroke-miterlimit:4;stroke-dasharray:none;stroke-dashoffset:0;stroke-opacity:1" id="path4754" d="m 6.3499991,292.76665 v 2.11666 c 0,0 0,1.05834 -1.0583328,1.05834 -1.0583331,0 -2.38125,0 -2.38125,0 v -1.32292 h 0.7937499 v -1.85208 z"/><path style="display:inline;opacity:1;vector-effect:none;fill:#fff;fill-opacity:1;fill-rule:evenodd;stroke:#000;stroke-width:.5291667;stroke-linecap:butt;stroke-linejoin:round;stroke-miterlimit:4;stroke-dasharray:none;stroke-dashoffset:0;stroke-opacity:1" id="path4752" d="m 6.8791671,290.64998 1.058332,1.5875 v 0.52917 H 1.5874993 v -0.52917 l 1.322917,-1.5875 z"/><path style="display:inline;opacity:1;vector-effect:none;fill:#d5d5d5;fill-opacity:1;fill-rule:evenodd;stroke:#000;stroke-width:.5291667;stroke-linecap:butt;stroke-linejoin:round;stroke-miterlimit:4;stroke-dasharray:none;stroke-dashoffset:0;stroke-opacity:1" id="path4725" d="m 6.8791663,288.00415 h -5.291667 v 2.64583 h 5.8208339 v -2.64583 z"/><path style="display:inline;opacity:1;vector-effect:none;fill:#858585;fill-opacity:1;fill-rule:evenodd;stroke:none;stroke-width:.26458332;stroke-linecap:butt;stroke-linejoin:miter;stroke-miterlimit:4;stroke-dasharray:none;stroke-dashoffset:0;stroke-opacity:1" id="path4727-1" d="m 3.9687512,288.26872 v 1.32292 h -1.322917 v -1.32292 z"/><path style="display:inline;opacity:1;vector-effect:none;fill:#858585;fill-opacity:1;fill-rule:evenodd;stroke:none;stroke-width:.26458332;stroke-linecap:butt;stroke-linejoin:miter;stroke-miterlimit:4;stroke-dasharray:none;stroke-dashoffset:0;stroke-opacity:1" id="path4727" d="m 6.6145832,288.26873 v 1.32292 H 5.2916663 v -1.32292 z"/><path style="display:inline;opacity:1;vector-effect:none;fill:#fff;fill-opacity:1;fill-rule:evenodd;stroke:none;stroke-width:.26458332;stroke-linecap:butt;stroke-linejoin:miter;stroke-miterlimit:4;stroke-dasharray:none;stroke-dashoffset:0;stroke-opacity:1" id="path4723" d="m 11.641666,283.77081 2.910417,4.7625 v 3.70417 l -1.5875,2.11667 h -1.852084 l -2.3812499,-6.08542 -1.0583328,-1.5875 v -1.5875 l 1.8520828,-0.52917 0.7937499,-0.79375 z"/><path style="display:inline;opacity:1;vector-effect:none;fill:#d5d5d5;fill-opacity:1;fill-rule:evenodd;stroke:none;stroke-width:.26458332;stroke-linecap:butt;stroke-linejoin:miter;stroke-miterlimit:4;stroke-dasharray:none;stroke-dashoffset:0;stroke-opacity:1" id="path4721" d="m 14.552083,288.26873 h -2.910417 v 6.08542 h -1.322917 l -1.5874999,-2.11667 v -3.96875 h 2.9104169 v -4.49792 h 1.322917 l 0.79375,0.79375 1.852083,0.52917 v 1.5875 z"/><path style="display:inline;opacity:1;vector-effect:none;fill:none;fill-opacity:1;fill-rule:evenodd;stroke:#858585;stroke-width:.5291667;stroke-linecap:butt;stroke-linejoin:miter;stroke-miterlimit:4;stroke-dasharray:none;stroke-dashoffset:0;stroke-opacity:1" id="path4703" d="M 8.7312491,288.26873 H 14.552084"/><path style="display:inline;opacity:1;vector-effect:none;fill:none;fill-opacity:1;fill-rule:evenodd;stroke:#858585;stroke-width:.5291667;stroke-linecap:butt;stroke-linejoin:round;stroke-miterlimit:4;stroke-dasharray:none;stroke-dashoffset:0;stroke-opacity:1" id="path4701" d="m 11.641666,283.77081 v 10.58334"/><path style="display:inline;opacity:1;vector-effect:none;fill:none;fill-opacity:1;fill-rule:evenodd;stroke:#000;stroke-width:.5291667;stroke-linecap:butt;stroke-linejoin:round;stroke-miterlimit:4;stroke-dasharray:none;stroke-dashoffset:0;stroke-opacity:1" id="path4664" d="m 10.318751,283.77081 -0.7937506,0.79375 -1.8520833,0.52917 v 1.5875 l 1.0583333,1.5875 v 3.96875 l 1.5875006,2.11667 h 1.322916 1.322917 l 1.5875,-2.11667 v -3.96875 l 1.058333,-1.5875 v -1.5875 l -1.852083,-0.52917 -0.79375,-0.79375 h -1.322917 z"/><path style="display:inline;opacity:1;vector-effect:none;fill:#000;fill-opacity:1;fill-rule:evenodd;stroke:#000;stroke-width:.5291667;stroke-linecap:butt;stroke-linejoin:round;stroke-miterlimit:4;stroke-dasharray:none;stroke-dashoffset:0;stroke-opacity:1" id="path4666" d="m 10.054167,286.41664 -10e-7,0.79376 h 0.529167 v -1.05834 h -0.529166 z"/><path style="display:inline;opacity:1;vector-effect:none;fill:#000;fill-opacity:1;fill-rule:evenodd;stroke:#000;stroke-width:.5291667;stroke-linecap:butt;stroke-linejoin:round;stroke-miterlimit:4;stroke-dasharray:none;stroke-dashoffset:0;stroke-opacity:1" id="path4666-3" d="m 12.700001,286.41664 -1e-6,0.79376 h 0.529167 v -1.05834 h -0.529166 z"/><path style="display:inline;opacity:1;vector-effect:none;fill:#000;fill-opacity:1;fill-rule:evenodd;stroke:#000;stroke-width:.5291667;stroke-linecap:butt;stroke-linejoin:round;stroke-miterlimit:4;stroke-dasharray:none;stroke-dashoffset:0;stroke-opacity:1" id="path4666-5" d="m 10.054167,289.85623 -10e-7,0.79376 h 0.529167 v -1.05834 h -0.529166 z"/><path style="display:inline;opacity:1;vector-effect:none;fill:#000;fill-opacity:1;fill-rule:evenodd;stroke:#000;stroke-width:.5291667;stroke-linecap:butt;stroke-linejoin:round;stroke-miterlimit:4;stroke-dasharray:none;stroke-dashoffset:0;stroke-opacity:1" id="path4666-3-1" d="m 12.700001,289.85623 -1e-6,0.79376 h 0.529167 v -1.05834 h -0.529166 z"/><path style="display:inline;opacity:1;vector-effect:none;fill:#d5d5d5;fill-opacity:1;fill-rule:evenodd;stroke:#000;stroke-width:.5291667;stroke-linecap:butt;stroke-linejoin:round;stroke-miterlimit:4;stroke-dasharray:none;stroke-dashoffset:0;stroke-opacity:1" id="path4746" d="m 6.0854163,284.0354 v 3.96875 l -2.381249,-10e-6 -1.1e-6,-3.96874 z"/><path style="display:inline;opacity:1;vector-effect:none;fill:#d5d5d5;fill-opacity:1;fill-rule:evenodd;stroke:#000;stroke-width:.5291667;stroke-linecap:butt;stroke-linejoin:round;stroke-miterlimit:4;stroke-dasharray:none;stroke-dashoffset:0;stroke-opacity:1" id="path4748" d="m 6.0854163,284.0354 h 0.79375 v -1.32292 H 3.7041662 v 1.32292 z"/><path style="display:inline;opacity:1;vector-effect:none;fill:#fff;fill-opacity:1;fill-rule:evenodd;stroke:#000;stroke-width:.5291667;stroke-linecap:butt;stroke-linejoin:round;stroke-miterlimit:4;stroke-dasharray:none;stroke-dashoffset:0;stroke-opacity:1" id="path4750" d="m 3.7041662,282.71248 v -1.5875 h -0.529167 l -1.8520829,1.32292 c 0,0 1e-6,3.96874 0,3.96875 h 2.3812499 z"/></g></svg>