<svg xmlns="http://www.w3.org/2000/svg" xmlns:svg="http://www.w3.org/2000/svg" id="svg4846" width="64" height="64" version="1.1" viewBox="0 0 16.933 16.933"><metadata id="metadata4843"/><g id="layer1" transform="translate(0,-280.06665)"><path style="display:inline;opacity:1;vector-effect:none;fill:#4d4d4d;fill-opacity:1;fill-rule:evenodd;stroke:#000;stroke-width:.5291667;stroke-linecap:butt;stroke-linejoin:round;stroke-miterlimit:4;stroke-dasharray:none;stroke-dashoffset:0;stroke-opacity:1" id="path2033" d="m 7.4083333,284.43228 v -1.05833 c 0,0 0,-0.52917 -0.5291661,-0.52917 -0.529167,0 -3.7041672,0 -3.7041672,0 0,0 -0.5291667,0 -0.5291667,0.52917 0,0.52917 0,1.05833 0,1.05833 z"/><path style="display:inline;opacity:1;vector-effect:none;fill:#fff;fill-opacity:1;fill-rule:evenodd;stroke:none;stroke-width:.26458332;stroke-linecap:butt;stroke-linejoin:miter;stroke-miterlimit:4;stroke-dasharray:none;stroke-dashoffset:0;stroke-opacity:1" id="path2026" d="m 12.964583,288.9302 -0.79375,-1.05833 0.529166,-0.52917 0.79375,-3.43958 v -2.11667 h 0.79375 l 0.79375,0.52917 0.264584,1.5875 -0.264584,1.5875 -0.529166,1.85208 -1.058334,1.32292 z"/><path style="display:inline;opacity:1;vector-effect:none;fill:#d0d0d0;fill-opacity:1;fill-rule:evenodd;stroke:none;stroke-width:.26458332;stroke-linecap:butt;stroke-linejoin:miter;stroke-miterlimit:4;stroke-dasharray:none;stroke-dashoffset:0;stroke-opacity:1" id="path2024" d="m 13.493749,281.78645 c 1.058334,1.5875 0.529167,5.02708 -0.79375,6.35 l -0.529167,-0.26459 1.058334,-2.91041 0.264583,-2.38125 z"/><path style="display:inline;opacity:1;vector-effect:none;fill:#d0d0d0;fill-opacity:1;fill-rule:evenodd;stroke:#000;stroke-width:.5291667;stroke-linecap:butt;stroke-linejoin:round;stroke-miterlimit:4;stroke-dasharray:none;stroke-dashoffset:0;stroke-opacity:1" id="path2016" d="m 11.377083,288.66562 -0.264584,-0.26459 0.529167,-0.52916 h 0.529167 l 0.793749,0.79374 v 0.52917 l -0.529167,0.52916 z"/><path style="display:inline;opacity:1;vector-effect:none;fill:#fff;fill-opacity:1;fill-rule:evenodd;stroke:#000;stroke-width:.5291667;stroke-linecap:butt;stroke-linejoin:round;stroke-miterlimit:4;stroke-dasharray:none;stroke-dashoffset:0;stroke-opacity:1" id="path2000" d="M 7.6729169,294.75103 6.35,292.89895 5.55625,292.63437 5.0270833,292.1052 v -0.79375 h -0.79375 l -0.5291666,0.52917 H 3.4395833 L 2.9104166,291.31145 H 2.1166667 v 1.05833 L 1.5875,292.89895 v 1.32292 c 0,0 0.2645833,1.58748 2.6458333,1.58749 l 2.1166669,10e-6 z"/><circle style="display:inline;opacity:1;fill:#000;fill-opacity:1;fill-rule:nonzero;stroke:#000;stroke-width:.26458335;stroke-linecap:round;stroke-linejoin:round;stroke-miterlimit:4;stroke-dasharray:none;stroke-dashoffset:0;stroke-opacity:1;paint-order:normal" id="path2002" cx="3.307" cy="293.825" r=".397"/><circle style="display:inline;opacity:1;fill:#000;fill-opacity:1;fill-rule:nonzero;stroke:none;stroke-width:.5291667;stroke-linecap:round;stroke-linejoin:round;stroke-miterlimit:4;stroke-dasharray:none;stroke-dashoffset:0;stroke-opacity:1;paint-order:normal" id="path2005" cx="4.63" cy="294.619" r=".397"/><circle style="display:inline;opacity:1;fill:#000;fill-opacity:1;fill-rule:nonzero;stroke:none;stroke-width:.5291667;stroke-linecap:round;stroke-linejoin:round;stroke-miterlimit:4;stroke-dasharray:none;stroke-dashoffset:0;stroke-opacity:1;paint-order:normal" id="path2007" cx="5.953" cy="294.354" r=".397"/><path style="display:inline;opacity:1;vector-effect:none;fill:#d0d0d0;fill-opacity:1;fill-rule:evenodd;stroke:#000;stroke-width:.5291667;stroke-linecap:butt;stroke-linejoin:round;stroke-miterlimit:4;stroke-dasharray:none;stroke-dashoffset:0;stroke-opacity:1" id="path2010" d="m 7.6729172,294.75103 0.7937503,-0.52916 V 293.6927 L 7.1437503,292.36978 H 6.3500002 v 0.52917 z"/><path style="display:inline;opacity:1;vector-effect:none;fill:#d0d0d0;fill-opacity:1;fill-rule:evenodd;stroke:#000;stroke-width:.5291667;stroke-linecap:butt;stroke-linejoin:round;stroke-miterlimit:4;stroke-dasharray:none;stroke-dashoffset:0;stroke-opacity:1" id="path2012" d="m 7.4083333,292.63437 3.9687497,-3.96875 1.058333,1.05833 -3.9687485,3.96875 z"/><path style="display:inline;opacity:1;vector-effect:none;fill:none;fill-opacity:1;fill-rule:evenodd;stroke:#000;stroke-width:.5291667;stroke-linecap:butt;stroke-linejoin:round;stroke-miterlimit:4;stroke-dasharray:none;stroke-dashoffset:0;stroke-opacity:1" id="path2018" d="m 12.170833,287.87187 c 0.79375,-1.05834 1.322916,-4.23334 1.322916,-5.02709 v -1.05833 h 0.79375 c 0,0 1.058334,0 1.058334,2.38125 -1e-6,2.91041 -2.381251,5.02708 -2.381251,5.02708 l 10e-7,-0.52916 z"/><path style="display:inline;opacity:1;vector-effect:none;fill:#d0d0d0;fill-opacity:1;fill-rule:evenodd;stroke:#000;stroke-width:.5291667;stroke-linecap:butt;stroke-linejoin:round;stroke-miterlimit:4;stroke-dasharray:none;stroke-dashoffset:0;stroke-opacity:1" id="path2028" d="M 5.0270833,281.25728 H 4.7625002 c 0,0 -0.5291669,0 -0.5291669,0.52917 v 1.5875 H 3.96875 l -1.3229167,1.05833 v 0.52917 h 4.7625 v -0.52917 L 6.0854161,283.37395 H 5.8208333 v -1.5875 c 0,0 0,-0.52917 -0.5291661,-0.52917 z"/><path style="display:inline;opacity:1;vector-effect:none;fill:#d0d0d0;fill-opacity:1;fill-rule:evenodd;stroke:#000;stroke-width:.5291667;stroke-linecap:butt;stroke-linejoin:round;stroke-miterlimit:4;stroke-dasharray:none;stroke-dashoffset:0;stroke-opacity:1" id="path2031" d="M 2.6458333,284.96145 H 2.1166667 v 3.70417 l 1.5875,1.05833 h 2.6458335 l 1.5875003,-1.05833 v -3.70417 z"/><path style="display:inline;opacity:1;vector-effect:none;fill:#858585;fill-opacity:1;fill-rule:evenodd;stroke:none;stroke-width:.26458332;stroke-linecap:butt;stroke-linejoin:miter;stroke-miterlimit:4;stroke-dasharray:none;stroke-dashoffset:0;stroke-opacity:1" id="path2035" d="M 4.4979166,282.84478 H 5.55625 v 0.52917 H 4.4979166 Z"/><path style="display:inline;opacity:1;vector-effect:none;fill:#fff;fill-opacity:1;fill-rule:evenodd;stroke:none;stroke-width:.26458332;stroke-linecap:butt;stroke-linejoin:miter;stroke-miterlimit:4;stroke-dasharray:none;stroke-dashoffset:0;stroke-opacity:1" id="path2039" d="m 6.6145833,285.22603 -1.5875,1.85209 -1.5875,-1.85209 z"/><path style="display:inline;opacity:1;vector-effect:none;fill:#858585;fill-opacity:1;fill-rule:evenodd;stroke:none;stroke-width:.26458332;stroke-linecap:butt;stroke-linejoin:miter;stroke-miterlimit:4;stroke-dasharray:none;stroke-dashoffset:0;stroke-opacity:1" id="path2037" d="m 4.7625,286.54895 -1.0583334,-1.32292 h -0.79375 L 4.7625,287.60728 v 1.85208 h 0.5291666 v -1.85208 L 7.14375,285.22603 H 6.3500002 l -1.0583336,1.32292 z"/></g></svg>