<?xml version="1.0" encoding="UTF-8" standalone="no"?>
<!-- Created with Inkscape (http://www.inkscape.org/) -->
<svg xmlns:dc="http://purl.org/dc/elements/1.1/" xmlns:cc="http://creativecommons.org/ns#" xmlns:rdf="http://www.w3.org/1999/02/22-rdf-syntax-ns#" xmlns:svg="http://www.w3.org/2000/svg" xmlns="http://www.w3.org/2000/svg" xmlns:sodipodi="http://sodipodi.sourceforge.net/DTD/sodipodi-0.dtd" xmlns:inkscape="http://www.inkscape.org/namespaces/inkscape" width="64" height="64" viewBox="0 0 16.933333 16.933334" version="1.1" id="svg4846" inkscape:version="0.92.4 (5da689c313, 2019-01-14)" sodipodi:docname="5thGen Item Icon-Kinsect Impact Yellow.svg">
  <defs id="defs4840"/>
  <sodipodi:namedview id="base" pagecolor="#ffffff" bordercolor="#666666" borderopacity="1.0" inkscape:pageopacity="0.0" inkscape:pageshadow="2" inkscape:zoom="7.9195959" inkscape:cx="33.225978" inkscape:cy="27.846292" inkscape:document-units="px" inkscape:current-layer="layer1" showgrid="false" units="px" inkscape:window-width="1304" inkscape:window-height="745" inkscape:window-x="-8" inkscape:window-y="-8" inkscape:window-maximized="1" showguides="true" inkscape:guide-bbox="true"/>
  <metadata id="metadata4843">
    <rdf:RDF>
      <cc:Work rdf:about="">
        <dc:format>image/svg+xml</dc:format>
        <dc:type rdf:resource="http://purl.org/dc/dcmitype/StillImage"/>
        <dc:title/>
      </cc:Work>
    </rdf:RDF>
  </metadata>
  <g inkscape:label="Layer 1" inkscape:groupmode="layer" id="layer1" transform="translate(0,-280.06665)">
    <path style="display:inline;opacity:1;vector-effect:none;fill:#d0d0d0;fill-opacity:1;fill-rule:evenodd;stroke:none;stroke-width:0.26458332;stroke-linecap:butt;stroke-linejoin:miter;stroke-miterlimit:4;stroke-dasharray:none;stroke-dashoffset:0;stroke-opacity:1" d="m 9.1281248,281.78645 2.3812492,2.38125 v 3.43958 l 1.587501,1.5875 -1.058334,4.23334 -1.322916,1.32291 H 6.2177076 l -1.3229159,-1.32291 -1.322917,-3.43959 2.6458329,-4.23333 v -2.38125 l 1.5875005,-1.5875 z" id="path4199" inkscape:connector-curvature="0"/>
    <path style="display:inline;opacity:1;vector-effect:none;fill:#ffffff;fill-opacity:1;fill-rule:evenodd;stroke:none;stroke-width:0.26458332;stroke-linecap:butt;stroke-linejoin:miter;stroke-miterlimit:4;stroke-dasharray:none;stroke-dashoffset:0;stroke-opacity:1" d="m 9.1281245,281.78645 v 2.38125 h 0.529167 v 0.79375 l -0.2645839,0.79375 0.2645839,0.52917 3.1750005,3.70416 h 0.529167 v -0.79375 l 0.264583,-0.79375 -10e-7,-1.05834 10e-7,-0.52916 -0.529167,-0.26458 h -0.264583 l -1.322918,-0.79375 v -1.5875 z" id="path4097-5" inkscape:connector-curvature="0" sodipodi:nodetypes="ccccccccccccccccc"/>
    <path style="display:inline;opacity:1;vector-effect:none;fill:#858585;fill-opacity:1;fill-rule:evenodd;stroke:none;stroke-width:0.26458332;stroke-linecap:butt;stroke-linejoin:miter;stroke-miterlimit:4;stroke-dasharray:none;stroke-dashoffset:0;stroke-opacity:1" d="m 10.715625,294.75103 v -2.38125 l 1.322916,-1.32292 0.264583,0.26459 v 0.26458 l -0.264583,0.26459 -0.79375,0.79375 v 0.52916 l 0.79375,-0.79375 0.264583,0.52917 -0.264583,0.52917 z" id="path3984-2-5" inkscape:connector-curvature="0" sodipodi:nodetypes="cccccccccccc"/>
    <path style="display:inline;opacity:1;vector-effect:none;fill:#ffffff;fill-opacity:1;fill-rule:evenodd;stroke:none;stroke-width:0.26458332;stroke-linecap:butt;stroke-linejoin:miter;stroke-miterlimit:4;stroke-dasharray:none;stroke-dashoffset:0;stroke-opacity:1" d="m 7.8052081,281.78645 v 2.38125 H 7.2760415 v 0.79375 l 0.2645833,0.79375 -0.2645833,0.52917 -3.1749998,3.70416 h -0.529167 v -0.79375 l -0.2645838,-0.79375 1e-6,-1.05834 -2e-7,-0.52916 0.5291659,-0.26458 h 0.2645841 l 1.3229159,-0.79375 v -1.5875 z" id="path4097" inkscape:connector-curvature="0" sodipodi:nodetypes="ccccccccccccccccc"/>
    <path style="display:inline;opacity:1;vector-effect:none;fill:#858585;fill-opacity:1;fill-rule:evenodd;stroke:none;stroke-width:0.26458332;stroke-linecap:butt;stroke-linejoin:miter;stroke-miterlimit:4;stroke-dasharray:none;stroke-dashoffset:0;stroke-opacity:1" d="m 8.8635415,282.84478 h -0.79375 v 2.11667 h -0.79375 v 2.64583 H 6.4822917 v 1.85209 l 1.3229164,1.32291 h 1.3229167 l 1.3229172,-1.32291 v -1.85209 H 9.6572915 v -2.64583 h -0.79375 z" id="path4095" inkscape:connector-curvature="0"/>
    <path style="display:inline;opacity:1;vector-effect:none;fill:#858585;fill-opacity:1;fill-rule:evenodd;stroke:none;stroke-width:0.26458335;stroke-linecap:butt;stroke-linejoin:miter;stroke-miterlimit:4;stroke-dasharray:none;stroke-dashoffset:0;stroke-opacity:1" d="m 7.5406237,290.78229 h 1.8520844 v 3.96875 H 7.5406237 Z" id="path3982-6" inkscape:connector-curvature="0"/>
    <path style="display:inline;opacity:1;vector-effect:none;fill:#858585;fill-opacity:1;fill-rule:evenodd;stroke:none;stroke-width:0.26458332;stroke-linecap:butt;stroke-linejoin:miter;stroke-miterlimit:4;stroke-dasharray:none;stroke-dashoffset:0;stroke-opacity:1" d="m 6.2177086,294.75103 v -2.38125 l -1.3229169,-1.32292 -0.2645831,0.26459 v 0.26458 l 0.2645831,0.26459 0.79375,0.79375 v 0.52916 l -0.79375,-0.79375 -0.2645831,0.52917 0.2645831,0.52917 z" id="path3984-2" inkscape:connector-curvature="0" sodipodi:nodetypes="cccccccccccc"/>
    <path style="display:inline;opacity:1;vector-effect:none;fill:#4d4d4d;fill-opacity:1;fill-rule:evenodd;stroke:none;stroke-width:0.99999994;stroke-linecap:butt;stroke-linejoin:miter;stroke-miterlimit:4;stroke-dasharray:none;stroke-dashoffset:0;stroke-opacity:1" d="m 11.5,6.5 -4,6 v 17 l 6,4 h 1 l -3e-6,3.1e-5 L 14.5,29.5 v -14 l 3,-3 v -2 L 17.261719,9.7851562 17.5,9.5 17,9 16.5,7.5 16.039062,8.0390625 14.5,6.5 Z m 38,0 L 47.960938,8.0390625 47.5,7.5 47,9 46.5,9.5 46.738281,9.7851562 46.5,10.5 v 2 l 3,3 v 14 4 0 h 1 l 6,-4 v -17 l -4,-6 z m -31,30 -1,1 h -7 l -6,5 v 3 L 5.6210938,46.318359 5.5,46.5 l 4,2 3,-2 1.333984,-0.666016 L 13.5,46.5 l -2,2 v 5 l 3,2 v -0.285156 l 4,2.285156 3,-2 -3,-3 v -6 -2 -3 z m 27,0 v 5 3 2 6 l -3,3 3,2 4,-2.285156 V 55.5 l 3,-2 v -5 l -2,-2 L 50.166016,45.833984 51.5,46.5 l 3,2 4,-2 L 58.378906,46.318359 59.5,45.5 v -3 l -6,-5 h -7 z" transform="matrix(0.26458334,0,0,0.26458334,0,280.06665)" id="path4099-0" inkscape:connector-curvature="0" sodipodi:nodetypes="cccccccccccccccccccccccccccccccccccccccccccccccccccccccccccccccccccccccccccccc"/>
    <path inkscape:connector-curvature="0" style="display:inline;opacity:1;vector-effect:none;fill:none;fill-opacity:1;fill-rule:evenodd;stroke:#000000;stroke-width:0.5291667;stroke-linecap:butt;stroke-linejoin:round;stroke-miterlimit:4;stroke-dasharray:none;stroke-dashoffset:0;stroke-opacity:1" d="m 5.1593748,289.45936 -0.5291667,0.52917 h -1.0583332 -0.79375 l -1.5875001,1.32291 v 0.79375 l 1.0583334,0.79375 h 0.2645833 l 1.0583334,-0.79375 h 0.2645832 l -0.7937499,0.79375 v 1.32292 l 1.5874999,1.05833 h 0.5291667 l 0.5291666,-0.52916 v -0.26459 l -0.79375,-0.52916 v -0.52917 l 1.0583334,1.05833 0.2645833,0.26459 h 2.1166667 2.3812502 l 0.264583,-0.26459 1.058333,-1.05833 v 0.52917 l -0.79375,0.52916 v 0.26459 l 0.529167,0.52916 h 0.529166 l 1.587501,-1.05833 v -1.32292 l -0.79375,-0.79375 h 0.264584 l 1.058333,0.79375 h 0.264583 l 1.058334,-0.79375 v -0.79375 l -1.5875,-1.32291 h -0.79375 -1.058335 l -0.529166,-0.52917 h -1.322916 l -1.3229172,1.32292 h -0.79375 -0.5291667 l -1.3229166,-1.32292 z" id="path4075"/>
    <path inkscape:connector-curvature="0" style="display:inline;opacity:1;vector-effect:none;fill:none;fill-opacity:1;fill-rule:evenodd;stroke:#000000;stroke-width:0.5291667;stroke-linecap:butt;stroke-linejoin:round;stroke-miterlimit:4;stroke-dasharray:none;stroke-dashoffset:0;stroke-opacity:1" d="m 3.0427082,281.78644 -1.0583334,1.5875 v 4.49792 l 1.5875001,1.05833 v 1.05834 h 1.0583332 l 0.5291667,-0.52917 h 1.3229167 l 1.3229166,1.32292 h 0.5291667 0.79375 l 1.3229172,-1.32292 h 1.322916 l 0.529166,0.52917 h 1.058335 v -1.05834 l 1.5875,-1.05833 v -4.49792 l -1.058334,-1.5875 h -0.79375 l -0.793751,0.79375 v 0.52917 l 0.793751,1.05833 v 2.38125 h -0.264583 l -0.529168,-0.26458 -0.79375,-0.52917 v -1.5875 l -2.3812492,-2.38125 h -0.79375 -0.5291667 l -2.38125,2.38125 v 1.5875 l -0.79375,0.52917 -0.5291667,0.26458 H 3.8364581 v -2.38125 l 0.79375,-1.05833 v -0.52917 l -0.79375,-0.79375 z" id="path4057"/>
  </g>
</svg>