<svg xmlns="http://www.w3.org/2000/svg" xmlns:svg="http://www.w3.org/2000/svg" id="svg4846" width="64" height="64" version="1.1" viewBox="0 0 16.933 16.933"><metadata id="metadata4843"/><g id="layer1" transform="translate(0,-280.06665)"><path style="display:inline;opacity:1;vector-effect:none;fill:#d0d0d0;fill-opacity:1;fill-rule:evenodd;stroke:#000;stroke-width:.5291667;stroke-linecap:butt;stroke-linejoin:round;stroke-miterlimit:4;stroke-dasharray:none;stroke-dashoffset:0;stroke-opacity:1" id="path2095" d="m 9.5250005,291.44374 h 1.0583335 v 0.52917 h 0.264583 v -0.79375 h 1.322916 v 2.11666 H 8.9958336 v -1.85208 z"/><path style="display:inline;opacity:1;vector-effect:none;fill:#fff;fill-opacity:1;fill-rule:evenodd;stroke:none;stroke-width:.26458332;stroke-linecap:butt;stroke-linejoin:miter;stroke-miterlimit:4;stroke-dasharray:none;stroke-dashoffset:0;stroke-opacity:1" id="path2093" d="m 10.583334,284.29999 v 3.70417 l -1.3229166,3.70416 h -1.5875 l -1.3229169,-3.70416 v -3.70417 z"/><path style="color:#000;font-style:normal;font-variant:normal;font-weight:400;font-stretch:normal;font-size:medium;line-height:normal;font-family:sans-serif;font-variant-ligatures:normal;font-variant-position:normal;font-variant-caps:normal;font-variant-numeric:normal;font-variant-alternates:normal;font-feature-settings:normal;text-indent:0;text-align:start;text-decoration:none;text-decoration-line:none;text-decoration-style:solid;text-decoration-color:#000;letter-spacing:normal;word-spacing:normal;text-transform:none;writing-mode:lr-tb;direction:ltr;text-orientation:mixed;dominant-baseline:auto;baseline-shift:baseline;text-anchor:start;white-space:normal;shape-padding:0;clip-rule:nonzero;display:inline;overflow:visible;visibility:visible;opacity:1;isolation:auto;mix-blend-mode:normal;color-interpolation:sRGB;color-interpolation-filters:linearRGB;solid-color:#000;solid-opacity:1;vector-effect:none;fill:#858585;fill-opacity:1;fill-rule:evenodd;stroke:none;stroke-width:.26458335;stroke-linecap:butt;stroke-linejoin:round;stroke-miterlimit:4;stroke-dasharray:none;stroke-dashoffset:0;stroke-opacity:1;color-rendering:auto;image-rendering:auto;shape-rendering:auto;text-rendering:auto;enable-background:accumulate" id="path2091" d="m 8.1897135,289.72485 c -0.06734,0.007 -0.1187381,0.0632 -0.1191411,0.13086 v 1.85352 c 7.938e-4,0.072 0.05891,0.13008 0.13086,0.13086 h 0.5292961 c 0.07271,2.9e-4 0.1320199,-0.0582 0.1328129,-0.13086 v -1.58789 -0.26563 c -7.938e-4,-0.0727 -0.06011,-0.13114 -0.1328129,-0.13086 H 8.2014324 c -0.0039,-1.7e-4 -0.0078,-1.7e-4 -0.011721,0 z"/><path style="display:inline;opacity:1;vector-effect:none;fill:#d0d0d0;fill-opacity:1;fill-rule:evenodd;stroke:none;stroke-width:.26458332;stroke-linecap:butt;stroke-linejoin:miter;stroke-miterlimit:4;stroke-dasharray:none;stroke-dashoffset:0;stroke-opacity:1" id="path2089" d="m 7.4083336,291.44374 h 2.1166669 l -0.2645831,0.52917 v 1.05833 l 0.5291662,1.05833 v 1.32292 l -0.2645831,0.52917 H 7.4083336 l -0.2645831,-0.52917 v -1.32292 l 0.5291669,-1.05833 v -1.05833 z"/><path style="display:inline;opacity:1;vector-effect:none;fill:none;fill-opacity:1;fill-rule:evenodd;stroke:#000;stroke-width:.5291667;stroke-linecap:butt;stroke-linejoin:miter;stroke-miterlimit:4;stroke-dasharray:none;stroke-dashoffset:0;stroke-opacity:1" id="path2087" d="M 8.4666656,284.29999 H 6.3500005 v 3.70417 l 1.3229169,3.96875 v 0.79375 l -0.5291669,1.32291 v 1.32292 c 0,0 0,0.52917 0.5291669,0.52917 0.5291662,0 1.5875,0 1.5875,0 0,0 0.5291662,0 0.5291662,-0.52917 0,-0.52917 0,-1.32292 0,-1.32292 l -0.5291662,-1.32291 v -0.79375 l 1.3229166,-3.96875 v -3.70417 z"/><path style="display:inline;opacity:1;vector-effect:none;fill:#fff;fill-opacity:1;fill-rule:evenodd;stroke:#000;stroke-width:.5291667;stroke-linecap:butt;stroke-linejoin:round;stroke-miterlimit:4;stroke-dasharray:none;stroke-dashoffset:0;stroke-opacity:1" id="path2069" d="m 5.8208335,282.4479 -2.1166666,2.11667 v 3.96875 H 3.1750002 v -0.26458 l 0.2645833,-0.26459 v -0.52916 L 3.1750002,287.2104 H 2.1166668 l -0.7937499,0.79375 v 1.05834 l 1.3229166,1.32291 h 1.3229167 l 1.3229167,-1.32291 v -3.70417 L 6.6145836,284.0354 H 8.4666669 10.31875 l 1.322916,1.32292 v 3.70417 l 1.322918,1.32291 h 1.322917 l 1.322916,-1.32291 v -1.05834 l -0.79375,-0.79375 h -1.058333 l -0.264583,0.26459 v 0.52916 l 0.264583,0.26459 v 0.26458 h -0.529167 v -3.96875 L 11.1125,282.4479 H 8.4666669 Z"/><path style="display:inline;opacity:1;vector-effect:none;fill:#fff;fill-opacity:1;fill-rule:evenodd;stroke:#000;stroke-width:.5291667;stroke-linecap:butt;stroke-linejoin:round;stroke-miterlimit:4;stroke-dasharray:none;stroke-dashoffset:0;stroke-opacity:1" id="path2100" d="m 7.6729174,282.44791 v -1.05834 c 0,0 0,-0.26458 0.2645831,-0.26458 0.2645831,0 1.0583331,0 1.0583331,0 0,0 0.2645838,0 0.2645838,0.26458 0,0.26459 0,1.05834 0,1.05834 z"/></g></svg>