<svg xmlns="http://www.w3.org/2000/svg" xmlns:svg="http://www.w3.org/2000/svg" id="svg4846" width="64" height="64" version="1.1" viewBox="0 0 16.933 16.933"><metadata id="metadata4843"/><g id="layer1" transform="translate(0,-280.06665)"><path style="display:inline;opacity:1;vector-effect:none;fill:#d0d0d0;fill-opacity:1;fill-rule:evenodd;stroke:none;stroke-width:.26458332;stroke-linecap:butt;stroke-linejoin:miter;stroke-miterlimit:4;stroke-dasharray:none;stroke-dashoffset:0;stroke-opacity:1" id="path4476" d="m 14.155212,281.78645 1.5875,1.32291 v 0.79375 l -2.11667,2.91042 -2.11667,-1.5875 z"/><path style="color:#000;font-style:normal;font-variant:normal;font-weight:400;font-stretch:normal;font-size:medium;line-height:normal;font-family:sans-serif;font-variant-ligatures:normal;font-variant-position:normal;font-variant-caps:normal;font-variant-numeric:normal;font-variant-alternates:normal;font-feature-settings:normal;text-indent:0;text-align:start;text-decoration:none;text-decoration-line:none;text-decoration-style:solid;text-decoration-color:#000;letter-spacing:normal;word-spacing:normal;text-transform:none;writing-mode:lr-tb;direction:ltr;text-orientation:mixed;dominant-baseline:auto;baseline-shift:baseline;text-anchor:start;white-space:normal;shape-padding:0;clip-rule:nonzero;display:inline;overflow:visible;visibility:visible;opacity:1;isolation:auto;mix-blend-mode:normal;color-interpolation:sRGB;color-interpolation-filters:linearRGB;solid-color:#000;solid-opacity:1;vector-effect:none;fill:#858585;fill-opacity:1;fill-rule:evenodd;stroke:none;stroke-width:2;stroke-linecap:butt;stroke-linejoin:round;stroke-miterlimit:4;stroke-dasharray:none;stroke-dashoffset:0;stroke-opacity:1;color-rendering:auto;image-rendering:auto;shape-rendering:auto;text-rendering:auto;enable-background:accumulate" id="path4470" d="M 56.722656 8.8730469 L 53.326172 13.119141 L 50.101562 10.703125 L 48.898438 12.296875 L 56.900391 18.298828 L 58.103516 16.697266 L 54.925781 14.316406 L 58.279297 10.126953 L 56.722656 8.8730469 z M 47.095703 14.697266 L 45.900391 16.298828 L 53.902344 22.298828 L 55.097656 20.697266 L 47.095703 14.697266 z" transform="matrix(0.26458334,0,0,0.26458334,0,280.06665)"/><path style="display:inline;opacity:1;vector-effect:none;fill:#d0d0d0;fill-opacity:1;fill-rule:evenodd;stroke:none;stroke-width:.26458332;stroke-linecap:butt;stroke-linejoin:miter;stroke-miterlimit:4;stroke-dasharray:none;stroke-dashoffset:0;stroke-opacity:1" id="path4462" d="m 1.1906216,295.01561 v -1.32291 h 2.38125 l 1.5875,-0.79375 2.38125,-2.11667 2.9104204,-3.70417 1.05833,0.79375 -0.26458,1.5875 -6.3500005,5.55625 z"/><path style="display:inline;opacity:1;vector-effect:none;fill:#fff;fill-opacity:1;fill-rule:evenodd;stroke:none;stroke-width:.26458332;stroke-linecap:butt;stroke-linejoin:miter;stroke-miterlimit:4;stroke-dasharray:none;stroke-dashoffset:0;stroke-opacity:1" id="path4459" d="m 1.1906216,294.75103 h 2.64584 c 3.175,0 7.6729104,-6.87917 7.6729104,-6.87917 l 1.05834,0.79375 -0.26459,0.52917 -4.4979104,5.02708 -1.85209,1.32292 -0.79375,0.26458 h -2.64583 l -1.05833,-0.52916 z"/><path style="display:inline;opacity:1;vector-effect:none;fill:none;fill-opacity:1;fill-rule:evenodd;stroke:#000;stroke-width:.5291667;stroke-linecap:butt;stroke-linejoin:round;stroke-miterlimit:4;stroke-dasharray:none;stroke-dashoffset:0;stroke-opacity:1" id="path4457" d="m 12.567712,288.66561 -2.11667,-1.5875 c 0,0 -4.4979104,6.61458 -7.4083204,6.61458 h -1.85209 l -10e-6,1.05834 c 0,0 0,1.05833 1.85209,1.05833 h 1.8520799 c 2.3812501,0 7.6729205,-7.14375 7.6729205,-7.14375 z"/><path style="display:inline;opacity:1;vector-effect:none;fill:#fff;fill-opacity:1;fill-rule:evenodd;stroke:#000;stroke-width:.5291667;stroke-linecap:butt;stroke-linejoin:round;stroke-miterlimit:4;stroke-dasharray:none;stroke-dashoffset:0;stroke-opacity:1" id="path4466" d="m 13.890632,288.66561 -0.26459,0.26458 -3.9687504,-2.91041 1.0583304,-1.32292 3.96875,2.91042 z"/><path style="display:inline;opacity:1;vector-effect:none;fill:none;fill-opacity:1;fill-rule:evenodd;stroke:#000;stroke-width:.5291667;stroke-linecap:butt;stroke-linejoin:round;stroke-miterlimit:4;stroke-dasharray:none;stroke-dashoffset:0;stroke-opacity:1" id="path4468" d="m 11.509372,285.22603 2.64584,-3.43958 1.5875,1.32291 v 0.79375 l -2.11667,2.91042 z"/><path style="display:inline;opacity:1;vector-effect:none;fill:#d0d0d0;fill-opacity:1;fill-rule:evenodd;stroke:#000;stroke-width:.5291667;stroke-linecap:butt;stroke-linejoin:round;stroke-miterlimit:4;stroke-dasharray:none;stroke-dashoffset:0;stroke-opacity:1" id="path4479" d="m 12.567712,283.37395 c 0,0 -0.79375,-0.26459 -1.85209,-0.26459 -1.0583304,0 -1.3229104,0.26459 -2.6458304,0.26459 v 1.58749 c 0,0 0.79375,-0.26458 1.85209,-0.26458 h 1.5875004 z"/><path style="display:inline;opacity:1;vector-effect:none;fill:#d0d0d0;fill-opacity:1;fill-rule:evenodd;stroke:#000;stroke-width:.5291667;stroke-linecap:butt;stroke-linejoin:round;stroke-miterlimit:4;stroke-dasharray:none;stroke-dashoffset:0;stroke-opacity:1" id="path4481" d="m 8.0697916,283.37395 c 0,0 -0.79375,-0.52917 -1.85208,-0.52917 v 2.64583 c 1.05833,0 1.85208,-0.52917 1.85208,-0.52917 z"/><path style="display:inline;opacity:1;vector-effect:none;fill:#d0d0d0;fill-opacity:1;fill-rule:evenodd;stroke:#000;stroke-width:.5291667;stroke-linecap:butt;stroke-linejoin:round;stroke-miterlimit:4;stroke-dasharray:none;stroke-dashoffset:0;stroke-opacity:1" id="path4485" d="m 6.2177116,282.84478 v -0.52917 L 4.8947915,281.25728 H 3.8364616 v 1.05833 l 2.38125,1.32292 -2.38125,-1.05833 h -1.32292 v 0.79375 l 1.05833,0.79375 2.64584,0.52916 -2.91042,-0.26458 -0.79375,0.79375 v 0.52917 h 3.43958 l 0.26459,-0.26459 z"/></g></svg>