<svg xmlns="http://www.w3.org/2000/svg" xmlns:svg="http://www.w3.org/2000/svg" id="svg4846" width="64" height="64" version="1.1" viewBox="0 0 16.933 16.933"><metadata id="metadata4843"/><g id="layer1" transform="translate(0,-280.06665)"><path style="display:inline;opacity:1;vector-effect:none;fill:#d0d0d0;fill-opacity:1;fill-rule:evenodd;stroke:#000;stroke-width:.5291667;stroke-linecap:butt;stroke-linejoin:round;stroke-miterlimit:4;stroke-dasharray:none;stroke-dashoffset:0;stroke-opacity:1" id="path2151-5" d="m 10.054163,289.85626 h 2.645833 v 3.43958 h 1.322917 v 1.32292 h -2.645834 v -3.43959 H 9.5249969 Z"/><path style="display:inline;opacity:1;vector-effect:none;fill:#fff;fill-opacity:1;fill-rule:evenodd;stroke:none;stroke-width:.26458332;stroke-linecap:butt;stroke-linejoin:miter;stroke-miterlimit:4;stroke-dasharray:none;stroke-dashoffset:0;stroke-opacity:1" id="path2093-5" d="m 10.583334,284.30001 v 3.70417 l -1.3229161,3.70416 h -1.5875 l -1.322917,-3.70416 v -3.70417 z"/><path style="display:inline;opacity:1;vector-effect:none;fill:none;fill-opacity:1;fill-rule:evenodd;stroke:#000;stroke-width:.5291667;stroke-linecap:butt;stroke-linejoin:miter;stroke-miterlimit:4;stroke-dasharray:none;stroke-dashoffset:0;stroke-opacity:1" id="path2087-7" d="m 8.4666659,284.30001 h -2.116665 v 3.70417 l 1.322917,3.96875 c -4e-6,-1e-5 1.5875,0 1.5875,0 l 1.3229161,-3.96875 v -3.70417 z"/><path style="display:inline;opacity:1;vector-effect:none;fill:#fff;fill-opacity:1;fill-rule:evenodd;stroke:#000;stroke-width:.5291667;stroke-linecap:butt;stroke-linejoin:round;stroke-miterlimit:4;stroke-dasharray:none;stroke-dashoffset:0;stroke-opacity:1" id="path2069-5" d="m 5.8208339,282.44793 -2.1166664,2.11667 v 3.96875 h -0.529167 v -0.26459 l 0.264583,-0.26458 v -0.52917 l -0.264583,-0.26458 h -1.058334 l -0.7937489,0.79375 v 1.05833 l 1.3229159,1.32292 h 1.3229171 l 1.3229173,-1.32292 v -3.70416 l 1.322916,-1.32292 h 1.852084 1.8520831 l 1.322915,1.32292 v 3.70416 l 1.322917,1.32292 H 14.2875 l 1.322916,-1.32292 v -1.05833 l -0.79375,-0.79375 h -1.058333 l -0.264583,0.26458 v 0.52917 l 0.264583,0.26458 v 0.26459 H 13.229166 V 284.5646 L 11.1125,282.44793 H 8.4666679 Z"/><path style="display:inline;opacity:1;vector-effect:none;fill:#fff;fill-opacity:1;fill-rule:evenodd;stroke:#000;stroke-width:.5291667;stroke-linecap:butt;stroke-linejoin:round;stroke-miterlimit:4;stroke-dasharray:none;stroke-dashoffset:0;stroke-opacity:1" id="path2100-2" d="m 7.6729179,282.44793 v -1.05834 c 0,0 0,-0.26458 0.264583,-0.26458 0.264583,0 1.058333,0 1.058333,0 0,0 0.264584,0 0.264584,0.26458 0,0.26459 0,1.05834 0,1.05834 z"/><path style="display:inline;opacity:1;vector-effect:none;fill:#d0d0d0;fill-opacity:1;fill-rule:evenodd;stroke:#000;stroke-width:.5291667;stroke-linecap:butt;stroke-linejoin:round;stroke-miterlimit:4;stroke-dasharray:none;stroke-dashoffset:0;stroke-opacity:1" id="path2132-0" d="m 10.583331,291.17917 h 0.793748 v 4.7625 H 5.5562479 v -4.7625 z"/><path style="display:inline;opacity:1;vector-effect:none;fill:#858585;fill-opacity:1;fill-rule:evenodd;stroke:#000;stroke-width:.5291667;stroke-linecap:butt;stroke-linejoin:round;stroke-miterlimit:4;stroke-dasharray:none;stroke-dashoffset:0;stroke-opacity:1" id="path2127-2" d="m 7.9374979,291.17917 h 1.058332 v 2.11667 h -1.058332 z"/><path style="display:inline;opacity:1;vector-effect:none;fill:#858585;fill-opacity:1;fill-rule:evenodd;stroke:#000;stroke-width:.5291667;stroke-linecap:butt;stroke-linejoin:round;stroke-miterlimit:4;stroke-dasharray:none;stroke-dashoffset:0;stroke-opacity:1" id="path2129-0" d="m 7.9374979,291.17917 v -1.5875 l 0.529166,-0.52917 c 0,0 0.529166,0.52917 0.529166,0.52917 v 1.5875 z"/><path style="display:inline;opacity:1;vector-effect:none;fill:#d0d0d0;fill-opacity:1;fill-rule:evenodd;stroke:#000;stroke-width:.5291667;stroke-linecap:butt;stroke-linejoin:round;stroke-miterlimit:4;stroke-dasharray:none;stroke-dashoffset:0;stroke-opacity:1" id="path2361" d="M 10.847916,282.44793 H 6.0854149 l -2e-6,1.58749 h 1.058333 l 2e-6,1.32293 h 2.645834 l -2e-6,-1.32293 h 1.0583341 z"/></g></svg>