<svg xmlns="http://www.w3.org/2000/svg" xmlns:svg="http://www.w3.org/2000/svg" id="svg4846" width="64" height="64" version="1.1" viewBox="0 0 16.933 16.933"><metadata id="metadata4843"/><g id="layer1" transform="translate(0,-280.06665)"><path style="display:inline;opacity:1;vector-effect:none;fill:#858585;fill-opacity:1;fill-rule:evenodd;stroke:none;stroke-width:.26458332;stroke-linecap:butt;stroke-linejoin:miter;stroke-miterlimit:4;stroke-dasharray:none;stroke-dashoffset:0;stroke-opacity:1" id="path1856" d="m 7.9374992,291.57602 v 2.38125 l -0.529166,0.52917 h -0.79375 v -2.91042 z"/><path style="display:inline;opacity:1;vector-effect:none;fill:#fff;fill-opacity:1;fill-rule:evenodd;stroke:none;stroke-width:.26458332;stroke-linecap:butt;stroke-linejoin:miter;stroke-miterlimit:4;stroke-dasharray:none;stroke-dashoffset:0;stroke-opacity:1" id="path1854" d="m 9.5249992,291.57602 v 2.38125 h 0.5291668 v 2.11667 H 7.4083332 v -1.5875 l 0.529166,-0.52917 v -2.38125 z"/><path style="display:inline;opacity:1;vector-effect:none;fill:#d0d0d0;fill-opacity:1;fill-rule:evenodd;stroke:none;stroke-width:.26458332;stroke-linecap:butt;stroke-linejoin:miter;stroke-miterlimit:4;stroke-dasharray:none;stroke-dashoffset:0;stroke-opacity:1" id="path1848" d="m 12.170832,280.99269 h 2.910417 v 6.61458 l -2.116667,2.11667 h -0.79375 v -2.11667 l -6.6145818,0.52917 h -0.264584 v 0.79375 h -2.116666 v -6.35 h 4.497916 l 3.4395828,0.52917 h 1.058333 z"/><rect style="display:inline;opacity:1;fill:#d0d0d0;fill-opacity:1;fill-rule:nonzero;stroke:none;stroke-width:.5291667;stroke-linecap:round;stroke-linejoin:round;stroke-miterlimit:4;stroke-dasharray:none;stroke-dashoffset:0;stroke-opacity:1;paint-order:normal" id="rect1850" width="1.323" height="1.323" x="8.202" y="293.957"/><path style="display:inline;opacity:1;vector-effect:none;fill:none;fill-opacity:1;fill-rule:evenodd;stroke:#000;stroke-width:.5291667;stroke-linecap:butt;stroke-linejoin:round;stroke-miterlimit:4;stroke-dasharray:none;stroke-dashoffset:0;stroke-opacity:1" id="path1771" d="m 9.5249992,291.84061 v 2.11666 h 0.5291668 v 2.11667 H 7.4083332 v -1.5875 l 0.529166,-0.52917 -0.529166,0.52917 h -0.79375 v -2.91042 h 1.322916 v 2.38125 h 0.264584 v -2.38125 h 1.322916 z"/><path style="display:inline;opacity:1;vector-effect:none;fill:#d0d0d0;fill-opacity:1;fill-rule:evenodd;stroke:#000;stroke-width:.5291667;stroke-linecap:butt;stroke-linejoin:round;stroke-miterlimit:4;stroke-dasharray:none;stroke-dashoffset:0;stroke-opacity:1" id="path1769" d="m 10.847916,288.93019 v 2.64583 H 6.0854162 v -1.32291 h 0.529167 v -1.32292 z"/><path style="display:inline;opacity:1;vector-effect:none;fill:#fff;fill-opacity:1;fill-rule:evenodd;stroke:none;stroke-width:.26458332;stroke-linecap:butt;stroke-linejoin:miter;stroke-miterlimit:4;stroke-dasharray:none;stroke-dashoffset:0;stroke-opacity:1" id="path1775" d="m 14.552083,280.99269 -1.058334,1.05833 1.322917,1.32292 -1.322917,1.32292 1.322917,1.32291 -1.322917,1.32292 0.79375,0.79375 h 0.264584 l 1.058333,-1.05833 v -6.08542 z m -13.2291668,1.5875 v 8.73125 l 1.852083,1.5875 h 2.116667 v -1.32292 l -1.058333,-0.26458 -0.264584,-0.52917 v -8.20208 z"/><path style="display:inline;opacity:1;vector-effect:none;fill:none;fill-opacity:1;fill-rule:evenodd;stroke:#000;stroke-width:.5291667;stroke-linecap:butt;stroke-linejoin:round;stroke-miterlimit:4;stroke-dasharray:none;stroke-dashoffset:0;stroke-opacity:1" id="path1763" d="m 5.2916662,282.58019 v 2.11667 h -1.322916 v 2.11666 h 1.322916 v 2.11667 h -1.322916 v 1.85208 l 0.264582,0.52917 1.058335,0.26458 v 1.32292 h -2.116667 l -1.852083,-1.5875 v -8.73125 z"/><circle style="display:inline;opacity:1;fill:#fff;fill-opacity:1;fill-rule:nonzero;stroke:#858585;stroke-width:.5291667;stroke-linecap:round;stroke-linejoin:round;stroke-miterlimit:4;stroke-dasharray:none;stroke-dashoffset:0;stroke-opacity:1;paint-order:normal" id="path1812-4-5" cx="8.996" cy="289.195" r=".794"/><path style="display:inline;opacity:1;vector-effect:none;fill:#d0d0d0;fill-opacity:1;fill-rule:evenodd;stroke:none;stroke-width:.26458332;stroke-linecap:butt;stroke-linejoin:miter;stroke-miterlimit:4;stroke-dasharray:none;stroke-dashoffset:0;stroke-opacity:1" id="path1846" d="m 10.847916,281.78644 v 7.14375 H 6.6145832 v -0.79375 h -1.322917 v -1.32292 h -1.322916 v -2.11666 h 1.322916 v -2.91042 z"/><path style="display:inline;opacity:1;vector-effect:none;fill:#858585;fill-opacity:1;fill-rule:evenodd;stroke:none;stroke-width:.26458332;stroke-linecap:butt;stroke-linejoin:miter;stroke-miterlimit:4;stroke-dasharray:none;stroke-dashoffset:0;stroke-opacity:1" id="path1844" d="m 12.435415,283.10936 v 5.02708 h -1.852082 v -5.02708 z"/><path style="display:inline;opacity:1;vector-effect:none;fill:none;fill-opacity:1;fill-rule:evenodd;stroke:#000;stroke-width:.5291667;stroke-linecap:butt;stroke-linejoin:round;stroke-miterlimit:4;stroke-dasharray:none;stroke-dashoffset:0;stroke-opacity:1" id="path1765" d="m 5.2916662,282.58019 v -0.79375 h 5.5562498 v 1.32292 h 1.322916 v -2.11667 h 3.439584 v 6.08542 l -2.645834,2.64583 h -0.79375 v -1.5875 h -1.322916 v 0.79375 H 6.6145832 v -0.79375 h -1.322917 v -1.32292 h -1.322916 v -2.11666 h 1.322916 z"/><path style="display:inline;opacity:1;vector-effect:none;fill:#000;fill-opacity:1;fill-rule:evenodd;stroke:none;stroke-width:.5291667;stroke-linecap:butt;stroke-linejoin:round;stroke-miterlimit:4;stroke-dasharray:none;stroke-dashoffset:0;stroke-opacity:1" id="path1767" d="m 10.953749,284.96144 h 1.481666 v 1.32293 h -1.852082 l 1e-6,-1.32293 z"/><circle style="display:inline;opacity:1;fill:#fff;fill-opacity:1;fill-rule:nonzero;stroke:#858585;stroke-width:.5291667;stroke-linecap:round;stroke-linejoin:round;stroke-miterlimit:4;stroke-dasharray:none;stroke-dashoffset:0;stroke-opacity:1;paint-order:normal" id="path1812" cx="8.996" cy="283.903" r=".794"/><circle style="display:inline;opacity:1;fill:#fff;fill-opacity:1;fill-rule:nonzero;stroke:#858585;stroke-width:.5291667;stroke-linecap:round;stroke-linejoin:round;stroke-miterlimit:4;stroke-dasharray:none;stroke-dashoffset:0;stroke-opacity:1;paint-order:normal" id="path1812-4" cx="8.996" cy="286.814" r=".794"/><rect style="display:inline;opacity:1;fill:#d0d0d0;fill-opacity:1;fill-rule:nonzero;stroke:none;stroke-width:.5291667;stroke-linecap:round;stroke-linejoin:round;stroke-miterlimit:4;stroke-dasharray:none;stroke-dashoffset:0;stroke-opacity:1;paint-order:normal" id="rect1852" width=".794" height=".794" x="8.467" y="292.634"/></g></svg>