<svg xmlns="http://www.w3.org/2000/svg" xmlns:svg="http://www.w3.org/2000/svg" id="svg8" width="64" height="64" version="1.1" viewBox="0 0 16.933 16.933"><metadata id="metadata5"/><g id="layer1" transform="translate(0,-280.06665)"><path style="fill:#fff;fill-opacity:1;stroke:#000;stroke-width:.5291667;stroke-linecap:round;stroke-linejoin:round;stroke-miterlimit:4;stroke-dasharray:none;stroke-opacity:1" id="path874-9" d="m 2.150465,293.48967 -0.558212,2.17018 2.241175,-0.48722 -0.14478,-1.33355 z"/><path style="fill:#fff;fill-opacity:1;stroke:#000;stroke-width:.5291667;stroke-linecap:round;stroke-linejoin:round;stroke-miterlimit:4;stroke-dasharray:none;stroke-opacity:1" id="path872-4" d="m 2.651148,291.86423 0.714611,0.71462 1.027623,0.16536 0.318918,1.18118 0.738235,0.73823 -1.063058,1.06306 -2.799387,-2.79939 z"/><path style="fill:#fff;fill-opacity:1;stroke:#000;stroke-width:.5291667;stroke-linecap:round;stroke-linejoin:round;stroke-miterlimit:4;stroke-dasharray:none;stroke-opacity:1" id="path870-5" d="m 5.993875,289.95073 -2.628116,2.62812 1.346541,1.34654 2.628115,-2.62812 z"/><path style="fill:#d0d0d0;fill-opacity:1;stroke:none;stroke-width:.26458335px;stroke-linecap:butt;stroke-linejoin:miter;stroke-opacity:1" id="path880-3" d="m 10.846461,284.47629 -5.378209,5.29136 2.102492,2.10249 3.744327,-3.74433 0.68399,-0.0581 0.225515,-0.85141 0.826858,-0.90254 -1.870887,-1.93771 z"/><path style="fill:#fff;fill-opacity:1;stroke:none;stroke-width:.26458335px;stroke-linecap:butt;stroke-linejoin:miter;stroke-opacity:1" id="path876-3" d="m 12.224576,287.21631 -0.909505,0.9095 1.611081,1.49542 0.897608,-0.80574 z"/><path style="fill:none;stroke:#000;stroke-width:.5291667;stroke-linecap:round;stroke-linejoin:round;stroke-miterlimit:4;stroke-dasharray:none;stroke-opacity:1" id="path862-5" d="m 11.287461,283.94844 -5.819209,5.81921 2.102492,2.10249 3.744327,-3.74433 1.900386,1.90039 0.909505,-0.90951 -1.900386,-1.90038 1.232195,-1.2322 z"/><path style="fill:#858585;fill-opacity:1;stroke:#000;stroke-width:.5291667;stroke-linecap:round;stroke-linejoin:round;stroke-miterlimit:4;stroke-dasharray:none;stroke-opacity:1" id="path860-1" d="m 10.02759,283.46017 2.031622,-2.03162 3.803385,3.80338 -2.031622,2.03162 z"/><path style="fill:#858585;fill-opacity:1;stroke:#000;stroke-width:.5291667;stroke-linecap:round;stroke-linejoin:round;stroke-miterlimit:4;stroke-dasharray:none;stroke-opacity:1" id="path868-3" d="m 13.82376,288.81549 0.363569,-0.36357 1.102488,1.10249 -1.615615,1.61562 -1.102489,-1.10249 z"/><path style="fill:#fff;fill-opacity:1;stroke:#000;stroke-width:.5291667;stroke-linecap:round;stroke-linejoin:round;stroke-miterlimit:4;stroke-dasharray:none;stroke-opacity:1" id="path874" d="m 14.782868,293.40108 0.558212,2.17018 -2.241175,-0.48722 0.14478,-1.33355 z"/><path style="fill:#fff;fill-opacity:1;stroke:#000;stroke-width:.5291667;stroke-linecap:round;stroke-linejoin:round;stroke-miterlimit:4;stroke-dasharray:none;stroke-opacity:1" id="path872" d="m 14.282185,291.77564 -0.714611,0.71462 -1.027623,0.16536 -0.318918,1.18118 -0.738235,0.73823 1.063058,1.06306 2.799387,-2.79939 z"/><path style="fill:#fff;fill-opacity:1;stroke:#000;stroke-width:.5291667;stroke-linecap:round;stroke-linejoin:round;stroke-miterlimit:4;stroke-dasharray:none;stroke-opacity:1" id="path870" d="m 10.939458,289.86214 2.628116,2.62812 -1.346541,1.34654 -2.6281152,-2.62812 z"/><path style="fill:#d0d0d0;fill-opacity:1;stroke:none;stroke-width:.26458335px;stroke-linecap:butt;stroke-linejoin:miter;stroke-opacity:1" id="path880" d="m 6.0868726,284.3877 5.3782084,5.29136 -2.1024918,2.10249 -3.744327,-3.74433 -0.6839895,-0.0581 -0.2255158,-0.85141 -0.8268578,-0.90254 1.8708868,-1.93771 z"/><path style="fill:#fff;fill-opacity:1;stroke:none;stroke-width:.26458335px;stroke-linecap:butt;stroke-linejoin:miter;stroke-opacity:1" id="path876" d="m 4.7087569,287.12772 0.9095053,0.9095 -1.6110805,1.49542 -0.897608,-0.80574 z"/><path style="fill:none;stroke:#000;stroke-width:.5291667;stroke-linecap:round;stroke-linejoin:round;stroke-miterlimit:4;stroke-dasharray:none;stroke-opacity:1" id="path862" d="m 5.645872,283.85985 5.819209,5.81921 -2.102492,2.10249 -3.7443268,-3.74433 -1.9003856,1.90039 -0.9095052,-0.90951 1.9003855,-1.90038 -1.2321948,-1.2322 z"/><path style="fill:#858585;fill-opacity:1;stroke:#000;stroke-width:.5291667;stroke-linecap:round;stroke-linejoin:round;stroke-miterlimit:4;stroke-dasharray:none;stroke-opacity:1" id="path860" d="m 6.9057432,283.37158 -2.031622,-2.03162 -3.8033849,3.80338 2.0316219,2.03162 z"/><path style="fill:#858585;fill-opacity:1;stroke:#000;stroke-width:.5291667;stroke-linecap:round;stroke-linejoin:round;stroke-miterlimit:4;stroke-dasharray:none;stroke-opacity:1" id="path868" d="m 3.1095737,288.7269 -0.363569,-0.36357 -1.1024882,1.10249 1.6156153,1.61562 1.1024881,-1.10249 z"/></g></svg>