<?xml version="1.0" encoding="UTF-8" standalone="no"?>
<!-- Created with Inkscape (http://www.inkscape.org/) -->

<svg
   width="102.11787mm"
   height="23.671368mm"
   viewBox="0 0 102.11787 23.671368"
   version="1.1"
   id="svg5"
   xml:space="preserve"
   xmlns="http://www.w3.org/2000/svg"
   xmlns:svg="http://www.w3.org/2000/svg"
   xmlns:rdf="http://www.w3.org/1999/02/22-rdf-syntax-ns#"
   xmlns:cc="http://creativecommons.org/ns#"><defs
     id="defs2"><rect
       x="0"
       y="143.70332"
       width="445.00891"
       height="223.42047"
       id="rect1" /></defs><g
     id="layer1"
     transform="translate(-18.588395,-27.397051)"><g
       id="g12"
       style="stroke:#cdd6f4;stroke-width:1.5;stroke-dasharray:none;stroke-opacity:1"
       transform="translate(12.046464,18.147051)"><path
         d="m 39.381317,173.0311 4.394665,1.74933 -12.202662,39.21065 q -0.426666,1.36534 -0.597333,2.34667 -0.170667,0.93866 -0.170667,1.83466 v 1.36534 q 0,1.23733 -0.597333,1.87733 -0.554666,0.64 -1.450666,0.64 h -6.570664 q -0.981333,0 -1.578666,-0.64 -0.554666,-0.64 -0.554666,-1.87733 v -1.23734 q 0,-0.72533 -0.170667,-1.49333 -0.128,-0.81066 -0.469333,-1.87733 L 5.8879975,170.30043 q -0.4266664,-1.32266 -0.9386662,-1.91999 -0.5119998,-0.64 -1.4506661,-1.024 l -1.6213326,-0.512 q -0.89599968,-0.384 -1.32266616,-0.896 -0.42666649,-0.55467 -0.42666649,-1.408 0,-1.06667 0.63999973,-1.62134 0.63999972,-0.59733 1.87733252,-0.59733 H 18.431992 q 1.28,0 1.877333,0.59733 0.64,0.55467 0.64,1.62134 0,1.62133 -1.792,2.21866 l -2.815998,0.42667 q -1.066667,0.256 -1.322667,1.152 -0.213333,0.85333 0.426667,3.02933 l 13.226661,44.11732 -3.199999,2.64533 z m 25.258656,-8.49066 q 0,-1.06667 0.64,-1.62134 0.639999,-0.59733 1.919999,-0.59733 h 12.159995 q 1.279999,0 1.919999,0.59733 0.64,0.59734 0.64,1.62134 0,0.81066 -0.469333,1.32266 -0.469333,0.512 -1.450666,0.93867 l -1.664,0.512 q -1.023999,0.34133 -1.663999,1.23733 -0.597333,0.896 -1.194666,2.98667 l -12.543995,42.41065 q -0.384,1.32266 -0.64,2.304 -0.213333,0.93866 -0.213333,1.87733 v 1.28 q 0,1.28 -0.554666,1.96266 -0.512,0.68267 -1.408,0.68267 h -6.783997 q -0.981333,0 -1.535999,-0.68267 -0.554667,-0.68266 -0.554667,-1.96266 v -1.19467 q 0,-0.768 -0.170666,-1.408 -0.128,-0.64 -0.554667,-2.048 L 37.802651,170.30043 q -0.469333,-1.62133 -1.024,-2.30399 -0.554666,-0.68267 -1.322666,-0.93867 l -1.407999,-0.42667 q -0.896,-0.34133 -1.322666,-0.81066 -0.384,-0.46934 -0.384,-1.28 0,-1.06667 0.64,-1.62134 0.639999,-0.59733 1.919999,-0.59733 h 15.317327 q 1.322666,0 1.919999,0.59733 0.64,0.55467 0.64,1.62134 0,0.85333 -0.469333,1.408 -0.469334,0.512 -1.450667,0.85333 l -2.858665,0.46933 q -1.066666,0.256 -1.279999,1.06667 -0.170667,0.768 0.511999,3.02933 l 12.586662,44.20265 -3.029332,2.64533 13.909327,-47.06131 q 0.554667,-1.92 0.298667,-2.77333 -0.256,-0.85334 -1.706666,-1.19467 l -2.901332,-0.512 q -0.810667,-0.256 -1.28,-0.768 -0.469333,-0.55467 -0.469333,-1.36533 z m 37.333327,53.41864 -4.821336,7.85066 -13.73866,-33.53598 q -0.64,-1.57867 -1.237333,-2.176 -0.554667,-0.59733 -2.261333,-1.152 -0.853333,-0.42667 -1.151999,-0.85333 -0.341333,-0.42667 -0.341333,-1.06667 0,-0.93867 0.554666,-1.45067 0.597333,-0.55466 1.578666,-0.55466 h 14.293327 q 0.981333,0 1.493333,0.46933 0.554667,0.46933 0.554667,1.36533 0,0.72534 -0.426667,1.152 -0.384,0.42667 -1.322666,0.81067 l -1.365333,0.42667 q -1.365333,0.42666 -1.706666,1.36533 -0.341333,0.896 0.256,2.47466 z m -7.680001,13.824 3.498665,-8.74667 1.749333,-3.88266 9.941333,-26.23999 q 0.55466,-1.45067 0.256,-2.34667 -0.29867,-0.896 -1.664,-1.36533 l -1.57867,-0.384 q -0.896,-0.384 -1.28,-0.768 -0.34133,-0.42667 -0.34133,-1.19467 0,-0.85333 0.55466,-1.32266 0.59734,-0.512 1.664,-0.512 h 10.19733 q 0.98134,0 1.536,0.46933 0.59734,0.46933 0.59734,1.36533 0,0.64 -0.34134,1.06667 -0.29866,0.42667 -1.19466,0.896 -1.664,0.59733 -2.38934,1.408 -0.68266,0.768 -1.49333,2.73066 l -15.487993,38.95466 q -1.706666,4.22399 -3.370665,6.65599 -1.621333,2.432 -3.583999,3.456 -1.919999,1.024 -4.479998,1.024 -4.053331,0 -6.314664,-2.34667 -2.261332,-2.34666 -2.261332,-5.71733 0,-2.09066 0.938666,-3.32799 0.938666,-1.19467 2.645332,-1.19467 1.237333,0 2.005333,0.72533 0.810666,0.768 1.450666,2.77333 l 0.426666,1.536 q 0.298667,1.664 0.981333,2.26134 0.725333,0.64 1.877333,0.64 1.024,0 1.877333,-0.64 0.895999,-0.59734 1.749332,-2.048 0.896,-1.45067 1.834666,-3.92533 z m 58.026661,-37.41866 q 0,2.304 -1.152,3.584 -1.152,1.23734 -3.02933,1.23734 -1.96267,0 -2.944,-1.152 -0.98134,-1.19467 -0.98134,-3.15734 v -1.152 q 0,-2.34666 -1.70666,-3.75466 -1.70667,-1.45067 -4.90667,-1.45067 -2.944,0 -5.24799,1.62134 -2.304,1.62133 -3.62667,4.56533 -1.32267,2.90133 -1.32267,6.86933 0,4.864 1.62134,8.27733 1.664,3.37066 4.47999,5.12 2.816,1.74933 6.4,1.74933 3.968,0 6.35733,-1.792 2.38934,-1.83467 3.49867,-4.26667 0.55466,-0.72533 0.93866,-0.98133 0.42667,-0.256 0.896,-0.256 0.55467,0 0.85334,0.46933 0.34133,0.46934 0.29866,1.32267 -0.256,3.02933 -2.176,5.71733 -1.87733,2.64533 -5.16266,4.30933 -3.24267,1.664 -7.63733,1.664 -5.20533,0 -9.17333,-2.38933 -3.92533,-2.38933 -6.144,-6.69866 -2.176,-4.30934 -2.176,-10.02667 0,-5.58933 2.21867,-10.02666 2.26133,-4.43733 6.35733,-6.99733 4.096,-2.60266 9.64266,-2.60266 4.26667,0 7.38133,1.45066 3.11467,1.408 4.77867,3.75467 1.664,2.34666 1.664,4.99199 z m 26.83739,22.74133 v -1.06667 l -0.59734,-0.29866 v -21.20533 q 0,-3.328 -1.70666,-5.07733 -1.70667,-1.792 -4.608,-1.792 -2.73067,0 -4.224,1.152 -1.49333,1.152 -1.49333,3.02933 v 1.83467 q 0,2.13333 -1.10933,3.24266 -1.06667,1.10934 -3.15734,1.10934 -2.048,0 -2.98666,-1.06667 -0.896,-1.10933 -0.896,-2.85867 0,-2.60266 1.74933,-4.86399 1.74933,-2.304 5.16267,-3.66934 3.41333,-1.40799 8.44799,-1.40799 6.10133,0 9.38667,2.85866 3.28533,2.85867 3.28533,8.064 v 20.22399 q 0,1.024 0.42666,1.664 0.46934,0.64 1.49334,0.64 0.55466,0 0.93866,-0.21334 0.384,-0.21333 0.68267,-0.64 0.17067,-0.256 0.384,-0.42666 0.21333,-0.17067 0.55467,-0.17067 0.51199,0 0.81066,0.46933 0.34133,0.46934 0.34133,1.152 0,1.28 -0.76799,2.47467 -0.768,1.152 -2.21867,1.87733 -1.408,0.768 -3.37067,0.768 -2.94399,0 -4.73599,-1.57866 -1.792,-1.57867 -1.792,-4.224 z m -22.39999,-3.49867 q 0,-5.12 4.13866,-8.06399 4.18133,-2.944 11.30666,-2.944 2.048,0 4.18133,0.34133 2.13334,0.34133 3.66934,0.93867 l -0.68267,3.11466 q -1.536,-0.59733 -3.15733,-0.93866 -1.62133,-0.384 -3.54133,-0.384 -3.66934,0 -5.84533,1.74933 -2.13334,1.70666 -2.13334,4.82133 0,2.944 1.792,4.43733 1.792,1.49333 4.608,1.49333 2.64533,0 4.94933,-1.28 2.304,-1.27999 3.92533,-3.45599 l 0.896,2.77333 q -2.00533,3.11466 -5.54666,4.90666 -3.49867,1.792 -7.68,1.792 -5.03466,0 -7.97866,-2.51733 -2.90133,-2.51733 -2.90133,-6.784 z m 65.45066,1.408 -0.34133,-0.512 V 168.5511 q 0,-1.23733 -0.34134,-1.74933 -0.34133,-0.512 -1.152,-0.72533 l -2.34666,-0.0853 q -0.81067,-0.256 -1.152,-0.68266 -0.34133,-0.42667 -0.34133,-1.06667 0,-0.72533 0.42666,-1.23733 0.46934,-0.512 1.62134,-0.896 l 5.46133,-1.96267 q 1.408,-0.512 2.176,-0.68266 0.768,-0.21334 1.408,-0.21334 1.02399,0 1.53599,0.64 0.55467,0.64 0.55467,1.70667 v 53.24798 q 0,1.408 0.42667,2.04799 0.42666,0.64 1.28,0.93867 l 1.536,0.34133 q 0.68266,0.384 1.06666,0.85334 0.384,0.46933 0.384,1.19466 0,0.85334 -0.55466,1.36534 -0.55467,0.46933 -1.57867,0.46933 h -5.93066 q -1.87734,0 -3.02934,-1.10933 -1.10933,-1.10934 -1.10933,-3.072 z M 194.4747,204.30575 q 0,-6.61333 2.304,-11.05066 2.304,-4.48 6.18666,-6.784 3.92533,-2.30399 8.74667,-2.30399 4.60799,0 8.19199,2.30399 3.584,2.304 5.67467,6.22933 l -2.048,3.456 q -1.96267,-3.75466 -4.736,-5.54666 -2.73067,-1.83467 -5.93067,-1.83467 -2.85866,0 -5.20533,1.74934 -2.304,1.70666 -3.66933,4.99199 -1.36533,3.28534 -1.36533,7.936 0,4.56533 1.32267,7.76533 1.36533,3.2 3.66933,4.90667 2.34666,1.66399 5.29066,1.66399 3.456,0 6.18667,-2.00533 2.77333,-2.00533 4.77866,-5.58933 l 1.32267,2.688 q -2.77334,4.69333 -6.784,7.38133 -4.01067,2.64533 -8.78933,2.64533 -4.48,0 -7.89333,-2.26133 -3.41333,-2.26133 -5.33333,-6.44266 -1.92,-4.18134 -1.92,-9.89867 z m 75.8613,-6.01599 q 0,2.43199 -1.28,3.71199 -1.28,1.28 -3.75466,1.28 h -22.74133 v -3.45599 h 17.23733 q 2.34667,0 2.34667,-2.304 0,-4.01067 -2.176,-6.48533 -2.13334,-2.51734 -5.632,-2.51734 -2.816,0 -5.03467,1.57867 -2.21866,1.57867 -3.49866,4.52266 -1.23733,2.90134 -1.23733,6.912 0,7.50933 3.45599,11.47733 3.49867,3.968 9.04533,3.968 3.88267,0 6.57067,-1.87733 2.688,-1.92 3.88266,-4.43734 0.46934,-0.68266 0.896,-0.93866 0.42667,-0.29867 0.896,-0.29867 0.55467,0 0.896,0.46933 0.34134,0.46934 0.256,1.32267 -0.256,2.98667 -2.21866,5.67466 -1.92,2.64534 -5.29067,4.352 -3.37066,1.664 -7.89333,1.664 -5.46133,0 -9.47199,-2.38933 -3.968,-2.432 -6.144,-6.74133 -2.176,-4.30933 -2.176,-9.984 0,-5.58933 2.13333,-10.02666 2.176,-4.48 6.22933,-7.04 4.096,-2.55999 9.81333,-2.55999 4.43733,0 7.76533,1.83466 3.37067,1.792 5.248,4.992 1.87733,3.2 1.87733,7.296 z m 16.64003,-11.47733 v 28.03199 q 0,1.49333 0.34133,2.17599 0.34134,0.64 1.32267,0.98134 l 1.57867,0.384 q 1.23733,0.59733 1.23733,1.83466 0,1.83467 -1.96267,1.83467 h -12.92799 q -1.024,0 -1.57867,-0.46933 -0.55466,-0.512 -0.55466,-1.36534 0,-0.72533 0.34133,-1.19466 0.384,-0.512 1.10933,-0.85334 l 1.536,-0.34133 q 0.93867,-0.29867 1.32267,-0.896 0.384,-0.64 0.384,-2.09066 v -21.07733 q 0,-1.23733 -0.34134,-1.74933 -0.34133,-0.512 -1.19466,-0.72533 l -2.304,-0.0853 q -0.85333,-0.256 -1.19467,-0.68266 -0.29866,-0.42667 -0.29866,-1.06667 0,-0.72533 0.42666,-1.23733 0.42667,-0.512 1.57867,-0.896 l 5.504,-1.96267 q 1.408,-0.512 2.17599,-0.68267 0.768,-0.21333 1.36534,-0.21333 1.024,0 1.57866,0.64 0.55467,0.64 0.55467,1.70667 z m -0.98133,9.08799 -1.92,-2.176 1.74933,-1.70666 q 4.01067,-4.096 7.63733,-5.97333 3.62667,-1.87733 7.08266,-1.87733 4.52267,0 7.296,2.98666 2.816,2.98667 2.816,8.448 v 19.24266 q 0,1.49333 0.34133,2.17599 0.34134,0.64 1.32267,0.98134 l 1.57867,0.384 q 1.23733,0.59733 1.23733,1.83466 0,1.83467 -1.96267,1.83467 h -12.88533 q -1.96266,0 -1.96266,-1.83467 0,-1.23733 1.23733,-1.83466 l 1.57867,-0.384 q 0.98133,-0.34134 1.32266,-0.98134 0.34134,-0.68266 0.34134,-2.17599 v -17.23733 q 0,-3.712 -1.74934,-5.632 -1.70666,-1.96266 -4.52266,-1.96266 -2.00533,0 -4.30933,1.10933 -2.304,1.06667 -4.82133,3.41333 z m 23.67999,0 -1.87734,-2.176 1.70667,-1.70666 q 4.05333,-4.096 7.63733,-5.97333 3.62667,-1.87733 7.08266,-1.87733 4.52267,0 7.296,2.98666 2.816,2.98667 2.816,8.448 v 19.24266 q 0,1.45066 0.384,2.09066 0.384,0.59733 1.32267,0.896 l 1.536,0.34133 q 0.68266,0.384 1.06666,0.85334 0.384,0.46933 0.384,1.19466 0,0.85334 -0.55466,1.36534 -0.55467,0.46933 -1.57867,0.46933 h -12.928 q -1.96266,0 -1.96266,-1.83467 0,-1.23733 1.23733,-1.83466 l 1.57867,-0.384 q 0.98133,-0.34134 1.32266,-0.98134 0.34134,-0.68266 0.34134,-2.17599 v -17.23733 q 0,-3.712 -1.74934,-5.632 -1.70666,-1.96266 -4.52266,-1.96266 -2.00533,0 -4.30933,1.10933 -2.304,1.06667 -4.82133,3.41333 z m 53.29066,22.05866 -4.82133,7.85066 -13.73866,-33.53598 q -0.64,-1.57867 -1.23733,-2.176 -0.55467,-0.59733 -2.26133,-1.152 -0.85334,-0.42667 -1.152,-0.85333 -0.34134,-0.42667 -0.34134,-1.06667 0,-0.93867 0.55467,-1.45067 0.59733,-0.55466 1.57867,-0.55466 h 14.29332 q 0.98134,0 1.49334,0.46933 0.55466,0.46933 0.55466,1.36533 0,0.72534 -0.42666,1.152 -0.384,0.42667 -1.32267,0.81067 l -1.36533,0.42667 q -1.36534,0.42666 -1.70667,1.36533 -0.34133,0.896 0.256,2.47466 z m -7.67999,13.824 3.49866,-8.74667 1.74933,-3.88266 9.94133,-26.23999 q 0.55467,-1.45067 0.256,-2.34667 -0.29866,-0.896 -1.664,-1.36533 l -1.57866,-0.384 q -0.896,-0.384 -1.28,-0.768 -0.34133,-0.42667 -0.34133,-1.19467 0,-0.85333 0.55466,-1.32266 0.59734,-0.512 1.664,-0.512 h 10.19733 q 0.98133,0 1.536,0.46933 0.59733,0.46933 0.59733,1.36533 0,0.64 -0.34133,1.06667 -0.29867,0.42667 -1.19467,0.896 -1.664,0.59733 -2.38933,1.408 -0.68267,0.768 -1.49333,2.73066 l -15.48799,38.95466 q -1.70667,4.22399 -3.37067,6.65599 -1.62133,2.432 -3.584,3.456 -1.92,1.024 -4.48,1.024 -4.05333,0 -6.31466,-2.34667 -2.26133,-2.34666 -2.26133,-5.71733 0,-2.09066 0.93866,-3.32799 0.93867,-1.19467 2.64534,-1.19467 1.23733,0 2.00533,0.72533 0.81066,0.768 1.45066,2.77333 l 0.42667,1.536 q 0.29867,1.664 0.98133,2.26134 0.72534,0.64 1.87734,0.64 1.024,0 1.87733,-0.64 0.896,-0.59734 1.74933,-2.048 0.896,-1.45067 1.83467,-3.92533 z"
         id="text1"
         style="font-size:85.3333px;font-family:Fraunces;-inkscape-font-specification:'Fraunces, @opsz=144,SOFT=100,wght=400,WONK=0.00';font-variation-settings:'opsz' 144, 'SOFT' 100, 'wght' 400, 'WONK' 0;white-space:pre;fill:#11111b;fill-rule:evenodd;stroke-width:5.66929;stroke-linecap:round;stroke-linejoin:round;stroke-miterlimit:2.6;paint-order:stroke markers fill"
         transform="matrix(0.26458333,0,0,0.26458333,7.2580645,-32.134835)"
         aria-label="Wycademy" /><path
         style="font-variation-settings:'opsz' 144, 'SOFT' 100, 'wght' 400, 'WONK' 0;fill:#11111b;fill-opacity:1;fill-rule:evenodd;stroke:none;stroke-width:1.5;stroke-linecap:round;stroke-linejoin:round;stroke-miterlimit:2.6;stroke-dasharray:none;stroke-opacity:1;paint-order:stroke markers fill"
         d="m 14.666667,23.846774 -0.459678,-0.01613 -0.432796,1.943549 1.112904,-0.08065 0.284946,-0.959678 z"
         id="path1" /><path
         style="font-variation-settings:'opsz' 144, 'SOFT' 100, 'wght' 400, 'WONK' 0;fill:#11111b;fill-opacity:1;fill-rule:evenodd;stroke:none;stroke-width:1.5;stroke-linecap:round;stroke-linejoin:round;stroke-miterlimit:2.6;stroke-dasharray:none;stroke-opacity:1;paint-order:stroke markers fill"
         d="M 18.190892,16.206431 17.56362,14 l 0.102644,-0.496542 1.562478,0.547438 -0.60066,1.870411 z"
         id="path2" /><path
         style="font-variation-settings:'opsz' 144, 'SOFT' 100, 'wght' 400, 'WONK' 0;fill:#11111b;fill-opacity:1;fill-rule:evenodd;stroke:none;stroke-width:1.5;stroke-linecap:round;stroke-linejoin:round;stroke-miterlimit:2.6;stroke-dasharray:none;stroke-opacity:1;paint-order:stroke markers fill"
         d="m 22,25.596774 0.639785,0.08602 0.897849,-1.284946 L 23,23.88172 22.672043,23.860215 21.860215,25 Z"
         id="path3" /><path
         style="font-variation-settings:'opsz' 144, 'SOFT' 100, 'wght' 400, 'WONK' 0;fill:#11111b;fill-opacity:1;fill-rule:evenodd;stroke:none;stroke-width:1.5;stroke-linecap:round;stroke-linejoin:round;stroke-miterlimit:2.6;stroke-dasharray:none;stroke-opacity:1;paint-order:stroke markers fill"
         d="m 33.663604,24.836175 0.509421,0.02661 L 34.507572,25.5889 34.176827,26 33.11997,27.885099 32.850052,27.721626 32.907075,27.440305 33,26.265595 Z"
         id="path4" /><path
         style="font-variation-settings:'opsz' 144, 'SOFT' 100, 'wght' 400, 'WONK' 0;fill:#11111b;fill-opacity:1;fill-rule:evenodd;stroke:none;stroke-width:1.5;stroke-linecap:round;stroke-linejoin:round;stroke-miterlimit:2.6;stroke-dasharray:none;stroke-opacity:1;paint-order:stroke markers fill"
         d="m 54.374991,22.372706 0.37256,0.570248 0.311737,-0.262314 v -1.015041 l -0.41438,-0.06083 -0.36876,0.212892 z"
         id="path5" /><path
         style="font-variation-settings:'opsz' 144, 'SOFT' 100, 'wght' 400, 'WONK' 0;fill:#11111b;fill-opacity:1;fill-rule:evenodd;stroke:none;stroke-width:1.5;stroke-linecap:round;stroke-linejoin:round;stroke-miterlimit:2.6;stroke-dasharray:none;stroke-opacity:1;paint-order:stroke markers fill"
         d="m 54.494863,24.951448 0.01035,-0.233577 0.283187,-0.420646 0.19327,-0.07235 L 55.492226,25 l -0.549836,0.676985 -0.326596,-0.08578 -0.04237,-0.330729 z"
         id="path6" /><path
         style="font-variation-settings:'opsz' 144, 'SOFT' 100, 'wght' 400, 'WONK' 0;fill:#11111b;fill-opacity:1;fill-rule:evenodd;stroke:none;stroke-width:1.5;stroke-linecap:round;stroke-linejoin:round;stroke-miterlimit:2.6;stroke-dasharray:none;stroke-opacity:1;paint-order:stroke markers fill"
         d="m 66.217696,25.350514 -0.295251,-0.143239 -0.04677,-0.581729 0.06431,-0.29525 L 66.048146,24 l 0.432644,-0.713308 0.596344,0.371255 0.08185,0.988062 z"
         id="path7" /><path
         style="font-variation-settings:'opsz' 144, 'SOFT' 100, 'wght' 400, 'WONK' 0;fill:#11111b;fill-opacity:1;fill-rule:evenodd;stroke:none;stroke-width:1.5;stroke-linecap:round;stroke-linejoin:round;stroke-miterlimit:2.6;stroke-dasharray:none;stroke-opacity:1;paint-order:stroke markers fill"
         d="m 66.147536,19.968792 -0.268938,-1.32716 -0.06139,-0.947137 0.274786,-0.198781 0.593421,0.388793 L 67.316841,19 66.901739,19.591691 66.220617,20 Z"
         id="path8" /><path
         style="font-variation-settings:'opsz' 144, 'SOFT' 100, 'wght' 400, 'WONK' 0;fill:#11111b;fill-opacity:1;fill-rule:evenodd;stroke:none;stroke-width:1.5;stroke-linecap:round;stroke-linejoin:round;stroke-miterlimit:2.6;stroke-dasharray:none;stroke-opacity:1;paint-order:stroke markers fill"
         d="m 71.730964,20.360509 0.362485,0.532033 -0.0263,0.631424 -0.266017,0.382948 -0.602192,-0.02631 -0.05554,-0.952983 z"
         id="path9" /><path
         style="font-variation-settings:'opsz' 144, 'SOFT' 100, 'wght' 400, 'WONK' 0;fill:#11111b;fill-opacity:1;fill-rule:evenodd;stroke:none;stroke-width:1.5;stroke-linecap:round;stroke-linejoin:round;stroke-miterlimit:2.6;stroke-dasharray:none;stroke-opacity:1;paint-order:stroke markers fill"
         d="m 82.824737,20.074029 0.324482,-0.558342 0.119854,-0.219245 0.0029,-0.643117 -0.0497,-0.257247 -0.169548,-0.13447 -0.818512,0.704506 0.0117,0.686966 z"
         id="path10" /><path
         style="font-variation-settings:'opsz' 144, 'SOFT' 100, 'wght' 400, 'WONK' 0;fill:#11111b;fill-opacity:1;fill-rule:evenodd;stroke:none;stroke-width:1.5;stroke-linecap:round;stroke-linejoin:round;stroke-miterlimit:2.6;stroke-dasharray:none;stroke-opacity:1;paint-order:stroke markers fill"
         d="M 89.293913,19.889864 89.609625,19 89.41669,18.527624 89.141902,18.399001 88.405241,19 l 0.163703,0.924943 z"
         id="path11" /><path
         style="font-variation-settings:'opsz' 144, 'SOFT' 100, 'wght' 400, 'WONK' 0;fill:#11111b;fill-opacity:1;fill-rule:evenodd;stroke:none;stroke-width:1.5;stroke-linecap:round;stroke-linejoin:round;stroke-miterlimit:2.6;stroke-dasharray:none;stroke-opacity:1;paint-order:stroke markers fill"
         d="M 102,27.999999 101.9282,27.15709 102,25.50837 l 0.83738,-0.666503 0.36833,0.01462 0.38002,0.681119 -0.22801,0.309866 -0.97053,1.727647 z"
         id="path12" /></g></g><metadata
     id="metadata12"><rdf:RDF><cc:Work
         rdf:about="" /></rdf:RDF></metadata></svg>
