<svg xmlns="http://www.w3.org/2000/svg" xmlns:svg="http://www.w3.org/2000/svg" id="svg5" width="100%" version="1.1" viewBox="0 0 128 128" xml:space="preserve"><g id="layer2"><path style="fill:#fff;fill-opacity:1;fill-rule:evenodd;stroke:none;stroke-width:1;stroke-linecap:round;stroke-linejoin:round;stroke-miterlimit:3" id="path8021" d="m 27.221402,80.494898 0.187087,-1.309621 0.865285,-1.426549 2.619243,-1.660414 2.946646,-0.514492 3.671615,0.163703 4.30304,1.333005 3.227279,2.595856 2.338607,2.45554 1.379779,1.707184 1.61364,-2.03459 2.478927,-2.081361 3.086962,-1.753957 3.765158,-1.379779 2.92326,-0.304019 -1.333005,1.403165 c 0,0 -3.999021,2.011203 -4.115951,2.08136 -0.11693,0.07016 -3.835318,3.016806 -3.835318,3.016806 0,0 -0.865286,1.894274 -0.958829,1.941044 -0.09355,0.04677 -2.759559,1.403165 -2.759559,1.403165 l -2.198291,-0.163701 -0.163703,-0.584652 -6.92228,-4.60706 -4.069178,-1.262848 -3.928864,-0.02339 -4.677214,1.028988 z"/><path style="fill:#fff;fill-opacity:1;fill-rule:evenodd;stroke:none;stroke-width:1;stroke-linecap:round;stroke-linejoin:round;stroke-miterlimit:3" id="path1538" d="m 96.899509,108.51637 0.45062,-0.98392 -0.897104,-0.73174 -0.442349,-0.0951 -0.818555,0.11162 0.330729,0.64079 0.942578,0.92604 0.338998,0.21084 z"/><path style="fill:#fff;fill-rule:evenodd;stroke:none;stroke-width:1;stroke-linecap:round;stroke-linejoin:round;stroke-miterlimit:3;fill-opacity:1" id="path446" d="m 89.544918,99.71484 1.719792,0.64492 -1.554427,0.71107 -0.942578,-1.256771 z"/><path style="fill:#fff;fill-opacity:1;fill-rule:evenodd;stroke:none;stroke-width:1;stroke-linecap:round;stroke-linejoin:round;stroke-miterlimit:3" id="path1536" d="m 93.612889,103.33633 1.223698,0.38034 -0.876432,0.84335 -0.711068,-0.96738 z"/><path style="fill:#fff;fill-opacity:1;fill-rule:evenodd;stroke:none;stroke-width:1;stroke-linecap:round;stroke-linejoin:round;stroke-miterlimit:3" id="path1541" d="m 26.739453,111.78646 1.223698,2.44739 -3.059245,3.24115 -0.132292,-3.02617 1.438672,-2.6293 z"/><path style="fill:#fff;fill-opacity:1;fill-rule:evenodd;stroke:none;stroke-width:1;stroke-linecap:round;stroke-linejoin:round;stroke-miterlimit:3" id="path1543" d="m 31.70039,113.98581 1.951302,-3.83646 -0.01654,-0.97565 -1.289844,-0.76068 -0.892969,0.7276 -0.198437,2.10013 0.132292,2.89388 z"/><path style="fill:#fff;fill-opacity:1;fill-rule:evenodd;stroke:none;stroke-width:1;stroke-linecap:round;stroke-linejoin:round;stroke-miterlimit:3" id="path1545" d="m 39.290625,114.59765 c 0,0 -0.744141,-2.81119 -0.777214,-2.92695 -0.03307,-0.11575 0.380339,-2.66237 0.380339,-2.66237 l 0.529166,-0.77721 2.033985,0.87643 -0.165365,1.33945 -1.35599,2.84427 -0.281119,1.5379 z"/><path style="fill:#fff;fill-opacity:1;fill-rule:evenodd;stroke:none;stroke-width:1;stroke-linecap:round;stroke-linejoin:round;stroke-miterlimit:3" id="path3491" d="m 70.368725,94.152372 -3.203895,-0.608039 0.04677,-0.865285 1.894274,-1.286235 0.818512,1.379778 z"/><path style="fill:#fff;fill-opacity:1;fill-rule:evenodd;stroke:none;stroke-width:1;stroke-linecap:round;stroke-linejoin:round;stroke-miterlimit:3" id="path3493" d="m 74.624993,98.57234 -0.724969,-1.122532 -1.262849,1.286235 1.566868,0.397563 z"/></g><g id="layer3"><path style="fill:#b94343;fill-opacity:1;fill-rule:evenodd;stroke:none;stroke-width:.499999;stroke-linecap:round;stroke-linejoin:round;stroke-miterlimit:3;stroke-opacity:1" id="path8327" d="m 34.992401,103.35483 c 0.869335,0.82711 1.580345,0.72689 2.250832,0.38933 2.754635,-0.66821 5.33239,-0.40147 7.803855,0.42707 l 3.695314,1.5039 c 0.264065,0.93049 1.83504,0.10342 2.835936,0.043 1.0365,0.11971 0.666053,-1.53778 0.988283,-2.32031 l 1.203123,3.00781 c 0.546831,-0.033 1.389582,0.19598 1.643562,-0.23633 3.28857,-0.16715 2.71443,-1.19792 2.73925,-1.13867 v -0.73047 c 2.96112,-1.52602 6.36639,-2.77873 8.85156,-4.597655 4.13861,-0.37766 4.36378,-0.88799 5.54297,-1.76171 0.57713,-0.68058 1.82289,-1.39675 -0.45117,-2.08399 -0.62751,-0.77662 -1.95083,-1.20534 -2.94185,-1.8002 -0.88469,-0.0876 -1.72089,-0.22365 -2.12684,-0.78997 0.3265,-0.7274 0.93379,-1.2442 1.57994,-1.73186 0.488,-1.25788 0.47726,-2.74981 2.55221,-3.6764 l 0.54691,-1.73186 -3.03835,-9.29735 c -1.55968,-1.16244 -2.06115,-1.1491 -2.55221,-1.12419 l -5.56018,2.12684 -1.88378,1.57994 -0.0608,0.45576 c -0.719,0.72324 -1.45473,1.41972 -2.73451,1.24572 l -2.7649,2.06608 -0.668439,0.78997 c -0.05636,0.41758 -0.359847,0.76102 -0.69882,1.09381 l -2.886432,1.42802 -1.823008,-0.7292 0.03038,-0.54691 -3.939428,-2.79496 -3.079158,-1.51949 -3.646019,-1.09381 -0.638053,0.33422 c -0.995237,-0.0327 -2.201341,0.47136 -2.916817,-0.27345 l -4.830974,0.7292 -0.789972,0.21269 c -0.303831,0.44562 -0.565806,0.89125 -0.69882,1.33687 0.9824,2.73451 2.495829,5.46903 2.947199,8.20354 l 2.673746,6.62361 z"/><path style="fill:#f7f4fd;fill-opacity:1;fill-rule:evenodd;stroke:none;stroke-width:1;stroke-linecap:round;stroke-linejoin:round;stroke-miterlimit:3;stroke-dasharray:none;stroke-opacity:1" id="path32641" d="m 94.976776,106.96419 1.28906,-0.27929 5.628914,-0.4082 2.66406,-0.21485 1.50391,-0.38672 2.92187,-0.0859 4.21094,-1.97656 5.97266,-4.039055 2.27734,-3.00781 0.98828,-5.02735 -1.50391,0.47266 c 0,0 -3.09375,2.36328 -3.26562,2.27734 -0.17187,-0.0859 -6.53125,2.27735 -6.53125,2.27735 l -8.12109,0.043 -5.242194,-1.80469 -4.94141,1.80469 -5.54297,2.49218 4.64063,0.85938 -1.89063,1.332025 0.90235,1.07422 1.80468,0.6875 h 1.20313 l 1.50391,0.55859 -1.63282,1.20313 0.51563,1.33203 z"/><path style="fill:#f7f4fd;fill-opacity:1;fill-rule:evenodd;stroke:none;stroke-width:1;stroke-linecap:round;stroke-linejoin:round;stroke-miterlimit:3;stroke-dasharray:none;stroke-opacity:1" id="path32643" d="m 94.461146,106.74936 1.58985,1.58984 0.98828,2.70704 -0.6875,1.41796 -2.79297,0.34375 -2.92187,-0.64453 -2.10547,-0.1289 -2.01953,1.63281 -2.01953,2.40625 -1.41797,1.71875 -3.39454,1.84765 -3.60937,0.5586 -3.26562,-1.03125 -1.41797,-0.73047 -0.34376,-3.30859 0.68751,-4.64063 0.73047,-1.46093 2.1914,-1.375 2.01953,-3.00782 3.35156,-3.26562 3.56641,-1.847665 1.50391,-0.90234 2.66406,0.73047 2.10547,1.546875 0.98828,1.11719 1.54688,1.16015 1.54687,1.54688 0.12891,1.76172 z"/><path style="fill:#f7f4fd;fill-opacity:1;fill-rule:evenodd;stroke:none;stroke-width:1;stroke-linecap:round;stroke-linejoin:round;stroke-miterlimit:3;stroke-dasharray:none;stroke-opacity:1" id="path32645" d="m 91.453336,96.436855 c 0.90446,1.2719 -0.43346,2.25132 -3.48047,3.00781 l -2.49218,-0.6875 -2.36328,0.94531 c 0,0 -3.48047,2.406265 -3.65235,2.449225 -0.17187,0.043 -4.29687,4.29688 -4.29687,4.29688 l -2.01954,3.39453 -2.44921,-2.01953 -4.94141,-2.27735 -2.66406,-0.21485 -1.33203,0.42969 -5.28516,1.80469 1.97656,-1.58985 v -1.54687 l 3.60938,-1.76172 5.41406,-2.53516 3.22266,-0.902335 2.10547,-0.47266 2.23437,0.0859 0.47266,0.81641 1.58984,0.17187 1.76172,-0.60156 3.17969,-0.94531 0.60156,-0.85938 h 1.24609 c -0.25781,0 2.10547,-1.24609 2.10547,-1.24609 l 1.67578,0.043 c 0,0 2.10547,0.64453 1.76172,0.64453 -0.34375,0 2.01953,-0.42969 2.01953,-0.42969 z"/><path style="fill:#f7f4fd;fill-opacity:1;fill-rule:evenodd;stroke:none;stroke-width:1;stroke-linecap:round;stroke-linejoin:round;stroke-miterlimit:3;stroke-dasharray:none;stroke-opacity:1" id="path32649" d="m 57.000676,107.72914 1.79262,-1.67109 -2.52183,0.5469 -2.126841,0.0911 -2.825666,-0.78998 -2.187612,0.12155 -1.823011,-0.48615 -2.27876,-1.24572 -4.861359,-0.78997 -1.91416,0.3646 0.911505,1.57994 v 3.06873 l 1.336874,-0.27345 1.336873,1.30649 -1.154573,1.8534 -0.941887,3.43333 -0.394986,2.46106 3.737168,4.16254 2.430679,1.73186 3.068736,1.57994 2.856047,0.3646 1.488792,-1.06342 1.428022,-4.37522 -0.516519,-3.43334 0.364604,-3.64601 1.883774,-4.52715 z"/><path style="fill:#f7f4fd;fill-opacity:1;fill-rule:evenodd;stroke:none;stroke-width:1;stroke-linecap:round;stroke-linejoin:round;stroke-miterlimit:3;stroke-dasharray:none;stroke-opacity:1" id="path32655" d="m 38.300994,112.48568 c 0,-0.2793 1.224611,-4.49023 1.224611,-4.49023 l -0.300781,-2.75 -3.931643,2.08398 1.009767,4.46875 z"/><path style="fill:#f7f4fd;fill-opacity:1;fill-rule:evenodd;stroke:none;stroke-width:1;stroke-linecap:round;stroke-linejoin:round;stroke-miterlimit:3;stroke-dasharray:none;stroke-opacity:1" id="path32659" d="m 34.091518,101.22708 c 0,0 -1.063424,-0.82036 -1.184958,-0.82036 -0.121533,0 -3.068732,-1.306485 -3.068732,-1.306485 l -0.364601,-2.52183 1.002654,-1.36726 -0.638053,-0.42537 -2.764899,-1.4584 c 0,0 -1.093803,-2.06608 -1.033036,-2.46107 0.06077,-0.39498 0.577286,-3.98023 0.577286,-3.98023 l 1.549556,-0.0304 c 0,0 5.797336,14.263175 5.924783,14.371405 z"/><path style="fill:#f7f4fd;fill-opacity:1;fill-rule:evenodd;stroke:none;stroke-width:1;stroke-linecap:round;stroke-linejoin:round;stroke-miterlimit:3;stroke-dasharray:none;stroke-opacity:1" id="path32663" d="m 75.413066,99.312915 -1.36725,-2.61298 -0.66844,-1.30649 c 0,0 -2.09646,-1.03303 -2.218,-1.0938 -0.12153,-0.0608 -1.88377,-2.73452 -1.88377,-2.73452 l 0.82035,-2.09646 1.48879,-1.06342 0.63806,0.0911 v -1.39764 l -1.57994,-5.04366 1.4584,-0.15192 3.06873,0.66844 1.57995,1.30649 0.39498,1.88378 3.65216,0.3195 -0.94531,-6.27344 c 0,0 1.63281,-1.84765 1.71875,-2.06249 0.0859,-0.21485 2.57813,-2.44922 2.57813,-2.44922 l 1.11718,-0.043 0.5586,1.28906 -0.25782,1.93359 2.53516,-0.90234 1.54688,-1.97656 -0.38672,-4.29688 -0.30079,-0.73047 2.96485,-3.99609 3.48047,-1.50391 3.05078,-1.20312 -0.73047,1.84766 -0.77344,3.00781 v 1.63281 l 2.19141,1.67578 1.976564,2.66406 0.38672,4.55469 -2.277344,4.94141 -2.40625,2.40625 0.85937,1.33203 -0.42969,2.62109 -1.58984,0.94531 2.32031,0.0859 2.664064,-0.6875 -1.675784,2.6211 -3.52343,1.89062 -4.125,1.46094 -4.6836,-0.60156 -3.00781,1.5039 -7.26172,2.320325 z"/><path style="fill:#f7f4fd;fill-opacity:1;fill-rule:evenodd;stroke-width:1;stroke-linecap:round;stroke-linejoin:round;stroke-miterlimit:3" id="path435" d="m 85.791616,75.386335 0.82683,-2.51354 -0.62839,-4.49792 -1.12448,-1.15755 -3.40651,1.75286 -0.59531,0.52917 -0.19844,-3.57187 -1.12448,0.46302 -1.38906,2.64583 -1.91823,0.62839 -3.70417,0.7276 -2.87734,1.38906 0.39688,1.48828 0.0661,1.2237 -1.85208,1.42214 2.3151,6.44922 1.78594,-0.16537 3.57187,0.8599 1.12448,2.44739 3.77032,0.69453 -0.89297,-6.74687 4.10104,-4.33255 z"/><path style="fill:#f7f4fd;fill-opacity:1;fill-rule:evenodd;stroke-width:1;stroke-linecap:round;stroke-linejoin:round;stroke-miterlimit:3" id="path437" d="m 27.384849,79.288935 1.289844,-1.38906 2.745052,-2.08359 3.869531,-0.46302 5.32474,1.19062 3.869531,2.54662 4.067969,4.39869 3.067042,-2.8892 3.414368,-2.10474 -3.461139,-0.56127 -6.220698,-1.44993 -0.888672,-1.77735 -1.169305,-1.21607 c 0,0 -4.911076,-2.66602 -5.098166,-2.71279 -0.187089,-0.0468 -5.986838,-2.0112 -5.986838,-2.0112 l 0.748356,2.43215 1.870887,2.94665 -10.196333,-0.14032 z"/><path style="fill:#f7f4fd;fill-opacity:1;fill-rule:evenodd;stroke-width:1;stroke-linecap:round;stroke-linejoin:round;stroke-miterlimit:3" id="path441" d="m 59.862456,5.734774 3.57187,-1.984375 4.29948,-0.79375 4.63021,0.198437 4.82865,1.852083 4.36562,3.241146 2.57969,3.571875 2.51354,2.844271 3.63802,5.423958 3.24115,7.408333 1.32291,5.55625 v 2.248959 l -1.98437,-0.264584 -1.15755,0.231511 -2.0836,2.910416 0.55413,1.167646 -0.57342,2.176852 -0.70908,1.097602 2.19829,5.285256 1.82038,6.968649 -0.51449,5.940066 -1.59025,1.30962 h -4.91108 l -3.83532,-2.38538 -5.47234,-7.951269 -0.74836,0.514493 -1.26284,1.637028 -0.88868,2.712786 -2.24506,-5.940065 -1.82411,-2.759559 -3.88209,-2.478924 -2.61924,-2.525699 1.1693,-0.608037 0.23386,-2.15152 -3.97563,-8.980257 -1.87089,-6.548101 0.14032,-3.040192 2.19829,-1.028989 2.80633,0.374179 3.27405,1.075759 2.5257,1.075761 3.22728,2.432151 2.52569,-0.187087 1.54349,-1.590254 1.1693,-3.040192 -0.8419,-1.590252 -0.8419,-1.356394 -0.8419,-2.385381 -4.0224,-4.34981 -3.74178,-2.525697 -3.46114,-1.590254 z"/><path style="fill:#f7f4fd;fill-opacity:1;fill-rule:evenodd;stroke-width:1;stroke-linecap:round;stroke-linejoin:round;stroke-miterlimit:3" id="path445" d="m 23.64761,33.813679 c 0,0 -2.248959,4.663282 -2.38125,4.729428 -0.132292,0.06614 -3.935677,8.632031 -3.935677,8.632031 L 16.007766,45.422273 13.858027,44.000138 11.542922,44.165502 8.79787,46.050658 7.77261,45.918367 c 0,0 -1.951302,-6.581511 -2.050521,-6.813021 -0.09922,-0.23151 0.330729,-7.077604 0.330729,-7.077604 l 1.852084,-4.99401 3.571875,-4.332552 4.960937,-4.894792 3.075781,-1.785937 3.770313,-0.859896 -1.35599,1.951302 -3.042708,5.390885 -2.910417,6.515365 0.727604,0.529166 2.083594,2.711979 3.274219,1.389063 z"/><path style="fill:#f7f4fd;fill-opacity:1;fill-rule:evenodd;stroke-width:1;stroke-linecap:round;stroke-linejoin:round;stroke-miterlimit:3" id="path447" d="m 42.217354,47.251446 -1.730571,-1.309621 -1.543481,-2.338607 -0.280633,-2.899876 -0.654812,-0.280633 0.140316,-9.30766 -1.356392,-3.741772 -1.403164,-2.899876 -2.80633,0.140317 h -0.841899 l -1.356394,1.122531 -3.554685,3.086963 -3.320822,4.864306 -2.57247,-0.140316 -5.144939,11.505954 1.824116,2.151517 -2.666015,9.167347 v 6.407785 l 0.841899,3.78855 2.011203,4.58367 3.040192,2.0112 3.461139,0.28063 2.80633,-1.4967 3.554685,-2.94665 2.104747,-2.24507 0.775999,-6.626 0.586351,-0.12201 0.727604,-1.091402 1.620573,0.132292 c 0,0 1.256771,-4.431771 1.289844,-4.795573 0.03307,-0.363802 3.175,-6.548438 3.175,-6.548438 z"/><path style="fill:#f7f4fd;fill-opacity:1;fill-rule:evenodd;stroke-width:1;stroke-linecap:round;stroke-linejoin:round;stroke-miterlimit:3" id="path545" d="m 42.030264,47.204673 3.180509,-2.572467 2.899873,-4.49013 2.853102,-4.677217 1.403165,1.356395 2.432153,2.572469 3.32082,2.291834 3.18051,0.374179 2.61924,1.637025 3.78855,3.180509 3.22728,0.888669 1.07576,3.928864 2.0112,4.95785 1.54348,7.296452 c 0,0 -1.07576,2.10475 -1.30962,2.43216 -0.23386,0.3274 -4.16272,4.95785 -4.16272,4.95785 l 0.28063,3.32082 -2.29183,0.88867 -0.81852,-0.37417 -3.55468,0.84189 -3.50791,0.39757 -4.10912,1.51905 -3.174995,1.78594 -3.042709,-1.78594 -5.258593,-1.62057 -3.770313,-2.48047 -2.61276,-3.43958 -1.620573,-4.69635 -0.132292,-4.99401 c 0,0 0.826823,-5.357817 0.959115,-5.787765 0.132291,-0.429948 3.141927,-6.449219 3.141927,-6.449219 z"/><path style="fill:none;fill-opacity:1;fill-rule:evenodd;stroke:#706873;stroke-width:1;stroke-linecap:round;stroke-linejoin:round;stroke-miterlimit:3;stroke-dasharray:none;stroke-opacity:1" id="path26876" d="m 82.583546,107.20248 0.0331,-1.819 c 3.38696,0.81953 5.20974,-0.70718 7.24297,-1.91823"/><path style="fill:none;fill-opacity:1;fill-rule:evenodd;stroke:#706873;stroke-width:1;stroke-linecap:round;stroke-linejoin:round;stroke-miterlimit:3;stroke-dasharray:none;stroke-opacity:1" id="path29068" d="m 87.858676,109.15379 0.678,-1.02527 2.46393,0.19843"/><path style="fill:#e63259;fill-opacity:1;fill-rule:evenodd;stroke:none;stroke-width:.499999;stroke-linecap:round;stroke-linejoin:round;stroke-miterlimit:3;stroke-opacity:1" id="path15699" d="m 79.679896,79.593105 c -1.87725,-0.0317 -4.25254,0.48699 -5.13476,-0.64453 l 1.0957,-3.0293 c -1.48178,0.0709 -2.8837,0.32786 -4.70507,0.79493 -1.06339,-0.25852 -0.6491,-1.32303 -0.51563,-2.23438 -0.2536,-1.69237 0.24644,-2.80502 1.48242,-3.35156 l 1.95508,-0.70899 3.8457,-0.75195 c 0.89782,-0.57714 1.25294,-1.31709 1.58985,-2.0625 l 1.05273,-1.28906 c 0.10546,1.32302 0.06,2.81855 0.53711,3.7168 l 2.42773,-1.78321 2.14844,0.60156 0.77344,3.7168 -1.00977,2.64258 -1.39648,0.043 -2.53516,2.62109 z"/><path style="fill:#e63259;fill-opacity:1;fill-rule:evenodd;stroke:none;stroke-width:.499999;stroke-linecap:round;stroke-linejoin:round;stroke-miterlimit:3;stroke-opacity:1" id="path15701" d="m 98.610866,92.066455 c 0,0 -2.62817,2.50664 -2.84085,2.53702 -0.21269,0.0304 -2.63414,0.89495 -2.7649,0.97227 -0.88247,0.52182 -3.31518,-0.76585 -2.85605,-1.0938 0.0631,-1.91533 1.01982,-2.4047 1.20059,-3.14454 0.33615,-1.37579 0.52071,-2.37625 0.40973,-2.96254 -1.39453,0.84643 -2.72142,1.92959 -4.34484,1.97492 -1.55773,-0.0342 0.97322,-4.67755 1.4888,-7.04897 -0.90527,0.28592 -1.68514,1.23024 -2.73452,0.75959 -0.46596,-0.10718 -0.76312,-0.77498 -1.10425,-1.29441 -0.2116,-0.32221 -0.48686,-0.47517 -0.68837,-0.74129 -1.3058,0.5367 -1.4785,1.14891 -3.84352,1.80782 l -0.86593,-4.17773 4.34484,-4.49675 1.42803,0.1823 -0.0911,3.28142 1.76224,-1.61033 c 0.35969,-0.22889 1.49633,-1.03887 2.43068,-1.51918 -0.007,-1.59007 -0.15621,-3.18013 -0.60767,-4.7702 0.69067,-2.14028 2.95556,-3.19071 4.58791,-4.67906 l 2.73451,-0.97227 c 0.49099,-0.39747 0.028,0.44664 0.51652,0.82035 0.36506,0.27926 -0.5507,3.27355 -1.33688,3.32699 1.15776,0.39914 0.93347,1.19315 1.33688,1.80782 0.35425,0.45653 1.2834,0.75159 1.38245,1.24573 1.49357,1.10066 1.76846,1.8601 2.263574,3.22064 1.16962,1.78852 0.33929,3.71656 -0.15192,5.62095 -1.262424,1.78287 -2.543234,3.55905 -3.372574,5.49941 0.95132,2.11348 0.4057,3.69987 -1.51917,4.8006 0.79822,0.65652 2.24051,0.66671 3.23579,0.65324 z"/><path style="fill:none;fill-rule:evenodd;stroke:#000;stroke-width:1;stroke-linecap:round;stroke-linejoin:round;stroke-miterlimit:3;stroke-dasharray:none" id="path3978" d="m 93.795086,104.53888 c 1.2818,-0.35448 1.76198,-0.70894 1.91416,-1.06343 -1.05057,-0.10089 -1.99574,-0.26502 -2.64337,-0.60767"/><path style="fill:none;fill-rule:evenodd;stroke:#000;stroke-width:1;stroke-linecap:round;stroke-linejoin:round;stroke-miterlimit:3;stroke-dasharray:none" id="path3982" d="m 88.052606,99.312915 4.55752,0.789975 c -0.86359,0.13106 -1.62251,0.19658 -2.80049,1.42803"/><path style="fill:none;fill-rule:evenodd;stroke:#000;stroke-width:1;stroke-linecap:round;stroke-linejoin:round;stroke-miterlimit:3;stroke-dasharray:none" id="path3980" d="m 89.972696,103.34716 c 0.0942,-0.041 0.50808,-0.9024 0.47701,-1.11359 -0.14805,-1.00656 -2.19599,-3.527605 -5.40505,-3.497935"/><path style="fill:none;fill-rule:evenodd;stroke:#000;stroke-width:1;stroke-linecap:round;stroke-linejoin:round;stroke-miterlimit:3;stroke-dasharray:none" id="path3976" d="m 91.300326,108.32526 c 0.31383,-0.0288 0.66141,-0.0577 1.12909,-0.28104 0.81418,-0.38887 1.262,-0.9768 1.52785,-1.49936 0.79601,-1.56467 -1.00643,-3.15571 -2.95746,-4.25435"/><path style="fill:none;fill-rule:evenodd;stroke:#000;stroke-width:1;stroke-linecap:round;stroke-linejoin:round;stroke-miterlimit:3;stroke-dasharray:none" id="path3974" d="m 96.620746,109.09641 c 0.79519,-0.85363 1.9136,-1.71597 -0.1823,-2.49145"/><path style="fill:none;fill-rule:evenodd;stroke:#000;stroke-width:1;stroke-linecap:round;stroke-linejoin:round;stroke-miterlimit:3;stroke-dasharray:none" id="path1792" d="m 83.976776,97.468105 c 1.76712,-1.33263 3.3317,-1.70315 4.64063,-0.85937 3.6359,0.94108 5.75417,-1.15312 8.46484,-2.0625"/><path style="fill:none;fill-rule:evenodd;stroke:#000;stroke-width:1;stroke-linecap:round;stroke-linejoin:round;stroke-miterlimit:3;stroke-dasharray:none" id="path1794" d="m 84.224286,116.32768 c 1.4841,-2.08288 3.0629,-3.92899 5.22596,-4.31446 3.40468,0.95631 7.6221,1.5429 7.35898,-1.27086 -0.0876,-0.9371 -0.16619,-2.23859 -2.19379,-3.83357"/><path style="fill:none;fill-rule:evenodd;stroke:#000;stroke-width:1;stroke-linecap:round;stroke-linejoin:round;stroke-miterlimit:3;stroke-dasharray:none" id="path4101" d="m 83.221626,117.60379 c -6.03403,4.30568 -11.50694,1.6708 -11.48212,0.98723 0.0108,-0.29586 -1.27036,-4.65128 0.61777,-9.20967 0.33117,-0.79951 0.8733,0.35084 1.06981,0.55106"/><path style="fill:none;fill-rule:evenodd;stroke:#000;stroke-width:1;stroke-linecap:round;stroke-linejoin:round;stroke-miterlimit:3;stroke-dasharray:none" id="path4036" d="m 83.890066,99.495225 c -4.18063,1.527225 -7.08971,4.203095 -9.05322,7.661365 -0.14647,0.25798 -0.13661,0.61096 -0.27451,0.87639"/><path style="fill:none;fill-rule:evenodd;stroke:#000;stroke-width:1;stroke-linecap:round;stroke-linejoin:round;stroke-miterlimit:3;stroke-dasharray:none" id="path1790" d="m 78.648646,99.057945 c 1.96712,0.0532 3.27312,-0.62824 4.21094,-1.71874"/><path style="fill:none;fill-rule:evenodd;stroke:#000;stroke-width:1;stroke-linecap:round;stroke-linejoin:round;stroke-miterlimit:3;stroke-dasharray:none" id="path4103" d="m 71.402446,108.57988 c -2.50594,-1.00399 -6.19912,-4.35919 -9.66195,-2.9472"/><path style="fill:none;fill-rule:evenodd;stroke:#000;stroke-width:1;stroke-linecap:round;stroke-linejoin:round;stroke-miterlimit:3;stroke-dasharray:none" id="path4908" d="m 53.293886,106.60495 c 1.98332,0.63499 3.72214,-0.11555 5.46903,-0.82034"/><path style="fill:#f7f4fd;fill-opacity:1;fill-rule:evenodd;stroke:none;stroke-width:1;stroke-linecap:round;stroke-linejoin:round;stroke-miterlimit:3;stroke-dasharray:none;stroke-opacity:1" id="path32653" d="m 39.773231,118.15069 -2.035694,-2.70413 -1.671092,-1.79263 -2.035694,0.24307 -1.124191,1.54956 -0.729202,-0.15192 -0.09115,-2.30914 1.154572,-1.94455 0.729205,-0.45575 -0.151918,1.18496 1.519174,0.42536 1.944544,-0.48613 1.124189,0.27345 0.759589,2.55222 0.850736,0.75958 z"/><path style="fill:none;fill-rule:evenodd;stroke:#000;stroke-width:1;stroke-linecap:round;stroke-linejoin:round;stroke-miterlimit:3;stroke-dasharray:none" id="path4835" d="m 36.187978,114.01854 c -1.23076,-1.52623 -3.279353,1.15282 -3.372566,1.2761"/><path style="fill:#f7f4fd;fill-opacity:1;fill-rule:evenodd;stroke:none;stroke-width:1;stroke-linecap:round;stroke-linejoin:round;stroke-miterlimit:3;stroke-dasharray:none;stroke-opacity:1" id="path32651" d="m 39.317478,105.23771 -0.455753,-1.57995 -2.369912,1.06343 -1.701475,0.82035 -2.552213,0.33421 -1.39764,1.06343 -1.519177,0.42536 -2.309146,1.70148 -0.151915,3.58525 1.640707,2.18762 1.73186,1.18494 1.823011,-0.0608 -0.850739,-2.18761 -0.455753,-2.82567 0.759587,-2.12684 0.759587,-0.66844 1.397643,0.97228 0.09115,1.51918 0.06077,1.30649 1.64071,0.42536 1.519174,-0.42536 -0.638053,-1.36726 -0.364604,-1.57994 0.334219,-2.46106 1.21534,-0.97228 z"/><path style="fill:none;fill-rule:evenodd;stroke:#000;stroke-width:1;stroke-linecap:round;stroke-linejoin:round;stroke-miterlimit:3;stroke-dasharray:none" id="path4845" d="m 39.104795,105.35924 c -2.361038,-0.10342 -3.202498,1.38511 -3.22538,3.2182 -0.02005,1.60593 0.479468,3.26546 2.80001,3.31424"/><path style="fill:none;fill-rule:evenodd;stroke:#000;stroke-width:1;stroke-linecap:round;stroke-linejoin:round;stroke-miterlimit:3;stroke-dasharray:none" id="path4902" d="m 39.135177,108.42797 c 0.921633,-0.46798 1.843266,-0.16812 2.764899,1.30648 -1.696934,1.24568 -1.737769,3.55797 -2.278763,5.65134 -0.908664,-1.62462 -2.053137,-4.27043 -0.364602,-6.47168"/><path style="fill:none;fill-rule:evenodd;stroke:#000;stroke-width:1;stroke-linecap:round;stroke-linejoin:round;stroke-miterlimit:3;stroke-dasharray:none" id="path4839" d="m 28.318654,113.7147 -3.524486,3.91946 c -0.465363,-2.65684 0.267883,-4.55093 1.579941,-6.07669"/><path style="fill:none;fill-rule:evenodd;stroke:#000;stroke-width:1;stroke-linecap:round;stroke-linejoin:round;stroke-miterlimit:3;stroke-dasharray:none" id="path4837" d="m 31.113934,116.11499 c -4.926722,-0.85366 -6.356337,-8.04571 -0.941887,-8.93275"/><path style="fill:none;fill-rule:evenodd;stroke:#000;stroke-width:1;stroke-linecap:round;stroke-linejoin:round;stroke-miterlimit:3;stroke-dasharray:none" id="path4833" d="m 54.29654,117.81646 c -0.600314,5.05247 -1.564502,7.19668 -2.308457,7.28276 -7.2279,0.83637 -12.609119,-8.31297 -14.979751,-10.26034"/><path style="fill:none;fill-rule:evenodd;stroke:#000;stroke-width:1;stroke-linecap:round;stroke-linejoin:round;stroke-miterlimit:3;stroke-dasharray:none" id="path4831" d="m 57.091826,107.48608 c -1.63727,0.75704 -3.513915,5.1051 -3.251038,9.20619 -2.360763,-3.89872 -4.595914,-7.86025 -8.841595,-10.81652"/><path style="fill:none;fill-rule:evenodd;stroke:#000;stroke-width:1;stroke-linecap:round;stroke-linejoin:round;stroke-miterlimit:3;stroke-dasharray:none" id="path4912" d="m 33.574999,100.43711 c -2.782617,0.16014 -5.632542,-2.240395 -2.734514,-5.590565"/><path style="fill:none;fill-rule:evenodd;stroke:#000;stroke-width:1;stroke-linecap:round;stroke-linejoin:round;stroke-miterlimit:3;stroke-dasharray:none" id="path4914" d="m 29.989746,94.542715 c -1.961934,0.1332 -3.543294,-1.08644 -3.745382,-3.25934 -0.167456,-1.80052 -0.112745,-5.12828 1.436236,-4.36692"/><path style="fill:#f7f4fd;fill-opacity:1;fill-rule:evenodd;stroke:#706873;stroke-width:.8;stroke-linecap:round;stroke-linejoin:round;stroke-miterlimit:3;stroke-dasharray:none;stroke-opacity:1" id="path18076" d="m 66.940056,41.850398 c 3.73689,3.068549 6.72624,6.672908 9.72344,9.988021"/><path style="fill:#e63259;fill-opacity:1;fill-rule:evenodd;stroke:none;stroke-width:.499999;stroke-linecap:round;stroke-linejoin:round;stroke-miterlimit:3;stroke-opacity:1" id="path16431" d="m 69.761736,64.949185 c 0.0304,-0.0608 0.44056,-0.83554 0.44056,-0.83554 l 1.73186,-1.51918 1.21534,0.21269 1.39764,1.20014 0.0608,0.30384 c 0,0 -1.04823,0.75959 -1.18495,0.82035 -0.13673,0.0608 -1.2913,0.42537 -1.35207,0.42537 -0.0608,0 -1.67109,-0.3646 -1.67109,-0.3646 z"/><path style="fill:#e63259;fill-opacity:1;fill-rule:evenodd;stroke:none;stroke-width:.499999;stroke-linecap:round;stroke-linejoin:round;stroke-miterlimit:3;stroke-opacity:1" id="path16429" d="m 66.085336,66.012615 0.85074,-0.63806 1.89897,-0.56209 0.65324,0.1823 c 0,0 0.78997,2.81047 0.78997,2.87124 0,0.0608 0.076,0.59248 0.076,0.59248 l -2.64336,-1.03304 z"/><path style="fill:none;fill-rule:evenodd;stroke:#000;stroke-width:.499999;stroke-linecap:round;stroke-linejoin:round;stroke-miterlimit:3" id="path5018" d="m 66.571476,57.383696 c 2.62112,1.034532 3.29585,3.528849 3.00796,6.745139 1.61005,-0.21314 2.25288,-2.03832 3.19027,-3.37257 0.5739,-4.132402 -0.1307,-4.535847 -0.45575,-6.046315 h -2.06608"/><path style="fill:#029dd3;fill-opacity:1;fill-rule:evenodd;stroke:none;stroke-width:.499999;stroke-linecap:round;stroke-linejoin:round;stroke-miterlimit:3;stroke-opacity:1" id="path20125" d="m 33.595916,74.952485 c -0.614987,-0.33776 -1.375899,-0.48581 -2.277342,-0.45118 -1.837012,-0.39988 -3.71331,-0.32834 -5.607423,-0.043 l 0.644533,1.61132 c 0.616713,0.93843 1.221421,1.83125 1.697265,2.23438 h 0.687498 c 0.586885,-0.47058 1.626711,-0.76891 1.976563,-1.45019 0.697674,-0.31234 1.116956,-0.77867 1.955079,-1.08497 z"/><path style="fill:#029dd3;fill-opacity:1;fill-rule:evenodd;stroke:none;stroke-width:.5;stroke-linecap:round;stroke-linejoin:round;stroke-miterlimit:3;stroke-dasharray:none;stroke-opacity:1" id="path18671" d="m 48.007159,82.814685 1.367256,-1.21534 c -0.45491,-1.4301 -1.545238,-2.6869 -2.61298,-3.94986 l -1.245725,-1.06342 c -0.491229,-0.33081 -0.877705,-0.7594 -0.941887,-1.48879 l -1.033039,-1.39764 c -0.38487,0.48612 -1.209605,0.28531 -1.294221,1.07169 l -3.59752,-3.71505 -1.549559,-0.12154 c -0.257665,0.13047 -0.436832,0.10395 -0.638053,0.12154 -0.282648,0.25124 -1.718569,-1.14276 -1.853393,-1.1242 -0.288157,-0.11563 -1.734831,0.65336 -1.671093,0.75959 l 1.39764,1.09381 c 0.70449,1.16024 1.435243,2.34674 1.974927,3.34218 l 7.413572,2.88643 0.96153,0.42047 c 1.550505,1.35937 2.372038,2.8844 3.322545,4.38013 z"/><path style="fill:#e63259;fill-opacity:1;fill-rule:evenodd;stroke:none;stroke-width:.499999;stroke-linecap:round;stroke-linejoin:round;stroke-miterlimit:3;stroke-opacity:1" id="path12739" d="m 89.734586,59.440765 c 0.37649,-1.053347 0.50666,-2.328386 -1.375,-5.414065 1.3405,-1.999348 1.48396,-2.801667 1.28907,-3.265625 -0.80102,-1.282565 -2.61618,-1.931295 -4.29688,-2.664063 -2.22568,-3.30356 -4.69459,-6.747937 -5.88672,-9.453123 0.77241,-1.024085 0.50703,-1.489365 0.60156,-2.148438 -0.8546,-0.415365 -2.1884,-0.83073 -3.60937,-1.246095 l -5.24219,-7.519529 -1.24609,-0.429689 c 0.92582,-0.09598 0.42247,-0.592123 0.42968,-0.945311 0.20989,-0.354219 0.009,-0.626334 -0.38671,-0.859378 -0.41203,0.008 -0.48093,0.172022 -1.28907,0 -1.38287,-0.845506 -3.069,-1.501472 -4.76953,-2.148435 l -0.34375,-1.332031 c -0.49705,0.132658 -0.27665,0.906787 -0.62245,0.935085 -0.47923,0.03921 -0.50674,0.132142 -0.5377,0.611788 1.08838,1.538621 2.33521,3.145147 3.82422,4.855469 -0.40697,0.514088 -0.24767,1.009889 0.043,1.375 l -0.42968,0.859375 c -0.15933,0.469394 -0.16435,0.88268 0.55859,1.03125 0.73153,0.107873 1.35908,-0.06156 1.84766,-0.601562 2.03779,0.414257 2.79057,1.491743 3.60937,2.535156 1.66914,0.864158 2.18415,2.582592 1.6543,5.800782 1.43579,0.233939 3.84587,1.677316 5.86523,2.70703 0.69515,1.498409 1.39619,2.98558 2.70703,3.308593 l 0.73047,1.503908 c -0.28795,1.768943 -1.24241,3.397568 -0.55859,5.371094 1.0527,0.582215 2.00661,1.134794 2.49219,1.546873 0.85694,0.828556 1.50948,2.679158 2.57812,2.449219 0.52708,1.46915 0.95247,3.103562 2.36324,3.136722 z"/><path style="fill:none;fill-rule:evenodd;stroke:#706873;stroke-width:.7;stroke-linecap:round;stroke-linejoin:round;stroke-miterlimit:3;stroke-dasharray:none;stroke-opacity:1" id="path4934" d="m 76.932246,16.18368 c 3.6031,4.096055 6.40536,8.579785 9.23594,12.878175"/><path style="fill:none;fill-rule:evenodd;stroke:#000;stroke-width:1;stroke-linecap:round;stroke-linejoin:round;stroke-miterlimit:3;stroke-dasharray:none" id="path4930" d="m 90.164276,39.159512 -0.38672,-0.98828 c 0.70405,-1.712323 1.7768,-2.83473 2.87891,-3.910155"/><path style="fill:none;fill-rule:evenodd;stroke:#000;stroke-width:1;stroke-linecap:round;stroke-linejoin:round;stroke-miterlimit:3;stroke-dasharray:none" id="path4932" d="m 90.604816,34.140323 c 1.51182,0.707129 3.09059,1.615141 4.16254,1.002658 0.24979,-6.552802 -2.96454,-13.029229 -6.7305,-18.827617 -1.57264,-2.421362 -3.75518,-4.095042 -5.17727,-6.503507 -8.87156,-9.97152 -19.33537,-7.317912 -23.375,-3.78125 7.60066,0.672149 12.48384,4.737103 15.85547,9.367186 0.56035,1.161033 1.08427,2.303856 1.41797,3.351565 2.21717,2.033375 0.89532,4.668577 -1.28742,6.413973 -0.72545,0.580093 -1.55396,0.489625 -2.57977,0.332118"/><path style="fill:none;fill-rule:evenodd;stroke:#000;stroke-width:1;stroke-linecap:round;stroke-linejoin:round;stroke-miterlimit:3;stroke-dasharray:none" id="path4928" d="m 87.931066,41.736199 c -3.33814,-5.22178 -8.12989,-10.245342 -13.98749,-15.12356"/><path style="fill:none;fill-rule:evenodd;stroke:#000;stroke-width:1;stroke-linecap:round;stroke-linejoin:round;stroke-miterlimit:3;stroke-dasharray:none" id="path4926" d="m 82.644346,60.300515 c 1.40402,0.90101 2.79621,1.737 4.041,1.76224 1.55599,0.38208 2.91037,0.0585 4.31446,-0.0911 0.88796,-0.51857 1.6342,-1.20461 1.6407,-2.764899 0.632,-5.448889 0.20895,-10.988928 -3.72232,-16.437817"/><path style="fill:none;fill-rule:evenodd;stroke:#000;stroke-width:1;stroke-linecap:round;stroke-linejoin:round;stroke-miterlimit:3;stroke-dasharray:none" id="path4916" d="m 86.472666,73.000815 c 0.13493,-1.9852 0.005,-3.95886 -1.70148,-5.86402 -1.2012,0.46003 -2.436,1.13852 -3.79794,2.64337 -0.0566,-1.30074 -0.10749,-2.60051 -0.63805,-3.98024 -0.79778,0.51033 -1.00094,0.92697 -1.80067,2.79519 -0.52493,1.22627 -4.57307,1.54398 -5.00523,1.4585 -1.64444,0.73607 -3.79715,1.30462 -3.34219,3.67641"/><path style="fill:none;fill-rule:evenodd;stroke:#000;stroke-width:1;stroke-linecap:round;stroke-linejoin:round;stroke-miterlimit:3;stroke-dasharray:none" id="path4920" d="m 69.397136,72.210845 6.04632,-7.89971"/><path style="fill:#fee767;fill-opacity:1;fill-rule:evenodd;stroke:none;stroke-width:1;stroke-linecap:round;stroke-linejoin:round;stroke-miterlimit:3;stroke-dasharray:none;stroke-opacity:1" id="path25117" d="m 45.884979,70.333345 c 1.197452,-1.44612 2.871158,-2.73349 3.458985,-4.38282 l 0.386718,-0.58007 c -0.288446,-1.58657 -1.532173,-1.33607 -2.513672,-1.58985 l -2.277343,-0.043 c -0.961313,0.14114 -1.662679,0.97548 -2.470703,1.52539 l -0.623048,3.35156 1.976564,1.91211 z"/><path style="fill:#fee767;fill-opacity:1;fill-rule:evenodd;stroke:none;stroke-width:1;stroke-linecap:round;stroke-linejoin:round;stroke-miterlimit:3;stroke-dasharray:none;stroke-opacity:1" id="path25115" d="m 69.410376,63.952485 c -0.10581,-2.80848 -0.76193,-5.973203 -2.70704,-5.650393 l -3.24414,0.751951 -2.64258,1.740232 3.07227,3.52344 3.20117,0.73047 z"/><path style="fill:none;fill-rule:evenodd;stroke:#000;stroke-width:.6;stroke-linecap:round;stroke-linejoin:round;stroke-miterlimit:3;stroke-dasharray:none" id="path4924" d="m 73.924276,56.776028 c -0.45923,-2.758755 3.45549,-6.636024 3.76756,-5.013277"/><path style="fill:none;fill-rule:evenodd;stroke:#000;stroke-width:1;stroke-linecap:round;stroke-linejoin:round;stroke-miterlimit:3;stroke-dasharray:none" id="path4922" d="m 75.291536,64.554205 c -0.14046,-4.75852 -1.8794,-9.826418 -4.52714,-15.070215"/><path style="fill:none;fill-rule:evenodd;stroke:#706873;stroke-width:.9;stroke-linecap:round;stroke-linejoin:round;stroke-miterlimit:3;stroke-dasharray:none;stroke-opacity:1" id="path6638" d="m 57.167786,63.004645 c 1.80652,0.28454 2.43797,1.10339 3.32699,2.06608"/><path style="fill:none;fill-rule:evenodd;stroke:#000;stroke-width:1;stroke-linecap:round;stroke-linejoin:round;stroke-miterlimit:3;stroke-dasharray:none" id="path4974" d="m 55.144746,76.241545 -2.750001,-2.40625 -1.503905,-0.34375"/><path style="fill:#029dd3;fill-opacity:1;fill-rule:evenodd;stroke:none;stroke-width:.499999;stroke-linecap:round;stroke-linejoin:round;stroke-miterlimit:3;stroke-opacity:1" id="path17941" d="m 46.366449,70.630895 0.69882,0.85074 -2.385102,3.46372 -0.896313,-1.54956 0.486135,-1.91416 z"/><path style="fill:#029dd3;fill-opacity:1;fill-rule:evenodd;stroke:none;stroke-width:.499999;stroke-linecap:round;stroke-linejoin:round;stroke-miterlimit:3;stroke-opacity:1" id="path18669" d="m 43.966154,71.922195 -2.901624,-1.21534 c 0,0 -1.21534,1.32169 -1.200148,1.39764 0.01519,0.076 2.354721,2.29396 2.354721,2.29396 l 1.39764,-1.07862 z"/><path style="fill:none;fill-rule:evenodd;stroke:#000;stroke-width:.499999;stroke-linecap:round;stroke-linejoin:round;stroke-miterlimit:3" id="path4956" d="m 44.101777,71.514985 c -1.421223,-0.0236 -2.266134,-0.52735 -3.007812,-1.11719"/><path style="fill:none;fill-rule:evenodd;stroke:#000;stroke-width:1;stroke-linecap:round;stroke-linejoin:round;stroke-miterlimit:3;stroke-dasharray:none" id="path4940" d="m 76.701126,51.851309 c 0.37465,0.525628 0.49748,0.647198 2.44108,3.136635 1.11232,1.424699 2.46879,3.920293 3.45957,5.570011"/><path style="fill:none;fill-rule:evenodd;stroke:#000;stroke-width:1;stroke-linecap:round;stroke-linejoin:round;stroke-miterlimit:3;stroke-dasharray:none" id="path4938" d="m 64.511936,40.104825 c -0.10644,1.154951 0.30159,2.584289 -1.41797,2.878908"/><path style="fill:none;fill-rule:evenodd;stroke:#000;stroke-width:1;stroke-linecap:round;stroke-linejoin:round;stroke-miterlimit:3;stroke-dasharray:none" id="path4936" d="m 69.625216,23.089202 c -3.87522,-1.255613 -8.06497,-4.005214 -11.08594,-1.203127 -0.10908,2.99645 1.32217,8.362639 5.67187,18.21875"/><path style="fill:none;fill-rule:evenodd;stroke:#000;stroke-width:1;stroke-linecap:round;stroke-linejoin:round;stroke-miterlimit:3;stroke-dasharray:none" id="path4942" d="m 69.840056,48.182951 c -1.25863,-0.447629 -2.76701,-1.564908 -4.30201,-2.958605 -2.26703,-2.058346 -4.4161,-3.860542 -6.52611,-3.44374"/><path style="fill:none;fill-rule:evenodd;stroke:#706873;stroke-width:1;stroke-linecap:round;stroke-linejoin:round;stroke-miterlimit:3;stroke-dasharray:none;stroke-opacity:1" id="path6642" d="m 66.115726,51.276616 c -2.01804,-0.09739 -3.81145,0.508816 -4.94377,2.450355 -0.75155,1.288664 -1.42621,2.819428 -0.79872,5.479736"/><path style="fill:none;fill-rule:evenodd;stroke:#706873;stroke-width:1;stroke-linecap:round;stroke-linejoin:round;stroke-miterlimit:3;stroke-dasharray:none;stroke-opacity:1" id="path6646" d="m 60.008636,52.415996 c -1.30293,-0.492208 -2.52846,-0.883054 -5.48422,-3.539678 l -3.706784,-3.539675 c 0.05071,0 -1.334013,4.884214 -1.184957,4.435989 0.05401,-0.162419 -1.187852,4.347586 -1.458408,3.752363"/><path style="fill:none;fill-rule:evenodd;stroke:#706873;stroke-width:1;stroke-linecap:round;stroke-linejoin:round;stroke-miterlimit:3;stroke-dasharray:none;stroke-opacity:1" id="path6640" d="m 39.622283,57.249357 0.19336,-0.397462 c 2.348966,-0.442585 3.192773,-0.06793 4.404223,0.322005 1.809829,0.582535 2.47956,2.361755 3.459059,3.384055"/><path style="fill:none;fill-rule:evenodd;stroke:#000;stroke-width:1;stroke-linecap:round;stroke-linejoin:round;stroke-miterlimit:3;stroke-dasharray:none" id="path4946" d="m 42.25412,47.194669 -1.546876,1.117187 c -1.767209,3.135347 -3.229122,6.347017 -4.082031,9.710939"/><path style="fill:none;fill-rule:evenodd;stroke:#706873;stroke-width:.9;stroke-linecap:round;stroke-linejoin:round;stroke-miterlimit:3;stroke-dasharray:none;stroke-opacity:1" id="path6650" d="m 19.029511,43.26303 c 0.92186,-2.621196 2.16095,-5.061118 3.48047,-7.45508"/><path style="fill:#029dd3;fill-opacity:1;fill-rule:evenodd;stroke:none;stroke-width:.499999;stroke-linecap:round;stroke-linejoin:round;stroke-miterlimit:3;stroke-opacity:1" id="path17159" d="m 22.120422,67.774855 c 0.992091,-0.27008 1.784978,-3.62783 2.673746,-5.49941 l 2.339531,-2.18762 c 0.0263,-0.964035 -0.672489,-1.317469 -1.731859,-1.367255 -1.136021,-1.977123 0.523386,-3.674703 0.911502,-5.499412 0.861961,-1.703779 2.502948,-2.072866 3.1295,-3.524486 -0.664266,-1.048528 -1.30289,-2.161164 -1.853393,-3.4941 0.91017,-1.708208 2.166854,-2.725463 3.281418,-4.178178 1.936326,-0.140483 2.781961,-2.187384 2.916817,-2.658108 -0.689926,-0.954224 -1.273477,-1.811493 -2.019423,-3.325914 1.578081,-0.965697 1.387131,-2.197064 1.867504,-3.267304 l -0.203151,-1.063424 c 2.34974,-5.193535 0.550055,-5.741862 0.628519,-5.955165 -0.516692,0.02831 -1.006971,-0.142059 -1.44582,0.712932 l -0.852897,0.270401 c -0.01727,3.149153 -1.766731,4.046495 -3.86913,4.941452 -0.605503,0.317722 -1.16653,0.671025 -1.488792,1.21534 l 0.334219,0.941887 c 0.477548,1.267904 0.412588,1.857673 0.455753,2.582598 0.206507,1.316618 0.21262,2.633236 -0.546905,3.949854 l -0.151918,0.88112 0.638056,0.486138 c 0.05227,0.0697 -1.91852,3.035533 -2.096463,3.038348 -0.687536,0.01088 -4.596192,1.808336 -3.372567,1.731859 2.433835,3.238692 2.746653,6.830887 -1.671093,11.21151 l 0.972273,3.038347 c 0.209276,2.32959 0.356817,5.0296 0.638053,6.92744 z"/><path style="fill:none;fill-rule:evenodd;stroke:#000;stroke-width:1;stroke-linecap:round;stroke-linejoin:round;stroke-miterlimit:3;stroke-dasharray:none" id="path4944" d="m 58.668186,41.952482 c -3.31013,-1.402107 -5.301313,-4.123169 -7.519534,-6.617189 -2.678172,4.147057 -4.514078,8.888654 -8.980468,11.77344 -3.324332,-1.429292 -3.344887,-4.290221 -3.308597,-7.175783"/><path style="fill:none;fill-rule:evenodd;stroke:#706873;stroke-width:.9;stroke-linecap:round;stroke-linejoin:round;stroke-miterlimit:3;stroke-dasharray:none;stroke-opacity:1" id="path6648" d="m 34.197478,59.805995 c -0.08594,-0.0215 -1.095703,0.40821 -1.095703,0.40821 1.112921,-3.765686 1.747305,-7.292104 2.569684,-10.912519 1.237754,-2.797805 1.64497,-5.014233 2.09646,-7.261653"/><path style="fill:none;fill-rule:evenodd;stroke:#000;stroke-width:1;stroke-linecap:round;stroke-linejoin:round;stroke-miterlimit:3;stroke-dasharray:none" id="path4982" d="m 33.187715,60.987635 -0.343751,3.95313"/><path style="fill:none;fill-rule:evenodd;stroke:#000;stroke-width:1;stroke-linecap:round;stroke-linejoin:round;stroke-miterlimit:3;stroke-dasharray:none" id="path4984" d="m 32.754645,65.222635 -0.06077,1.54956 c -2.633023,2.77334 -5.101354,5.81019 -8.902364,6.71475 -1.449856,0.12258 -2.248423,-0.18902 -3.251036,-0.3646 -2.019168,-0.7485 -2.282133,-2.2232 -3.419593,-3.73768 -1.05905,-1.41007 -1.438706,-3.95799 -1.745599,-5.34698"/><path style="fill:none;fill-rule:evenodd;stroke:#706873;stroke-width:.9;stroke-linecap:round;stroke-linejoin:round;stroke-miterlimit:3;stroke-dasharray:none;stroke-opacity:1" id="path6654" d="m 21.521699,33.487639 c 0.852714,0.239903 1.183084,0.175104 1.729491,0.236328"/><path style="fill:none;fill-rule:evenodd;stroke:#000;stroke-width:1;stroke-linecap:round;stroke-linejoin:round;stroke-miterlimit:3;stroke-dasharray:none" id="path4986" d="M 14.949917,64.068065 C 14.619954,56.634627 16.185123,49.849524 18.930155,43.468058"/><path style="fill:none;fill-rule:evenodd;stroke:#000;stroke-width:1;stroke-linecap:round;stroke-linejoin:round;stroke-miterlimit:3;stroke-dasharray:none" id="path5000" d="m 37.828689,41.675432 c 0.593615,-3.777681 0.558984,-7.555362 0.1823,-11.333043"/><path style="fill:none;fill-rule:evenodd;stroke:#000;stroke-width:1;stroke-linecap:round;stroke-linejoin:round;stroke-miterlimit:3;stroke-dasharray:none" id="path5002" d="m 38.19329,31.800796 c -0.121534,-0.06077 -1.853393,-6.046317 -1.853393,-6.046317 -0.604278,-0.482768 -0.198953,-1.470336 -2.096463,-1.306488 -0.775472,0.208527 -1.546228,0.445344 -2.400295,0.1823"/><path style="fill:none;fill-rule:evenodd;stroke:#000;stroke-width:1;stroke-linecap:round;stroke-linejoin:round;stroke-miterlimit:3;stroke-dasharray:none" id="path5004" d="m 30.445499,25.66333 c -2.189071,1.635932 -4.541091,3.869343 -7.930092,9.905018"/><path style="fill:none;fill-rule:evenodd;stroke:#000;stroke-width:1;stroke-linecap:round;stroke-linejoin:round;stroke-miterlimit:3;stroke-dasharray:none" id="path4988" d="M 17.441363,46.81024 C 16.306348,45.555087 15.478642,43.992626 13.035757,44.045344"/><path style="fill:none;fill-rule:evenodd;stroke:#000;stroke-width:1;stroke-linecap:round;stroke-linejoin:round;stroke-miterlimit:3;stroke-dasharray:none" id="path4990" d="M 14.494164,43.771892 C 13.524617,43.091082 11.31335,44.430156 10.913857,44.742507 9.201088,46.081669 8.631822,46.175519 8.113631,46.293721 6.719989,43.967271 6.361255,42.261219 6.119728,40.65296 5.569141,36.986759 5.519901,34.358938 5.927559,32.797264 c 0.33144,-1.26969 0.471037,-1.870688 1.001115,-3.305614 0.705648,-1.856219 2.42424,-3.881262 4.071387,-5.894398 0.807756,-1.378867 2.162517,-2.429532 3.342185,-3.585252 2.692012,-3.277098 5.679244,-4.192429 8.689681,-4.922126"/><path style="fill:none;fill-rule:evenodd;stroke:#000;stroke-width:1;stroke-linecap:round;stroke-linejoin:round;stroke-miterlimit:3;stroke-dasharray:none" id="path4994" d="m 15.800656,29.476458 c 4.311085,-10.115931 6.15163,-12.520782 7.838939,-14.447351"/><path style="fill:none;fill-rule:evenodd;stroke:#000;stroke-width:.7;stroke-linecap:round;stroke-linejoin:round;stroke-miterlimit:3;stroke-dasharray:none" id="path4992" d="m 12.823072,42.662894 c 1.26827,-1.003436 1.598788,-2.451071 2.142037,-3.797938"/><path style="fill:none;fill-rule:evenodd;stroke:#706873;stroke-width:.9;stroke-linecap:round;stroke-linejoin:round;stroke-miterlimit:3;stroke-dasharray:none;stroke-opacity:1" id="path6652" d="m 14.302947,36.882169 c -0.03055,-2.933845 0.729146,-5.01665 1.417971,-7.175781"/><path style="fill:none;fill-rule:evenodd;stroke:#000;stroke-width:1;stroke-linecap:round;stroke-linejoin:round;stroke-miterlimit:3;stroke-dasharray:none" id="path4978" d="m 59.269746,76.069665 c -0.0564,-0.48518 0.12422,-0.24113 0.043,-1.61132 0,0 3.26562,-5.0918 3.28711,-5.17774"/><path style="fill:none;fill-rule:evenodd;stroke:#000;stroke-width:1;stroke-linecap:round;stroke-linejoin:round;stroke-miterlimit:3;stroke-dasharray:none" id="path4980" d="m 62.148656,68.979825 c -0.0552,-1.23407 -0.14618,-2.46964 -1.54688,-3.75977"/><path style="fill:none;fill-rule:evenodd;stroke:#706873;stroke-width:.9;stroke-linecap:round;stroke-linejoin:round;stroke-miterlimit:3;stroke-dasharray:none;stroke-opacity:1" id="path6582" d="m 50.54418,64.356705 c 1.795843,-2.10039 3.482045,-1.82145 5.317106,-1.68628"/><path style="fill:none;fill-rule:evenodd;stroke:#000;stroke-width:1;stroke-linecap:round;stroke-linejoin:round;stroke-miterlimit:3;stroke-dasharray:none" id="path4976" d="m 50.80244,73.517335 c -0.940079,-2.22503 -1.641132,-4.56437 -1.276107,-7.41358 l 0.925031,-1.59826"/><ellipse style="fill:#000;fill-opacity:1;fill-rule:evenodd;stroke:#000;stroke-width:.499999;stroke-linecap:round;stroke-linejoin:round;stroke-miterlimit:3;stroke-opacity:1" id="path6872" cx="66.123" cy="62.61" rx=".737" ry="1.185"/><path style="fill:none;fill-rule:evenodd;stroke:#000;stroke-width:1;stroke-linecap:round;stroke-linejoin:round;stroke-miterlimit:3;stroke-dasharray:none" id="path5014" d="m 70.430176,54.466882 c -0.15184,0.09119 -9.28797,6.320783 -9.87463,5.985543"/><path style="fill:none;fill-opacity:1;fill-rule:evenodd;stroke:#000;stroke-width:.5;stroke-linecap:round;stroke-linejoin:round;stroke-miterlimit:3;stroke-dasharray:none;stroke-opacity:1" id="path21187" d="m 47.635954,63.953795 c -0.163688,-0.0617 -0.234019,-0.18558 -1.369626,-0.36118 -0.827149,0.0882 -1.745606,0.002 -2.572755,0.20948"/><ellipse style="fill:#000;fill-opacity:1;fill-rule:evenodd;stroke:#000;stroke-width:.499999;stroke-linecap:round;stroke-linejoin:round;stroke-miterlimit:3;stroke-opacity:1" id="path6870" cx="34.198" cy="74.773" rx=".706" ry="1.155" transform="rotate(-10)"/><path style="fill:none;fill-rule:evenodd;stroke:#000;stroke-width:.7;stroke-linecap:round;stroke-linejoin:round;stroke-miterlimit:3;stroke-dasharray:none" id="path4962" d="m 29.716294,78.925595 c 1.265979,-0.60282 2.531959,-0.61495 3.797938,-0.75959"/><path style="fill:none;fill-rule:evenodd;stroke:#000;stroke-width:.8;stroke-linecap:round;stroke-linejoin:round;stroke-miterlimit:3;stroke-dasharray:none" id="path4964" d="m 28.804789,78.439455 c 2.792284,-1.71273 4.660234,-1.32091 6.927437,-1.4584"/><path style="fill:none;fill-rule:evenodd;stroke:#000;stroke-width:.5;stroke-linecap:round;stroke-linejoin:round;stroke-miterlimit:3;stroke-dasharray:none" id="path4952" d="m 48.527558,68.979825 c -6.243832,3.95167 -6.031839,-0.69631 -6.16209,-1.69686 -0.164317,-1.26224 0.06591,-4.02276 3.372038,-3.64612 0.465503,0.053 0.315223,-0.0627 0.684585,-0.0334"/><path style="fill:none;fill-rule:evenodd;stroke:#000;stroke-width:1;stroke-linecap:round;stroke-linejoin:round;stroke-miterlimit:3;stroke-dasharray:none" id="path4968" d="m 52.139313,78.226775 c -2.457372,-0.22546 -4.936356,-0.7319 -7.474339,-2.00531"/><path style="fill:none;fill-rule:evenodd;stroke:#000;stroke-width:1;stroke-linecap:round;stroke-linejoin:round;stroke-miterlimit:3;stroke-dasharray:none" id="path4960" d="m 34.82072,74.185765 c -0.625621,-0.13465 -10.306082,-0.92669 -10.17847,0.0304 l 2.704131,4.95251"/><path style="fill:none;fill-rule:evenodd;stroke:#000;stroke-width:1;stroke-linecap:round;stroke-linejoin:round;stroke-miterlimit:3;stroke-dasharray:none" id="path4966" d="m 31.053167,75.917625 c 8.182637,-1.81265 13.4174,2.08997 17.652812,7.9301 2.186948,-3.26401 5.005915,-4.67805 7.160957,-5.77582 3.86701,-1.96985 5.41496,-1.67828 7.84849,-2.03274"/><path style="fill:none;fill-rule:evenodd;stroke:#000;stroke-width:.499999;stroke-linecap:round;stroke-linejoin:round;stroke-miterlimit:3" id="path5058" d="m 66.338106,91.495445 2.08398,-0.19335"/><path style="fill:none;fill-rule:evenodd;stroke:#000;stroke-width:.499999;stroke-linecap:round;stroke-linejoin:round;stroke-miterlimit:3" id="path5052" d="m 65.199436,91.065765 2.66406,-1.58985"/><path style="fill:none;fill-rule:evenodd;stroke:#000;stroke-width:.499999;stroke-linecap:round;stroke-linejoin:round;stroke-miterlimit:3" id="path5056" d="m 66.252166,90.657555 0.15039,1.61133"/><path style="fill:none;fill-rule:evenodd;stroke:#000;stroke-width:.499999;stroke-linecap:round;stroke-linejoin:round;stroke-miterlimit:3" id="path5054" d="m 66.058806,89.132165 0.98828,1.09571"/><path style="fill:none;fill-rule:evenodd;stroke:#000;stroke-width:.499999;stroke-linecap:round;stroke-linejoin:round;stroke-miterlimit:3" id="path5050" d="m 63.416226,91.968105 c 0.54966,1.84665 1.03727,3.99916 2.36328,2.01953"/><path style="fill:none;fill-rule:evenodd;stroke:#000;stroke-width:.499999;stroke-linecap:round;stroke-linejoin:round;stroke-miterlimit:3" id="path5048" d="m 61.998256,92.741545 0.83789,1.20312"/><path style="fill:none;fill-rule:evenodd;stroke:#000;stroke-width:.499999;stroke-linecap:round;stroke-linejoin:round;stroke-miterlimit:3" id="path5044" d="m 59.583266,93.418525 1.54956,-0.33422"/><path style="fill:none;fill-rule:evenodd;stroke:#000;stroke-width:.499999;stroke-linecap:round;stroke-linejoin:round;stroke-miterlimit:3" id="path5042" d="m 58.428696,95.940355 1.39764,-0.66844"/><path style="fill:none;fill-rule:evenodd;stroke:#000;stroke-width:.499999;stroke-linecap:round;stroke-linejoin:round;stroke-miterlimit:3" id="path5046" d="m 60.677076,93.327375 c 0.29846,1.02841 1.46706,2.54409 0.48613,2.85604 -0.39587,-0.27257 -0.82231,-0.51456 -0.94188,-1.06342 0.78372,-0.60765 1.63502,-0.76091 2.52183,-0.1823"/><path style="fill:none;fill-rule:evenodd;stroke:#000;stroke-width:.499999;stroke-linecap:round;stroke-linejoin:round;stroke-miterlimit:3" id="path5040" d="m 57.881796,94.481945 c 0.12153,0.0304 1.12419,0.1823 1.12419,0.1823"/><path style="fill:none;fill-rule:evenodd;stroke:#000;stroke-width:.499999;stroke-linecap:round;stroke-linejoin:round;stroke-miterlimit:3" id="path5128" d="m 61.132826,88.283715 c 0.48371,0.78876 0.61863,1.40312 0.78997,2.03569 -0.8468,0.94342 -1.48992,0.39312 -2.09646,-0.42537 0.0922,-1.25528 0.74847,-1.55147 1.27611,-2.06608 0.89599,-0.33449 1.74522,-0.46635 2.4003,0.24307 0.33765,0.52047 0.36015,0.98841 0.21268,1.42803"/><path style="fill:none;fill-rule:evenodd;stroke:#000;stroke-width:.499999;stroke-linecap:round;stroke-linejoin:round;stroke-miterlimit:3" id="path5072" d="m 64.361546,83.180995 c 1.06621,-0.73342 2.03312,-0.9703 2.98632,-1.13867"/><path style="fill:none;fill-rule:evenodd;stroke:#000;stroke-width:.499999;stroke-linecap:round;stroke-linejoin:round;stroke-miterlimit:3" id="path5070" d="m 62.750216,83.804045 c -0.0645,0.0859 -1.13867,0.85937 -1.13867,0.85937"/><path style="fill:none;fill-rule:evenodd;stroke:#000;stroke-width:.499999;stroke-linecap:round;stroke-linejoin:round;stroke-miterlimit:3" id="path5068" d="m 60.773656,84.319665 c -0.12891,0.0215 -0.92383,-1.56836 -0.92383,-1.56836 2.8011,-1.35774 2.65014,1.41741 3.65234,2.57813"/><path style="fill:none;fill-rule:evenodd;stroke:#000;stroke-width:.499999;stroke-linecap:round;stroke-linejoin:round;stroke-miterlimit:3" id="path5066" d="m 58.345916,86.962245 1.54688,-1.82617"/><path style="fill:none;fill-rule:evenodd;stroke:#000;stroke-width:.499999;stroke-linecap:round;stroke-linejoin:round;stroke-miterlimit:3" id="path5064" d="m 56.347866,84.942715 c 0.25782,0 1.54688,-0.73047 1.54688,-0.73047"/><path style="fill:none;fill-rule:evenodd;stroke:#000;stroke-width:.499999;stroke-linecap:round;stroke-linejoin:round;stroke-miterlimit:3" id="path5062" d="m 54.972876,86.210295 1.63281,1.33203"/><path style="fill:none;fill-rule:evenodd;stroke:#000;stroke-width:.499999;stroke-linecap:round;stroke-linejoin:round;stroke-miterlimit:3" id="path5060" d="m 53.769744,86.597015 1.160152,2.49219"/><path style="fill:none;fill-rule:evenodd;stroke:#000;stroke-width:.499999;stroke-linecap:round;stroke-linejoin:round;stroke-miterlimit:3" id="path5036" d="m 57.456426,96.639175 -1.00266,-3.70679"/><path style="fill:none;fill-rule:evenodd;stroke:#000;stroke-width:.499999;stroke-linecap:round;stroke-linejoin:round;stroke-miterlimit:3" id="path5038" d="m 55.815716,93.722355 1.82301,-0.24307"/><path style="fill:none;fill-rule:evenodd;stroke:#000;stroke-width:1;stroke-linecap:round;stroke-linejoin:round;stroke-miterlimit:3;stroke-dasharray:none" id="path4910" d="M 35.094172,104.20467 26.097871,81.139985 c 11.89577,-4.4205 15.575839,0.74398 20.96875,3.91015"/><path style="fill:none;fill-rule:evenodd;stroke:#000;stroke-width:1;stroke-linecap:round;stroke-linejoin:round;stroke-miterlimit:3;stroke-dasharray:none" id="path4970" d="m 47.505829,85.017485 c -0.078,0.50872 -0.433537,1.13637 0.562097,1.18496 1.341848,0.18285 2.519174,-0.3974 3.843512,-1.38245 1.152563,-0.71084 0.149345,-0.73575 -0.379793,-0.91151"/><path style="fill:none;fill-rule:evenodd;stroke:#000;stroke-width:1;stroke-linecap:round;stroke-linejoin:round;stroke-miterlimit:3;stroke-dasharray:none" id="path4972" d="m 52.929285,83.209665 0.303834,-0.60767 c 3.728537,-2.92069 6.913677,-4.42855 10.269627,-6.38053 l 4.52714,-1.09381 c 1.19534,2.97758 2.15674,5.95517 2.94719,8.93275"/><path style="fill:none;fill-rule:evenodd;stroke:#000;stroke-width:1;stroke-linecap:round;stroke-linejoin:round;stroke-miterlimit:3;stroke-dasharray:none" id="path1636" d="m 101.03537,106.19077 3.22266,-0.043 1.93359,-0.64453 2.75,0.1289 c 3.12803,-1.02247 14.96269,-6.030845 13.23438,-14.523425 -7.74733,5.99766 -16.18686,7.90396 -24.964854,3.48047 2.00038,-0.91908 2.987444,-3.01084 3.652354,-4.59766 -1.565854,1.13223 -3.592984,2.28976 -5.500004,1.375 1.91457,-0.99823 3.28243,-2.24497 1.46094,-4.94141 1.81329,-1.73481 4.433824,-4.793 4.722384,-8.68087 0.1643,-2.21373 -0.48363,-4.55323 -4.894264,-7.38944 -0.0629,-2.16276 1.09571,-4.32552 1.84766,-6.48828 -6.88012,2.11096 -8.76299,4.51022 -9.75391,6.96094 1.74821,3.93561 1.06872,6.70406 -3.13672,7.77734 l 0.12891,-3.35156 -1.71875,-0.12891 -4.33985,4.46875 1.07422,6.57422 -3.69531,-0.42969 c -0.0359,-3.14897 -2.67241,-3.94109 -6.35937,-3.78125 l 2.10547,6.875 c -2.84399,-1.84033 -6.04494,4.40749 0.73046,6.78906 0.8747,2.69229 1.83178,5.169125 4.16797,4.03907"/><path style="fill:none;fill-rule:evenodd;stroke:#000;stroke-width:1;stroke-linecap:round;stroke-linejoin:round;stroke-miterlimit:3;stroke-dasharray:none" id="path5006" d="m 75.321916,98.887545 c -1.56262,-0.0649 -4.46641,0.47971 -0.97227,-1.88377"/><path style="fill:none;fill-rule:evenodd;stroke:#000;stroke-width:1;stroke-linecap:round;stroke-linejoin:round;stroke-miterlimit:3;stroke-dasharray:none" id="path5008" d="m 70.703626,94.086955 c -3.36819,-0.009 -5.47081,-0.45652 -1.39764,-3.00796"/><path style="fill:none;fill-rule:evenodd;stroke:#000;stroke-width:1;stroke-linecap:round;stroke-linejoin:round;stroke-miterlimit:3;stroke-dasharray:none" id="path4904" d="m 36.46143,104.81233 c 3.599619,-2.2431 6.169548,-1.25448 9.145432,-0.36461"/><path style="fill:none;fill-rule:evenodd;stroke:#000;stroke-width:1;stroke-linecap:round;stroke-linejoin:round;stroke-miterlimit:3;stroke-dasharray:none" id="path4906" d="m 47.277954,105.48076 c 1.541849,0.91942 2.82497,0.63144 4.132154,0.45576"/><path style="fill:none;fill-rule:evenodd;stroke:#000;stroke-width:1;stroke-linecap:round;stroke-linejoin:round;stroke-miterlimit:3;stroke-dasharray:none" id="path5024" d="m 58.276776,104.20467 c 3.13376,-1.1083 6.03582,-2.2552 8.20355,-3.5245 1.51295,-0.764285 2.83344,-1.047405 4.19292,-1.428015"/><path style="fill:none;fill-rule:evenodd;stroke:#000;stroke-width:.7;stroke-linecap:round;stroke-linejoin:round;stroke-miterlimit:3;stroke-dasharray:none" id="path5020" d="M 58.671766,105.81499 C 56.296106,99.599195 54.283083,93.487015 52.473532,87.432975"/><path style="fill:none;fill-rule:evenodd;stroke:#000;stroke-width:.7;stroke-linecap:round;stroke-linejoin:round;stroke-miterlimit:3;stroke-dasharray:none" id="path5022" d="M 53.719254,106.11883 C 51.337891,100.2607 49.484675,94.258525 46.305682,88.617925"/><path style="fill:none;fill-rule:evenodd;stroke:#000;stroke-width:1;stroke-linecap:round;stroke-linejoin:round;stroke-miterlimit:3;stroke-dasharray:none" id="path5026" d="m 40.472051,98.735635 0.03039,-2.49145 2.79528,1.12419"/><path style="fill:none;fill-rule:evenodd;stroke:#000;stroke-width:1;stroke-linecap:round;stroke-linejoin:round;stroke-miterlimit:3;stroke-dasharray:none" id="path5030" d="m 39.180754,93.737545 2.385105,-1.8382"/><path style="fill:none;fill-rule:evenodd;stroke:#000;stroke-width:1.1;stroke-linecap:round;stroke-linejoin:round;stroke-miterlimit:3;stroke-dasharray:none" id="path5034" d="m 34.668805,94.086955 2.09646,-1.24572"/><path style="fill:none;fill-rule:evenodd;stroke:#000;stroke-width:1;stroke-linecap:round;stroke-linejoin:round;stroke-miterlimit:3;stroke-dasharray:none" id="path5028" d="m 40.502436,96.213805 -1.063424,-2.09646 -3.007966,0.1823"/><path style="fill:none;fill-rule:evenodd;stroke:#000;stroke-width:1;stroke-linecap:round;stroke-linejoin:round;stroke-miterlimit:3;stroke-dasharray:none" id="path5032" d="m 37.221018,95.879585 -4.405606,-7.14012"/><ellipse style="fill:#000;fill-opacity:1;fill-rule:evenodd;stroke:#000;stroke-width:.499999;stroke-linecap:round;stroke-linejoin:round;stroke-miterlimit:3;stroke-opacity:1" id="path6708" cx="38.922" cy="91.778" rx=".957" ry="1.109"/><path style="fill:none;fill-rule:evenodd;stroke:#000;stroke-width:1;stroke-linecap:round;stroke-linejoin:round;stroke-miterlimit:3;stroke-dasharray:none" id="path4847" d="m 34.000366,110.0079 c -1.037155,2.17871 0.423957,2.02753 0.976704,2.15799 0.647352,0.15279 1.199482,0.37814 2.061647,-0.39573"/><path style="fill:none;fill-rule:evenodd;stroke:#000;stroke-width:1;stroke-linecap:round;stroke-linejoin:round;stroke-miterlimit:3;stroke-dasharray:none" id="path4843" d="m 31.903906,108.27605 c 0.813208,0.25464 1.786594,0.12028 2.066078,1.6711 -1.745314,1.8899 -2.233795,3.8729 -1.792626,5.92478 -1.5797,-2.42255 -1.574846,-4.68665 -0.729205,-6.86667"/><path style="fill:none;fill-rule:evenodd;stroke:#000;stroke-width:1;stroke-linecap:round;stroke-linejoin:round;stroke-miterlimit:3;stroke-dasharray:none" id="path4841" d="m 34.851105,105.60231 c -2.814603,-0.41779 -4.374337,0.52102 -4.192923,3.34218"/><path style="fill:none;fill-rule:evenodd;stroke:#000;stroke-width:.5;stroke-linecap:round;stroke-linejoin:round;stroke-miterlimit:3;stroke-dasharray:none" id="path5010" d="m 74.866166,62.427355 -1.85339,0.24307"/><path style="fill:none;fill-rule:evenodd;stroke:#000;stroke-width:1;stroke-linecap:round;stroke-linejoin:round;stroke-miterlimit:3;stroke-dasharray:none" id="path5016" d="m 60.798606,60.877795 c 1.99322,4.04077 4.7523,5.34634 8.44661,3.3118"/><path style="fill:none;fill-rule:evenodd;stroke:#000;stroke-width:1;stroke-linecap:round;stroke-linejoin:round;stroke-miterlimit:3;stroke-dasharray:none" id="path5012" d="m 72.465876,61.819685 2.33952,2.4003 c -1.41989,0.54906 -1.94559,2.19553 -4.98289,0.75959 l 0.7292,3.43333 c -2.95571,-0.15515 -3.61699,-1.88018 -5.19557,-2.97758"/><path style="fill:none;fill-rule:evenodd;stroke:#000;stroke-width:1;stroke-linecap:round;stroke-linejoin:round;stroke-miterlimit:3;stroke-dasharray:none" id="path4918" d="m 70.484586,74.436855 c -1.01989,0.11162 -1.42029,0.84273 -2.01953,1.375"/><path style="fill:#000;fill-opacity:1;fill-rule:evenodd;stroke:none;stroke-width:.499999;stroke-linecap:round;stroke-linejoin:round;stroke-miterlimit:3;stroke-opacity:1" id="path21017" d="m 69.898466,63.992105 0.83555,-0.41018 c 0,0 1.39764,-1.70147 1.39764,-1.76224 0,-0.0608 0.7292,-1.41283 0.7292,-1.41283 l 0.076,-3.099118 -0.53171,-2.248376 -0.25826,-0.303837 -1.32168,-0.03038 -0.82036,-0.04557 -1.07861,0.774776 -2.5826,1.71667 0.28864,0.288642 0.83555,0.394986 1.12419,0.972272 0.7292,1.184955 0.33422,1.82301 v 1.71667 0.44056 z"/><path style="fill:none;fill-rule:evenodd;stroke:#000;stroke-width:.499999;stroke-linecap:round;stroke-linejoin:round;stroke-miterlimit:3" id="path4954" d="m 47.539275,70.139985 -3.39453,1.24609 -0.429688,1.80469 -1.546873,1.375 -2.49219,-2.49219 1.246095,-1.58984 c -2.34618,-1.86568 -2.933442,-4.67847 -3.867187,-7.30469 l 10.355468,0.73047"/><path style="fill:#000;fill-opacity:1;fill-rule:evenodd;stroke:none;stroke-width:.499999;stroke-linecap:round;stroke-linejoin:round;stroke-miterlimit:3;stroke-opacity:1" id="path20853" d="m 43.62912,63.716155 -6.402342,-0.53711 0.623046,2.16992 1.353515,3.28711 1.246093,1.375 1.417971,0.81641 1.611325,0.64453 1.267579,-0.32227 1.56836,-0.73047 -1.289063,0.043 -1.009766,-0.0644 -0.902343,-0.49414 -0.494141,-0.60156 -0.279297,-1.375 0.02148,-1.99805 0.38672,-1.22461 0.623046,-0.55859 z"/><path style="fill:none;fill-rule:evenodd;stroke:#000;stroke-width:1;stroke-linecap:round;stroke-linejoin:round;stroke-miterlimit:3;stroke-dasharray:none" id="path4950" d="m 36.582245,58.753262 c -0.610834,8.422723 1.663674,13.238763 5.628907,15.941403 l 1.375,-1.28906 0.945311,1.58985 c 1.65236,-1.46484 2.180239,-3.1171 3.222657,-4.6836"/><path style="fill:none;fill-rule:evenodd;stroke:#000;stroke-width:1;stroke-linecap:round;stroke-linejoin:round;stroke-miterlimit:3;stroke-dasharray:none" id="path4958" d="m 38.405973,70.813205 c -2.106589,-0.65831 -4.632597,-1.43815 -6.53245,-2.15723 0.995433,2.06934 2.114236,4.16952 3.433335,6.31977"/><path style="fill:none;fill-rule:evenodd;stroke:#000;stroke-width:1;stroke-linecap:round;stroke-linejoin:round;stroke-miterlimit:3;stroke-dasharray:none" id="path4948" d="m 32.886934,60.815765 c 0.631827,-0.2607 1.473719,-0.27633 1.460936,-1.28907 0.644531,-1.140934 1.289063,-0.571214 1.933594,-0.687494"/><path style="fill:none;fill-rule:evenodd;stroke:#000;stroke-width:1;stroke-linecap:round;stroke-linejoin:round;stroke-miterlimit:3;stroke-dasharray:none" id="path4998" d="m 16.752166,29.233731 c 0.91552,2.121979 2.373008,3.634242 4.662112,4.210939"/></g></svg>