<?xml version="1.0" encoding="UTF-8" standalone="no"?>
<!-- Created with Inkscape (http://www.inkscape.org/) -->

<svg
   xmlns:dc="http://purl.org/dc/elements/1.1/"
   xmlns:cc="http://creativecommons.org/ns#"
   xmlns:rdf="http://www.w3.org/1999/02/22-rdf-syntax-ns#"
   xmlns:svg="http://www.w3.org/2000/svg"
   xmlns="http://www.w3.org/2000/svg"
   xmlns:sodipodi="http://sodipodi.sourceforge.net/DTD/sodipodi-0.dtd"
   xmlns:inkscape="http://www.inkscape.org/namespaces/inkscape"
   width="64"
   height="64"
   viewBox="0 0 16.933333 16.933334"
   version="1.1"
   id="svg4846"
   inkscape:version="0.92.4 (5da689c313, 2019-01-14)"
   sodipodi:docname="5thGen Item Icon-Spit Yellow.svg">
  <defs
     id="defs4840" />
  <sodipodi:namedview
     id="base"
     pagecolor="#ffffff"
     bordercolor="#666666"
     borderopacity="1.0"
     inkscape:pageopacity="0.0"
     inkscape:pageshadow="2"
     inkscape:zoom="5.6"
     inkscape:cx="-2.5938686"
     inkscape:cy="36.052956"
     inkscape:document-units="px"
     inkscape:current-layer="layer1"
     showgrid="false"
     units="px"
     inkscape:window-width="1304"
     inkscape:window-height="745"
     inkscape:window-x="-8"
     inkscape:window-y="-8"
     inkscape:window-maximized="1"
     showguides="true"
     inkscape:guide-bbox="true" />
  <metadata
     id="metadata4843">
    <rdf:RDF>
      <cc:Work
         rdf:about="">
        <dc:format>image/svg+xml</dc:format>
        <dc:type
           rdf:resource="http://purl.org/dc/dcmitype/StillImage" />
        <dc:title />
      </cc:Work>
    </rdf:RDF>
  </metadata>
  <g
     inkscape:label="Layer 1"
     inkscape:groupmode="layer"
     id="layer1"
     transform="translate(0,-280.06665)">
    <path
       style="display:inline;opacity:1;vector-effect:none;fill:#ffffff;fill-opacity:1;fill-rule:evenodd;stroke:#000000;stroke-width:0.5291667;stroke-linecap:butt;stroke-linejoin:round;stroke-miterlimit:4;stroke-dasharray:none;stroke-dashoffset:0;stroke-opacity:1"
       d="m 10.054162,289.32707 c 1.058329,0 2.116659,1.5875 2.116659,3.175 0,1.5875 -0.79375,2.38125 -2.116659,2.38125 -1.3229198,0 -1.8520898,-1.32291 -1.8520898,-1.32291 l 0.79375,-2.11667 h 1.0583398 c 1.322919,0 1.322919,1.5875 0.26458,1.85208 1.058339,-0.26458 1.058339,-1.85208 -0.26458,-1.85208 z"
       id="path1264"
       inkscape:connector-curvature="0"
       sodipodi:nodetypes="cssccsccc" />
    <path
       style="display:inline;opacity:1;vector-effect:none;fill:#ffffff;fill-opacity:1;fill-rule:evenodd;stroke:#000000;stroke-width:0.5291667;stroke-linecap:butt;stroke-linejoin:round;stroke-miterlimit:4;stroke-dasharray:none;stroke-dashoffset:0;stroke-opacity:1"
       d="m 6.8791622,288.26874 c 0,0 2.38125,0.26458 2.38125,3.175 0,2.91042 -0.52917,3.43958 -2.38125,3.43958 -1.85209,0 -2.11667,-1.05833 -2.11667,-2.11666 0,-1.05834 0.50727,-2.11667 2.11667,-2.11667 1.05833,0 1.5875,2.11667 0.26458,2.11667 1.32292,0 0.79375,-2.11667 -0.26458,-2.11667 z"
       id="path1268"
       inkscape:connector-curvature="0"
       sodipodi:nodetypes="cssssccc" />
    <path
       style="display:inline;opacity:1;vector-effect:none;fill:#d5d5d5;fill-opacity:1;fill-rule:evenodd;stroke:#000000;stroke-width:0.5291667;stroke-linecap:butt;stroke-linejoin:round;stroke-miterlimit:4;stroke-dasharray:none;stroke-dashoffset:0;stroke-opacity:1"
       d="m 5.0270822,282.18332 h 0.26458 v 3.96875 h -1.32292 v 8.73125 h -1.32292 v -8.73125 h -1.32291 v -3.96875 h 1.32292 v 2.38125 h 1.32291 v -2.38125 z"
       id="path1270"
       inkscape:connector-curvature="0"
       sodipodi:nodetypes="cccccccccccccc" />
    <path
       style="display:inline;opacity:1;vector-effect:none;fill:#d5d5d5;fill-opacity:1;fill-rule:evenodd;stroke:#000000;stroke-width:0.5291667;stroke-linecap:butt;stroke-linejoin:round;stroke-miterlimit:4;stroke-dasharray:none;stroke-dashoffset:0;stroke-opacity:1"
       d="m 15.345841,282.18332 h 0.26458 v 3.96875 h -1.32292 v 8.73125 h -1.32292 v -8.73125 h -1.32291 v -3.96875 h 1.32292 v 2.38125 h 1.32291 v -2.38125 z"
       id="path1270-1"
       inkscape:connector-curvature="0"
       sodipodi:nodetypes="cccccccccccccc" />
  </g>
</svg>
