<svg xmlns="http://www.w3.org/2000/svg" xmlns:svg="http://www.w3.org/2000/svg" xmlns:xlink="http://www.w3.org/1999/xlink" id="svg8" width="64" height="64" version="1.1" viewBox="0 0 16.933 16.933"><metadata id="metadata5"/><g id="layer2"><path style="opacity:.998;fill:#d0d0d0;fill-opacity:1;stroke:#000;stroke-width:.52890208;stroke-linecap:round;stroke-linejoin:round;stroke-miterlimit:4;stroke-dasharray:none;stroke-opacity:1;paint-order:markers fill stroke" id="path961" d="M 5.7014914,3.7218362 11.606774,3.721918 13.70702,5.9555528 13.6744,13.966234 13.44599,15.450837 3.7222858,15.287689 3.1349486,13.966234 3.3633575,5.8250337 Z"/><path style="opacity:.995;fill:#fff;fill-opacity:1;stroke:#858585;stroke-width:.52890208;stroke-linecap:round;stroke-linejoin:round;stroke-miterlimit:4;stroke-dasharray:none;stroke-opacity:1;paint-order:markers fill stroke" id="path959" d="M 7.0243294,11.366676 V 7.2315641 L 8.6692863,5.5866075 h 0.9542566 v 5.7800685 l -1.2749937,0.490761 z"/><path id="path937" d="m 7.6186824,11.901102 v 1.355709 h 0.7298667 0.7298667 v -1.355709 l -0.7298667,0.01294 z" style="opacity:.995;fill:#fff;fill-opacity:1;stroke:#858585;stroke-width:.52890208;stroke-linecap:round;stroke-linejoin:round;stroke-miterlimit:4;stroke-dasharray:none;stroke-opacity:1;paint-order:markers fill stroke"/><path style="opacity:.995;fill:#4d4d4d;fill-opacity:1;stroke:none;stroke-width:.52890208;stroke-linecap:round;stroke-linejoin:round;stroke-miterlimit:4;stroke-dasharray:none;stroke-opacity:1;paint-order:markers fill stroke" id="path1028" d="m 5.539464,4.8988559 h 5.854405 L 11.606774,3.721918 h -6.06731 z"/><path id="path867" d="M 9.9375 4.953125 L 9.9375 9.6816406 L 13.080078 14.066406 L 32 14.066406 L 50.919922 14.066406 L 54.0625 9.6816406 L 54.0625 4.953125 L 32 4.953125 L 9.9375 4.953125 z" transform="scale(0.26458333)" style="opacity:.998;fill:#858585;fill-opacity:1;stroke:#000;stroke-width:1.999;stroke-linecap:round;stroke-linejoin:round;stroke-miterlimit:4;stroke-dasharray:none;stroke-opacity:1;paint-order:markers fill stroke"/><path id="path895" d="M 4.5016308,3.7218362 2.6293916,5.6140614 V 15.742568 h 5.837275 5.8372754 V 5.6140614 l -1.87224,-1.8922252 -1.037833,8.18e-5 v 1.1769378 l 1.638121,1.63812 V 13.966234 H 8.4666667 l -4.5653233,0 0,-7.4292582 1.6381206,-1.63812 V 3.721918 Z" style="opacity:.998;fill:#858585;stroke:#000;stroke-width:.52890208;stroke-linecap:round;stroke-linejoin:round;stroke-miterlimit:4;stroke-dasharray:none;stroke-opacity:1;paint-order:markers fill stroke;fill-opacity:1"/><path id="path917" d="m 6.4609044,11.366916 v 0.87213 h 1.8876447 1.8876439 v -0.87213 H 8.3485491 Z" style="opacity:.995;fill:#fff;fill-opacity:1;stroke:#858585;stroke-width:.52890208;stroke-linecap:round;stroke-linejoin:round;stroke-miterlimit:4;stroke-dasharray:none;stroke-opacity:1;paint-order:markers fill stroke"/><path style="opacity:.995;fill:#000;fill-opacity:1;stroke:none;stroke-width:.370152;stroke-linecap:round;stroke-linejoin:miter;stroke-miterlimit:4;stroke-dasharray:none;stroke-opacity:1;paint-order:markers fill stroke" id="path1088" d="m 3.2615235,3.7175604 0,1.0306494 0.8477453,-0.3633195 0.392362,-0.6630543 z"/><path style="opacity:.995;fill:#000;fill-opacity:1;stroke:none;stroke-width:.370152;stroke-linecap:round;stroke-linejoin:miter;stroke-miterlimit:4;stroke-dasharray:none;stroke-opacity:1;paint-order:markers fill stroke" id="path1088-0" d="m 13.67181,3.7175612 v 1.030649 l -0.847746,-0.363319 -0.392362,-0.663055 z"/></g></svg>