<svg xmlns="http://www.w3.org/2000/svg" xmlns:svg="http://www.w3.org/2000/svg" id="svg4846" width="64" height="64" version="1.1" viewBox="0 0 16.933 16.933"><metadata id="metadata4843"/><g id="layer1" transform="translate(0,-280.06665)"><path style="display:inline;opacity:1;vector-effect:none;fill:#fff;fill-opacity:1;fill-rule:evenodd;stroke:#000;stroke-width:.5291667;stroke-linecap:butt;stroke-linejoin:round;stroke-miterlimit:4;stroke-dasharray:none;stroke-dashoffset:0;stroke-opacity:1" id="path3066" d="m 1.5874997,284.0354 2.116667,-2.11667 H 14.816667 l 0.529167,0.52917 v 1.5875 l -1.5875,1.5875 H 6.6145837 l -1.058334,1.05833 v 6.87917 l -1.5875,1.5875 h -1.5875 l -0.79375,-0.79375 z"/><path style="display:inline;opacity:1;fill:#d5d5d5;fill-opacity:1;fill-rule:nonzero;stroke:none;stroke-width:.5291667;stroke-linecap:round;stroke-linejoin:round;stroke-miterlimit:4;stroke-dasharray:none;stroke-dashoffset:0;stroke-opacity:1;paint-order:markers stroke fill" id="rect3068" d="m 5.5562487,282.18332 v 0.79375 h 0.793751 v -0.79375 z m 2.116667,0 v 0.79375 h 0.79375 v -0.79375 z m 2.116667,0 v 0.79375 h 0.7937503 v -0.79375 z m 1.8520843,0 v 0.79375 h 0.79375 v -0.79375 z m 1.852083,0 v 0.79375 h 0.79375 v -0.79375 z m -10.0541673,1.32291 v 1.85209 h 1.852083 v -1.85209 z m -1.5875,1.85209 v 0.79375 h 0.79375 v -0.79375 z m 0,2.11666 v 0.79375 h 0.79375 v -0.79375 z m 0,2.11667 v 0.79375 h 0.79375 v -0.79375 z m 0,1.85208 v 0.79375 h 0.79375 v -0.79375 z m 0,1.85209 v 0.79375 h 0.79375 v -0.79375 z"/><path style="display:inline;opacity:1;vector-effect:none;fill:#d5d5d5;fill-opacity:1;fill-rule:evenodd;stroke:#000;stroke-width:.5291667;stroke-linecap:butt;stroke-linejoin:round;stroke-miterlimit:4;stroke-dasharray:none;stroke-dashoffset:0;stroke-opacity:1" id="path3123" d="m 7.6729167,290.64998 v -3.175 h 3.1750003 v 0.52917 l -2.6458333,2.64583 z"/><path style="display:inline;opacity:1;vector-effect:none;fill:#d5d5d5;fill-opacity:1;fill-rule:evenodd;stroke:#000;stroke-width:.5291667;stroke-linecap:butt;stroke-linejoin:round;stroke-miterlimit:4;stroke-dasharray:none;stroke-dashoffset:0;stroke-opacity:1" id="path3123-5" d="m 9.7895817,292.76665 v -3.175 h 3.1750003 v 0.52917 l -2.645833,2.64583 z"/><path style="display:inline;opacity:1;vector-effect:none;fill:#d5d5d5;fill-opacity:1;fill-rule:evenodd;stroke:#000;stroke-width:.5291667;stroke-linecap:butt;stroke-linejoin:round;stroke-miterlimit:4;stroke-dasharray:none;stroke-dashoffset:0;stroke-opacity:1" id="path3123-5-3" d="m 11.641666,294.88332 v -3.175 h 3.175 v 0.52916 l -2.645833,2.64584 z"/></g></svg>