<?xml version="1.0" encoding="UTF-8" standalone="no"?>
<!-- Created with Inkscape (http://www.inkscape.org/) -->

<svg
   xmlns:dc="http://purl.org/dc/elements/1.1/"
   xmlns:cc="http://creativecommons.org/ns#"
   xmlns:rdf="http://www.w3.org/1999/02/22-rdf-syntax-ns#"
   xmlns:svg="http://www.w3.org/2000/svg"
   xmlns="http://www.w3.org/2000/svg"
   xmlns:sodipodi="http://sodipodi.sourceforge.net/DTD/sodipodi-0.dtd"
   xmlns:inkscape="http://www.inkscape.org/namespaces/inkscape"
   width="64"
   height="64"
   viewBox="0 0 16.933333 16.933334"
   version="1.1"
   id="svg4846"
   inkscape:version="0.92.4 (5da689c313, 2019-01-14)"
   sodipodi:docname="5thGen Item Icon-Crab Yellows.svg">
  <defs
     id="defs4840" />
  <sodipodi:namedview
     id="base"
     pagecolor="#ffffff"
     bordercolor="#666666"
     borderopacity="1.0"
     inkscape:pageopacity="0.0"
     inkscape:pageshadow="2"
     inkscape:zoom="5.6"
     inkscape:cx="4.4803955"
     inkscape:cy="44.501072"
     inkscape:document-units="px"
     inkscape:current-layer="layer2"
     showgrid="false"
     units="px"
     inkscape:window-width="1304"
     inkscape:window-height="745"
     inkscape:window-x="-8"
     inkscape:window-y="-8"
     inkscape:window-maximized="1">
    <inkscape:grid
       type="xygrid"
       id="grid831" />
  </sodipodi:namedview>
  <metadata
     id="metadata4843">
    <rdf:RDF>
      <cc:Work
         rdf:about="">
        <dc:format>image/svg+xml</dc:format>
        <dc:type
           rdf:resource="http://purl.org/dc/dcmitype/StillImage" />
        <dc:title></dc:title>
      </cc:Work>
    </rdf:RDF>
  </metadata>
  <g
     inkscape:groupmode="layer"
     id="layer2"
     inkscape:label="Layer 1"
     style="display:inline">
    <path
       style="opacity:1;vector-effect:none;fill:#858585;fill-opacity:1;fill-rule:evenodd;stroke:#000000;stroke-width:0.5291667;stroke-linecap:butt;stroke-linejoin:round;stroke-miterlimit:4;stroke-dasharray:none;stroke-dashoffset:0;stroke-opacity:1"
       d="M 2.1166666,6.0192692 V 5.4901026 L 4.2333333,3.3734358 H 8.2020834 L 10.583334,5.7546859 V 7.6067693 H 8.9958335 Z"
       id="path1048"
       inkscape:connector-curvature="0" />
    <path
       style="display:inline;opacity:1;vector-effect:none;fill:#858585;fill-opacity:1;fill-rule:evenodd;stroke:#000000;stroke-width:2;stroke-linecap:butt;stroke-linejoin:round;stroke-miterlimit:4;stroke-dasharray:none;stroke-dashoffset:0;stroke-opacity:1"
       d="M 9 49.25 L 9 56.25 L 15 56.25 L 15 49.25 L 12 49.25 L 9 49.25 z M 17 49.25 L 17 56.25 L 23 56.25 L 23 49.25 L 20 49.25 L 17 49.25 z M 25 49.25 L 25 56.25 L 31 56.25 L 31 49.25 L 28 49.25 L 25 49.25 z M 33 49.25 L 33 56.25 L 39 56.25 L 39 49.25 L 36 49.25 L 33 49.25 z M 41 49.25 L 41 56.25 L 47 56.25 L 47 49.25 L 44 49.25 L 41 49.25 z M 49 49.25 L 49 56.25 L 55 56.25 L 55 49.25 L 52 49.25 L 49 49.25 z "
       transform="scale(0.26458334)"
       id="path3677" />
    <path
       style="opacity:1;vector-effect:none;fill:#d5d5d5;fill-opacity:1;fill-rule:evenodd;stroke:#000000;stroke-width:0.5291667;stroke-linecap:butt;stroke-linejoin:round;stroke-miterlimit:4;stroke-dasharray:none;stroke-dashoffset:0;stroke-opacity:1"
       d="M 2.9104166,6.0192692 H 5.55625 L 8.9958335,7.6067693 V 7.8713526 H 2.9104166 Z"
       id="path1042"
       inkscape:connector-curvature="0" />
    <path
       style="opacity:1;vector-effect:none;fill:#d5d5d5;fill-opacity:1;fill-rule:evenodd;stroke:#000000;stroke-width:2;stroke-linecap:butt;stroke-linejoin:round;stroke-miterlimit:4;stroke-dasharray:none;stroke-dashoffset:0;stroke-opacity:1"
       d="M 17 7.75 L 17 12.75 L 22 12.75 L 22 7.75 L 17 7.75 z M 27 7.75 L 27 12.75 L 31 12.75 L 32 13.75 L 32 7.75 L 27 7.75 z M 32 13.75 L 40 21.75 L 40 13.75 L 32 13.75 z M 8 12.75 L 8 20.75 L 16 12.75 L 8 12.75 z M 44 16.75 L 44 21.75 L 45 20.75 L 48 20.75 L 48 16.75 L 44 16.75 z M 50 16.75 L 50 20.75 L 54 20.75 L 54 16.75 L 50 16.75 z M 54 20.75 L 59 25.75 L 59 18.75 L 56 18.75 L 54 20.75 z M 44 28.75 L 44 30.75 L 47 33.75 L 53 33.75 L 53 28.75 L 44 28.75 z M 11 29.75 L 7 33.75 L 7 41.75 L 15 41.75 L 15 29.75 L 11 29.75 z M 54 30.75 L 54 41.75 L 59 41.75 L 59 35.75 L 54 30.75 z "
       transform="scale(0.26458334)"
       id="path1044" />
    <path
       style="opacity:1;fill:#ffffff;fill-opacity:1;fill-rule:nonzero;stroke:none;stroke-width:2;stroke-linecap:butt;stroke-linejoin:round;stroke-miterlimit:4;stroke-dasharray:none;stroke-dashoffset:0;stroke-opacity:1;paint-order:normal"
       d="M 15 15.75 L 15 19.75 L 19 19.75 L 19 15.75 L 15 15.75 z M 21.509766 15.75 L 21.509766 19.75 L 25.509766 19.75 L 25.509766 15.75 L 21.509766 15.75 z M 28 15.75 L 28 19.75 L 32 19.75 L 32 15.75 L 28 15.75 z "
       transform="scale(0.26458334)"
       id="rect1071" />
    <path
       style="opacity:1;vector-effect:none;fill:none;fill-opacity:1;fill-rule:evenodd;stroke:#000000;stroke-width:0.5291667;stroke-linecap:round;stroke-linejoin:round;stroke-miterlimit:4;stroke-dasharray:none;stroke-dashoffset:0;stroke-opacity:1"
       d="M 5.55625,6.2838525 V 7.0776026"
       id="path1103"
       inkscape:connector-curvature="0"
       sodipodi:nodetypes="cc" />
    <path
       style="opacity:1;vector-effect:none;fill:none;fill-opacity:1;fill-rule:evenodd;stroke:#000000;stroke-width:0.5291667;stroke-linecap:round;stroke-linejoin:round;stroke-miterlimit:4;stroke-dasharray:none;stroke-dashoffset:0;stroke-opacity:1"
       d="M 6.3500001,6.5484359 V 7.0776026"
       id="path1105"
       inkscape:connector-curvature="0" />
    <path
       style="opacity:1;vector-effect:none;fill:none;fill-opacity:1;fill-rule:evenodd;stroke:#000000;stroke-width:0.5291667;stroke-linecap:round;stroke-linejoin:round;stroke-miterlimit:4;stroke-dasharray:none;stroke-dashoffset:0;stroke-opacity:1"
       d="m 7.1437501,6.8130193 -1e-7,0.2645832"
       id="path1107"
       inkscape:connector-curvature="0"
       sodipodi:nodetypes="cc" />
    <g
       id="g848"
       style="fill:#858585;fill-opacity:1">
      <path
         sodipodi:nodetypes="cccccc"
         inkscape:connector-curvature="0"
         id="path1040"
         d="M 2.9104166,6.0192692 V 7.8713526 L 1.8520833,8.929686 H 1.3229166 V 6.0192691 Z"
         style="opacity:1;vector-effect:none;fill:#858585;fill-opacity:1;fill-rule:evenodd;stroke:#000000;stroke-width:0.5291667;stroke-linecap:butt;stroke-linejoin:round;stroke-miterlimit:4;stroke-dasharray:none;stroke-dashoffset:0;stroke-opacity:1" />
      <path
         sodipodi:nodetypes="ccccc"
         inkscape:connector-curvature="0"
         id="path1046"
         d="m 3.96875,8.929686 3.7041666,-2e-7 2e-7,2.1166662 H 3.96875 Z"
         style="opacity:1;vector-effect:none;fill:#858585;fill-opacity:1;fill-rule:evenodd;stroke:#000000;stroke-width:0.5291667;stroke-linecap:butt;stroke-linejoin:round;stroke-miterlimit:4;stroke-dasharray:none;stroke-dashoffset:0;stroke-opacity:1" />
      <path
         inkscape:connector-curvature="0"
         id="path1139"
         d="M 10.583334,7.8713526 V 6.8130193 L 11.90625,5.4901026 h 2.38125 l 1.322917,1.3229167 v 0.79375 H 11.377084 L 11.1125,7.8713526 Z"
         style="opacity:1;vector-effect:none;fill:#858585;fill-opacity:1;fill-rule:evenodd;stroke:#000000;stroke-width:0.5291667;stroke-linecap:butt;stroke-linejoin:round;stroke-miterlimit:4;stroke-dasharray:none;stroke-dashoffset:0;stroke-opacity:1" />
      <path
         inkscape:connector-curvature="0"
         id="path1143"
         d="M 14.2875,7.6067693 V 8.135936 l 1.322917,1.3229164 V 7.6067693 Z"
         style="opacity:1;vector-effect:none;fill:#858585;fill-opacity:1;fill-rule:evenodd;stroke:#000000;stroke-width:0.5291667;stroke-linecap:butt;stroke-linejoin:round;stroke-miterlimit:4;stroke-dasharray:none;stroke-dashoffset:0;stroke-opacity:1" />
      <path
         inkscape:connector-curvature="0"
         id="path1147"
         d="M 14.2875,9.4588524 H 11.641667 V 11.046352 H 14.2875 Z"
         style="opacity:1;vector-effect:none;fill:#858585;fill-opacity:1;fill-rule:evenodd;stroke:#000000;stroke-width:0.5291667;stroke-linecap:butt;stroke-linejoin:round;stroke-miterlimit:4;stroke-dasharray:none;stroke-dashoffset:0;stroke-opacity:1" />
    </g>
  </g>
</svg>
