<?xml version="1.0" encoding="UTF-8" standalone="no"?>
<svg
   xmlns:dc="http://purl.org/dc/elements/1.1/"
   xmlns:cc="http://creativecommons.org/ns#"
   xmlns:rdf="http://www.w3.org/1999/02/22-rdf-syntax-ns#"
   xmlns:svg="http://www.w3.org/2000/svg"
   xmlns="http://www.w3.org/2000/svg"
   xmlns:sodipodi="http://sodipodi.sourceforge.net/DTD/sodipodi-0.dtd"
   xmlns:inkscape="http://www.inkscape.org/namespaces/inkscape"
   width="64"
   height="64"
   viewBox="0 0 16.933333 16.933334"
   version="1.1"
   id="svg8"
   inkscape:version="1.0.1 (3bc2e813f5, 2020-09-07)"
   sodipodi:docname="Cestus_Icon_White.svg">
  <defs
     id="defs2" />
  <sodipodi:namedview
     id="base"
     pagecolor="#ffffff"
     bordercolor="#666666"
     borderopacity="1.0"
     inkscape:pageopacity="0.0"
     inkscape:pageshadow="2"
     inkscape:zoom="2.3164063"
     inkscape:cx="99.7753"
     inkscape:cy="64.294559"
     inkscape:document-units="px"
     inkscape:current-layer="layer1"
     showgrid="false"
     units="px"
     showguides="true"
     inkscape:guide-bbox="true"
     inkscape:window-width="1366"
     inkscape:window-height="705"
     inkscape:window-x="-8"
     inkscape:window-y="-8"
     inkscape:window-maximized="1"
     inkscape:snap-smooth-nodes="true"
     inkscape:document-rotation="0">
    <inkscape:grid
       type="xygrid"
       id="grid943" />
  </sodipodi:namedview>
  <metadata
     id="metadata5">
    <rdf:RDF>
      <cc:Work
         rdf:about="">
        <dc:format>image/svg+xml</dc:format>
        <dc:type
           rdf:resource="http://purl.org/dc/dcmitype/StillImage" />
        <dc:title />
      </cc:Work>
    </rdf:RDF>
  </metadata>
  <g
     inkscape:label="Layer 1"
     inkscape:groupmode="layer"
     id="layer1"
     transform="translate(0,-280.06665)">
    <path
       style="fill:#d5d5d5;fill-opacity:1;stroke:#000000;stroke-width:0.5291667;stroke-linecap:round;stroke-linejoin:round;stroke-miterlimit:4;stroke-dasharray:none;stroke-opacity:1"
       d="m 2.8943782,287.04601 7e-7,-1.32293 1.0583324,-1.05833 1.0583352,1.05833 -7e-7,1.32293 -1.0583295,1.05832 z"
       id="path1873-1-7-0-8-4"
       inkscape:connector-curvature="0"
       sodipodi:nodetypes="ccccccc" />
    <path
       style="fill:#d5d5d5;fill-opacity:1;stroke:#000000;stroke-width:0.5291667;stroke-linecap:round;stroke-linejoin:round;stroke-miterlimit:4;stroke-dasharray:none;stroke-opacity:1"
       d="m 10.863979,285.22603 v -2.11668 l 0.793749,-0.79375 1.058339,1.05832 -6e-6,1.58751 -1.058332,1.05835 z"
       id="path1873-1-7-0"
       inkscape:connector-curvature="0"
       sodipodi:nodetypes="ccccccc" />
    <path
       style="fill:#d5d5d5;fill-opacity:1;stroke:#000000;stroke-width:0.5291667;stroke-linecap:round;stroke-linejoin:round;stroke-miterlimit:4;stroke-dasharray:none;stroke-opacity:1"
       d="m 10.863979,286.54893 -1e-6,-1.5875 0.793749,-0.79375 1.058339,1.05832 -10e-7,1.05835 -1.058336,1.05833 z"
       id="path1873-1-7"
       inkscape:connector-curvature="0"
       sodipodi:nodetypes="ccccccc" />
    <path
       style="fill:#ffffff;fill-opacity:1;stroke:#000000;stroke-width:0.5291667;stroke-linecap:round;stroke-linejoin:round;stroke-miterlimit:4;stroke-dasharray:none;stroke-opacity:1"
       d="m 6.8952322,293.42812 -1.0583359,1.05833 H 5.3077279 l -1.3229154,1.85208 H 9.0119002 14.03898 l -1.322913,-1.85208 h -0.529169 l -1.058331,-1.05833 H 9.0118995 Z"
       id="path1786"
       inkscape:connector-curvature="0" />
    <path
       style="fill:#ffffff;fill-opacity:1;stroke:#000000;stroke-width:0.5291667;stroke-linecap:round;stroke-linejoin:round;stroke-miterlimit:4;stroke-dasharray:none;stroke-opacity:1"
       d="m 6.8952306,291.31145 -1.0583355,1.05833 1.2e-6,2.11667 1.0583359,-1.05833 1.0583321,1.05833 1.0583352,-1.05833 1.0583315,1.05833 1.058336,-1.05833 1.058331,1.05833 -10e-7,-2.11667 -1.058332,-1.05833 H 9.0118976 Z"
       id="path1769-8"
       inkscape:connector-curvature="0"
       sodipodi:nodetypes="ccccccccccccc" />
    <path
       style="fill:#ffffff;fill-opacity:1;stroke:#000000;stroke-width:0.5291667;stroke-linecap:round;stroke-linejoin:round;stroke-miterlimit:4;stroke-dasharray:none;stroke-opacity:1"
       d="m 6.8952294,289.72395 -1.0583288,1.05832 -5.5e-6,1.58751 1.0583355,-1.05833 1.0583318,1.05833 1.0583352,-1.05833 1.0583314,1.05833 1.058336,-1.05833 1.058332,1.05833 -10e-7,-1.5875 -1.058333,-1.05833 H 9.0118964 Z"
       id="path1769"
       inkscape:connector-curvature="0" />
    <path
       style="fill:#ffffff;fill-opacity:1;stroke:#000000;stroke-width:0.5291667;stroke-linecap:round;stroke-linejoin:round;stroke-miterlimit:4;stroke-dasharray:none;stroke-opacity:1"
       d="m 7.1598123,286.28437 -1.3229146,1.32291 2.9e-6,3.17499 1.0583288,-1.05832 1.0583386,1.05832 1.0583284,-1.05832 1.0583316,1.05833 1.058335,-1.05833 1.058333,1.05833 3e-6,-3.175 -1.32292,-1.32291 -1.0583334,1.05833 -0.7937451,-0.79376 -0.7937549,0.79376 z"
       id="path1753"
       inkscape:connector-curvature="0"
       sodipodi:nodetypes="ccccccccccccccc" />
    <path
       style="fill:#4d4d4d;fill-opacity:1;stroke:none;stroke-width:0.5291667;stroke-linecap:round;stroke-linejoin:round;stroke-miterlimit:4;stroke-dasharray:none;stroke-opacity:1"
       d="m 10.070229,288.9302 0.793751,-1.05833 0.793747,1.05833 z"
       id="path1822"
       inkscape:connector-curvature="0"
       sodipodi:nodetypes="cccc" />
    <path
       style="fill:#4d4d4d;fill-opacity:1;stroke:none;stroke-width:0.5291667;stroke-linecap:round;stroke-linejoin:round;stroke-miterlimit:4;stroke-dasharray:none;stroke-opacity:1"
       d="m 6.3660632,288.9302 0.7937514,-1.05833 0.7937472,1.05833 z"
       id="path1822-9"
       inkscape:connector-curvature="0"
       sodipodi:nodetypes="cccc" />
    <path
       style="fill:#4d4d4d;fill-opacity:1;stroke:none;stroke-width:0.5291667;stroke-linecap:round;stroke-linejoin:round;stroke-miterlimit:4;stroke-dasharray:none;stroke-opacity:1"
       d="m 8.2181459,288.9302 0.7937511,-1.05833 0.7937475,1.05833 z"
       id="path1822-5"
       inkscape:connector-curvature="0"
       sodipodi:nodetypes="cccc" />
    <path
       style="fill:#d5d5d5;fill-opacity:1;stroke:#000000;stroke-width:0.5291667;stroke-linecap:round;stroke-linejoin:round;stroke-miterlimit:4;stroke-dasharray:none;stroke-opacity:1"
       d="m 7.1598132,283.90313 v -2.11668 l 1.0583373,-1.05835 0.7937486,0.79377 -4.2e-6,2.64583 -0.7937437,0.79375 z"
       id="path1873-1-8"
       inkscape:connector-curvature="0"
       sodipodi:nodetypes="ccccccc" />
    <path
       style="fill:#d5d5d5;fill-opacity:1;stroke:#000000;stroke-width:0.5291667;stroke-linecap:round;stroke-linejoin:round;stroke-miterlimit:4;stroke-dasharray:none;stroke-opacity:1"
       d="m 7.1598132,286.28437 1.4e-6,-1.85208 1.0583296,-1.05834 0.7937507,0.79375 5.6e-6,2.38124 -0.7937556,0.79376 z"
       id="path1873-6"
       inkscape:connector-curvature="0"
       sodipodi:nodetypes="ccccccc" />
    <path
       style="fill:#d5d5d5;fill-opacity:1;stroke:#000000;stroke-width:0.5291667;stroke-linecap:round;stroke-linejoin:round;stroke-miterlimit:4;stroke-dasharray:none;stroke-opacity:1"
       d="m 6.8952344,284.96143 -7e-7,-2.38123 -0.7937472,-0.79377 -1.058338,1.05835 v 2.11666 l 1.0583323,1.05834 z"
       id="path1873-1-2"
       inkscape:connector-curvature="0"
       sodipodi:nodetypes="ccccccc" />
    <path
       style="fill:#d5d5d5;fill-opacity:1;stroke:#000000;stroke-width:0.5291667;stroke-linecap:round;stroke-linejoin:round;stroke-miterlimit:4;stroke-dasharray:none;stroke-opacity:1"
       d="m 6.8952337,286.54894 -1.5e-6,-2.11666 -0.7937521,-0.52917 -1.0583309,1.05834 -3.6e-6,1.32292 1.0583395,1.05832 z"
       id="path1873-7"
       inkscape:connector-curvature="0"
       sodipodi:nodetypes="ccccccc" />
    <path
       style="fill:#d5d5d5;fill-opacity:1;stroke:#000000;stroke-width:0.5291667;stroke-linecap:round;stroke-linejoin:round;stroke-miterlimit:4;stroke-dasharray:none;stroke-opacity:1"
       d="m 4.2814983,289.22689 -0.5612681,-0.56127 -5e-6,-1.49671 h 1.4967167 l 0.5612681,0.56126 -5.7e-6,1.49672 z"
       id="path1873-1-7-4"
       inkscape:connector-curvature="0"
       sodipodi:nodetypes="ccccccc" />
    <path
       style="fill:#d5d5d5;fill-opacity:1;stroke:#000000;stroke-width:0.5291667;stroke-linecap:round;stroke-linejoin:round;stroke-miterlimit:4;stroke-dasharray:none;stroke-opacity:1"
       d="m 10.863978,283.90313 1e-6,-2.11668 -1.0583292,-1.05834 -0.7937507,0.79376 -4.2e-6,2.64583 0.7937542,0.79375 z"
       id="path1873-1-8-4"
       inkscape:connector-curvature="0"
       sodipodi:nodetypes="ccccccc" />
    <path
       style="fill:#d5d5d5;fill-opacity:1;stroke:#000000;stroke-width:0.5291667;stroke-linecap:round;stroke-linejoin:round;stroke-miterlimit:4;stroke-dasharray:none;stroke-opacity:1"
       d="m 10.863978,286.28437 2e-6,-1.85208 -1.0583288,-1.05834 -0.7937563,0.79375 5.6e-6,2.38124 0.7937502,0.79375 z"
       id="path1873-6-0"
       inkscape:connector-curvature="0"
       sodipodi:nodetypes="ccccccc" />
    <path
       style="opacity:1;fill:#858585;fill-opacity:1;stroke:none;stroke-width:0.5291667;stroke-linecap:round;stroke-linejoin:miter;stroke-miterlimit:4;stroke-dasharray:none;stroke-dashoffset:0;stroke-opacity:1;paint-order:normal"
       d="m 7.4243955,295.2802 a 0.52916664,0.52916348 0 0 1 -0.5291666,0.52917 0.52916664,0.52916348 0 0 1 -0.5291666,-0.52917 0.52916664,0.52916348 0 0 1 0.5291666,-0.52916 0.52916664,0.52916348 0 0 1 0.5291666,0.52916 z"
       id="path837"
       inkscape:connector-curvature="0" />
    <path
       style="opacity:1;fill:#858585;fill-opacity:1;stroke:none;stroke-width:0.5291667;stroke-linecap:round;stroke-linejoin:miter;stroke-miterlimit:4;stroke-dasharray:none;stroke-dashoffset:0;stroke-opacity:1;paint-order:normal"
       d="m 9.5410623,295.2802 a 0.52916664,0.52916348 0 0 1 -0.5291666,0.52917 0.52916664,0.52916348 0 0 1 -0.5291666,-0.52917 0.52916664,0.52916348 0 0 1 0.5291666,-0.52916 0.52916664,0.52916348 0 0 1 0.5291666,0.52916 z"
       id="path837-3"
       inkscape:connector-curvature="0" />
    <path
       style="opacity:1;fill:#858585;fill-opacity:1;stroke:none;stroke-width:0.5291667;stroke-linecap:round;stroke-linejoin:miter;stroke-miterlimit:4;stroke-dasharray:none;stroke-dashoffset:0;stroke-opacity:1;paint-order:normal"
       d="m 11.657729,295.2802 a 0.52916664,0.52916348 0 0 1 -0.529167,0.52917 0.52916664,0.52916348 0 0 1 -0.529166,-0.52917 0.52916664,0.52916348 0 0 1 0.529166,-0.52916 0.52916664,0.52916348 0 0 1 0.529167,0.52916 z"
       id="path837-3-6"
       inkscape:connector-curvature="0" />
  </g>
</svg>
