<?xml version="1.0" encoding="UTF-8" standalone="no"?>
<svg
   xmlns:dc="http://purl.org/dc/elements/1.1/"
   xmlns:cc="http://creativecommons.org/ns#"
   xmlns:rdf="http://www.w3.org/1999/02/22-rdf-syntax-ns#"
   xmlns:svg="http://www.w3.org/2000/svg"
   xmlns="http://www.w3.org/2000/svg"
   xmlns:sodipodi="http://sodipodi.sourceforge.net/DTD/sodipodi-0.dtd"
   xmlns:inkscape="http://www.inkscape.org/namespaces/inkscape"
   width="64"
   height="64"
   viewBox="0 0 16.933333 16.933334"
   version="1.1"
   id="svg8"
   inkscape:version="1.0.1 (3bc2e813f5, 2020-09-07)"
   sodipodi:docname="Dracolite Icon Yellow.svg">
  <defs
     id="defs2" />
  <sodipodi:namedview
     id="base"
     pagecolor="#ffffff"
     bordercolor="#666666"
     borderopacity="1.0"
     inkscape:pageopacity="0.0"
     inkscape:pageshadow="2"
     inkscape:zoom="2.8"
     inkscape:cx="46.603553"
     inkscape:cy="3.0401456"
     inkscape:document-units="mm"
     inkscape:current-layer="layer2"
     inkscape:document-rotation="0"
     showgrid="false"
     units="px"
     inkscape:window-width="1366"
     inkscape:window-height="705"
     inkscape:window-x="-8"
     inkscape:window-y="-8"
     inkscape:window-maximized="1" />
  <metadata
     id="metadata5">
    <rdf:RDF>
      <cc:Work
         rdf:about="">
        <dc:format>image/svg+xml</dc:format>
        <dc:type
           rdf:resource="http://purl.org/dc/dcmitype/StillImage" />
        <dc:title></dc:title>
      </cc:Work>
    </rdf:RDF>
  </metadata>
  <g
     inkscape:groupmode="layer"
     id="layer2"
     inkscape:label="Ebene 2"
     style="display:inline">
    <path
       style="opacity:0.999;fill:#858585;fill-opacity:1;stroke:#000000;stroke-width:0.48639;stroke-linecap:round;stroke-linejoin:round;stroke-miterlimit:4;stroke-dasharray:none;stroke-opacity:1"
       d="m 8.1441082,11.709497 0.076409,3.922309 -2.5978786,-0.154423 1.8796416,-4.061288 z"
       id="path883" />
    <path
       style="opacity:0.999;fill:#858585;fill-opacity:1;stroke:#000000;stroke-width:0.48639;stroke-linecap:round;stroke-linejoin:round;stroke-miterlimit:4;stroke-dasharray:none;stroke-opacity:1"
       d="m 10.039032,11.107252 1.130841,3.659792 2.552033,0.617687 -0.794645,-2.764148 -3.4842136,-1.374352 z"
       id="path881" />
    <path
       style="opacity:0.999;fill:#858585;fill-opacity:1;stroke:#000000;stroke-width:0.48639;stroke-linecap:round;stroke-linejoin:round;stroke-miterlimit:4;stroke-dasharray:none;stroke-opacity:1"
       d="m 11.674166,9.6711313 1.95605,1.5442167 1.940768,-0.849319 -1.497601,-1.4824477 -2.842384,0.78755 z"
       id="path879" />
    <path
       style="opacity:0.999;fill:#858585;fill-opacity:1;stroke:#000000;stroke-width:0.48639;stroke-linecap:round;stroke-linejoin:round;stroke-miterlimit:4;stroke-dasharray:none;stroke-opacity:1"
       d="M 10.573889,7.3393654 14.776339,2.567738 14.7305,5.949571 10.803118,7.8643988 Z"
       id="path877" />
    <path
       style="opacity:0.999;fill:#858585;fill-opacity:1;stroke:#000000;stroke-width:0.48639;stroke-linecap:round;stroke-linejoin:round;stroke-miterlimit:4;stroke-dasharray:none;stroke-opacity:1"
       d="M 9.2902311,5.9804554 11.017056,2.0735888 13.034233,1.9037251 11.9798,5.08481 Z"
       id="path875" />
    <path
       style="opacity:0.999;fill:#858585;fill-opacity:1;stroke:#000000;stroke-width:0.48639;stroke-linecap:round;stroke-linejoin:round;stroke-miterlimit:4;stroke-dasharray:none;stroke-opacity:1"
       d="M 8.4344593,5.8414758 9.2902311,5.9804554 7.4105895,3.0927715 8.6942471,1.4713447 9.9473419,3.1545401 Z"
       id="path873" />
    <path
       style="opacity:0.999;fill:#858585;fill-opacity:1;stroke:#000000;stroke-width:0.48639;stroke-linecap:round;stroke-linejoin:round;stroke-miterlimit:4;stroke-dasharray:none;stroke-opacity:1"
       d="M 5.6998557,6.3712827 2.5357469,5.08481 2.4899018,1.3014809 6.1059496,5.9809876 6.2644667,6.8761006 Z"
       id="path871" />
    <path
       style="opacity:0.999;fill:#858585;fill-opacity:1;stroke:#000000;stroke-width:0.48639;stroke-linecap:round;stroke-linejoin:round;stroke-miterlimit:4;stroke-dasharray:none;stroke-opacity:1"
       d="M 5.5589759,8.1722092 2.6306175,9.1767807 1.3015103,7.7900352 2.9007613,7.1130413 5.8859021,8.5554807 Z"
       id="path869"
       sodipodi:nodetypes="cccccc" />
    <path
       style="opacity:0.999;fill:#858585;fill-opacity:1;stroke:#000000;stroke-width:0.48639;stroke-linecap:round;stroke-linejoin:round;stroke-miterlimit:4;stroke-dasharray:none;stroke-opacity:1"
       d="M 5.4509182,10.268706 2.306445,11.513502 1.4203735,13.959415 4.0029479,13.074955 5.677839,10.20319 Z"
       id="path867" />
    <path
       id="path850"
       style="opacity:0.999;fill:#ffffff;fill-opacity:1;stroke:#000000;stroke-width:0.48639;stroke-linecap:round;stroke-linejoin:round;stroke-miterlimit:4;stroke-dasharray:none;stroke-opacity:1"
       d="M 5.5462117,1.4560478 6.1059496,5.9809876 A 3.4203903,3.4563186 0 0 0 5.6998557,6.3712827 L 2.1537462,6.1658642 4.9647272,7.7112799 a 3.4203903,3.4563186 0 0 0 -0.1356798,0.9630785 3.4203903,3.4563186 0 0 0 0.00567,0.1963419 L 1.6034621,10.211653 5.1467352,10.12806 a 3.4203903,3.4563186 0 0 0 0.5394096,0.834093 L 4.1553765,15.26113 7.3119388,11.99832 a 3.4203903,3.4563186 0 0 0 0.9374662,0.132325 3.4203903,3.4563186 0 0 0 0.3209982,-0.01528 l 1.4073814,3.09943 -0.1654628,-3.46584 A 3.4203903,3.4563186 0 0 0 10.461883,11.30993 l 1.731689,0.631065 -0.941723,-1.611341 A 3.4203903,3.4563186 0 0 0 11.632416,9.1840871 L 15.631895,7.2622298 11.424404,7.3888249 A 3.4203903,3.4563186 0 0 0 10.959217,6.5652358 L 12.804839,3.8494124 9.4449939,5.4363896 A 3.4203903,3.4563186 0 0 0 8.249405,5.2180727 a 3.4203903,3.4563186 0 0 0 -0.00331,0 z" />
    <ellipse
       style="opacity:0.999;fill:#030200;fill-opacity:1;stroke:none;stroke-width:0.486634;stroke-linecap:round;stroke-linejoin:round"
       id="path848"
       cx="8.2510796"
       cy="8.6828337"
       rx="2.4756255"
       ry="2.5016301" />
  </g>
</svg>
