<svg xmlns="http://www.w3.org/2000/svg" xmlns:svg="http://www.w3.org/2000/svg" id="svg8" width="64" height="64" version="1.1" viewBox="0 0 16.933 16.933"><metadata id="metadata5"/><g id="layer2" style="display:inline"><path style="opacity:.999;fill:#858585;fill-opacity:1;stroke:#000;stroke-width:.48639;stroke-linecap:round;stroke-linejoin:round;stroke-miterlimit:4;stroke-dasharray:none;stroke-opacity:1" id="path883" d="m 8.1441082,11.709497 0.076409,3.922309 -2.5978786,-0.154423 1.8796416,-4.061288 z"/><path style="opacity:.999;fill:#858585;fill-opacity:1;stroke:#000;stroke-width:.48639;stroke-linecap:round;stroke-linejoin:round;stroke-miterlimit:4;stroke-dasharray:none;stroke-opacity:1" id="path881" d="m 10.039032,11.107252 1.130841,3.659792 2.552033,0.617687 -0.794645,-2.764148 -3.4842136,-1.374352 z"/><path style="opacity:.999;fill:#858585;fill-opacity:1;stroke:#000;stroke-width:.48639;stroke-linecap:round;stroke-linejoin:round;stroke-miterlimit:4;stroke-dasharray:none;stroke-opacity:1" id="path879" d="m 11.674166,9.6711313 1.95605,1.5442167 1.940768,-0.849319 -1.497601,-1.4824477 -2.842384,0.78755 z"/><path style="opacity:.999;fill:#858585;fill-opacity:1;stroke:#000;stroke-width:.48639;stroke-linecap:round;stroke-linejoin:round;stroke-miterlimit:4;stroke-dasharray:none;stroke-opacity:1" id="path877" d="M 10.573889,7.3393654 14.776339,2.567738 14.7305,5.949571 10.803118,7.8643988 Z"/><path style="opacity:.999;fill:#858585;fill-opacity:1;stroke:#000;stroke-width:.48639;stroke-linecap:round;stroke-linejoin:round;stroke-miterlimit:4;stroke-dasharray:none;stroke-opacity:1" id="path875" d="M 9.2902311,5.9804554 11.017056,2.0735888 13.034233,1.9037251 11.9798,5.08481 Z"/><path style="opacity:.999;fill:#858585;fill-opacity:1;stroke:#000;stroke-width:.48639;stroke-linecap:round;stroke-linejoin:round;stroke-miterlimit:4;stroke-dasharray:none;stroke-opacity:1" id="path873" d="M 8.4344593,5.8414758 9.2902311,5.9804554 7.4105895,3.0927715 8.6942471,1.4713447 9.9473419,3.1545401 Z"/><path style="opacity:.999;fill:#858585;fill-opacity:1;stroke:#000;stroke-width:.48639;stroke-linecap:round;stroke-linejoin:round;stroke-miterlimit:4;stroke-dasharray:none;stroke-opacity:1" id="path871" d="M 5.6998557,6.3712827 2.5357469,5.08481 2.4899018,1.3014809 6.1059496,5.9809876 6.2644667,6.8761006 Z"/><path style="opacity:.999;fill:#858585;fill-opacity:1;stroke:#000;stroke-width:.48639;stroke-linecap:round;stroke-linejoin:round;stroke-miterlimit:4;stroke-dasharray:none;stroke-opacity:1" id="path869" d="M 5.5589759,8.1722092 2.6306175,9.1767807 1.3015103,7.7900352 2.9007613,7.1130413 5.8859021,8.5554807 Z"/><path style="opacity:.999;fill:#858585;fill-opacity:1;stroke:#000;stroke-width:.48639;stroke-linecap:round;stroke-linejoin:round;stroke-miterlimit:4;stroke-dasharray:none;stroke-opacity:1" id="path867" d="M 5.4509182,10.268706 2.306445,11.513502 1.4203735,13.959415 4.0029479,13.074955 5.677839,10.20319 Z"/><path id="path850" d="M 5.5462117,1.4560478 6.1059496,5.9809876 A 3.4203903,3.4563186 0 0 0 5.6998557,6.3712827 L 2.1537462,6.1658642 4.9647272,7.7112799 a 3.4203903,3.4563186 0 0 0 -0.1356798,0.9630785 3.4203903,3.4563186 0 0 0 0.00567,0.1963419 L 1.6034621,10.211653 5.1467352,10.12806 a 3.4203903,3.4563186 0 0 0 0.5394096,0.834093 L 4.1553765,15.26113 7.3119388,11.99832 a 3.4203903,3.4563186 0 0 0 0.9374662,0.132325 3.4203903,3.4563186 0 0 0 0.3209982,-0.01528 l 1.4073814,3.09943 -0.1654628,-3.46584 A 3.4203903,3.4563186 0 0 0 10.461883,11.30993 l 1.731689,0.631065 -0.941723,-1.611341 A 3.4203903,3.4563186 0 0 0 11.632416,9.1840871 L 15.631895,7.2622298 11.424404,7.3888249 A 3.4203903,3.4563186 0 0 0 10.959217,6.5652358 L 12.804839,3.8494124 9.4449939,5.4363896 A 3.4203903,3.4563186 0 0 0 8.249405,5.2180727 a 3.4203903,3.4563186 0 0 0 -0.00331,0 z" style="opacity:.999;fill:#fff;fill-opacity:1;stroke:#000;stroke-width:.48639;stroke-linecap:round;stroke-linejoin:round;stroke-miterlimit:4;stroke-dasharray:none;stroke-opacity:1"/><ellipse style="opacity:.999;fill:#030200;fill-opacity:1;stroke:none;stroke-width:.486634;stroke-linecap:round;stroke-linejoin:round" id="path848" cx="8.251" cy="8.683" rx="2.476" ry="2.502"/></g></svg>