<?xml version="1.0" encoding="UTF-8" standalone="no"?>
<svg xmlns:dc="http://purl.org/dc/elements/1.1/" xmlns:cc="http://creativecommons.org/ns#"
	xmlns:rdf="http://www.w3.org/1999/02/22-rdf-syntax-ns#" xmlns:svg="http://www.w3.org/2000/svg"
	xmlns="http://www.w3.org/2000/svg" xmlns:sodipodi="http://sodipodi.sourceforge.net/DTD/sodipodi-0.dtd"
	xmlns:inkscape="http://www.inkscape.org/namespaces/inkscape" width="64" height="64" viewBox="0 0 16.933333 16.933334"
	version="1.1" id="svg845" inkscape:version="1.0.1 (3bc2e813f5, 2020-09-07)" sodipodi:docname="Drink Icon Yellow.svg"
	inkscape:export-xdpi="96" inkscape:export-ydpi="96">
	<defs id="defs839" />
	<sodipodi:namedview id="base" pagecolor="#ffffff" bordercolor="#666666" borderopacity="1.0" inkscape:pageopacity="0.0"
		inkscape:pageshadow="2" inkscape:zoom="2.8" inkscape:cx="59.381954" inkscape:cy="33.528577"
		inkscape:document-units="mm" inkscape:current-layer="layer2" inkscape:document-rotation="0" showgrid="false"
		showguides="false" inkscape:guide-bbox="true" units="px" inkscape:window-width="1366" inkscape:window-height="705"
		inkscape:window-x="-8" inkscape:window-y="-8" inkscape:window-maximized="1">
		<sodipodi:guide position="139.99293,106.87798" orientation="1,0" id="guide1422" />
		<sodipodi:guide position="139.99293,101.63356" orientation="0,-1" id="guide1424" />
		<sodipodi:guide position="132.83295,110.01156" orientation="1,0" id="guide1426" />
		<sodipodi:guide position="132.08126,101.63356" orientation="1,0" id="guide1430" />
		<sodipodi:guide position="135.82303,103.81425" orientation="0,-1" id="guide1432" />
		<sodipodi:guide position="139.99293,102.72846" orientation="0,-1" id="guide1434" />
		<sodipodi:guide position="143.45692,103.81425" orientation="1,0" id="guide1437" />
		<sodipodi:guide position="142.28761,103.81425" orientation="1,0" id="guide1439" />
		<sodipodi:guide position="142.28761,109.42932" orientation="0,-1" id="guide1447" />
		<sodipodi:guide position="142.28761,108.2009" orientation="0,-1" id="guide1449" />
		<sodipodi:guide position="139.99293,111.67355" orientation="0,-1" id="guide1453" />
		<sodipodi:guide position="136.28404,108.2009" orientation="1,0" id="guide1455" />
	</sodipodi:namedview>
	<metadata id="metadata842">
		<rdf:RDF>
			<cc:Work rdf:about="">
				<dc:format>image/svg+xml</dc:format>
				<dc:type rdf:resource="http://purl.org/dc/dcmitype/StillImage" />
				<dc:title></dc:title>
			</cc:Work>
		</rdf:RDF>
	</metadata>
	<g inkscape:label="Ebene 1" inkscape:groupmode="layer" id="layer1" style="display:inline" />
	<g inkscape:groupmode="layer" id="layer2" inkscape:label="Ebene 2">
		<path
			style="fill:#d0d0d0;stroke:#010203;stroke-width:0.52916667;stroke-linecap:butt;stroke-miterlimit:4;stroke-dasharray:none;stroke-opacity:1;stroke-linejoin:round;fill-opacity:1"
			d="M 2.2399595,15.047768 V 13.813594 L 3.0862841,12.589689 V 2.7986775 H 11.147676 V 15.047768 Z" id="path1441" />
		<path
			style="fill:none;stroke:#010203;stroke-width:0.52916667;stroke-linecap:butt;stroke-miterlimit:4;stroke-dasharray:none;stroke-opacity:1;stroke-linejoin:round"
			d="M 3.0862841,12.589689 H 11.147676" id="path1443" />
		<path
			style="fill:none;stroke:#010203;stroke-width:0.52916667;stroke-linecap:butt;stroke-miterlimit:4;stroke-dasharray:none;stroke-opacity:1;stroke-linejoin:round"
			d="M 2.2399595,13.813594 H 11.147676" id="path1445" />
		<path
			style="fill:#d0d0d0;stroke:#010203;stroke-width:0.52916667;stroke-linecap:butt;stroke-miterlimit:4;stroke-dasharray:none;stroke-opacity:1;stroke-linejoin:round;fill-opacity:1"
			d="m 11.147676,13.813594 h 3.900092 V 6.2603711 h -3.900092 v 1.3846773 h 2.583571 v 4.9446406 h -2.583571 z"
			id="path1451" />
		<path id="path1457"
			style="fill:#ffffff;stroke:#010203;stroke-width:2.00000003;stroke-linecap:butt;stroke-miterlimit:4;stroke-dasharray:none;stroke-opacity:1;stroke-linejoin:round;fill-opacity:1"
			d="M 26.351562 7.1269531 L 10.568359 7.1621094 L 7.1289062 9.2246094 L 7.1503906 14.101562 L 10.9375 14.201172 L 10.9375 32.988281 C 10.9375 32.988281 10.938391 36.746094 13.443359 36.746094 C 15.948349 36.746094 15.947266 32.988281 15.947266 32.988281 L 15.947266 19.210938 L 19.080078 19.210938 L 19.080078 23.595703 C 19.080078 23.595703 19.078978 25.472656 21.583984 25.472656 C 24.088952 25.472656 24.089844 23.595703 24.089844 23.595703 L 24.089844 17.332031 L 25.341797 14.201172 L 45.550781 14.101562 L 45.570312 9.2246094 L 42.130859 7.1621094 L 26.351562 7.1269531 z "
			transform="scale(0.26458333)" />
		<path
			style="display:inline;opacity:1;vector-effect:none;fill:#4d4d4d;fill-opacity:1;fill-rule:evenodd;stroke:none;stroke-width:0.208902;stroke-linecap:butt;stroke-linejoin:round;stroke-miterlimit:4;stroke-dasharray:none;stroke-dashoffset:0;stroke-opacity:1"
			d="M 6.9496953,6.4163967 6.2813715,7.0847205 V 7.4192903 L 6.9496953,8.0876142 H 7.284265 L 7.9525888,7.4192903 V 7.0847205 L 7.284265,6.4163967 Z M 5.4441308,7.0402472 a 0.20892309,0.20892309 0 0 0 -0.021625,0.00123 0.20892309,0.20892309 0 0 0 -0.1248517,0.3578265 L 6.8215795,8.9232229 5.2976544,10.446332 A 0.20945677,0.20945677 0 0 0 5.593871,10.742548 L 7.1169801,9.2186238 8.6409053,10.742548 A 0.20892309,0.20892309 0 1 0 8.9354899,10.446332 L 7.4123808,8.9232229 8.9354899,7.3992978 A 0.20892309,0.20892309 0 0 0 8.7841175,7.0414714 0.20892309,0.20892309 0 0 0 8.6409053,7.1047131 L 7.1169801,8.6278223 5.593871,7.1047131 A 0.20892309,0.20892309 0 0 0 5.4441308,7.0402472 Z M 5.2784778,8.0876142 4.610154,8.755938 v 0.3345698 l 0.6683238,0.668324 H 5.6130476 L 6.2813715,9.0905078 V 8.755938 L 5.6130476,8.0876142 Z m 3.3424349,0 -0.6683239,0.6683238 v 0.3345698 l 0.6683239,0.668324 H 8.9554825 L 9.6238061,9.0905078 V 8.755938 L 8.9554825,8.0876142 Z M 6.9496953,9.7588318 6.2813715,10.427156 v 0.334569 l 0.6683238,0.668324 H 7.284265 L 7.9525888,10.761725 V 10.427156 L 7.284265,9.7588318 Z"
			id="path4349" />
	</g>
</svg>