<svg xmlns="http://www.w3.org/2000/svg" xmlns:svg="http://www.w3.org/2000/svg" id="svg845" width="64" height="64" version="1.1" viewBox="0 0 16.933 16.933"><metadata id="metadata842"/><g id="layer2"><path style="fill:#d0d0d0;stroke:#010203;stroke-width:.52916667;stroke-linecap:butt;stroke-miterlimit:4;stroke-dasharray:none;stroke-opacity:1;stroke-linejoin:round;fill-opacity:1" id="path1441" d="M 2.2399595,15.047768 V 13.813594 L 3.0862841,12.589689 V 2.7986775 H 11.147676 V 15.047768 Z"/><path style="fill:none;stroke:#010203;stroke-width:.52916667;stroke-linecap:butt;stroke-miterlimit:4;stroke-dasharray:none;stroke-opacity:1;stroke-linejoin:round" id="path1443" d="M 3.0862841,12.589689 H 11.147676"/><path style="fill:none;stroke:#010203;stroke-width:.52916667;stroke-linecap:butt;stroke-miterlimit:4;stroke-dasharray:none;stroke-opacity:1;stroke-linejoin:round" id="path1445" d="M 2.2399595,13.813594 H 11.147676"/><path style="fill:#d0d0d0;stroke:#010203;stroke-width:.52916667;stroke-linecap:butt;stroke-miterlimit:4;stroke-dasharray:none;stroke-opacity:1;stroke-linejoin:round;fill-opacity:1" id="path1451" d="m 11.147676,13.813594 h 3.900092 V 6.2603711 h -3.900092 v 1.3846773 h 2.583571 v 4.9446406 h -2.583571 z"/><path id="path1457" d="M 26.351562 7.1269531 L 10.568359 7.1621094 L 7.1289062 9.2246094 L 7.1503906 14.101562 L 10.9375 14.201172 L 10.9375 32.988281 C 10.9375 32.988281 10.938391 36.746094 13.443359 36.746094 C 15.948349 36.746094 15.947266 32.988281 15.947266 32.988281 L 15.947266 19.210938 L 19.080078 19.210938 L 19.080078 23.595703 C 19.080078 23.595703 19.078978 25.472656 21.583984 25.472656 C 24.088952 25.472656 24.089844 23.595703 24.089844 23.595703 L 24.089844 17.332031 L 25.341797 14.201172 L 45.550781 14.101562 L 45.570312 9.2246094 L 42.130859 7.1621094 L 26.351562 7.1269531 z" transform="scale(0.26458333)" style="fill:#fff;stroke:#010203;stroke-width:2.00000003;stroke-linecap:butt;stroke-miterlimit:4;stroke-dasharray:none;stroke-opacity:1;stroke-linejoin:round;fill-opacity:1"/><path style="display:inline;opacity:1;vector-effect:none;fill:#4d4d4d;fill-opacity:1;fill-rule:evenodd;stroke:none;stroke-width:.208902;stroke-linecap:butt;stroke-linejoin:round;stroke-miterlimit:4;stroke-dasharray:none;stroke-dashoffset:0;stroke-opacity:1" id="path4349" d="M 6.9496953,6.4163967 6.2813715,7.0847205 V 7.4192903 L 6.9496953,8.0876142 H 7.284265 L 7.9525888,7.4192903 V 7.0847205 L 7.284265,6.4163967 Z M 5.4441308,7.0402472 a 0.20892309,0.20892309 0 0 0 -0.021625,0.00123 0.20892309,0.20892309 0 0 0 -0.1248517,0.3578265 L 6.8215795,8.9232229 5.2976544,10.446332 A 0.20945677,0.20945677 0 0 0 5.593871,10.742548 L 7.1169801,9.2186238 8.6409053,10.742548 A 0.20892309,0.20892309 0 1 0 8.9354899,10.446332 L 7.4123808,8.9232229 8.9354899,7.3992978 A 0.20892309,0.20892309 0 0 0 8.7841175,7.0414714 0.20892309,0.20892309 0 0 0 8.6409053,7.1047131 L 7.1169801,8.6278223 5.593871,7.1047131 A 0.20892309,0.20892309 0 0 0 5.4441308,7.0402472 Z M 5.2784778,8.0876142 4.610154,8.755938 v 0.3345698 l 0.6683238,0.668324 H 5.6130476 L 6.2813715,9.0905078 V 8.755938 L 5.6130476,8.0876142 Z m 3.3424349,0 -0.6683239,0.6683238 v 0.3345698 l 0.6683239,0.668324 H 8.9554825 L 9.6238061,9.0905078 V 8.755938 L 8.9554825,8.0876142 Z M 6.9496953,9.7588318 6.2813715,10.427156 v 0.334569 l 0.6683238,0.668324 H 7.284265 L 7.9525888,10.761725 V 10.427156 L 7.284265,9.7588318 Z"/></g></svg>