<svg xmlns="http://www.w3.org/2000/svg" xmlns:svg="http://www.w3.org/2000/svg" id="svg4846" width="64" height="64" version="1.1" viewBox="0 0 16.933 16.933"><metadata id="metadata4843"/><g id="layer1" transform="translate(0,-280.06665)"><path style="display:inline;opacity:1;vector-effect:none;fill:#d0d0d0;fill-opacity:1;fill-rule:evenodd;stroke:#000;stroke-width:.5291667;stroke-linecap:butt;stroke-linejoin:round;stroke-miterlimit:4;stroke-dasharray:none;stroke-dashoffset:0;stroke-opacity:1" id="path983" d="M 8.069792,295.94165 H 2.2489588 l -0.2645833,-0.26458 v -1.85209 l 1.0583333,-1.05833 H 4.3656254 3.0427088 v -1.32292 l 1.3229166,-1.32291 h 1.5874998 -0.79375 v -1.32292 l 1.0583341,-1.05833 H 7.276042 6.4822924 v -0.79375 l 1.5874996,-1.5875 h 0.79375 v 1.85208 h 0.529167 l 1.5875,1.5875 v 1.05833 h -1.058334 2.116667 l 1.058334,1.05834 -10e-7,1.32291 h -1.322916 1.322916 l 1.322917,1.32292 v 2.11667 l -0.264583,0.26458 z"/><path style="display:inline;opacity:1;vector-effect:none;fill:#fff;fill-opacity:1;fill-rule:evenodd;stroke:#000;stroke-width:.5291667;stroke-linecap:butt;stroke-linejoin:round;stroke-miterlimit:4;stroke-dasharray:none;stroke-dashoffset:0;stroke-opacity:1" id="path985" d="m 3.8364587,281.38957 v -0.26459 H 1.9843755 v 3.70417 h 1.0583333 v -1.32292 h 0.79375 z"/><path style="display:inline;opacity:1;vector-effect:none;fill:#fff;fill-opacity:1;fill-rule:evenodd;stroke:#000;stroke-width:.5291667;stroke-linecap:butt;stroke-linejoin:round;stroke-miterlimit:4;stroke-dasharray:none;stroke-dashoffset:0;stroke-opacity:1" id="path985-9" d="m 7.540625,281.38957 v -0.26459 H 5.6885421 v 3.70417 h 1.0583334 v -1.32292 H 7.540626 Z"/><path style="display:inline;opacity:1;vector-effect:none;fill:#fff;fill-opacity:1;fill-rule:evenodd;stroke:#000;stroke-width:.5291667;stroke-linecap:butt;stroke-linejoin:round;stroke-miterlimit:4;stroke-dasharray:none;stroke-dashoffset:0;stroke-opacity:1" id="path985-3" d="m 11.244792,281.38957 v -0.26459 H 9.392709 v 3.70417 h 1.058333 v -1.32292 h 0.79375 z"/><path style="display:inline;opacity:1;vector-effect:none;fill:#fff;fill-opacity:1;fill-rule:evenodd;stroke:#000;stroke-width:.5291667;stroke-linecap:butt;stroke-linejoin:round;stroke-miterlimit:4;stroke-dasharray:none;stroke-dashoffset:0;stroke-opacity:1" id="path985-9-1" d="m 14.948958,281.38957 v -0.26459 h -1.852083 v 3.70417 h 1.058334 v -1.32292 h 0.793749 z"/></g></svg>