<?xml version="1.0" encoding="UTF-8" standalone="no"?>
<!-- Created with Inkscape (http://www.inkscape.org/) -->

<svg
   xmlns:dc="http://purl.org/dc/elements/1.1/"
   xmlns:cc="http://creativecommons.org/ns#"
   xmlns:rdf="http://www.w3.org/1999/02/22-rdf-syntax-ns#"
   xmlns:svg="http://www.w3.org/2000/svg"
   xmlns="http://www.w3.org/2000/svg"
   xmlns:sodipodi="http://sodipodi.sourceforge.net/DTD/sodipodi-0.dtd"
   xmlns:inkscape="http://www.inkscape.org/namespaces/inkscape"
   width="64"
   height="64"
   viewBox="0 0 16.933333 16.933334"
   version="1.1"
   id="svg4846"
   inkscape:version="0.92.4 (5da689c313, 2019-01-14)"
   sodipodi:docname="5thGen Item Icon-Egg Yellow.svg">
  <defs
     id="defs4840" />
  <sodipodi:namedview
     id="base"
     pagecolor="#ffffff"
     bordercolor="#666666"
     borderopacity="1.0"
     inkscape:pageopacity="0.0"
     inkscape:pageshadow="2"
     inkscape:zoom="3.959798"
     inkscape:cx="-35.090841"
     inkscape:cy="33.30383"
     inkscape:document-units="px"
     inkscape:current-layer="layer1"
     showgrid="false"
     units="px"
     inkscape:window-width="1304"
     inkscape:window-height="745"
     inkscape:window-x="-8"
     inkscape:window-y="-8"
     inkscape:window-maximized="1" />
  <metadata
     id="metadata4843">
    <rdf:RDF>
      <cc:Work
         rdf:about="">
        <dc:format>image/svg+xml</dc:format>
        <dc:type
           rdf:resource="http://purl.org/dc/dcmitype/StillImage" />
        <dc:title></dc:title>
      </cc:Work>
    </rdf:RDF>
  </metadata>
  <g
     inkscape:label="Layer 1"
     inkscape:groupmode="layer"
     id="layer1"
     transform="translate(0,-280.06665)">
    <path
       inkscape:connector-curvature="0"
       style="display:inline;opacity:1;vector-effect:none;fill:#ffffff;fill-opacity:1;fill-rule:evenodd;stroke:#000000;stroke-width:0.5291667;stroke-linecap:butt;stroke-linejoin:round;stroke-miterlimit:4;stroke-dasharray:none;stroke-dashoffset:0;stroke-opacity:1"
       d="m 8.4666668,281.38957 c -2.3812498,0 -6.0854167,3.175 -6.0854167,7.40834 0,4.23333 2.3812497,6.87916 6.0854167,6.87916 3.7041662,0 6.0854162,-2.64583 6.0854162,-6.87916 0,-4.23334 -3.704167,-7.40834 -6.0854162,-7.40834 z"
       id="path5486" />
    <path
       style="display:inline;opacity:1;vector-effect:none;fill:#000000;fill-opacity:1;fill-rule:evenodd;stroke:none;stroke-width:0.99999994;stroke-linecap:butt;stroke-linejoin:round;stroke-miterlimit:4;stroke-dasharray:none;stroke-dashoffset:0;stroke-opacity:1"
       d="M 13 22 L 9 26 L 9 27 L 18 27 L 18 26 L 14 22 L 13 22 z M 25 22 L 21 26 L 21 27 L 30 27 L 30 26 L 26 22 L 25 22 z M 38 22 L 34 26 L 34 27 L 43 27 L 43 26 L 39 22 L 38 22 z M 50 22 L 46 26 L 46 27 L 55 27 L 55 26 L 51 22 L 50 22 z M 13 33 L 9 37 L 9 38 L 18 38 L 18 37 L 14 33 L 13 33 z M 25 33 L 21 37 L 21 38 L 30 38 L 30 37 L 26 33 L 25 33 z M 38 33 L 34 37 L 34 38 L 43 38 L 43 37 L 39 33 L 38 33 z M 50 33 L 46 37 L 46 38 L 55 38 L 55 37 L 51 33 L 50 33 z "
       transform="matrix(0.26458334,0,0,0.26458334,0,280.06665)"
       id="path5488" />
  </g>
</svg>
