<svg xmlns="http://www.w3.org/2000/svg" xmlns:svg="http://www.w3.org/2000/svg" id="svg4846" width="64" height="64" version="1.1" viewBox="0 0 16.933 16.933"><metadata id="metadata4843"/><g id="layer1" transform="translate(0,-280.06665)"><path style="display:inline;opacity:1;vector-effect:none;fill:#adadad;fill-opacity:1;fill-rule:evenodd;stroke:#000;stroke-width:.5291667;stroke-linecap:butt;stroke-linejoin:round;stroke-miterlimit:4;stroke-dasharray:none;stroke-dashoffset:0;stroke-opacity:1" id="path1903-6" d="m 4.4979148,282.05102 10e-6,1.32292 h 0.79375 l -10e-6,1.32292 h -0.79375 v 9.26041 l 1.05834,1.05834 h 2.91041 2.9104202 l 1.05833,-1.05834 v -9.26041 h -0.79375 l 10e-6,-1.32292 h 0.79375 l -10e-6,-1.32292 h -2.11666 -0.5291702 v 3.43959 h 1.0583302 v 7.9375 l -0.26458,0.26458 h -2.1166702 -2.11666 l -0.26459,-0.26458 v -7.9375 h 1.05834 v -3.43959 h -0.52917 z"/><path style="display:inline;opacity:1;vector-effect:none;fill:#131313;fill-opacity:1;fill-rule:evenodd;stroke:#000;stroke-width:.5291667;stroke-linecap:butt;stroke-linejoin:round;stroke-miterlimit:4;stroke-dasharray:none;stroke-dashoffset:0;stroke-opacity:1" id="path1982" d="m 8.4666548,284.16769 h -1.05833 v 1.5875 h -1.05834 l 1e-5,7.40833 0.26458,0.26459 h 3.7041702 l 0.26458,-0.26459 v -7.40833 H 9.5249848 v -1.5875 z"/></g></svg>