<?xml version="1.0" encoding="UTF-8" standalone="no"?>
<svg xmlns:dc="http://purl.org/dc/elements/1.1/" xmlns:cc="http://creativecommons.org/ns#"
	xmlns:rdf="http://www.w3.org/1999/02/22-rdf-syntax-ns#" xmlns:svg="http://www.w3.org/2000/svg"
	xmlns="http://www.w3.org/2000/svg" xmlns:xlink="http://www.w3.org/1999/xlink"
	xmlns:sodipodi="http://sodipodi.sourceforge.net/DTD/sodipodi-0.dtd"
	xmlns:inkscape="http://www.inkscape.org/namespaces/inkscape" width="64" height="64" viewBox="0 0 16.933333 16.933334"
	version="1.1" id="svg8" inkscape:version="1.0.1 (3bc2e813f5, 2020-09-07)" sodipodi:docname="Flower Icon Yellow.svg">
	<defs id="defs2" />
	<sodipodi:namedview id="base" pagecolor="#ffffff" bordercolor="#666666" borderopacity="1.0" inkscape:pageopacity="0.0"
		inkscape:pageshadow="2" inkscape:zoom="2.8" inkscape:cx="37.132261" inkscape:cy="36.762659"
		inkscape:document-units="mm" inkscape:current-layer="layer2" inkscape:document-rotation="0" showgrid="false"
		showguides="false" inkscape:guide-bbox="true" units="px" inkscape:window-width="1366" inkscape:window-height="705"
		inkscape:window-x="-8" inkscape:window-y="-8" inkscape:window-maximized="1">
		<sodipodi:guide position="105.12462,162.12076" orientation="1,0" id="guide847" />
		<sodipodi:guide position="103.42374,138.76972" orientation="1,0" id="guide854" />
		<sodipodi:guide position="105.12462,135.69866" orientation="0,-1" id="guide946" />
		<sodipodi:guide position="102.52604,143.25332" orientation="0,-1" id="guide948" />
		<sodipodi:guide position="105.12462,130.90309" orientation="0,-1" id="guide970" />
		<sodipodi:guide position="114.69215,135.69866" orientation="1,0" id="guide972" />
		<sodipodi:guide position="114.69215,141.01395" orientation="0,-1" id="guide974" />
		<sodipodi:guide position="106.82552,139.53985" orientation="1,0" id="guide979" />
		<sodipodi:guide position="8.4666664,15.519354" orientation="1,0" id="guide1033" />
	</sodipodi:namedview>
	<metadata id="metadata5">
		<rdf:RDF>
			<cc:Work rdf:about="">
				<dc:format>image/svg+xml</dc:format>
				<dc:type rdf:resource="http://purl.org/dc/dcmitype/StillImage" />
				<dc:title></dc:title>
			</cc:Work>
		</rdf:RDF>
	</metadata>
	<g inkscape:label="Ebene 1" inkscape:groupmode="layer" id="layer1" sodipodi:insensitive="true" style="display:none">

	</g>
	<g inkscape:groupmode="layer" id="layer2" inkscape:label="Ebene 2" style="display:inline">
		<path id="path1035-9"
			style="display:inline;opacity:0.995;fill:#ffffff;fill-opacity:1;stroke:#000000;stroke-width:0.53217;stroke-linecap:round;stroke-linejoin:round;stroke-miterlimit:4;stroke-dasharray:none;stroke-opacity:1;paint-order:markers fill stroke"
			d="M 8.4666666,1.6353682 6.7990379,2.9367993 5.5142147,2.0205878 3.9711325,3.2839476 1.9244729,2.861158 4.1684659,4.8764225 6.4852457,5.7265104 8.4666666,5.2611411 10.448087,5.7265104 12.764867,4.8764225 15.00886,2.861158 12.962201,3.2839476 11.419118,2.0205878 10.134295,2.9367993 Z" />
		<path
			style="opacity:0.995;fill:#858585;fill-opacity:1;stroke:#000000;stroke-width:0.53217;stroke-linecap:round;stroke-linejoin:round;stroke-miterlimit:4;stroke-dasharray:none;stroke-opacity:1;paint-order:markers fill stroke"
			d="m 7.832592,11.805429 c -2.18919,-1.427572 -5.0310574,-0.01262 -5.0310574,-0.01262 0,0 1.5229143,1.174906 2.5699187,1.275974 1.047005,0.101067 2.6243065,-0.619039 2.6243065,-0.619039 z"
			id="path1000" />
		<path id="path864"
			style="opacity:0.995;fill:#4a4a4a;fill-opacity:1;stroke:none;stroke-width:0.53217;stroke-linecap:square;stroke-linejoin:round;stroke-miterlimit:4;stroke-dasharray:none;paint-order:markers fill stroke"
			d="M 8.4666666,3.7238552 6.8162463,5.0165137 5.0783319,4.1748719 3.788199,5.1853488 1.4554855,4.9201767 c 0,0 1.2038096,0.1794992 3.511375,2.4485216 2.3075632,2.2690262 2.4420818,3.3249477 2.4420818,3.3249477 H 8.4666666 9.52418 c 0,0 0.1347284,-1.0559215 2.442293,-3.3249477 2.307567,-2.2690224 3.511373,-2.4485216 3.511373,-2.4485216 L 13.145133,5.1853488 11.85479,4.1748719 10.116875,5.0165137 Z" />
		<path id="path864-4"
			style="display:inline;opacity:0.995;fill:#ffffff;fill-opacity:1;stroke:#000000;stroke-width:0.53217;stroke-linecap:square;stroke-linejoin:round;stroke-miterlimit:4;stroke-dasharray:none;stroke-opacity:1;paint-order:markers fill stroke"
			d="M 8.4666668,3.7238513 6.8162474,5.0165088 5.0783322,4.1748671 3.788199,5.1853488 1.4554858,4.9201729 c 0,0 1.2038097,0.1794991 3.5113751,2.4485205 2.3075625,2.2690272 2.4420813,3.3249526 2.4420813,3.3249526 H 8.4666668 9.52418 c 0,0 0.1347263,-1.0559254 2.442294,-3.3249526 2.307564,-2.2690214 3.511373,-2.4485205 3.511373,-2.4485205 L 13.145132,5.1853488 11.854788,4.1748671 10.116875,5.0165088 Z" />
		<path id="path864-9"
			style="opacity:0.995;fill:#d0d0d0;fill-opacity:1;stroke:#000000;stroke-width:0.532171;stroke-linecap:square;stroke-linejoin:round;stroke-miterlimit:4;stroke-dasharray:none;stroke-opacity:1;paint-order:markers fill stroke"
			d="M 8.4666666,6.6599367 7.2570872,7.9015909 4.839824,7.2471499 c 0.042858,0.041441 0.083389,0.078626 0.1270365,0.1215484 2.3075621,2.2690262 2.4420818,3.3249477 2.4420818,3.3249477 h 0.3653345 v 2.856744 l 0.9470928,1.625837 1.6403464,0.479065 1.998904,-1.28366 V 12.255193 L 11.495345,11.54037 h -1.442409 l -0.8652759,0.527229 -0.028816,0.03028 v -1.404238 h 0.3653344 c 0,0 0.1347284,-1.0559224 2.4422935,-3.3249487 0.04365,-0.042933 0.08417,-0.080099 0.127034,-0.1215483 l -2.4174737,0.65444 z"
			sodipodi:nodetypes="ccccccccccccccccccccc" />
		<path
			style="opacity:0.995;fill:none;fill-opacity:1;stroke:#000000;stroke-width:0.532171;stroke-linecap:round;stroke-linejoin:round;stroke-miterlimit:4;stroke-dasharray:none;stroke-opacity:1;paint-order:markers fill stroke"
			d="m 9.1876573,12.067595 -0.028816,1.482825 1.2028747,0.478488 0.658011,-0.398339 0.0068,-0.851778" id="path981"
			sodipodi:nodetypes="ccccc" />
	</g>
</svg>