<svg xmlns="http://www.w3.org/2000/svg" xmlns:svg="http://www.w3.org/2000/svg" xmlns:xlink="http://www.w3.org/1999/xlink" id="svg8" width="64" height="64" version="1.1" viewBox="0 0 16.933 16.933"><metadata id="metadata5"/><g id="layer2" style="display:inline"><path id="path1035-9" d="M 8.4666666,1.6353682 6.7990379,2.9367993 5.5142147,2.0205878 3.9711325,3.2839476 1.9244729,2.861158 4.1684659,4.8764225 6.4852457,5.7265104 8.4666666,5.2611411 10.448087,5.7265104 12.764867,4.8764225 15.00886,2.861158 12.962201,3.2839476 11.419118,2.0205878 10.134295,2.9367993 Z" style="display:inline;opacity:.995;fill:#fff;fill-opacity:1;stroke:#000;stroke-width:.53217;stroke-linecap:round;stroke-linejoin:round;stroke-miterlimit:4;stroke-dasharray:none;stroke-opacity:1;paint-order:markers fill stroke"/><path style="opacity:.995;fill:#858585;fill-opacity:1;stroke:#000;stroke-width:.53217;stroke-linecap:round;stroke-linejoin:round;stroke-miterlimit:4;stroke-dasharray:none;stroke-opacity:1;paint-order:markers fill stroke" id="path1000" d="m 7.832592,11.805429 c -2.18919,-1.427572 -5.0310574,-0.01262 -5.0310574,-0.01262 0,0 1.5229143,1.174906 2.5699187,1.275974 1.047005,0.101067 2.6243065,-0.619039 2.6243065,-0.619039 z"/><path id="path864" d="M 8.4666666,3.7238552 6.8162463,5.0165137 5.0783319,4.1748719 3.788199,5.1853488 1.4554855,4.9201767 c 0,0 1.2038096,0.1794992 3.511375,2.4485216 2.3075632,2.2690262 2.4420818,3.3249477 2.4420818,3.3249477 H 8.4666666 9.52418 c 0,0 0.1347284,-1.0559215 2.442293,-3.3249477 2.307567,-2.2690224 3.511373,-2.4485216 3.511373,-2.4485216 L 13.145133,5.1853488 11.85479,4.1748719 10.116875,5.0165137 Z" style="opacity:.995;fill:#4a4a4a;fill-opacity:1;stroke:none;stroke-width:.53217;stroke-linecap:square;stroke-linejoin:round;stroke-miterlimit:4;stroke-dasharray:none;paint-order:markers fill stroke"/><path id="path864-4" d="M 8.4666668,3.7238513 6.8162474,5.0165088 5.0783322,4.1748671 3.788199,5.1853488 1.4554858,4.9201729 c 0,0 1.2038097,0.1794991 3.5113751,2.4485205 2.3075625,2.2690272 2.4420813,3.3249526 2.4420813,3.3249526 H 8.4666668 9.52418 c 0,0 0.1347263,-1.0559254 2.442294,-3.3249526 2.307564,-2.2690214 3.511373,-2.4485205 3.511373,-2.4485205 L 13.145132,5.1853488 11.854788,4.1748671 10.116875,5.0165088 Z" style="display:inline;opacity:.995;fill:#fff;fill-opacity:1;stroke:#000;stroke-width:.53217;stroke-linecap:square;stroke-linejoin:round;stroke-miterlimit:4;stroke-dasharray:none;stroke-opacity:1;paint-order:markers fill stroke"/><path id="path864-9" d="M 8.4666666,6.6599367 7.2570872,7.9015909 4.839824,7.2471499 c 0.042858,0.041441 0.083389,0.078626 0.1270365,0.1215484 2.3075621,2.2690262 2.4420818,3.3249477 2.4420818,3.3249477 h 0.3653345 v 2.856744 l 0.9470928,1.625837 1.6403464,0.479065 1.998904,-1.28366 V 12.255193 L 11.495345,11.54037 h -1.442409 l -0.8652759,0.527229 -0.028816,0.03028 v -1.404238 h 0.3653344 c 0,0 0.1347284,-1.0559224 2.4422935,-3.3249487 0.04365,-0.042933 0.08417,-0.080099 0.127034,-0.1215483 l -2.4174737,0.65444 z" style="opacity:.995;fill:#d0d0d0;fill-opacity:1;stroke:#000;stroke-width:.532171;stroke-linecap:square;stroke-linejoin:round;stroke-miterlimit:4;stroke-dasharray:none;stroke-opacity:1;paint-order:markers fill stroke"/><path style="opacity:.995;fill:none;fill-opacity:1;stroke:#000;stroke-width:.532171;stroke-linecap:round;stroke-linejoin:round;stroke-miterlimit:4;stroke-dasharray:none;stroke-opacity:1;paint-order:markers fill stroke" id="path981" d="m 9.1876573,12.067595 -0.028816,1.482825 1.2028747,0.478488 0.658011,-0.398339 0.0068,-0.851778"/></g></svg>