<svg xmlns="http://www.w3.org/2000/svg" xmlns:svg="http://www.w3.org/2000/svg" xmlns:xlink="http://www.w3.org/1999/xlink" id="svg8" width="64" height="64" version="1.1" viewBox="0 0 16.933 16.933"><metadata id="metadata5"/><g id="layer2" style="display:inline"><path style="opacity:.995;fill:#fff;fill-opacity:1;stroke:#000;stroke-width:.52890208;stroke-linecap:round;stroke-linejoin:round;stroke-miterlimit:4;stroke-dasharray:none;stroke-opacity:1;paint-order:markers fill stroke" id="path921" d="M 8.8677475,9.3422788 7.903862,7.3161345 9.641114,2.2547179 15.13601,4.0307245 Z"/><path style="opacity:.995;fill:#fff;stroke:#000;stroke-width:.52890208;stroke-linecap:round;stroke-linejoin:round;stroke-miterlimit:4;stroke-dasharray:none;stroke-opacity:1;paint-order:markers fill stroke;fill-opacity:1" id="path887" d="M 1.8562947,3.3420224 3.1508671,3.9893129 3.7981536,5.2838813 4.4454406,3.9893129 5.7400125,3.3420224 4.4454406,2.6947319 3.7981536,1.4001634 3.1508671,2.6947319 Z"/><path style="display:inline;opacity:.995;fill:#d0d0d0;fill-opacity:1;stroke:none;stroke-width:.52890208;stroke-linecap:round;stroke-linejoin:round;stroke-miterlimit:4;stroke-dasharray:none;stroke-opacity:1;paint-order:markers fill stroke" id="path932-5-9-6-6-7-2" d="m 13.459457,6.0569819 -1.576648,0 0,-1.5766484 1.576648,0 z"/><path style="opacity:.995;fill:#858585;fill-opacity:1;stroke:#000;stroke-width:.52890208;stroke-linecap:round;stroke-linejoin:round;stroke-miterlimit:4;stroke-dasharray:none;stroke-opacity:1;paint-order:markers fill stroke" id="path911" d="M 8.8677475,9.3422788 V 15.592132 H 13.557245 L 15.13601,4.0307245 Z"/><path style="opacity:.995;fill:#d0d0d0;fill-opacity:1;stroke:#000;stroke-width:.52890208;stroke-linecap:round;stroke-linejoin:round;stroke-miterlimit:4;stroke-dasharray:none;stroke-opacity:1;paint-order:markers fill stroke" id="path917" d="M 8.8677475,15.592132 H 4.1594771 L 2.2734332,8.8338073 5.3198369,5.8650799 8.8677475,7.6502213 Z"/><path style="opacity:.995;fill:#d0d0d0;fill-opacity:1;stroke:#000;stroke-width:.52890208;stroke-linecap:round;stroke-linejoin:round;stroke-miterlimit:4;stroke-dasharray:none;stroke-opacity:1;paint-order:markers fill stroke" id="path923" d="M 8.8677475,4.5599176 11.578818,7.0321607 8.8677475,9.3422788 7.903862,7.3161343 Z"/><path style="opacity:.995;fill:#fff;fill-opacity:1;stroke:#000;stroke-width:.52890208;stroke-linecap:round;stroke-linejoin:round;stroke-miterlimit:4;stroke-dasharray:none;stroke-opacity:1;paint-order:markers fill stroke" id="path919" d="M 2.2734332,8.8338073 8.8677475,11.859716 V 7.6502213 L 5.3198369,5.8650799 Z"/><path style="opacity:.995;fill:#fff;fill-opacity:1;stroke:none;stroke-width:.52890208;stroke-linecap:round;stroke-linejoin:round;stroke-miterlimit:4;stroke-dasharray:none;stroke-opacity:1;paint-order:markers fill stroke" id="path932" d="m 11.308159,14.896269 -1.676239,0 -10e-8,-1.676239 1.6762391,0 z"/><path style="opacity:.995;fill:#fff;fill-opacity:1;stroke:none;stroke-width:.52890208;stroke-linecap:round;stroke-linejoin:round;stroke-miterlimit:4;stroke-dasharray:none;stroke-opacity:1;paint-order:markers fill stroke" id="path932-5" d="m 10.591748,11.37482 -0.9084751,0 0,-0.908475 0.9084751,0 z"/><path style="opacity:.995;fill:#fff;fill-opacity:1;stroke:none;stroke-width:.52890208;stroke-linecap:round;stroke-linejoin:round;stroke-miterlimit:4;stroke-dasharray:none;stroke-opacity:1;paint-order:markers fill stroke" id="path932-2" d="m 13.367511,11.622867 -1.463627,0 0,-1.463627 1.463627,0 z"/><path style="opacity:.995;fill:#fff;fill-opacity:1;stroke:none;stroke-width:.52890208;stroke-linecap:round;stroke-linejoin:round;stroke-miterlimit:4;stroke-dasharray:none;stroke-opacity:1;paint-order:markers fill stroke" id="path932-5-5" d="m 13.515159,8.3923517 -1.097463,0 0,-1.0974628 1.097463,0 z"/><path style="opacity:.995;fill:#fff;fill-opacity:1;stroke:none;stroke-width:.52890208;stroke-linecap:round;stroke-linejoin:round;stroke-miterlimit:4;stroke-dasharray:none;stroke-opacity:1;paint-order:markers fill stroke" id="path932-5-9" d="m 6.0619401,14.817948 -0.9084747,0 0,-0.908475 0.9084747,0 z"/><path style="opacity:.995;fill:#fff;fill-opacity:1;stroke:none;stroke-width:.52890208;stroke-linecap:round;stroke-linejoin:round;stroke-miterlimit:4;stroke-dasharray:none;stroke-opacity:1;paint-order:markers fill stroke" id="path932-5-9-6" d="m 7.7268042,13.071242 -0.9084748,0 0,-0.908475 0.9084748,0 z"/><path style="opacity:.995;fill:#fff;fill-opacity:1;stroke:none;stroke-width:.52890208;stroke-linecap:round;stroke-linejoin:round;stroke-miterlimit:4;stroke-dasharray:none;stroke-opacity:1;paint-order:markers fill stroke" id="path932-2-3" d="m 5.5953757,12.674113 -1.4636272,0 0,-1.463627 1.4636272,0 z"/><path style="opacity:.995;fill:#d0d0d0;fill-opacity:1;stroke:none;stroke-width:.52890208;stroke-linecap:round;stroke-linejoin:round;stroke-miterlimit:4;stroke-dasharray:none;stroke-opacity:1;paint-order:markers fill stroke" id="path932-5-9-6-6" d="m 8.009879,9.9240736 -0.9084747,0 0,-0.9084747 0.9084747,0 z"/><path style="opacity:.995;fill:#d0d0d0;fill-opacity:1;stroke:none;stroke-width:.52890208;stroke-linecap:round;stroke-linejoin:round;stroke-miterlimit:4;stroke-dasharray:none;stroke-opacity:1;paint-order:markers fill stroke" id="path932-5-9-6-6-7" d="m 6.6208476,8.8143939 -1.5766485,0 0,-1.5766485 1.5766485,0 z"/><path style="display:inline;opacity:.995;fill:#d0d0d0;fill-opacity:1;stroke:none;stroke-width:.52890208;stroke-linecap:round;stroke-linejoin:round;stroke-miterlimit:4;stroke-dasharray:none;stroke-opacity:1;paint-order:markers fill stroke" id="path932-5-9-6-6-5" d="m 11.164618,4.4236022 -0.908475,0 0,-0.9084747 0.908475,0 z"/></g></svg>