<svg xmlns="http://www.w3.org/2000/svg" xmlns:svg="http://www.w3.org/2000/svg" id="svg8" width="64" height="64" version="1.1" viewBox="0 0 16.933 16.933"><metadata id="metadata5"/><g id="layer1"><path style="fill:#fff;fill-opacity:1;stroke:#000;stroke-width:.52916667;stroke-linecap:round;stroke-linejoin:round;stroke-miterlimit:4;stroke-dasharray:none;stroke-opacity:1" id="path906" d="m 8.1270143,4.8709992 c 0,0 0.2276861,-2.391213 0.440201,-2.7709781 0.2125237,-0.379765 3.3616887,-0.9283144 3.3616887,-0.9283144 0,0 -1.101239,2.8482378 -1.255801,2.9959239 -0.154562,0.1476861 -1.9859726,1.0763335 -1.9859726,1.0763335 z"/><path style="fill:none;stroke:#000;stroke-width:.52916667;stroke-linecap:round;stroke-linejoin:round;stroke-miterlimit:4;stroke-dasharray:none;stroke-opacity:1" id="path908" d="M 8.3112313,5.1223175 9.4521624,3.3045484"/><path style="fill:#858585;fill-opacity:1;stroke:#000;stroke-width:.44979167;stroke-linecap:round;stroke-linejoin:round;stroke-miterlimit:4;stroke-dasharray:none;stroke-opacity:1" id="path904" d="M 8.4666505,7.9144017 9.4111846,7.6010996 8.6871304,5.2439641 8.1270143,4.8709992 3.9876419,4.4085239 4.0149664,5.7661146 7.5259212,6.034649 7.8674505,7.675692 Z"/><path id="path862" d="m 6.569617,7.2878023 -2.3224023,0.865292 -1.4754363,2.1184317 1.393445,3.908673 3.1421189,1.581374 1.1593082,-0.984631 1.1593438,0.984631 3.1420837,-1.581374 1.393477,-3.908673 -1.475442,-2.1184317 -2.322429,-0.865292 -1.8970335,0.6266006 z" style="fill:#d0d0d0;fill-opacity:1;stroke:none;stroke-width:.52916667;stroke-linecap:round;stroke-linejoin:round;stroke-miterlimit:4;stroke-dasharray:none;stroke-opacity:1"/><path style="fill:#fff;fill-opacity:1;stroke:none;stroke-width:.52916667;stroke-linecap:round;stroke-linejoin:round;stroke-miterlimit:4;stroke-dasharray:none;stroke-dashoffset:0;stroke-opacity:1" id="path1543" d="M 7.3073423,15.761573 8.4666504,14.776942 9.8082943,13.400784 8.3527544,11.563315 7.6776412,10.784464 8.4666504,7.9144028 6.569617,7.2878023 4.2472146,8.1530941 2.7717784,10.271526 l 1.393445,3.908673 z"/><path style="fill:#fff;fill-opacity:1;stroke:#000;stroke-width:10.53020861;stroke-linecap:round;stroke-linejoin:round;stroke-miterlimit:4;stroke-dasharray:none;stroke-opacity:1" id="path893" d="m 158.37201,127.37797 -19.65869,-9.24631 -21.54071,2.82071 9.24631,-19.65869 -2.82072,-21.540712 19.6587,9.246311 21.54071,-2.820716 -9.24631,19.658697 z" transform="matrix(0.03348944,0.02559215,-0.02343536,0.03657152,9.0041335,2.9093581)"/><path style="fill:none;stroke:#000;stroke-width:.52916667;stroke-linecap:round;stroke-linejoin:round;stroke-miterlimit:4;stroke-dasharray:none;stroke-opacity:1" id="path928" d="M 8.4666504,14.776942 9.8082944,13.400784 8.3527546,11.563315 6.9905903,12.865304 7.7334199,13.753782 8.3975034,13.12921"/><path style="fill:none;fill-opacity:1;stroke:#000;stroke-width:.52916667;stroke-linecap:round;stroke-linejoin:round;stroke-miterlimit:4;stroke-dasharray:none;stroke-dashoffset:0;stroke-opacity:1" id="path1532" d="M 8.4666504,14.776942 7.3073423,15.761573 4.1652234,14.180199 2.7717784,10.271526 4.2472146,8.1530941 6.569617,7.2878023 8.4666504,7.9144016 10.363684,7.2878023 l 2.322429,0.8652918 1.475442,2.1184319 -1.393477,3.908673 -3.1420838,1.581374 z"/></g></svg>