<?xml version="1.0" encoding="UTF-8" standalone="no"?>
<svg xmlns:dc="http://purl.org/dc/elements/1.1/" xmlns:cc="http://creativecommons.org/ns#"
	xmlns:rdf="http://www.w3.org/1999/02/22-rdf-syntax-ns#" xmlns:svg="http://www.w3.org/2000/svg"
	xmlns="http://www.w3.org/2000/svg" xmlns:sodipodi="http://sodipodi.sourceforge.net/DTD/sodipodi-0.dtd"
	xmlns:inkscape="http://www.inkscape.org/namespaces/inkscape" width="64" height="64" viewBox="0 0 16.933333 16.933334"
	version="1.1" id="svg8" sodipodi:docname="Fruit Icon Yellow.svg" inkscape:export-xdpi="96" inkscape:export-ydpi="96"
	inkscape:version="1.0.1 (3bc2e813f5, 2020-09-07)">
	<defs id="defs2" />
	<sodipodi:namedview id="base" pagecolor="#ffffff" bordercolor="#666666" borderopacity="1.0" inkscape:pageopacity="0.0"
		inkscape:pageshadow="2" inkscape:zoom="2.8" inkscape:cx="34.287571" inkscape:cy="36.216574"
		inkscape:document-units="mm" inkscape:current-layer="layer1" inkscape:document-rotation="0" showgrid="false"
		showguides="false" inkscape:guide-bbox="true" units="px" inkscape:window-width="1366" inkscape:window-height="705"
		inkscape:window-x="-8" inkscape:window-y="-8" inkscape:window-maximized="1">
		<sodipodi:guide position="105,-108.5238" orientation="1,0" id="guide860" />
	</sodipodi:namedview>
	<metadata id="metadata5">
		<rdf:RDF>
			<cc:Work rdf:about="">
				<dc:format>image/svg+xml</dc:format>
				<dc:type rdf:resource="http://purl.org/dc/dcmitype/StillImage" />
				<dc:title></dc:title>
			</cc:Work>
		</rdf:RDF>
	</metadata>
	<g inkscape:label="Ebene 1" inkscape:groupmode="layer" id="layer1">
		<path
			style="fill:#ffffff;fill-opacity:1;stroke:#000000;stroke-width:0.52916667;stroke-linecap:round;stroke-linejoin:round;stroke-miterlimit:4;stroke-dasharray:none;stroke-opacity:1"
			d="m 8.1270143,4.8709992 c 0,0 0.2276861,-2.391213 0.440201,-2.7709781 0.2125237,-0.379765 3.3616887,-0.9283144 3.3616887,-0.9283144 0,0 -1.101239,2.8482378 -1.255801,2.9959239 -0.154562,0.1476861 -1.9859726,1.0763335 -1.9859726,1.0763335 z"
			id="path906" />
		<path
			style="fill:none;stroke:#000000;stroke-width:0.52916667;stroke-linecap:round;stroke-linejoin:round;stroke-miterlimit:4;stroke-dasharray:none;stroke-opacity:1"
			d="M 8.3112313,5.1223175 9.4521624,3.3045484" id="path908" />
		<path
			style="fill:#858585;fill-opacity:1;stroke:#000000;stroke-width:0.44979167;stroke-linecap:round;stroke-linejoin:round;stroke-miterlimit:4;stroke-dasharray:none;stroke-opacity:1"
			d="M 8.4666505,7.9144017 9.4111846,7.6010996 8.6871304,5.2439641 8.1270143,4.8709992 3.9876419,4.4085239 4.0149664,5.7661146 7.5259212,6.034649 7.8674505,7.675692 Z"
			id="path904" sodipodi:nodetypes="ccccccccc" />
		<path id="path862"
			style="fill:#d0d0d0;fill-opacity:1;stroke:none;stroke-width:0.52916667;stroke-linecap:round;stroke-linejoin:round;stroke-miterlimit:4;stroke-dasharray:none;stroke-opacity:1"
			d="m 6.569617,7.2878023 -2.3224023,0.865292 -1.4754363,2.1184317 1.393445,3.908673 3.1421189,1.581374 1.1593082,-0.984631 1.1593438,0.984631 3.1420837,-1.581374 1.393477,-3.908673 -1.475442,-2.1184317 -2.322429,-0.865292 -1.8970335,0.6266006 z" />
		<path
			style="fill:#ffffff;fill-opacity:1;stroke:none;stroke-width:0.52916667;stroke-linecap:round;stroke-linejoin:round;stroke-miterlimit:4;stroke-dasharray:none;stroke-dashoffset:0;stroke-opacity:1"
			d="M 7.3073423,15.761573 8.4666504,14.776942 9.8082943,13.400784 8.3527544,11.563315 7.6776412,10.784464 8.4666504,7.9144028 6.569617,7.2878023 4.2472146,8.1530941 2.7717784,10.271526 l 1.393445,3.908673 z"
			id="path1543" />
		<path sodipodi:type="star"
			style="fill:#ffffff;fill-opacity:1;stroke:#000000;stroke-width:10.53020861;stroke-linecap:round;stroke-linejoin:round;stroke-miterlimit:4;stroke-dasharray:none;stroke-opacity:1"
			id="path893" sodipodi:sides="4" sodipodi:cx="140.98511" sodipodi:cy="103.56547" sodipodi:r1="29.484566"
			sodipodi:r2="14.742283" sodipodi:arg1="0.94011503" sodipodi:arg2="1.7255132" inkscape:flatsided="false"
			inkscape:rounded="0" inkscape:randomized="0"
			d="m 158.37201,127.37797 -19.65869,-9.24631 -21.54071,2.82071 9.24631,-19.65869 -2.82072,-21.540712 19.6587,9.246311 21.54071,-2.820716 -9.24631,19.658697 z"
			inkscape:transform-center-x="-0.064782411" inkscape:transform-center-y="-0.10276996"
			transform="matrix(0.03348944,0.02559215,-0.02343536,0.03657152,9.0041335,2.9093581)" />
		<path
			style="fill:none;stroke:#000000;stroke-width:0.52916667;stroke-linecap:round;stroke-linejoin:round;stroke-miterlimit:4;stroke-dasharray:none;stroke-opacity:1"
			d="M 8.4666504,14.776942 9.8082944,13.400784 8.3527546,11.563315 6.9905903,12.865304 7.7334199,13.753782 8.3975034,13.12921"
			id="path928" sodipodi:nodetypes="cccccc" />
		<path
			style="fill:none;fill-opacity:1;stroke:#000000;stroke-width:0.52916667;stroke-linecap:round;stroke-linejoin:round;stroke-miterlimit:4;stroke-dasharray:none;stroke-dashoffset:0;stroke-opacity:1"
			d="M 8.4666504,14.776942 7.3073423,15.761573 4.1652234,14.180199 2.7717784,10.271526 4.2472146,8.1530941 6.569617,7.2878023 8.4666504,7.9144016 10.363684,7.2878023 l 2.322429,0.8652918 1.475442,2.1184319 -1.393477,3.908673 -3.1420838,1.581374 z"
			id="path1532" />
	</g>
</svg>