<?xml version="1.0" encoding="UTF-8" standalone="no"?>
<!-- Created with Inkscape (http://www.inkscape.org/) -->

<svg
   width="5.281662mm"
   height="4.8815398mm"
   viewBox="0 0 5.281662 4.8815399"
   version="1.1"
   id="svg5"
   xml:space="preserve"
   sodipodi:docname="guild.svg"
   inkscape:version="1.2.1 (9c6d41e410, 2022-07-14)"
   xmlns:inkscape="http://www.inkscape.org/namespaces/inkscape"
   xmlns:sodipodi="http://sodipodi.sourceforge.net/DTD/sodipodi-0.dtd"
   xmlns="http://www.w3.org/2000/svg"
   xmlns:svg="http://www.w3.org/2000/svg"><sodipodi:namedview
     id="namedview7"
     pagecolor="#ffffff"
     bordercolor="#000000"
     borderopacity="0.25"
     inkscape:showpageshadow="2"
     inkscape:pageopacity="0.0"
     inkscape:pagecheckerboard="0"
     inkscape:deskcolor="#d1d1d1"
     inkscape:document-units="mm"
     showgrid="false"
     inkscape:zoom="22.627417"
     inkscape:cx="15.070213"
     inkscape:cy="13.015184"
     inkscape:window-width="1920"
     inkscape:window-height="1051"
     inkscape:window-x="-9"
     inkscape:window-y="-9"
     inkscape:window-maximized="1"
     inkscape:current-layer="layer1" /><defs
     id="defs2"><inkscape:perspective
       sodipodi:type="inkscape:persp3d"
       inkscape:vp_x="35.529071 : -40.771729 : 1"
       inkscape:vp_y="-939.87097 : 183.74512 : 0"
       inkscape:vp_z="35.031866 : -1.9670674 : 1"
       inkscape:persp3d-origin="40.167271 : -22.32477 : 1"
       id="perspective24494" /></defs><g
     inkscape:label="Layer 1"
     inkscape:groupmode="layer"
     id="layer1"
     transform="translate(-22.001799,-150.23266)"><path
       style="fill:#000000;fill-opacity:1;stroke:none;stroke-width:0.264583;stroke-opacity:1"
       d="m 24.113463,154.84962 -0.163521,-0.26459 h -0.645844 -0.645843 v -0.40046 -0.40047 l -0.328228,-0.52557 -0.328228,-0.52558 0.328228,-0.52558 0.328228,-0.52557 v -0.40047 -0.40046 h 0.532756 0.532757 l 0.518973,-0.32411 0.518973,-0.3241 0.324104,0.3241 0.324103,0.32411 h 0.608542 0.608542 v 0.40046 0.40047 l 0.328228,0.52557 0.328228,0.52558 -0.328228,0.52558 -0.328228,0.52557 v 0.40047 0.40046 h -0.645844 -0.645843 l -0.163522,0.26459 -0.163521,0.26458 H 24.64263 24.276985 Z m 0.8942,-0.96441 -0.302951,-0.36504 -0.365033,0.30296 -0.365033,0.30295 0.302951,0.36503 0.30295,0.36503 0.365033,-0.30295 0.365033,-0.30295 z m -1.023572,-0.22902 0.693333,-0.66425 0.624036,0.66425 0.624036,0.66426 h 0.267964 0.267964 l -0.760461,-0.79375 -0.760461,-0.79375 0.760461,-0.79375 0.760461,-0.79375 h -0.233461 -0.233461 l -0.693334,0.66426 -0.693333,0.66425 -0.624036,-0.66425 -0.624036,-0.66426 H 23.0918 22.823836 l 0.76046,0.79375 0.760461,0.79375 -0.760461,0.79375 -0.76046,0.79375 h 0.233461 0.233461 z m -0.564264,-1.33339 -0.410154,-0.41016 -0.340398,0.41016 -0.340397,0.41015 0.340397,0.41015 0.340398,0.41016 0.410154,-0.41016 0.410154,-0.41015 z m 3.175,0 -0.410154,-0.41016 -0.340398,0.41016 -0.340397,0.41015 0.340397,0.41015 0.340398,0.41016 0.410154,-0.41016 0.410154,-0.41015 z m -1.587164,-1.34801 -0.302951,-0.36503 -0.365033,0.30295 -0.365033,0.30295 0.302951,0.36503 0.30295,0.36504 0.365033,-0.30296 0.365033,-0.30295 z"
       id="path21129" /><rect
       style="display:none;fill:none;fill-opacity:1;stroke:#010101;stroke-width:0.1;stroke-linecap:butt;stroke-linejoin:miter;stroke-dasharray:none;stroke-opacity:1"
       id="rect24369"
       width="4.0283203"
       height="4.0068359"
       x="17.743805"
       y="157.60432" /></g></svg>
