<svg xmlns="http://www.w3.org/2000/svg" xmlns:svg="http://www.w3.org/2000/svg" id="svg2729" width="64" height="64" version="1.1" viewBox="0 0 16.933 16.933"><metadata id="metadata2726"/><g id="layer1"><path style="fill:#d0d0d0;fill-opacity:1;stroke:none;stroke-width:.250257;stroke-miterlimit:4;stroke-dasharray:none;stroke-opacity:1" id="path914-6-3-6-1" d="m 1.5374017,4.5825103 v 5.2435 l 2.56906,0.3841397 2.22956,-0.2419897 0.68236,-0.90393 -0.68236,-1.29847 -1.83656,-1.68504 z"/><path style="fill:#fff;fill-opacity:1;stroke:none;stroke-width:.250257;stroke-miterlimit:4;stroke-dasharray:none;stroke-opacity:1" id="path891-8-0-47-4-8" d="M 8.4666617,4.6496703 8.7855791,5.51609 8.4666617,6.3555103 l -2.13064,1.41026 -4.79862,-3.18326 3.61913,-2.25361 z"/><path style="fill:#858585;fill-opacity:1;stroke:none;stroke-width:.250257;stroke-miterlimit:4;stroke-dasharray:none;stroke-opacity:1" id="path912-4-1-8-6" d="m 6.3360217,9.9681603 -4.79862,-0.14215 6.92925,4.7731597 0.22744,-2.11776 -0.22744,-1.22971 z"/><path style="fill:#4d4d4d;fill-opacity:1;stroke:none;stroke-width:.250257;stroke-miterlimit:4;stroke-dasharray:none;stroke-opacity:1" id="path910-2-8-2-4" d="m 8.4666517,11.2517 v 3.34747 l 6.9292803,-4.7731597 -3.60871,-0.39651 -1.18992,0.53866 -1.5514403,-0.0316 z"/><path style="fill:#858585;fill-opacity:1;stroke:none;stroke-width:.250257;stroke-miterlimit:4;stroke-dasharray:none;stroke-opacity:1" id="path908-8-4-6-1" d="m 10.597302,9.9681603 4.79863,-0.14215 v -5.2435 l -2.56365,1.45294 -2.23498,1.73031 -0.6218903,1.02993 z"/><path style="fill:#d0d0d0;fill-opacity:1;stroke:none;stroke-width:.250257;stroke-miterlimit:4;stroke-dasharray:none;stroke-opacity:1" id="path891-4-14-8-1" d="m 8.4666517,4.6496703 v 1.70584 l 2.1306603,1.41026 4.79862,-3.18326 -3.61914,-2.25361 z"/><path id="path871-5-5-5-0" d="m 8.4666617,6.3555103 -2.13064,1.41026 v 2.20239 L 8.4666617,11.2517 10.597302,9.9681603 v -2.20239 z" style="fill:#fff;fill-opacity:1;stroke:#000;stroke-width:.97096;stroke-miterlimit:4;stroke-dasharray:none;stroke-opacity:1"/><path id="path853-4-84-2-9" d="m 5.1562817,2.3289003 -3.61888,2.25361 v 5.2435 l 6.92926,4.7731597 6.9292703,-4.7731597 v -5.2435 l -3.61914,-2.25361 -3.3101303,2.32077 z" style="fill:none;stroke:#000;stroke-width:.661458;stroke-miterlimit:4;stroke-dasharray:none;stroke-opacity:1"/></g></svg>