<svg xmlns="http://www.w3.org/2000/svg" xmlns:svg="http://www.w3.org/2000/svg" xmlns:xlink="http://www.w3.org/1999/xlink" id="svg8" width="64" height="64" version="1.1" viewBox="0 0 16.933 16.933"><defs id="defs2"><filter style="color-interpolation-filters:sRGB" id="filter1236" width="1" height="1" x="0" y="0"><feGaussianBlur id="feGaussianBlur1238" stdDeviation="0"/></filter><filter style="color-interpolation-filters:sRGB" id="filter1240" width="1" height="1" x="0" y="0"><feGaussianBlur id="feGaussianBlur1242" stdDeviation="0"/></filter><filter style="color-interpolation-filters:sRGB" id="filter1244" width="1" height="1" x="0" y="0"><feGaussianBlur id="feGaussianBlur1246" stdDeviation="0"/></filter><filter style="color-interpolation-filters:sRGB" id="filter1248" width="1" height="1" x="0" y="0"><feGaussianBlur id="feGaussianBlur1250" stdDeviation="0"/></filter><filter style="color-interpolation-filters:sRGB" id="filter1252" width="1" height="1" x="0" y="0"><feGaussianBlur id="feGaussianBlur1254" stdDeviation="0"/></filter><filter style="color-interpolation-filters:sRGB" id="filter1256" width="1" height="1" x="0" y="0"><feGaussianBlur id="feGaussianBlur1258" stdDeviation="0"/></filter><filter style="color-interpolation-filters:sRGB" id="filter1264" width="1" height="1" x="0" y="0"><feGaussianBlur id="feGaussianBlur1266" stdDeviation="0"/></filter><filter style="color-interpolation-filters:sRGB" id="filter1268" width="1" height="1" x="0" y="0"><feGaussianBlur id="feGaussianBlur1270" stdDeviation="0"/></filter></defs><metadata id="metadata5"/><g id="layer2" style="display:inline"><path id="path1278" d="M 8.4666666,1.5314036 1.8535038,10.717158 H 8.4666666 15.07983 Z" style="opacity:.997;fill:#858585;fill-opacity:1;stroke:#000;stroke-width:.451468;stroke-linecap:square;stroke-linejoin:round;stroke-miterlimit:4;stroke-dasharray:none;stroke-opacity:1;paint-order:markers fill stroke"/><path style="opacity:.997;fill:#000;fill-opacity:1;stroke:#000;stroke-width:.373999;stroke-linecap:square;stroke-linejoin:round;stroke-miterlimit:4;stroke-dasharray:none;stroke-opacity:1;paint-order:markers fill stroke" id="path1661" d="m 8.4666655,4.1825656 -4.4182548,6.4399504 0.6594991,3.630152 h 7.5175132 l 0.659498,-3.630152 z"/><path id="path882" d="m 8.4666653,2.8742417 -2.5869211,3.99924 h 2.5869211 2.5869237 z" transform="matrix(0.74198083,0,0,0.67493892,2.1845623,3.2370087)" style="fill:#fff;fill-opacity:1;stroke:none;stroke-width:.211667;stroke-linejoin:round;stroke-miterlimit:4;stroke-dasharray:none;stroke-opacity:1;filter:url(#filter1256)"/><path id="path902" d="M 5.229655,7.8785917 3.8374916,10.030392 H 8.4666653 13.095842 L 11.703678,7.8785917 H 8.4666653 Z" transform="matrix(0.74198083,0,0,0.67493892,2.1845623,3.2370087)" style="fill:#fff;fill-opacity:1;stroke:none;stroke-width:.211667;stroke-linejoin:round;stroke-miterlimit:4;stroke-dasharray:none;stroke-opacity:1;filter:url(#filter1252)"/><path style="fill:#d0d0d0;fill-opacity:1;stroke:none;stroke-width:.211667;stroke-linejoin:round;stroke-miterlimit:4;stroke-dasharray:none;stroke-opacity:1;filter:url(#filter1248)" id="path926" d="m 3.1569636,11.082742 h 1.93917 v 4.26796 h -1.35639 z" transform="matrix(0.74198083,0,0,0.67493892,2.3630442,3.2370087)"/><path style="fill:#d0d0d0;fill-opacity:1;stroke:#d0d0d0;stroke-width:.211667;stroke-linejoin:round;stroke-miterlimit:4;stroke-dasharray:none;stroke-opacity:1;filter:url(#filter1244)" id="path928" d="m 6.1485136,11.082742 v 4.26796 h 1.80072 v -4.26796 z" transform="matrix(0.74198083,0,0,0.67493892,2.1845623,3.2370087)"/><path style="fill:#d0d0d0;fill-opacity:1;stroke:none;stroke-width:.211667;stroke-linejoin:round;stroke-miterlimit:4;stroke-dasharray:none;stroke-opacity:1;filter:url(#filter1240)" id="path926-9" d="m 13.776134,11.083002 h -1.93917 v 4.26796 h 1.35639 z" transform="matrix(0.74198083,0,0,0.67493892,2.0055041,3.2370087)"/><path style="fill:#d0d0d0;fill-opacity:1;stroke:#d0d0d0;stroke-width:.211667;stroke-linejoin:round;stroke-miterlimit:4;stroke-dasharray:none;stroke-opacity:1;filter:url(#filter1236)" id="path928-7" d="m 10.784584,11.083002 v 4.26796 H 8.9838636 v -4.26796 z" transform="matrix(0.74198083,0,0,0.67493892,2.1845623,3.2370087)"/><path id="path1345" d="m 3.3544782,14.252696 v 1.149218 H 8.4666666 13.578856 V 14.252696 H 8.4666666 Z" style="opacity:.997;fill:#858585;fill-opacity:1;stroke:#010203;stroke-width:.451468;stroke-linecap:square;stroke-linejoin:round;stroke-miterlimit:4;stroke-dasharray:none;stroke-opacity:1;paint-order:markers fill stroke"/></g></svg>