<?xml version="1.0" encoding="UTF-8" standalone="no"?>
<svg
   xmlns:dc="http://purl.org/dc/elements/1.1/"
   xmlns:cc="http://creativecommons.org/ns#"
   xmlns:rdf="http://www.w3.org/1999/02/22-rdf-syntax-ns#"
   xmlns:svg="http://www.w3.org/2000/svg"
   xmlns="http://www.w3.org/2000/svg"
   xmlns:sodipodi="http://sodipodi.sourceforge.net/DTD/sodipodi-0.dtd"
   xmlns:inkscape="http://www.inkscape.org/namespaces/inkscape"
   width="64"
   height="64"
   viewBox="0 0 16.933333 16.933334"
   version="1.1"
   id="svg8"
   inkscape:version="1.0.1 (3bc2e813f5, 2020-09-07)"
   sodipodi:docname="Mask Icon Yellow.svg">
  <defs
     id="defs2" />
  <sodipodi:namedview
     id="base"
     pagecolor="#ffffff"
     bordercolor="#666666"
     borderopacity="1.0"
     inkscape:pageopacity="0.0"
     inkscape:pageshadow="2"
     inkscape:zoom="1"
     inkscape:cx="1.9440069"
     inkscape:cy="-19.231041"
     inkscape:document-units="mm"
     inkscape:current-layer="layer2"
     inkscape:document-rotation="0"
     showgrid="false"
     units="px"
     showguides="false"
     inkscape:guide-bbox="true"
     inkscape:snap-global="true"
     inkscape:window-width="1366"
     inkscape:window-height="705"
     inkscape:window-x="-8"
     inkscape:window-y="-8"
     inkscape:window-maximized="1">
    <sodipodi:guide
       position="8.4666668,8.1803795"
       orientation="1,0"
       id="guide870" />
    <sodipodi:guide
       position="8.0013816,2.7179353"
       orientation="0,-1"
       id="guide899" />
    <sodipodi:guide
       position="8.4666668,14.778473"
       orientation="0,-1"
       id="guide919" />
    <sodipodi:guide
       position="5.3286863,3.6533787"
       orientation="-0.96399261,-0.26592903"
       id="guide1043" />
    <sodipodi:guide
       position="3.9923386,11.638056"
       orientation="-0.95157052,0.30743054"
       id="guide1045" />
    <sodipodi:guide
       position="8.4666666,5.8951021"
       orientation="0,-1"
       id="guide929" />
  </sodipodi:namedview>
  <metadata
     id="metadata5">
    <rdf:RDF>
      <cc:Work
         rdf:about="">
        <dc:format>image/svg+xml</dc:format>
        <dc:type
           rdf:resource="http://purl.org/dc/dcmitype/StillImage" />
        <dc:title></dc:title>
      </cc:Work>
    </rdf:RDF>
  </metadata>
  <g
     inkscape:groupmode="layer"
     id="layer2"
     inkscape:label="Ebene 2">
    <path
       id="path1047"
       style="fill:#ffffff;fill-opacity:1;stroke:#000000;stroke-width:0.52916667;stroke-miterlimit:4;stroke-dasharray:none;stroke-opacity:1;stroke-linecap:round;stroke-linejoin:round"
       d="M 4.8921018,1.3885066 4.2794579,1.7785363 1.9599032,8.9586014 3.7832771,10.822009 5.0862068,15.544827 H 8.4666667 11.847126 L 13.150056,10.822009 14.97343,8.9586014 12.653876,1.7785363 12.041232,1.3885066 H 8.4666667 Z" />
    <path
       id="path1118"
       style="fill:#000000;fill-opacity:1;stroke:#000000;stroke-width:0.15875;stroke-linecap:round;stroke-miterlimit:4;stroke-dasharray:none;stroke-opacity:1;stroke-linejoin:miter"
       d="m 7.4154668,7.2886918 -0.8061424,0.083708 0.00667,0.6314478 c 0,3e-7 0.4187348,-0.1959547 0.5319689,-0.096446 0.1132377,0.099508 0.116463,0.6144635 0.116463,0.6144635 0,0 -0.4254055,2.3057799 -0.4185388,2.4087219 0.00686,0.102938 0.057018,0.517411 0.057018,0.517411 l 1.5637583,0.2305 1.5637572,-0.2305 c 0,0 0.05016,-0.414471 0.05702,-0.517411 0.0069,-0.102938 -0.4185387,-2.4087219 -0.4185387,-2.4087219 0,0 0.0032,-0.5149549 0.116463,-0.6144635 0.113234,-0.099509 0.5319687,0.096446 0.5319687,0.096446 l 0.0066,-0.6314478 -0.806142,-0.083708 -0.034575,1.2877653 c 0,0 0.3705473,2.5189289 0.3293713,2.5257909 -0.04117,0.0068 -0.8967494,0.06855 -1.3459964,0.06855 -0.449247,0 -1.3048211,-0.06174 -1.3459968,-0.06855 -0.041176,-0.0069 0.3293717,-2.5257909 0.3293717,-2.5257909 z"
       sodipodi:nodetypes="ccccccccccccccccczccc" />
    <path
       id="path901"
       style="fill:#858585;fill-opacity:1;stroke:none;stroke-width:0.621136"
       d="M 8.4666667,13.221632 6.9302042,14.898215 H 8.4666667 10.003129 Z" />
    <path
       id="path921"
       style="fill:#000000;fill-opacity:1;stroke:none;stroke-width:0.621136"
       d="M 7.0381753,2.2122397 8.4666667,3.8293768 9.8951583,2.2122397 H 8.4666667 Z" />
    <path
       id="path958"
       style="fill:#000000;fill-opacity:1;stroke:none;stroke-width:0.11738;stroke-miterlimit:4;stroke-dasharray:none;stroke-opacity:1"
       d="M 27.675781 41.71875 L 30.892578 43.289062 L 26.089844 43.267578 L 20.980469 47.224609 L 21.373047 49.478516 L 26.693359 45.548828 L 32 45.548828 L 37.306641 45.548828 L 42.626953 49.478516 L 43.019531 47.224609 L 37.910156 43.267578 L 33.107422 43.289062 L 36.324219 41.71875 L 35.826172 41.71875 L 32 41.71875 L 28.173828 41.71875 L 27.675781 41.71875 z "
       transform="scale(0.26458333)" />
    <path
       style="fill:#858585;fill-opacity:1;stroke:none;stroke-width:0.621136"
       d="M 4.9499687,3.643322 5.8225054,4.6237001 6.6264156,3.643322 Z"
       id="path978" />
    <path
       style="fill:#858585;fill-opacity:1;stroke:none;stroke-width:0.621136"
       d="M 11.983365,3.643322 11.110828,4.6237001 10.306918,3.643322 Z"
       id="path978-4" />
    <path
       style="fill:#000000;fill-opacity:1;stroke:#000000;stroke-width:0.15875;stroke-miterlimit:4;stroke-dasharray:none;stroke-opacity:1;stroke-linejoin:miter;stroke-linecap:round"
       d="m 4.6460512,6.2903437 v 0.9984344 h 1.3485499 c 0,0 0.5684503,0.7070972 0.6169765,0.7140294 0.048526,0.00694 0.8041493,-0.7140294 0.8041493,-0.7140294 l -0.00693,-0.4783296 0.2218345,-0.1455788 -0.00693,-0.374526 z"
       id="path1014" />
    <path
       style="fill:#000000;fill-opacity:1;stroke:#000000;stroke-width:0.15875;stroke-miterlimit:4;stroke-dasharray:none;stroke-opacity:1;stroke-linejoin:miter;stroke-linecap:round"
       d="m 12.287283,6.2903437 v 0.9984344 h -1.348551 c 0,0 -0.56845,0.7070972 -0.616976,0.7140294 -0.04852,0.00694 -0.8041489,-0.7140294 -0.8041489,-0.7140294 L 9.5245371,6.8104485 9.302703,6.6648697 9.309633,6.2903437 Z"
       id="path1014-7" />
    <path
       style="fill:#000000;fill-opacity:1;stroke:none;stroke-width:0.079375;stroke-linecap:round;stroke-miterlimit:4;stroke-dasharray:none;stroke-opacity:1"
       d="M 7.1850912,10.546126 7.5861003,11.195182 7.0279948,11.13317 Z"
       id="path1150" />
    <path
       style="fill:#000000;fill-opacity:1;stroke:none;stroke-width:0.079375;stroke-linecap:round;stroke-miterlimit:4;stroke-dasharray:none;stroke-opacity:1"
       d="m 9.7482422,10.546126 -0.401009,0.649056 0.558105,-0.06201 z"
       id="path1150-6" />
    <path
       style="fill:none;stroke-width:0.52916667;stroke-linejoin:round;stroke-miterlimit:4;stroke-dasharray:none;stroke:#000000;stroke-opacity:1;stroke-linecap:round"
       d="M 3.783277,10.822009 5.5191157,9.9390855 4.6070586,8.5125345 4.0457924,8.8399394"
       id="path858" />
    <path
       style="fill:none;stroke:#000000;stroke-width:0.529167;stroke-linecap:round;stroke-linejoin:round;stroke-miterlimit:4;stroke-dasharray:none;stroke-opacity:1"
       d="M 13.150056,10.822009 11.414217,9.939086 12.326274,8.5125349 12.88754,8.8399398"
       id="path858-8" />
  </g>
</svg>
