<svg xmlns="http://www.w3.org/2000/svg" xmlns:svg="http://www.w3.org/2000/svg" id="svg4846" width="64" height="64" version="1.1" viewBox="0 0 16.933 16.933"><metadata id="metadata4843"/><g id="layer1" transform="translate(0,-280.06665)"><path style="display:inline;opacity:1;vector-effect:none;fill:#fff;fill-opacity:1;fill-rule:evenodd;stroke:#000;stroke-width:.5291667;stroke-linecap:butt;stroke-linejoin:round;stroke-miterlimit:4;stroke-dasharray:none;stroke-dashoffset:0;stroke-opacity:1" id="path1522" d="m 2.1166667,281.78644 v 2.11667 h 1.0583334 v 1.5875 l -1.0583334,1.05833 v 7.67292 c 0,0 -7.9e-6,1.05833 1.0583334,1.05833 h 5.2916668 5.2916671 c 1.058341,0 1.058333,-1.05833 1.058333,-1.05833 v -7.67292 l -1.058333,-1.05833 v -1.5875 h 1.058333 v -2.11667 H 6.8791669 Z"/><path style="display:inline;opacity:1;vector-effect:none;fill:#d5d5d5;fill-opacity:1;fill-rule:evenodd;stroke:#000;stroke-width:.5291667;stroke-linecap:butt;stroke-linejoin:round;stroke-miterlimit:4;stroke-dasharray:none;stroke-dashoffset:0;stroke-opacity:1" id="path1520" d="m 12.964582,281.78644 v 7.9375 c 0,0 0,1.5875 -1.05833,1.5875 -1.058339,0 -1.058339,-1.5875 -1.058339,-1.5875 v -5.82083 H 9.5250027 v 1.85208 c 0,0 0,0.79375 -1.0583403,0.79375 -1.0583299,0 -1.0583299,-0.79375 -1.0583299,-0.79375 v -2.64583 l -0.5291701,-0.52917 v -0.79375 z"/><path style="display:inline;opacity:1;vector-effect:none;fill:#d5d5d5;fill-opacity:1;fill-rule:evenodd;stroke:none;stroke-width:.26458332;stroke-linecap:butt;stroke-linejoin:miter;stroke-miterlimit:4;stroke-dasharray:none;stroke-dashoffset:0;stroke-opacity:1" id="path1540" d="m 8.2020823,290.78228 v 2.64583 H 7.1437524 l -0.5291699,-0.52917 v -0.79375 h -0.79375 v 2.11667 H 5.2916624 v -2.11667 l 1.3229201,-1.32291 z"/><path style="display:inline;opacity:1;vector-effect:none;fill:#d5d5d5;fill-opacity:1;fill-rule:evenodd;stroke:none;stroke-width:.26458332;stroke-linecap:butt;stroke-linejoin:miter;stroke-miterlimit:4;stroke-dasharray:none;stroke-dashoffset:0;stroke-opacity:1" id="path1542" d="m 6.3500023,290.78228 v -0.52917 H 5.0270825 l -0.5291701,0.52917 v 0.52916 h 0.5291701 v -0.52916 z"/><path style="display:inline;opacity:1;vector-effect:none;fill:#d5d5d5;fill-opacity:1;fill-rule:evenodd;stroke:none;stroke-width:.26458332;stroke-linecap:butt;stroke-linejoin:miter;stroke-miterlimit:4;stroke-dasharray:none;stroke-dashoffset:0;stroke-opacity:1" id="path1544" d="M 6.3500023,289.19478 H 5.8208325 l -0.5291701,-0.52917 v -1.32292 h 0.5291701 v 1.32292 h 0.5291698 z"/><path style="display:inline;opacity:1;vector-effect:none;fill:#d5d5d5;fill-opacity:1;fill-rule:evenodd;stroke:none;stroke-width:.26458332;stroke-linecap:butt;stroke-linejoin:miter;stroke-miterlimit:4;stroke-dasharray:none;stroke-dashoffset:0;stroke-opacity:1" id="path1546" d="m 6.6145825,289.98853 v -0.52917 l 1.3229199,-1.32292 h 1.3229103 l 1.3229203,1.32292 v 0.52917 z"/><path style="display:inline;opacity:1;vector-effect:none;fill:#d5d5d5;fill-opacity:1;fill-rule:evenodd;stroke:none;stroke-width:.26458332;stroke-linecap:butt;stroke-linejoin:miter;stroke-miterlimit:4;stroke-dasharray:none;stroke-dashoffset:0;stroke-opacity:1" id="path1548" d="M 7.9375024,287.87186 H 7.4083325 v -1.05833 h 0.5291699 z"/><path style="display:inline;opacity:1;vector-effect:none;fill:#d5d5d5;fill-opacity:1;fill-rule:evenodd;stroke:none;stroke-width:.26458332;stroke-linecap:butt;stroke-linejoin:miter;stroke-miterlimit:4;stroke-dasharray:none;stroke-dashoffset:0;stroke-opacity:1" id="path1540-5" d="m 8.9958327,290.78228 v 2.64583 h 1.0583303 l 0.52917,-0.52917 v -0.79375 h 0.79375 v 2.11667 h 0.529169 v -2.11667 l -1.322919,-1.32291 z"/><path style="display:inline;opacity:1;vector-effect:none;fill:#d5d5d5;fill-opacity:1;fill-rule:evenodd;stroke:none;stroke-width:.26458332;stroke-linecap:butt;stroke-linejoin:miter;stroke-miterlimit:4;stroke-dasharray:none;stroke-dashoffset:0;stroke-opacity:1" id="path1548-6" d="m 9.2604127,287.87186 h 0.52917 v -1.05833 h -0.52917 z"/></g></svg>