<svg xmlns="http://www.w3.org/2000/svg" xmlns:svg="http://www.w3.org/2000/svg" id="svg8" width="64" height="64" version="1.1" viewBox="0 0 16.933 16.933"><metadata id="metadata5"/><g id="layer1" transform="translate(0,-280.06666)" style="display:inline"><path style="fill:#fff;stroke:#000;stroke-width:.5291667;stroke-linecap:round;stroke-linejoin:round;stroke-miterlimit:4;stroke-dasharray:none;stroke-opacity:1;fill-opacity:1" id="path1359" d="m 14.277072,293.20469 v 1.63703 H 9.0152017 c 0,0 -0.80682,-0.58465 -0.80682,-0.98222 0,-0.39756 0,-1.39147 0,-1.39147 h 5.6360503 z"/><path style="fill:#d0d0d0;fill-opacity:1;stroke:#000;stroke-width:.5291667;stroke-linecap:round;stroke-linejoin:round;stroke-miterlimit:4;stroke-dasharray:none;stroke-opacity:1" id="path1271" d="m 15.609902,289.05363 c 0,0.22217 -0.3154,0.65474 -0.60772,0.65474 h -1.18132 l -0.39739,-1.19269 0.39739,-1.19269 h 1.18132 c 0.29232,0 0.60772,0.43257 0.60772,0.65474 v 0.53795 z"/><path style="fill:#d0d0d0;fill-opacity:1;stroke:#000;stroke-width:.5291667;stroke-linecap:round;stroke-linejoin:round;stroke-miterlimit:4;stroke-dasharray:none;stroke-opacity:1" id="path1263" d="M 14.277072,293.20469 V 282.22493 H 8.9684317 c -0.93544,0 -1.12253,1.98781 -1.12253,2.64262 v 6.59488 c 0,0.37418 0.3274,1.05237 0.3274,1.05237 h 1.19269 l 0.7249703,0.72497 h 1.02899 l 0.67819,-0.67819 h 0.42095 l 0.64312,0.64311 z"/><path style="fill:#d0d0d0;fill-opacity:1;stroke:#000;stroke-width:.5291667;stroke-linecap:round;stroke-linejoin:round;stroke-miterlimit:4;stroke-dasharray:none;stroke-opacity:1" id="path1291" d="m 7.8574017,289.80191 h -2.30322 v -1.28623 -1.28623 h 2.30322 v 1.28623 z"/><path style="display:inline;fill:#fff;fill-opacity:1;stroke:#000;stroke-width:.5291667;stroke-linecap:round;stroke-linejoin:round;stroke-miterlimit:4;stroke-dasharray:none;stroke-opacity:1" id="path1291-9" d="m 5.5541817,289.80191 h -1.41025 v -1.28623 -1.28623 h 1.41025 v 1.28623 z"/><path style="display:inline;fill:#fff;fill-opacity:1;stroke:#000;stroke-width:.5291667;stroke-linecap:round;stroke-linejoin:round;stroke-miterlimit:4;stroke-dasharray:none;stroke-opacity:1" id="path1291-9-0" d="m 4.1439317,289.80191 h -1.41025 v -1.28623 -1.28623 h 1.41025 v 1.28623 z"/><path style="display:inline;fill:#fff;fill-opacity:1;stroke:#000;stroke-width:.5291667;stroke-linecap:round;stroke-linejoin:round;stroke-miterlimit:4;stroke-dasharray:none;stroke-opacity:1" id="path1291-9-3" d="m 2.7336817,289.80191 h -0.97307 l -0.43718,-0.41341 v -0.87282 -0.83974 l 0.43718,-0.44649 h 0.97307 v 1.28623 z"/><path style="fill:#000;stroke:none;stroke-width:.26458335px;stroke-linecap:butt;stroke-linejoin:miter;stroke-opacity:1" id="path858" d="m 10.909406,285.43439 c 0,0 0.05846,2.24507 -0.210475,2.57247 -0.26894,0.32741 -2.163213,0.90037 -2.1982923,1.13423 -0.035079,0.23386 0.3507915,1.35639 0.5495729,1.36809 0.1987818,0.0117 4.4199704,-0.0234 4.6304454,-0.0468 0.210474,-0.0234 -0.760048,-5.09816 -1.017295,-5.15663 -0.257247,-0.0585 -0.187089,2.16321 -0.350791,2.24507 -0.163703,0.0818 -0.584652,-0.0234 -0.678197,-0.23387 -0.09354,-0.21047 -0.374177,-1.5084 -0.724968,-1.88258 z"/><path style="fill:#fff;stroke:none;stroke-width:.26458335px;stroke-linecap:butt;stroke-linejoin:miter;stroke-opacity:1;fill-opacity:1" id="path860" d="m 11.939322,288.30181 c -0.289388,0 -1.521354,0.51264 -1.5875,0.77722 -0.06615,0.26458 0.39113,0.569 0.636655,0.52916 0.559081,-0.0907 0.494722,-0.8478 0.950845,-1.30638 z"/></g></svg>