<svg xmlns="http://www.w3.org/2000/svg" xmlns:svg="http://www.w3.org/2000/svg" id="svg8" width="64" height="64" version="1.1" viewBox="0 0 16.933 16.933"><metadata id="metadata5"/><g id="layer1" transform="translate(0,-280.06666)" style="display:inline"><path style="fill:#4d4d4d;fill-opacity:1;stroke:#000;stroke-width:.5291667;stroke-linecap:round;stroke-linejoin:round;stroke-miterlimit:4;stroke-dasharray:none;stroke-opacity:1" id="path941" d="m 11.062523,289.83839 -0.947137,-0.68989 -1.905965,-1.57856 0.526187,-0.74836 2.256756,-0.5028 1.099146,0.68989 z"/><path style="fill:#000;stroke:none;stroke-width:.5291667;stroke-linecap:round;stroke-linejoin:round;stroke-miterlimit:4;stroke-dasharray:none;stroke-opacity:1" id="path937" d="m 4.7132014,286.69296 v 2.36199 l 3.9756343,-0.51449 0.3507912,-1.80073 -1.660412,-0.72497 z"/><path style="fill:#fff;fill-opacity:1;stroke:#000;stroke-width:.5291667;stroke-linecap:round;stroke-linejoin:round;stroke-miterlimit:4;stroke-dasharray:none;stroke-opacity:1" id="path935" d="m 8.5455961,285.08224 5.0777029,-3.37052 0.420949,0.39757 -2.689399,3.695 -2.5023108,0.35079 z"/><path style="fill:#d0d0d0;fill-opacity:1;stroke:#000;stroke-width:.5291667;stroke-linecap:round;stroke-linejoin:round;stroke-miterlimit:4;stroke-dasharray:none;stroke-opacity:1" id="path927" d="m 14.406653,295.35493 0.877058,-9.57403 -1.145918,-0.14031 -0.701583,9.19073 0.397564,0.44433 z"/><path style="fill:#d0d0d0;fill-opacity:1;stroke:#000;stroke-width:.5291667;stroke-linecap:round;stroke-linejoin:round;stroke-miterlimit:4;stroke-dasharray:none;stroke-opacity:1" id="path929" d="m 13.43621,294.83132 -3.133735,-3.06358 1.61364,-6.33763 2.221678,0.21048 z"/><path style="fill:#fff;fill-opacity:1;stroke:#000;stroke-width:.5291667;stroke-linecap:round;stroke-linejoin:round;stroke-miterlimit:4;stroke-dasharray:none;stroke-opacity:1" id="path931" d="m 10.162159,287.53486 0.514493,0.46772 -0.09354,1.63703 -0.7015815,0.30402 H 8.0807976 l -3.9522484,1.56686 H 3.0761754 l -1.4265511,-1.73057 v -0.81851 l 6.4779452,-1.02899 0.53788,-0.35079 z"/><path style="fill:#fff;fill-opacity:1;stroke:#000;stroke-width:.5291667;stroke-linecap:round;stroke-linejoin:round;stroke-miterlimit:4;stroke-dasharray:none;stroke-opacity:1" id="path933" d="m 8.6654497,287.58163 2.2918353,-0.51449 0.397564,-1.26285 -0.432643,-0.43264 h -0.596345 l -0.3449445,0.34494 H 9.1799434 L 8.5455959,285.08224 H 6.6542465 l -1.5434816,0.37126 -0.7015827,0.65481 v 1.12253 h 1.6837981 l 1.2394626,-0.37418 h 0.7249684 z"/><circle style="opacity:1;fill:#000;fill-opacity:1;stroke:none;stroke-width:.5291667;stroke-linecap:round;stroke-linejoin:round;stroke-miterlimit:4;stroke-dasharray:none;stroke-dashoffset:0;stroke-opacity:1" id="path939" cx="9.479" cy="288.616" r=".521"/></g></svg>