<svg xmlns="http://www.w3.org/2000/svg" xmlns:svg="http://www.w3.org/2000/svg" id="svg8" width="64" height="64" version="1.1" viewBox="0 0 16.933 16.933"><metadata id="metadata5"/><g id="layer1" transform="translate(0,-280.06666)" style="display:inline"><path style="fill:#d0d0d0;fill-opacity:1;stroke:#000;stroke-width:.5291667;stroke-linecap:round;stroke-linejoin:round;stroke-miterlimit:4;stroke-dasharray:none;stroke-opacity:1" id="path863" d="M 13.942442,285.37692 V 284.732 h 0.611849 l 1.827279,1.82728 -2.521225,1.45563 z"/><path style="fill:#d0d0d0;fill-opacity:1;stroke:#000;stroke-width:.5291667;stroke-linecap:round;stroke-linejoin:round;stroke-miterlimit:4;stroke-dasharray:none;stroke-opacity:1" id="path861" d="m 2.346662,282.56464 c 0,-0.64896 1.2102298,-1.61948 2.321069,-1.61948 1.1108388,0 2.1281335,0.64311 2.7946369,0.64311 0.6665034,0 0.9588294,0.0351 0.023386,0.72497 -0.9354434,0.68989 -1.5084026,1.3447 -2.5256972,1.3447 -1.0172946,0 -1.4148581,-0.67819 -1.8591938,-0.70158 -0.4443357,-0.0234 -0.7542014,-0.39172 -0.7542009,-0.39172 z"/><path style="fill:#fff;fill-opacity:1;stroke:#000;stroke-width:.5291667;stroke-linecap:round;stroke-linejoin:round;stroke-miterlimit:4;stroke-dasharray:none;stroke-opacity:1" id="path859" d="m 3.0540909,284.38876 v -1.06407 l 0.3507915,-0.35079 v -0.40926 H 2.346662 c 0,0 -0.7600478,0.33325 -0.7600478,0.76005 0,0.4268 0.8535921,1.47917 0.8535921,1.47917 z"/><path style="fill:#fff;fill-opacity:1;stroke:#000;stroke-width:.5291667;stroke-linecap:round;stroke-linejoin:round;stroke-miterlimit:4;stroke-dasharray:none;stroke-opacity:1" id="path843" d="m 13.942442,286.84867 v 6.7138 H 6.8152278 l 2e-7,-6.7138 z"/><path style="fill:#d0d0d0;fill-opacity:1;stroke:none;stroke-width:.5291667;stroke-linecap:round;stroke-linejoin:round;stroke-miterlimit:4;stroke-dasharray:none;stroke-opacity:1" id="path847" d="M 12.162971,293.30464 H 8.1216082 v -5.52993 h 4.0413628 z"/><path style="fill:#858585;fill-opacity:1;stroke:#000;stroke-width:.5291667;stroke-linecap:round;stroke-linejoin:round;stroke-miterlimit:4;stroke-dasharray:none;stroke-opacity:1" id="path841" d="m 13.942442,285.37692 v 1.47175 H 6.815228 v -1.47175 z"/><path style="fill:#d0d0d0;fill-opacity:1;stroke:#000;stroke-width:.5291667;stroke-linecap:round;stroke-linejoin:round;stroke-miterlimit:4;stroke-dasharray:none;stroke-opacity:1" id="path839" d="m 8.2808808,284.68693 c 0,0 1.8475012,0 2.2801432,0 0.432643,0 1.601947,-0.72497 1.601947,-0.72497 l 0.479415,0.19878 c 0,0 0.304019,4.08087 -1.192691,4.06918 -1.4967091,-0.0117 -2.8063297,-0.51449 -2.8063297,-0.51449 l -0.8535922,-1.59026 z"/><path style="fill:#fff;fill-opacity:1;stroke:#000;stroke-width:.5291667;stroke-linecap:round;stroke-linejoin:round;stroke-miterlimit:4;stroke-dasharray:none;stroke-opacity:1" id="path835" d="m 12.162971,283.96196 c 0,-0.3391 0.444336,-0.95883 0.701583,-0.95883 0.257247,0 0.397563,0.1637 0.397563,0.76005 0,0.59634 0,2.93495 0,2.93495 0,1.12253 -0.853592,1.89428 -1.800729,1.89428 -0.947136,0 -1.7890352,0 -2.4204595,0 -0.6314243,0 -1.8241145,-1.36809 -1.8241145,-2.23338 0,-0.86528 0,-1.8358 0,-1.98781 0,-0.15201 0.2221678,-0.39757 0.4209495,-0.39757 0.1987817,0 0.4911077,0 0.6665034,0 0.1753956,0 0.3589725,0.12099 0.3589725,0.62176 0,0.50078 0,1.82209 0,2.06764 0,0.24556 0.5296987,0.8536 0.892183,0.8536 0.3624843,0 1.5084026,0 1.8124216,0 0.304019,0 0.795127,-0.68989 0.795127,-1.08746 0,-0.39756 0,-2.46723 0,-2.46723 z"/><path style="fill:#858585;fill-opacity:1;stroke:#000;stroke-width:.5291667;stroke-linecap:round;stroke-linejoin:round;stroke-miterlimit:4;stroke-dasharray:none;stroke-opacity:1" id="path851" d="m 8.3200457,293.85186 v 1.02526 H 6.0793556 l -1.3807943,0.47956 v 0.49609 l 0.2687174,0.26872 h 4.254004 4.2540043 l 0.268717,-0.26872 v -0.49609 l -1.380794,-0.47956 h -2.24069 v -1.02526 H 9.2212827 Z"/><path style="fill:#d0d0d0;fill-opacity:1;stroke:#000;stroke-width:.5291667;stroke-linecap:round;stroke-linejoin:round;stroke-miterlimit:4;stroke-dasharray:none;stroke-opacity:1" id="path853" d="M 6.815228,285.65745 H 5.6382534 l -1.1926904,0.64312 v 1.54348 l 2.369665,1.14592 z"/><path style="fill:#fff;fill-opacity:1;stroke:#000;stroke-width:.5291667;stroke-linecap:round;stroke-linejoin:round;stroke-miterlimit:4;stroke-dasharray:none;stroke-opacity:1" id="path855" d="M 5.0769874,286.20703 3.7673666,284.95587 V 284.3946 H 2.8903884 l -2.05212888,1.72473 v 0.40341 l 0.37710058,0.3771 1.1488414,-0.78636 H 2.7032997 2.4811319 l -1.92935196,2.03459 v 0.37418 l 1.54348156,0.80682 h 0.3157122 l 1.2277694,-1.8475 h 0.3624843 l 0.9822155,-0.98222 z"/><circle style="opacity:1;fill:#000;fill-opacity:1;stroke:none;stroke-width:.5291667;stroke-linecap:round;stroke-linejoin:round;stroke-miterlimit:4;stroke-dasharray:none;stroke-dashoffset:0;stroke-opacity:1" id="path857" cx="3.715" cy="286.499" r=".421"/></g></svg>