<?xml version="1.0" encoding="UTF-8" standalone="no"?>
<!-- Created with Inkscape (http://www.inkscape.org/) -->

<svg
   xmlns:dc="http://purl.org/dc/elements/1.1/"
   xmlns:cc="http://creativecommons.org/ns#"
   xmlns:rdf="http://www.w3.org/1999/02/22-rdf-syntax-ns#"
   xmlns:svg="http://www.w3.org/2000/svg"
   xmlns="http://www.w3.org/2000/svg"
   xmlns:sodipodi="http://sodipodi.sourceforge.net/DTD/sodipodi-0.dtd"
   xmlns:inkscape="http://www.inkscape.org/namespaces/inkscape"
   width="64"
   height="64"
   viewBox="0 0 16.933333 16.933334"
   version="1.1"
   id="svg8"
   inkscape:version="0.92.4 (5da689c313, 2019-01-14)"
   sodipodi:docname="MHRise Item Icon-Palamute Saddle Yellow.svg">
  <defs
     id="defs2" />
  <sodipodi:namedview
     id="base"
     pagecolor="#ffffff"
     bordercolor="#666666"
     borderopacity="1.0"
     inkscape:pageopacity="0.0"
     inkscape:pageshadow="2"
     inkscape:zoom="2.8284271"
     inkscape:cx="18.959341"
     inkscape:cy="2.7365423"
     inkscape:document-units="px"
     inkscape:current-layer="layer1"
     showgrid="false"
     units="px"
     showguides="true"
     inkscape:guide-bbox="true"
     inkscape:snap-global="true"
     inkscape:window-width="1304"
     inkscape:window-height="745"
     inkscape:window-x="-8"
     inkscape:window-y="-8"
     inkscape:window-maximized="1" />
  <metadata
     id="metadata5">
    <rdf:RDF>
      <cc:Work
         rdf:about="">
        <dc:format>image/svg+xml</dc:format>
        <dc:type
           rdf:resource="http://purl.org/dc/dcmitype/StillImage" />
        <dc:title></dc:title>
      </cc:Work>
    </rdf:RDF>
  </metadata>
  <g
     inkscape:label="Layer 1"
     inkscape:groupmode="layer"
     id="layer1"
     transform="translate(0,-280.06666)"
     style="display:inline">
    <path
       style="fill:#d0d0d0;fill-opacity:1;stroke:#000000;stroke-width:0.5291667;stroke-linecap:round;stroke-linejoin:round;stroke-miterlimit:4;stroke-dasharray:none;stroke-opacity:1"
       d="m 2.570561,283.05153 c 0,0 1.1575521,0 1.7859375,0 0.6283854,0 1.4386719,1.04179 2.414323,1.04179 0.975651,0 2.778125,-0.46302 3.2411465,-0.46302 0.46302,0 1.934765,-1.32291 2.89388,-1.32291 0.959114,0 1.256771,0 1.256771,0 l -0.545704,3.75377 -1.852083,2.16628 -1.670182,1.17409 -1.8107428,0.80201 -3.1171223,-1.36425 -1.9182292,-1.38907 -0.7772135,-2.26549 z"
       id="path997"
       inkscape:connector-curvature="0" />
    <path
       style="fill:#d0d0d0;fill-opacity:1;stroke:#000000;stroke-width:0.5291667;stroke-linecap:round;stroke-linejoin:round;stroke-miterlimit:4;stroke-dasharray:none;stroke-opacity:1"
       d="m 8.2839075,290.20354 -0.3141928,0.10749 v 0.75241 H 7.473621 v 1.19063 c -0.8020185,0 -2.1171835,1.3569 -2.1171835,2.98224 v 0.57309 l 0.298173,0.29818 h 2.629297 2.6292965 l 0.298173,-0.29818 v -0.57309 c 0,-1.62534 -1.3151643,-2.98224 -2.1171831,-2.98224 v -1.19063 H 8.5981002 v -0.75241 z"
       id="path991"
       inkscape:connector-curvature="0" />
    <path
       style="fill:#000000;stroke:none;stroke-width:0.5291667;stroke-linecap:round;stroke-linejoin:round;stroke-miterlimit:4;stroke-dasharray:none;stroke-opacity:1"
       d="m 8.2839075,293.42402 c -0.8024908,0 -1.3725261,0.65452 -1.3725261,0.92346 v 0.81855 h 1.3725261 1.372526 v -0.81855 c 0,-0.26894 -0.5700353,-0.92346 -1.372526,-0.92346 z"
       id="path993"
       inkscape:connector-curvature="0" />
    <circle
       style="opacity:1;fill:#000000;fill-opacity:1;stroke:none;stroke-width:0.5291667;stroke-linecap:round;stroke-linejoin:round;stroke-miterlimit:4;stroke-dasharray:none;stroke-dashoffset:0;stroke-opacity:1"
       id="path995"
       cx="8.2839079"
       cy="292.39462"
       r="0.40927735" />
    <path
       style="fill:#ffffff;fill-opacity:1;stroke:#000000;stroke-width:0.5291667;stroke-linecap:round;stroke-linejoin:round;stroke-miterlimit:4;stroke-dasharray:none;stroke-opacity:1"
       d="m 1.7665538,285.21535 c 0,1.54348 1.0056017,5.33203 6.5948758,5.33203 5.5892744,0 6.8053504,-6.17393 6.8053504,-7.71741 v -1.07576 c 0,-0.54958 -0.292326,-0.79513 -0.619731,-0.79513 -0.327405,0 -0.935444,0.57296 -0.935444,1.5084 0,0.93545 -0.526186,6.62996 -5.4138782,6.62996 -4.8876915,0 -5.0046219,-4.49013 -5.0046219,-5.02801 0,-0.53788 -0.4209495,-1.37978 -0.9237503,-1.37978 -0.3787774,0 -0.5028009,0.35079 -0.5028009,0.74836 0,0.39756 3e-7,1.77734 1e-7,1.77734 z"
       id="path985"
       inkscape:connector-curvature="0"
       sodipodi:nodetypes="csssssssscc" />
    <circle
       style="opacity:1;fill:#000000;fill-opacity:1;stroke:none;stroke-width:0.5291667;stroke-linecap:round;stroke-linejoin:round;stroke-miterlimit:4;stroke-dasharray:none;stroke-dashoffset:0;stroke-opacity:1"
       id="path999"
       cx="4.3916416"
       cy="284.07529"
       r="0.52034038" />
    <circle
       style="display:inline;opacity:1;fill:#000000;fill-opacity:1;stroke:none;stroke-width:0.5291667;stroke-linecap:round;stroke-linejoin:round;stroke-miterlimit:4;stroke-dasharray:none;stroke-dashoffset:0;stroke-opacity:1"
       id="path999-3"
       cx="4.9270058"
       cy="285.81311"
       r="0.52034038" />
    <circle
       style="display:inline;opacity:1;fill:#000000;fill-opacity:1;stroke:none;stroke-width:0.5291667;stroke-linecap:round;stroke-linejoin:round;stroke-miterlimit:4;stroke-dasharray:none;stroke-dashoffset:0;stroke-opacity:1"
       id="path999-9"
       cx="6.0184121"
       cy="287.22699"
       r="0.52034038" />
    <circle
       style="display:inline;opacity:1;fill:#000000;fill-opacity:1;stroke:none;stroke-width:0.5291667;stroke-linecap:round;stroke-linejoin:round;stroke-miterlimit:4;stroke-dasharray:none;stroke-dashoffset:0;stroke-opacity:1"
       id="path999-8"
       cx="7.7630086"
       cy="287.78922"
       r="0.52034038" />
    <circle
       style="display:inline;opacity:1;fill:#000000;fill-opacity:1;stroke:none;stroke-width:0.5291667;stroke-linecap:round;stroke-linejoin:round;stroke-miterlimit:4;stroke-dasharray:none;stroke-dashoffset:0;stroke-opacity:1"
       id="path999-81"
       cx="9.6440315"
       cy="287.47916"
       r="0.52034038" />
    <circle
       style="display:inline;opacity:1;fill:#000000;fill-opacity:1;stroke:none;stroke-width:0.5291667;stroke-linecap:round;stroke-linejoin:round;stroke-miterlimit:4;stroke-dasharray:none;stroke-dashoffset:0;stroke-opacity:1"
       id="path999-4"
       cx="11.045497"
       cy="286.3299"
       r="0.52034038" />
    <circle
       style="display:inline;opacity:1;fill:#000000;fill-opacity:1;stroke:none;stroke-width:0.5291667;stroke-linecap:round;stroke-linejoin:round;stroke-miterlimit:4;stroke-dasharray:none;stroke-dashoffset:0;stroke-opacity:1"
       id="path999-32"
       cx="11.905393"
       cy="284.83334"
       r="0.52034038" />
  </g>
</svg>
