<svg xmlns="http://www.w3.org/2000/svg" xmlns:svg="http://www.w3.org/2000/svg" id="svg8" width="64" height="64" version="1.1" viewBox="0 0 16.933 16.933"><metadata id="metadata5"/><g id="layer1" transform="translate(0,-280.06666)" style="display:inline"><path style="fill:#d0d0d0;fill-opacity:1;stroke:none;stroke-width:.26458335px;stroke-linecap:butt;stroke-linejoin:miter;stroke-opacity:1" id="path1259" d="m 15.362367,285.19297 c 0,0 -0.39687,2.64624 -2.19934,3.05924 -1.80248,0.413 -6.4161502,0.413 -6.4161502,0.413 l -5e-5,-3.37303 3.8695302,-0.0165 c 0,0 2.18281,-0.57877 2.91042,-1.05833 0.7276,-0.47956 1.83554,-0.67799 1.83554,-0.67799 z"/><path style="fill:#fff;stroke:none;stroke-width:.26458335px;stroke-linecap:butt;stroke-linejoin:miter;stroke-opacity:1;fill-opacity:1" id="path1261" d="m 15.362367,285.19297 0.006,1.53119 -0.91206,2.45554 -1.8475,2.23337 -1.82412,0.70159 -4.0382602,-0.0591 0.004,-4.12705 h 4.3030402 c 1.21608,0 4.00952,-1.78786 4.30829,-2.73558 z"/><path style="fill:#d0d0d0;fill-opacity:1;stroke:#000;stroke-width:.5291667;stroke-linecap:round;stroke-linejoin:round;stroke-miterlimit:4;stroke-dasharray:none;stroke-opacity:1" id="path1196" d="m 5.4735668,289.69088 h -1.50482 v -1.02578 -1.02577 h 1.50482 v 1.02577 z"/><path style="fill:#d0d0d0;fill-opacity:1;stroke:#000;stroke-width:.5291667;stroke-linecap:round;stroke-linejoin:round;stroke-miterlimit:4;stroke-dasharray:none;stroke-opacity:1" id="path1198" d="m 3.9687468,289.69088 h -1.22369 v -1.02578 -1.02577 h 1.22369 v 1.02577 z"/><path style="fill:#d0d0d0;fill-opacity:1;stroke:#000;stroke-width:.5291667;stroke-linecap:round;stroke-linejoin:round;stroke-miterlimit:4;stroke-dasharray:none;stroke-opacity:1" id="path1200" d="m 2.7450568,289.69088 h -0.83509 l -0.339,-0.38034 v -0.64544 -0.64543 l 0.339,-0.38034 h 0.83509 v 1.02577 z"/><path style="fill:none;stroke:#000;stroke-width:.5291667;stroke-linecap:round;stroke-linejoin:round;stroke-miterlimit:4;stroke-dasharray:none;stroke-opacity:1" id="path1202" d="m 6.7468768,288.66521 v 3.39039 c 0,0 1.57096,0 3.7868502,0 2.21588,0 4.82864,-2.86081 4.82864,-6.26732 v -2.24896 c 0,0 -0.13229,0 -0.49609,0 -0.3638,0 -2.34818,1.75286 -4.81211,1.75286 H 6.7468768 Z"/><path style="fill:#858585;fill-opacity:1;stroke:#000;stroke-width:.5291667;stroke-linecap:round;stroke-linejoin:round;stroke-miterlimit:4;stroke-dasharray:none;stroke-opacity:1" id="path1194" d="m 6.7468768,293.52734 h -1.27331 v -4.86224 -4.86223 h 1.27331 v 4.86223 z"/><path style="fill:#000;stroke:none;stroke-width:.26458335px;stroke-linecap:butt;stroke-linejoin:miter;stroke-opacity:1" id="path858" d="m 10.288952,285.72004 c 0,0 0.05846,2.24507 -0.210475,2.57247 -0.2689403,0.32741 -2.163213,0.90037 -2.1982923,1.13423 -0.035079,0.23386 0.3507915,1.35639 0.5495729,1.36809 0.1987818,0.0117 4.4199704,-0.0234 4.6304454,-0.0468 0.210474,-0.0234 -0.760048,-5.09816 -1.017295,-5.15663 -0.257247,-0.0585 -0.187089,2.16321 -0.350791,2.24507 -0.163703,0.0818 -0.584652,-0.0234 -0.678197,-0.23387 -0.09354,-0.21047 -0.374177,-1.5084 -0.724968,-1.88258 z"/><path style="fill:#fff;stroke:none;stroke-width:.26458335px;stroke-linecap:butt;stroke-linejoin:miter;stroke-opacity:1;fill-opacity:1" id="path860" d="m 11.318868,288.58746 c -0.289388,0 -1.5213542,0.51264 -1.5875,0.77722 -0.066146,0.26458 0.39113,0.569 0.636655,0.52916 0.559081,-0.0907 0.494722,-0.8478 0.950845,-1.30638 z"/></g></svg>