<?xml version="1.0" encoding="UTF-8" standalone="no"?>
<!-- Created with Inkscape (http://www.inkscape.org/) -->

<svg
   xmlns:dc="http://purl.org/dc/elements/1.1/"
   xmlns:cc="http://creativecommons.org/ns#"
   xmlns:rdf="http://www.w3.org/1999/02/22-rdf-syntax-ns#"
   xmlns:svg="http://www.w3.org/2000/svg"
   xmlns="http://www.w3.org/2000/svg"
   xmlns:sodipodi="http://sodipodi.sourceforge.net/DTD/sodipodi-0.dtd"
   xmlns:inkscape="http://www.inkscape.org/namespaces/inkscape"
   width="64"
   height="64"
   viewBox="0 0 16.933333 16.933334"
   version="1.1"
   id="svg8"
   inkscape:version="0.92.4 (5da689c313, 2019-01-14)"
   sodipodi:docname="MHRise Item Icon-Palamute Hammer Yellow.svg">
  <defs
     id="defs2" />
  <sodipodi:namedview
     id="base"
     pagecolor="#ffffff"
     bordercolor="#666666"
     borderopacity="1.0"
     inkscape:pageopacity="0.0"
     inkscape:pageshadow="2"
     inkscape:zoom="4"
     inkscape:cx="5.8818666"
     inkscape:cy="24.930647"
     inkscape:document-units="px"
     inkscape:current-layer="layer1"
     showgrid="false"
     units="px"
     showguides="true"
     inkscape:guide-bbox="true"
     inkscape:snap-global="true"
     inkscape:window-width="1304"
     inkscape:window-height="745"
     inkscape:window-x="-8"
     inkscape:window-y="-8"
     inkscape:window-maximized="1" />
  <metadata
     id="metadata5">
    <rdf:RDF>
      <cc:Work
         rdf:about="">
        <dc:format>image/svg+xml</dc:format>
        <dc:type
           rdf:resource="http://purl.org/dc/dcmitype/StillImage" />
        <dc:title></dc:title>
      </cc:Work>
    </rdf:RDF>
  </metadata>
  <g
     inkscape:label="Layer 1"
     inkscape:groupmode="layer"
     id="layer1"
     transform="translate(0,-280.06666)"
     style="display:inline">
    <path
       style="fill:#ffffff;stroke:#000000;stroke-width:0.5291667;stroke-linecap:round;stroke-linejoin:round;stroke-miterlimit:4;stroke-dasharray:none;stroke-opacity:1;fill-opacity:1"
       d="m 14.277072,293.20469 v 1.63703 H 9.0152017 c 0,0 -0.80682,-0.58465 -0.80682,-0.98222 0,-0.39756 0,-1.39147 0,-1.39147 h 5.6360503 z"
       id="path1359"
       inkscape:connector-curvature="0" />
    <path
       style="fill:#d0d0d0;fill-opacity:1;stroke:#000000;stroke-width:0.5291667;stroke-linecap:round;stroke-linejoin:round;stroke-miterlimit:4;stroke-dasharray:none;stroke-opacity:1"
       d="m 15.609902,289.05363 c 0,0.22217 -0.3154,0.65474 -0.60772,0.65474 h -1.18132 l -0.39739,-1.19269 0.39739,-1.19269 h 1.18132 c 0.29232,0 0.60772,0.43257 0.60772,0.65474 v 0.53795 z"
       id="path1271"
       inkscape:connector-curvature="0" />
    <path
       style="fill:#d0d0d0;fill-opacity:1;stroke:#000000;stroke-width:0.5291667;stroke-linecap:round;stroke-linejoin:round;stroke-miterlimit:4;stroke-dasharray:none;stroke-opacity:1"
       d="M 14.277072,293.20469 V 282.22493 H 8.9684317 c -0.93544,0 -1.12253,1.98781 -1.12253,2.64262 v 6.59488 c 0,0.37418 0.3274,1.05237 0.3274,1.05237 h 1.19269 l 0.7249703,0.72497 h 1.02899 l 0.67819,-0.67819 h 0.42095 l 0.64312,0.64311 z"
       id="path1263"
       inkscape:connector-curvature="0"
       sodipodi:nodetypes="ccssscccccccc" />
    <path
       style="fill:#d0d0d0;fill-opacity:1;stroke:#000000;stroke-width:0.5291667;stroke-linecap:round;stroke-linejoin:round;stroke-miterlimit:4;stroke-dasharray:none;stroke-opacity:1"
       d="m 7.8574017,289.80191 h -2.30322 v -1.28623 -1.28623 h 2.30322 v 1.28623 z"
       id="path1291"
       inkscape:connector-curvature="0" />
    <path
       inkscape:connector-curvature="0"
       style="display:inline;fill:#ffffff;fill-opacity:1;stroke:#000000;stroke-width:0.5291667;stroke-linecap:round;stroke-linejoin:round;stroke-miterlimit:4;stroke-dasharray:none;stroke-opacity:1"
       d="m 5.5541817,289.80191 h -1.41025 v -1.28623 -1.28623 h 1.41025 v 1.28623 z"
       id="path1291-9"
       sodipodi:nodetypes="ccccccc" />
    <path
       inkscape:connector-curvature="0"
       style="display:inline;fill:#ffffff;fill-opacity:1;stroke:#000000;stroke-width:0.5291667;stroke-linecap:round;stroke-linejoin:round;stroke-miterlimit:4;stroke-dasharray:none;stroke-opacity:1"
       d="m 4.1439317,289.80191 h -1.41025 v -1.28623 -1.28623 h 1.41025 v 1.28623 z"
       id="path1291-9-0"
       sodipodi:nodetypes="ccccccc" />
    <path
       inkscape:connector-curvature="0"
       style="display:inline;fill:#ffffff;fill-opacity:1;stroke:#000000;stroke-width:0.5291667;stroke-linecap:round;stroke-linejoin:round;stroke-miterlimit:4;stroke-dasharray:none;stroke-opacity:1"
       d="m 2.7336817,289.80191 h -0.97307 l -0.43718,-0.41341 v -0.87282 -0.83974 l 0.43718,-0.44649 h 0.97307 v 1.28623 z"
       id="path1291-9-3"
       sodipodi:nodetypes="ccccccccc" />
    <path
       style="fill:#000000;stroke:none;stroke-width:0.26458335px;stroke-linecap:butt;stroke-linejoin:miter;stroke-opacity:1"
       d="m 10.909406,285.43439 c 0,0 0.05846,2.24507 -0.210475,2.57247 -0.26894,0.32741 -2.163213,0.90037 -2.1982923,1.13423 -0.035079,0.23386 0.3507915,1.35639 0.5495729,1.36809 0.1987818,0.0117 4.4199704,-0.0234 4.6304454,-0.0468 0.210474,-0.0234 -0.760048,-5.09816 -1.017295,-5.15663 -0.257247,-0.0585 -0.187089,2.16321 -0.350791,2.24507 -0.163703,0.0818 -0.584652,-0.0234 -0.678197,-0.23387 -0.09354,-0.21047 -0.374177,-1.5084 -0.724968,-1.88258 z"
       id="path858"
       inkscape:connector-curvature="0" />
    <path
       style="fill:#ffffff;stroke:none;stroke-width:0.26458335px;stroke-linecap:butt;stroke-linejoin:miter;stroke-opacity:1;fill-opacity:1"
       d="m 11.939322,288.30181 c -0.289388,0 -1.521354,0.51264 -1.5875,0.77722 -0.06615,0.26458 0.39113,0.569 0.636655,0.52916 0.559081,-0.0907 0.494722,-0.8478 0.950845,-1.30638 z"
       id="path860"
       inkscape:connector-curvature="0"
       sodipodi:nodetypes="cssc" />
  </g>
</svg>
