<svg xmlns="http://www.w3.org/2000/svg" xmlns:svg="http://www.w3.org/2000/svg" id="svg8" width="64" height="64" version="1.1" viewBox="0 0 16.933 16.933"><metadata id="metadata5"/><g id="layer1" transform="translate(0,-280.06666)" style="display:inline"><path style="fill:#d0d0d0;fill-opacity:1;stroke:#000;stroke-width:.5291667;stroke-linecap:round;stroke-linejoin:round;stroke-miterlimit:4;stroke-dasharray:none;stroke-opacity:1" id="path997" d="m 2.570561,283.05153 c 0,0 1.1575521,0 1.7859375,0 0.6283854,0 1.4386719,1.04179 2.414323,1.04179 0.975651,0 2.778125,-0.46302 3.2411465,-0.46302 0.46302,0 1.934765,-1.32291 2.89388,-1.32291 0.959114,0 1.256771,0 1.256771,0 l -0.545704,3.75377 -1.852083,2.16628 -1.670182,1.17409 -1.8107428,0.80201 -3.1171223,-1.36425 -1.9182292,-1.38907 -0.7772135,-2.26549 z"/><path style="fill:#d0d0d0;fill-opacity:1;stroke:#000;stroke-width:.5291667;stroke-linecap:round;stroke-linejoin:round;stroke-miterlimit:4;stroke-dasharray:none;stroke-opacity:1" id="path991" d="m 8.2839075,290.20354 -0.3141928,0.10749 v 0.75241 H 7.473621 v 1.19063 c -0.8020185,0 -2.1171835,1.3569 -2.1171835,2.98224 v 0.57309 l 0.298173,0.29818 h 2.629297 2.6292965 l 0.298173,-0.29818 v -0.57309 c 0,-1.62534 -1.3151643,-2.98224 -2.1171831,-2.98224 v -1.19063 H 8.5981002 v -0.75241 z"/><path style="fill:#000;stroke:none;stroke-width:.5291667;stroke-linecap:round;stroke-linejoin:round;stroke-miterlimit:4;stroke-dasharray:none;stroke-opacity:1" id="path993" d="m 8.2839075,293.42402 c -0.8024908,0 -1.3725261,0.65452 -1.3725261,0.92346 v 0.81855 h 1.3725261 1.372526 v -0.81855 c 0,-0.26894 -0.5700353,-0.92346 -1.372526,-0.92346 z"/><circle style="opacity:1;fill:#000;fill-opacity:1;stroke:none;stroke-width:.5291667;stroke-linecap:round;stroke-linejoin:round;stroke-miterlimit:4;stroke-dasharray:none;stroke-dashoffset:0;stroke-opacity:1" id="path995" cx="8.284" cy="292.395" r=".409"/><path style="fill:#fff;fill-opacity:1;stroke:#000;stroke-width:.5291667;stroke-linecap:round;stroke-linejoin:round;stroke-miterlimit:4;stroke-dasharray:none;stroke-opacity:1" id="path985" d="m 1.7665538,285.21535 c 0,1.54348 1.0056017,5.33203 6.5948758,5.33203 5.5892744,0 6.8053504,-6.17393 6.8053504,-7.71741 v -1.07576 c 0,-0.54958 -0.292326,-0.79513 -0.619731,-0.79513 -0.327405,0 -0.935444,0.57296 -0.935444,1.5084 0,0.93545 -0.526186,6.62996 -5.4138782,6.62996 -4.8876915,0 -5.0046219,-4.49013 -5.0046219,-5.02801 0,-0.53788 -0.4209495,-1.37978 -0.9237503,-1.37978 -0.3787774,0 -0.5028009,0.35079 -0.5028009,0.74836 0,0.39756 3e-7,1.77734 1e-7,1.77734 z"/><circle style="opacity:1;fill:#000;fill-opacity:1;stroke:none;stroke-width:.5291667;stroke-linecap:round;stroke-linejoin:round;stroke-miterlimit:4;stroke-dasharray:none;stroke-dashoffset:0;stroke-opacity:1" id="path999" cx="4.392" cy="284.075" r=".52"/><circle style="display:inline;opacity:1;fill:#000;fill-opacity:1;stroke:none;stroke-width:.5291667;stroke-linecap:round;stroke-linejoin:round;stroke-miterlimit:4;stroke-dasharray:none;stroke-dashoffset:0;stroke-opacity:1" id="path999-3" cx="4.927" cy="285.813" r=".52"/><circle style="display:inline;opacity:1;fill:#000;fill-opacity:1;stroke:none;stroke-width:.5291667;stroke-linecap:round;stroke-linejoin:round;stroke-miterlimit:4;stroke-dasharray:none;stroke-dashoffset:0;stroke-opacity:1" id="path999-9" cx="6.018" cy="287.227" r=".52"/><circle style="display:inline;opacity:1;fill:#000;fill-opacity:1;stroke:none;stroke-width:.5291667;stroke-linecap:round;stroke-linejoin:round;stroke-miterlimit:4;stroke-dasharray:none;stroke-dashoffset:0;stroke-opacity:1" id="path999-8" cx="7.763" cy="287.789" r=".52"/><circle style="display:inline;opacity:1;fill:#000;fill-opacity:1;stroke:none;stroke-width:.5291667;stroke-linecap:round;stroke-linejoin:round;stroke-miterlimit:4;stroke-dasharray:none;stroke-dashoffset:0;stroke-opacity:1" id="path999-81" cx="9.644" cy="287.479" r=".52"/><circle style="display:inline;opacity:1;fill:#000;fill-opacity:1;stroke:none;stroke-width:.5291667;stroke-linecap:round;stroke-linejoin:round;stroke-miterlimit:4;stroke-dasharray:none;stroke-dashoffset:0;stroke-opacity:1" id="path999-4" cx="11.045" cy="286.33" r=".52"/><circle style="display:inline;opacity:1;fill:#000;fill-opacity:1;stroke:none;stroke-width:.5291667;stroke-linecap:round;stroke-linejoin:round;stroke-miterlimit:4;stroke-dasharray:none;stroke-dashoffset:0;stroke-opacity:1" id="path999-32" cx="11.905" cy="284.833" r=".52"/></g></svg>