<?xml version="1.0" encoding="UTF-8" standalone="no"?>
<!-- Created with Inkscape (http://www.inkscape.org/) -->

<svg
   xmlns:dc="http://purl.org/dc/elements/1.1/"
   xmlns:cc="http://creativecommons.org/ns#"
   xmlns:rdf="http://www.w3.org/1999/02/22-rdf-syntax-ns#"
   xmlns:svg="http://www.w3.org/2000/svg"
   xmlns="http://www.w3.org/2000/svg"
   xmlns:sodipodi="http://sodipodi.sourceforge.net/DTD/sodipodi-0.dtd"
   xmlns:inkscape="http://www.inkscape.org/namespaces/inkscape"
   width="64"
   height="64"
   viewBox="0 0 16.933333 16.933334"
   version="1.1"
   id="svg8"
   inkscape:version="0.92.4 (5da689c313, 2019-01-14)"
   sodipodi:docname="MHRise Item Icon-Palico Chestplate Yellow.svg">
  <defs
     id="defs2" />
  <sodipodi:namedview
     id="base"
     pagecolor="#ffffff"
     bordercolor="#666666"
     borderopacity="1.0"
     inkscape:pageopacity="0.0"
     inkscape:pageshadow="2"
     inkscape:zoom="7.9999996"
     inkscape:cx="7.8655912"
     inkscape:cy="25.05118"
     inkscape:document-units="px"
     inkscape:current-layer="layer1"
     showgrid="false"
     units="px"
     showguides="true"
     inkscape:guide-bbox="true"
     inkscape:snap-global="true"
     inkscape:window-width="1304"
     inkscape:window-height="745"
     inkscape:window-x="-8"
     inkscape:window-y="-8"
     inkscape:window-maximized="1" />
  <metadata
     id="metadata5">
    <rdf:RDF>
      <cc:Work
         rdf:about="">
        <dc:format>image/svg+xml</dc:format>
        <dc:type
           rdf:resource="http://purl.org/dc/dcmitype/StillImage" />
        <dc:title></dc:title>
      </cc:Work>
    </rdf:RDF>
  </metadata>
  <g
     inkscape:label="Layer 1"
     inkscape:groupmode="layer"
     id="layer1"
     transform="translate(0,-280.06666)"
     style="display:inline">
    <rect
       style="opacity:1;fill:#000000;fill-opacity:1;stroke:none;stroke-width:0.5291667;stroke-linecap:round;stroke-linejoin:round;stroke-miterlimit:4;stroke-dasharray:none;stroke-dashoffset:0;stroke-opacity:1"
       id="rect1520"
       width="3.2576823"
       height="2.7119792"
       x="6.8378258"
       y="283.35471" />
    <path
       style="display:inline;fill:#d0d0d0;fill-opacity:1;stroke:#000000;stroke-width:0.5291667;stroke-linecap:round;stroke-linejoin:round;stroke-miterlimit:4;stroke-dasharray:none;stroke-opacity:1"
       d="m 11.202839,283.28855 v -0.96168 L 10.76435,281.88838 H 9.1214762 v 2.40292 l 0.526187,-0.52619 h 1.5668688 z"
       id="path1467-1"
       inkscape:connector-curvature="0" />
    <path
       style="display:inline;fill:#ffffff;fill-opacity:1;stroke:#000000;stroke-width:0.5291667;stroke-linecap:round;stroke-linejoin:round;stroke-miterlimit:4;stroke-dasharray:none;stroke-opacity:1"
       d="m 13.758747,293.02853 1.29811,1.29811 v 0.85163 H 8.9301002 l -0.463433,-0.46344 v -0.9587 -0.7276 z"
       id="path1465-8"
       inkscape:connector-curvature="0" />
    <path
       style="display:inline;fill:#ffffff;stroke:#000000;stroke-width:0.5291667;stroke-linecap:round;stroke-linejoin:round;stroke-miterlimit:4;stroke-dasharray:none;stroke-opacity:1;fill-opacity:1"
       d="m 5.8865667,283.83426 -2.7119793,4.43177 v 4.7625 h 5.2921836 5.292184 v -4.7625 l -2.71198,-4.43177 H 9.955569 l -1.488798,1.48879 -1.4887981,-1.48879 z"
       id="path1435-9"
       inkscape:connector-curvature="0" />
    <path
       style="color:#000000;font-style:normal;font-variant:normal;font-weight:normal;font-stretch:normal;font-size:medium;line-height:normal;font-family:sans-serif;font-variant-ligatures:normal;font-variant-position:normal;font-variant-caps:normal;font-variant-numeric:normal;font-variant-alternates:normal;font-feature-settings:normal;text-indent:0;text-align:start;text-decoration:none;text-decoration-line:none;text-decoration-style:solid;text-decoration-color:#000000;letter-spacing:normal;word-spacing:normal;text-transform:none;writing-mode:lr-tb;direction:ltr;text-orientation:mixed;dominant-baseline:auto;baseline-shift:baseline;text-anchor:start;white-space:normal;shape-padding:0;clip-rule:nonzero;display:inline;overflow:visible;visibility:visible;opacity:1;isolation:auto;mix-blend-mode:normal;color-interpolation:sRGB;color-interpolation-filters:linearRGB;solid-color:#000000;solid-opacity:1;vector-effect:none;fill:#d0d0d0;fill-opacity:1;fill-rule:nonzero;stroke:none;stroke-width:0.26458335px;stroke-linecap:round;stroke-linejoin:round;stroke-miterlimit:4;stroke-dasharray:none;stroke-dashoffset:0;stroke-opacity:1;color-rendering:auto;image-rendering:auto;shape-rendering:auto;text-rendering:auto;enable-background:accumulate"
       d="m 8.4621116,285.62795 c -0.1978204,0 -0.387559,0.35743 -0.3854977,0.42514 v 5.55852 c 0,0.17708 0.7800881,0.17708 0.7800881,0 v -5.55852 c 0.00265,-0.0801 -0.1485357,-0.42514 -0.3945904,-0.42514 z"
       id="path1516"
       inkscape:connector-curvature="0"
       sodipodi:nodetypes="scsscs" />
    <path
       style="display:inline;fill:#d0d0d0;fill-opacity:1;stroke:#000000;stroke-width:0.5291667;stroke-linecap:butt;stroke-linejoin:round;stroke-miterlimit:4;stroke-dasharray:none;stroke-opacity:1"
       d="m 11.892728,291.70469 h 0.783434 v 2.09305 h -1.473323 v -2.09305 z"
       id="path1416-5"
       inkscape:connector-curvature="0"
       sodipodi:nodetypes="cccccc" />
    <path
       style="display:inline;fill:#d0d0d0;fill-opacity:1;stroke:#000000;stroke-width:0.5291667;stroke-linecap:round;stroke-linejoin:round;stroke-miterlimit:4;stroke-dasharray:none;stroke-opacity:1"
       d="m 10.633357,283.28855 v 4.46485 l 1.107942,1.10794 h 2.232422 c 0.330729,0 1.471744,-0.82682 1.471744,-1.48828 v -2.74505 c 0,-0.34727 -1.008724,-1.33946 -1.785937,-1.33946 l -3.026171,4e-5 z"
       id="path1437-9"
       inkscape:connector-curvature="0"
       sodipodi:nodetypes="cccsssccc" />
    <path
       style="display:inline;fill:#000000;stroke:none;stroke-width:0.26458335px;stroke-linecap:butt;stroke-linejoin:miter;stroke-opacity:1"
       d="m 11.695758,284.67934 c 0,0 -0.610741,0.48859 -0.629533,0.81745 -0.01879,0.32886 0.338256,0.4792 0.554364,0.49799 0.216109,0.0188 0.516781,-0.31007 0.507385,-0.41342 -0.0094,-0.10336 -0.535573,-0.4698 -0.432216,-0.90202 z"
       id="path1234-6"
       inkscape:connector-curvature="0" />
    <path
       style="display:inline;fill:#000000;stroke:none;stroke-width:0.26458335px;stroke-linecap:butt;stroke-linejoin:miter;stroke-opacity:1"
       d="m 14.650835,284.8015 c 0,0 -0.61074,0.48859 -0.629532,0.81746 -0.01879,0.32885 0.338256,0.47919 0.554364,0.49798 0.216109,0.0188 0.516781,-0.31006 0.507385,-0.41342 -0.0094,-0.10335 -0.535572,-0.4698 -0.432217,-0.90202 z"
       id="path1234-1-7"
       inkscape:connector-curvature="0" />
    <path
       style="display:inline;fill:#000000;stroke:none;stroke-width:0.26458335px;stroke-linecap:butt;stroke-linejoin:miter;stroke-opacity:1"
       d="m 13.194454,284.04983 c 0,0 -0.61074,0.48859 -0.629533,0.81745 -0.01879,0.32886 0.338256,0.4792 0.554364,0.49799 0.216109,0.0188 0.516782,-0.31007 0.507386,-0.41343 -0.0094,-0.10335 -0.535574,-0.4698 -0.432217,-0.90201 z"
       id="path1234-0-9"
       inkscape:connector-curvature="0" />
    <path
       style="display:inline;fill:#000000;stroke:none;stroke-width:0.26458335px;stroke-linecap:butt;stroke-linejoin:miter;stroke-opacity:1"
       d="m 13.213214,285.59545 c -0.03289,0.31946 -1.310744,0.66242 -1.254368,1.50807 0.05638,0.84563 1.179396,0.8701 1.690984,0.69735 0.511587,-0.17274 0.737482,-0.91022 0.504942,-1.26235 -0.232539,-0.35214 -1.162365,-0.0531 -1.162365,0.4385 0,0.49166 0.458103,-0.38535 0.690642,-0.13953 0.23254,0.24583 -0.185367,0.67104 -0.690642,0.67104 -0.505274,0 -0.744458,-0.60459 -0.511919,-0.88364 0.23254,-0.27905 0.781121,-0.65035 0.732726,-1.02944 z"
       id="path1257-1"
       inkscape:connector-curvature="0" />
    <path
       style="display:inline;fill:#d0d0d0;fill-opacity:1;stroke:#000000;stroke-width:0.5291667;stroke-linecap:round;stroke-linejoin:round;stroke-miterlimit:4;stroke-dasharray:none;stroke-opacity:1"
       d="m 7.8120307,281.88864 v 1.94665 H 8.466771 9.1215113 v -1.94665 H 8.466771 Z"
       id="path1469-0"
       inkscape:connector-curvature="0" />
    <path
       style="fill:#d0d0d0;fill-opacity:1;stroke:#000000;stroke-width:0.5291667;stroke-linecap:round;stroke-linejoin:round;stroke-miterlimit:4;stroke-dasharray:none;stroke-opacity:1"
       d="m 5.7304958,283.28855 v -0.96168 l 0.4384889,-0.43849 h 1.6428726 v 2.40292 L 7.2856704,283.76511 H 5.7188028 Z"
       id="path1467"
       inkscape:connector-curvature="0" />
    <path
       style="fill:#ffffff;fill-opacity:1;stroke:#000000;stroke-width:0.5291667;stroke-linecap:round;stroke-linejoin:round;stroke-miterlimit:4;stroke-dasharray:none;stroke-opacity:1"
       d="m 3.1745874,293.02853 -1.2981104,1.29811 v 0.85163 h 6.1267563 l 0.4634339,-0.46344 v -0.9587 -0.7276 z"
       id="path1465"
       inkscape:connector-curvature="0" />
    <path
       style="fill:#d0d0d0;fill-opacity:1;stroke:#000000;stroke-width:0.5291667;stroke-linecap:butt;stroke-linejoin:round;stroke-miterlimit:4;stroke-dasharray:none;stroke-opacity:1"
       d="M 5.0406064,291.70469 H 4.2571725 v 2.09305 h 1.4733233 v -2.09305 z"
       id="path1416"
       inkscape:connector-curvature="0"
       sodipodi:nodetypes="cccccc" />
    <path
       style="display:inline;fill:#d0d0d0;fill-opacity:1;stroke:#000000;stroke-width:0.5291667;stroke-linecap:butt;stroke-linejoin:round;stroke-miterlimit:4;stroke-dasharray:none;stroke-opacity:1"
       d="M 8.4666672,291.70469 H 7.6832333 v 2.09305 h 1.4733233 v -2.09305 z"
       id="path1416-8"
       inkscape:connector-curvature="0"
       sodipodi:nodetypes="cccccc" />
    <path
       style="fill:#d0d0d0;fill-opacity:1;stroke:#000000;stroke-width:0.5291667;stroke-linecap:round;stroke-linejoin:round;stroke-miterlimit:4;stroke-dasharray:none;stroke-opacity:1"
       d="m 6.2999781,283.28855 v 4.46485 l -1.1079427,1.10794 h -2.232422 c -0.3307292,0 -1.4717448,-0.82682 -1.4717448,-1.48828 v -2.74505 c 0,-0.34727 1.008724,-1.33946 1.7859375,-1.33946 l 3.026172,4e-5 z"
       id="path1437"
       inkscape:connector-curvature="0"
       sodipodi:nodetypes="cccsssccc" />
    <path
       style="display:inline;fill:#000000;stroke:none;stroke-width:0.26458335px;stroke-linecap:butt;stroke-linejoin:miter;stroke-opacity:1"
       d="m 2.4803136,284.67934 c 0,0 -0.6107409,0.48859 -0.6295329,0.81745 -0.018792,0.32886 0.3382565,0.4792 0.5543647,0.49799 0.2161082,0.0188 0.5167807,-0.31007 0.5073848,-0.41342 -0.0094,-0.10336 -0.5355728,-0.4698 -0.4322166,-0.90202 z"
       id="path1234"
       inkscape:connector-curvature="0" />
    <path
       style="display:inline;fill:#000000;stroke:none;stroke-width:0.26458335px;stroke-linecap:butt;stroke-linejoin:miter;stroke-opacity:1"
       d="m 5.4353906,284.8015 c 0,0 -0.6107404,0.48859 -0.6295323,0.81746 -0.018792,0.32885 0.3382562,0.47919 0.5543645,0.49798 0.2161083,0.0188 0.5167804,-0.31006 0.5073845,-0.41342 -0.0094,-0.10335 -0.5355723,-0.4698 -0.4322167,-0.90202 z"
       id="path1234-1"
       inkscape:connector-curvature="0" />
    <path
       style="display:inline;fill:#000000;stroke:none;stroke-width:0.26458335px;stroke-linecap:butt;stroke-linejoin:miter;stroke-opacity:1"
       d="m 3.9790096,284.04983 c 0,0 -0.6107409,0.48859 -0.6295328,0.81745 -0.018792,0.32886 0.3382563,0.4792 0.5543645,0.49799 0.2161083,0.0188 0.5167808,-0.31007 0.5073848,-0.41343 -0.0094,-0.10335 -0.5355727,-0.4698 -0.4322165,-0.90201 z"
       id="path1234-0"
       inkscape:connector-curvature="0" />
    <path
       style="display:inline;fill:#000000;stroke:none;stroke-width:0.26458335px;stroke-linecap:butt;stroke-linejoin:miter;stroke-opacity:1"
       d="m 3.9977694,285.59545 c -0.032886,0.31946 -1.3107437,0.66242 -1.2543676,1.50807 0.056376,0.84563 1.1793966,0.8701 1.6909834,0.69735 0.5115867,-0.17274 0.7374819,-0.91022 0.5049427,-1.26235 -0.2325394,-0.35214 -1.1623651,-0.0531 -1.1623651,0.4385 0,0.49166 0.4581029,-0.38535 0.6906421,-0.13953 0.2325396,0.24583 -0.1853674,0.67104 -0.6906421,0.67104 -0.5052746,0 -0.7444581,-0.60459 -0.5119186,-0.88364 0.2325394,-0.27905 0.78112,-0.65035 0.7327252,-1.02944 z"
       id="path1257"
       inkscape:connector-curvature="0" />
  </g>
</svg>
