<?xml version="1.0" encoding="UTF-8" standalone="no"?>
<!-- Created with Inkscape (http://www.inkscape.org/) -->

<svg
   xmlns:dc="http://purl.org/dc/elements/1.1/"
   xmlns:cc="http://creativecommons.org/ns#"
   xmlns:rdf="http://www.w3.org/1999/02/22-rdf-syntax-ns#"
   xmlns:svg="http://www.w3.org/2000/svg"
   xmlns="http://www.w3.org/2000/svg"
   xmlns:sodipodi="http://sodipodi.sourceforge.net/DTD/sodipodi-0.dtd"
   xmlns:inkscape="http://www.inkscape.org/namespaces/inkscape"
   width="64"
   height="64"
   viewBox="0 0 16.933333 16.933334"
   version="1.1"
   id="svg8"
   inkscape:version="0.92.4 (5da689c313, 2019-01-14)"
   sodipodi:docname="MHRise Item Icon-Palico Hammer Yellow.svg">
  <defs
     id="defs2" />
  <sodipodi:namedview
     id="base"
     pagecolor="#ffffff"
     bordercolor="#666666"
     borderopacity="1.0"
     inkscape:pageopacity="0.0"
     inkscape:pageshadow="2"
     inkscape:zoom="5.6568542"
     inkscape:cx="17.695458"
     inkscape:cy="32.559123"
     inkscape:document-units="px"
     inkscape:current-layer="layer1"
     showgrid="false"
     units="px"
     showguides="true"
     inkscape:guide-bbox="true"
     inkscape:snap-global="true"
     inkscape:window-width="1304"
     inkscape:window-height="745"
     inkscape:window-x="-8"
     inkscape:window-y="-8"
     inkscape:window-maximized="1" />
  <metadata
     id="metadata5">
    <rdf:RDF>
      <cc:Work
         rdf:about="">
        <dc:format>image/svg+xml</dc:format>
        <dc:type
           rdf:resource="http://purl.org/dc/dcmitype/StillImage" />
        <dc:title></dc:title>
      </cc:Work>
    </rdf:RDF>
  </metadata>
  <g
     inkscape:label="Layer 1"
     inkscape:groupmode="layer"
     id="layer1"
     transform="translate(0,-280.06666)"
     style="display:inline">
    <path
       style="fill:#ffffff;stroke:#000000;stroke-width:0.5291667;stroke-linecap:round;stroke-linejoin:round;stroke-miterlimit:4;stroke-dasharray:none;stroke-opacity:1;fill-opacity:1"
       d="m 3.7952964,282.72292 h -1.637026 v 5.26187 c 0,0 0.5846521,0.80682 0.9822155,0.80682 0.3975635,0 1.3914721,0 1.3914721,0 v -5.63605 z"
       id="path1359"
       inkscape:connector-curvature="0" />
    <path
       style="fill:#d0d0d0;fill-opacity:1;stroke:#000000;stroke-width:0.5291667;stroke-linecap:round;stroke-linejoin:round;stroke-miterlimit:4;stroke-dasharray:none;stroke-opacity:1"
       d="m 7.9463579,281.39009 c -0.222168,0 -0.6547403,0.3154 -0.6547403,0.60772 v 1.18132 l 1.1926919,0.39739 1.1926922,-0.39739 v -1.18132 c 0,-0.29232 -0.4325726,-0.60772 -0.6547405,-0.60772 H 8.4843095 Z"
       id="path1271"
       inkscape:connector-curvature="0" />
    <path
       style="fill:#d0d0d0;fill-opacity:1;stroke:#000000;stroke-width:0.5291667;stroke-linecap:round;stroke-linejoin:round;stroke-miterlimit:4;stroke-dasharray:none;stroke-opacity:1"
       d="M 3.7952962,282.72292 H 14.775063 v 5.30864 c 0,0.93544 -1.987818,1.12253 -2.642628,1.12253 H 5.5375595 c -0.3741773,0 -1.0523737,-0.3274 -1.0523737,-0.3274 V 287.634 l -0.7249686,-0.72497 v -1.02899 l 0.6781964,-0.67819 v -0.42095 l -0.6431173,-0.64312 z"
       id="path1263"
       inkscape:connector-curvature="0"
       sodipodi:nodetypes="ccssscccccccc" />
    <path
       style="fill:#d0d0d0;fill-opacity:1;stroke:#000000;stroke-width:0.5291667;stroke-linecap:round;stroke-linejoin:round;stroke-miterlimit:4;stroke-dasharray:none;stroke-opacity:1"
       d="m 7.1980831,289.14259 v 2.30322 h 1.2862264 1.2862264 v -2.30322 H 8.4843095 Z"
       id="path1291"
       inkscape:connector-curvature="0" />
    <path
       inkscape:connector-curvature="0"
       style="display:inline;fill:#ffffff;fill-opacity:1;stroke:#000000;stroke-width:0.5291667;stroke-linecap:round;stroke-linejoin:round;stroke-miterlimit:4;stroke-dasharray:none;stroke-opacity:1"
       d="m 7.1980827,291.44581 v 1.41025 H 8.484309 9.7705359 v -1.41025 H 8.484309 Z"
       id="path1291-9"
       sodipodi:nodetypes="ccccccc" />
    <path
       inkscape:connector-curvature="0"
       style="display:inline;fill:#ffffff;fill-opacity:1;stroke:#000000;stroke-width:0.5291667;stroke-linecap:round;stroke-linejoin:round;stroke-miterlimit:4;stroke-dasharray:none;stroke-opacity:1"
       d="m 7.1980828,292.85606 v 1.41025 h 1.2862263 1.2862268 v -1.41025 H 8.4843091 Z"
       id="path1291-9-0"
       sodipodi:nodetypes="ccccccc" />
    <path
       inkscape:connector-curvature="0"
       style="display:inline;fill:#ffffff;fill-opacity:1;stroke:#000000;stroke-width:0.5291667;stroke-linecap:round;stroke-linejoin:round;stroke-miterlimit:4;stroke-dasharray:none;stroke-opacity:1"
       d="m 7.1980822,294.26631 v 0.97307 l 0.4134115,0.43718 h 0.8728148 0.839743 l 0.4464844,-0.43718 v -0.97307 H 8.4843085 Z"
       id="path1291-9-3"
       sodipodi:nodetypes="ccccccccc" />
    <path
       style="display:inline;fill:#000000;stroke:none;stroke-width:0.26458335px;stroke-linecap:butt;stroke-linejoin:miter;stroke-opacity:1"
       d="m 7.1979097,284.3299 c 0,0 -0.7600478,0.60804 -0.7834338,1.0173 -0.023386,0.40925 0.4209494,0.59634 0.6898894,0.61973 0.2689399,0.0234 0.6431175,-0.38587 0.6314245,-0.5145 -0.011692,-0.12862 -0.6665036,-0.58465 -0.5378801,-1.12253 z"
       id="path1234"
       inkscape:connector-curvature="0" />
    <path
       style="display:inline;fill:#000000;stroke:none;stroke-width:0.26458335px;stroke-linecap:butt;stroke-linejoin:miter;stroke-opacity:1"
       d="m 10.875411,284.48193 c 0,0 -0.760047,0.60804 -0.783433,1.0173 -0.02339,0.40925 0.420949,0.59634 0.689889,0.61973 0.26894,0.0234 0.643117,-0.38587 0.631424,-0.5145 -0.01169,-0.12862 -0.666503,-0.58465 -0.53788,-1.12253 z"
       id="path1234-1"
       inkscape:connector-curvature="0" />
    <path
       style="display:inline;fill:#000000;stroke:none;stroke-width:0.26458335px;stroke-linecap:butt;stroke-linejoin:miter;stroke-opacity:1"
       d="m 9.0629901,283.54649 c 0,0 -0.7600479,0.60804 -0.7834339,1.0173 -0.023386,0.40925 0.4209494,0.59634 0.6898894,0.61973 0.26894,0.0234 0.6431175,-0.38587 0.6314245,-0.5145 -0.011692,-0.12862 -0.6665035,-0.58465 -0.53788,-1.12253 z"
       id="path1234-0"
       inkscape:connector-curvature="0" />
    <path
       style="display:inline;fill:#000000;stroke:none;stroke-width:0.26458335px;stroke-linecap:butt;stroke-linejoin:miter;stroke-opacity:1"
       d="m 9.0863362,285.46997 c -0.040926,0.39757 -1.6311797,0.82436 -1.5610214,1.87674 0.070158,1.05237 1.4677223,1.08282 2.1043761,0.86784 0.6366541,-0.21497 0.9177731,-1.13274 0.6283851,-1.57096 -0.2893877,-0.43822 -1.4465269,-0.0661 -1.4465269,0.5457 0,0.61185 0.5700949,-0.47955 0.8594826,-0.17363 0.2893883,0.30592 -0.2306838,0.83509 -0.8594826,0.83509 -0.6287984,0 -0.9264547,-0.75241 -0.6370667,-1.09967 0.2893881,-0.34727 0.9720796,-0.80935 0.9118538,-1.28111 z"
       id="path1257"
       inkscape:connector-curvature="0" />
  </g>
</svg>
