<?xml version="1.0" encoding="UTF-8" standalone="no"?>
<!-- Created with Inkscape (http://www.inkscape.org/) -->

<svg
   xmlns:dc="http://purl.org/dc/elements/1.1/"
   xmlns:cc="http://creativecommons.org/ns#"
   xmlns:rdf="http://www.w3.org/1999/02/22-rdf-syntax-ns#"
   xmlns:svg="http://www.w3.org/2000/svg"
   xmlns="http://www.w3.org/2000/svg"
   xmlns:sodipodi="http://sodipodi.sourceforge.net/DTD/sodipodi-0.dtd"
   xmlns:inkscape="http://www.inkscape.org/namespaces/inkscape"
   width="64"
   height="64"
   viewBox="0 0 16.933333 16.933334"
   version="1.1"
   id="svg8"
   inkscape:version="0.92.4 (5da689c313, 2019-01-14)"
   sodipodi:docname="MHRise Item Icon-Palico Sword Yellow.svg">
  <defs
     id="defs2" />
  <sodipodi:namedview
     id="base"
     pagecolor="#ffffff"
     bordercolor="#666666"
     borderopacity="1.0"
     inkscape:pageopacity="0.0"
     inkscape:pageshadow="2"
     inkscape:zoom="5.6568542"
     inkscape:cx="52.968362"
     inkscape:cy="35.057947"
     inkscape:document-units="px"
     inkscape:current-layer="layer1"
     showgrid="false"
     units="px"
     showguides="true"
     inkscape:guide-bbox="true"
     inkscape:snap-global="true"
     inkscape:window-width="1304"
     inkscape:window-height="745"
     inkscape:window-x="-8"
     inkscape:window-y="-8"
     inkscape:window-maximized="1" />
  <metadata
     id="metadata5">
    <rdf:RDF>
      <cc:Work
         rdf:about="">
        <dc:format>image/svg+xml</dc:format>
        <dc:type
           rdf:resource="http://purl.org/dc/dcmitype/StillImage" />
        <dc:title></dc:title>
      </cc:Work>
    </rdf:RDF>
  </metadata>
  <g
     inkscape:label="Layer 1"
     inkscape:groupmode="layer"
     id="layer1"
     transform="translate(0,-280.06666)"
     style="display:inline">
    <path
       style="fill:#d0d0d0;fill-opacity:1;stroke:none;stroke-width:0.26458335px;stroke-linecap:butt;stroke-linejoin:miter;stroke-opacity:1"
       d="m 11.807031,281.63763 c 0,0 -2.646246,0.39687 -3.0592444,2.19934 -0.4129985,1.80248 -0.4129985,6.41615 -0.4129985,6.41615 l 3.3730239,5e-5 0.01654,-3.86953 c 0,0 0.578776,-2.18281 1.058333,-2.91042 0.479557,-0.7276 0.677995,-1.83554 0.677995,-1.83554 z"
       id="path1259"
       inkscape:connector-curvature="0"
       sodipodi:nodetypes="cccccccc" />
    <path
       style="fill:#ffffff;stroke:none;stroke-width:0.26458335px;stroke-linecap:butt;stroke-linejoin:miter;stroke-opacity:1;fill-opacity:1"
       d="m 11.807031,281.63763 -1.531198,-0.006 -2.4555383,0.91206 -2.233371,1.8475 -0.7015827,1.82412 0.05906,4.03826 4.1270492,-0.004 v -4.30304 c 0,-1.21608 1.7878538,-4.00952 2.7355808,-4.30829 z"
       id="path1261"
       inkscape:connector-curvature="0"
       sodipodi:nodetypes="cccccccscc" />
    <path
       style="fill:#d0d0d0;stroke:#000000;stroke-width:0.5291667;stroke-linecap:round;stroke-linejoin:round;stroke-miterlimit:4;stroke-dasharray:none;stroke-opacity:1;fill-opacity:1"
       d="m 7.3091146,291.52643 v 1.50482 H 8.3348918 9.360669 v -1.50482 H 8.3348918 Z"
       id="path1196"
       inkscape:connector-curvature="0" />
    <path
       style="fill:#d0d0d0;stroke:#000000;stroke-width:0.5291667;stroke-linecap:round;stroke-linejoin:round;stroke-miterlimit:4;stroke-dasharray:none;stroke-opacity:1;fill-opacity:1"
       d="m 7.3091146,293.03125 v 1.22369 H 8.3348918 9.360669 v -1.22369 H 8.3348918 Z"
       id="path1198"
       inkscape:connector-curvature="0" />
    <path
       style="fill:#ffffff;stroke:#000000;stroke-width:0.5291667;stroke-linecap:round;stroke-linejoin:round;stroke-miterlimit:4;stroke-dasharray:none;stroke-opacity:1;fill-opacity:1"
       d="m 7.3091146,294.25494 v 0.83509 l 0.3803386,0.339 h 0.6454386 0.6454386 l 0.3803386,-0.339 v -0.83509 H 8.3348918 Z"
       id="path1200"
       inkscape:connector-curvature="0" />
    <path
       style="fill:none;stroke:#000000;stroke-width:0.5291667;stroke-linecap:round;stroke-linejoin:round;stroke-miterlimit:4;stroke-dasharray:none;stroke-opacity:1"
       d="M 8.3347881,290.25312 H 4.944401 c 0,0 0,-1.57096 0,-3.78685 0,-2.21588 2.8608074,-4.82864 6.267318,-4.82864 h 2.248958 c 0,0 0,0.13229 0,0.49609 0,0.3638 -1.752865,2.34818 -1.752865,4.81211 v 3.30729 z"
       id="path1202"
       inkscape:connector-curvature="0" />
    <path
       style="fill:#858585;fill-opacity:1;stroke:#000000;stroke-width:0.5291667;stroke-linecap:round;stroke-linejoin:round;stroke-miterlimit:4;stroke-dasharray:none;stroke-opacity:1"
       d="m 3.4726562,290.25312 v 1.27331 h 4.8622356 4.8622352 v -1.27331 H 8.3348918 Z"
       id="path1194"
       inkscape:connector-curvature="0" />
    <path
       style="fill:#000000;stroke:none;stroke-width:0.26458335px;stroke-linecap:butt;stroke-linejoin:miter;stroke-opacity:1"
       d="m 6.7211488,285.04555 c 0,0 -0.7600479,0.60804 -0.7834339,1.0173 -0.023386,0.40925 0.4209494,0.59634 0.6898894,0.61973 0.26894,0.0234 0.6431175,-0.38587 0.6314245,-0.5145 -0.011692,-0.12862 -0.6665035,-0.58465 -0.53788,-1.12253 z"
       id="path1234"
       inkscape:connector-curvature="0" />
    <path
       style="display:inline;fill:#000000;stroke:none;stroke-width:0.26458335px;stroke-linecap:butt;stroke-linejoin:miter;stroke-opacity:1"
       d="m 10.39865,285.19758 c 0,0 -0.7600474,0.60804 -0.7834334,1.0173 -0.023386,0.40925 0.4209494,0.59634 0.6898894,0.61973 0.26894,0.0234 0.643117,-0.38587 0.631424,-0.5145 -0.01169,-0.12862 -0.666503,-0.58465 -0.53788,-1.12253 z"
       id="path1234-1"
       inkscape:connector-curvature="0" />
    <path
       style="display:inline;fill:#000000;stroke:none;stroke-width:0.26458335px;stroke-linecap:butt;stroke-linejoin:miter;stroke-opacity:1"
       d="m 8.5862291,284.26214 c 0,0 -0.7600479,0.60804 -0.7834339,1.0173 -0.023386,0.40925 0.4209494,0.59634 0.6898894,0.61973 0.26894,0.0234 0.6431175,-0.38587 0.6314245,-0.5145 -0.011692,-0.12862 -0.6665035,-0.58465 -0.53788,-1.12253 z"
       id="path1234-0"
       inkscape:connector-curvature="0" />
    <path
       style="fill:#000000;stroke:none;stroke-width:0.26458335px;stroke-linecap:butt;stroke-linejoin:miter;stroke-opacity:1"
       d="m 8.6095751,286.18562 c -0.040926,0.39757 -1.6311796,0.82436 -1.5610213,1.87674 0.070158,1.05237 1.4677223,1.08282 2.104376,0.86784 0.6366537,-0.21497 0.9177732,-1.13274 0.6283854,-1.57096 -0.289388,-0.43822 -1.4465271,-0.0661 -1.4465271,0.5457 0,0.61185 0.5700948,-0.47955 0.8594828,-0.17363 0.2893881,0.30592 -0.2306841,0.83509 -0.8594828,0.83509 -0.6287984,0 -0.9264547,-0.75241 -0.6370667,-1.09967 0.2893881,-0.34727 0.9720795,-0.80935 0.9118537,-1.28111 z"
       id="path1257"
       inkscape:connector-curvature="0" />
  </g>
</svg>
