<?xml version="1.0" encoding="UTF-8" standalone="no"?>
<!-- Created with Inkscape (http://www.inkscape.org/) -->

<svg
   xmlns:dc="http://purl.org/dc/elements/1.1/"
   xmlns:cc="http://creativecommons.org/ns#"
   xmlns:rdf="http://www.w3.org/1999/02/22-rdf-syntax-ns#"
   xmlns:svg="http://www.w3.org/2000/svg"
   xmlns="http://www.w3.org/2000/svg"
   xmlns:sodipodi="http://sodipodi.sourceforge.net/DTD/sodipodi-0.dtd"
   xmlns:inkscape="http://www.inkscape.org/namespaces/inkscape"
   width="64"
   height="64"
   viewBox="0 0 16.933333 16.933334"
   version="1.1"
   id="svg8"
   inkscape:version="0.92.4 (5da689c313, 2019-01-14)"
   sodipodi:docname="MHRise Item Icon-Palico Armor Yellow.svg">
  <defs
     id="defs2" />
  <sodipodi:namedview
     id="base"
     pagecolor="#ffffff"
     bordercolor="#666666"
     borderopacity="1.0"
     inkscape:pageopacity="0.0"
     inkscape:pageshadow="2"
     inkscape:zoom="4"
     inkscape:cx="28.584428"
     inkscape:cy="33.316305"
     inkscape:document-units="px"
     inkscape:current-layer="layer1"
     showgrid="false"
     units="px"
     showguides="true"
     inkscape:guide-bbox="true"
     inkscape:snap-global="true"
     inkscape:window-width="1304"
     inkscape:window-height="745"
     inkscape:window-x="-8"
     inkscape:window-y="-8"
     inkscape:window-maximized="1" />
  <metadata
     id="metadata5">
    <rdf:RDF>
      <cc:Work
         rdf:about="">
        <dc:format>image/svg+xml</dc:format>
        <dc:type
           rdf:resource="http://purl.org/dc/dcmitype/StillImage" />
        <dc:title></dc:title>
      </cc:Work>
    </rdf:RDF>
  </metadata>
  <g
     inkscape:label="Layer 1"
     inkscape:groupmode="layer"
     id="layer1"
     transform="translate(0,-280.06666)"
     style="display:inline">
    <path
       style="fill:#858585;fill-opacity:1;stroke:none;stroke-width:0.26458335px;stroke-linecap:butt;stroke-linejoin:miter;stroke-opacity:1"
       d="m 8.4667705,284.96472 -3.5196818,0.95188 0.5141805,2.22157 3.0055013,0.98237 3.0049845,-0.98237 0.514698,-2.22157 z"
       id="path1103"
       inkscape:connector-curvature="0" />
    <path
       style="fill:#858585;fill-opacity:1;stroke:#000000;stroke-width:0.5291667;stroke-linecap:round;stroke-linejoin:round;stroke-miterlimit:4;stroke-dasharray:none;stroke-opacity:1"
       d="m 7.5546816,291.36536 v 3.12229 h 0.9120889 0.9120892 v -3.12229 H 8.4667705 Z"
       id="path942"
       inkscape:connector-curvature="0" />
    <path
       style="fill:#858585;fill-opacity:1;stroke:#000000;stroke-width:0.5291667;stroke-linecap:round;stroke-linejoin:round;stroke-miterlimit:4;stroke-dasharray:none;stroke-opacity:1"
       d="m 6.2333151,294.48765 -0.6433717,0.50281 H 3.602468 v 0.65474 l 0.526066,0.37414 h 4.3382365 4.3382365 l 0.526066,-0.37414 v -0.65474 h -1.987992 l -0.642855,-0.50281 H 8.4667705 Z"
       id="path940"
       inkscape:connector-curvature="0" />
    <path
       style="fill:#d0d0d0;fill-opacity:1;stroke:none;stroke-width:0.26458335px;stroke-linecap:butt;stroke-linejoin:miter;stroke-opacity:1"
       d="m 8.4667705,282.44291 -1.3730428,0.46302 0.1405599,1.19889 1.2324829,0.23151 1.2324829,-0.23151 0.1405599,-1.19889 z"
       id="path1058"
       inkscape:connector-curvature="0" />
    <path
       style="fill:#ffffff;fill-opacity:1;stroke:#000000;stroke-width:0.5291667;stroke-linecap:butt;stroke-linejoin:round;stroke-miterlimit:4;stroke-dasharray:none;stroke-opacity:1"
       d="m 8.4667705,281.8941 c -1.4499368,0 -1.824219,-0.0351 -2.0463867,0.37414 -0.2221678,0.40926 0.9875366,0.79478 0.9875366,0.79478 h 1.0588501 1.0588501 c 0,0 1.2097034,-0.38552 0.9875364,-0.79478 -0.222168,-0.40927 -0.5964502,-0.37414 -2.0463865,-0.37414 z"
       id="path1056"
       inkscape:connector-curvature="0" />
    <path
       style="fill:#d0d0d0;fill-opacity:1;stroke:#000000;stroke-width:0.5291667;stroke-linecap:round;stroke-linejoin:round;stroke-miterlimit:4;stroke-dasharray:none;stroke-opacity:1"
       d="m 4.1502381,283.7989 c 0,0 -0.090951,1.39733 0.1984375,1.86035 0.289388,0.46302 1.190625,-1.14102 1.190625,-1.14102 l -0.5922391,-1.10794 z"
       id="path1054"
       inkscape:connector-curvature="0" />
    <path
       style="fill:#ffffff;fill-opacity:1;stroke:#000000;stroke-width:0.5291667;stroke-linecap:round;stroke-linejoin:round;stroke-miterlimit:4;stroke-dasharray:none;stroke-opacity:1"
       d="m 6.779535,282.47598 c 0,0 0.3224609,-0.0992 0.3638021,-0.26458 0.041341,-0.16537 -2.8277345,-1.06661 -3.5718751,-1.14929 -0.7441406,-0.0827 -1.4304037,0.21498 -1.1327474,0.86817 0.2976562,0.65319 1.7611328,2.19108 2.2241537,2.09186 0.4630208,-0.0992 2.1166667,-1.54616 2.1166667,-1.54616 z"
       id="path1052"
       inkscape:connector-curvature="0" />
    <path
       style="fill:#d0d0d0;fill-opacity:1;stroke:none;stroke-width:0.26458335px;stroke-linecap:butt;stroke-linejoin:miter;stroke-opacity:1"
       d="m 3.1112539,281.67202 c 0,0 1.5319003,1.99152 2.0462824,1.78504 0.514382,-0.20648 0.514382,-0.86129 0.514382,-0.86129 0,0 -1.4615184,-0.77174 -2.5606644,-0.92375 z"
       id="path1105"
       inkscape:connector-curvature="0" />
    <path
       style="fill:#ffffff;fill-opacity:1;stroke:#000000;stroke-width:0.5291667;stroke-linecap:round;stroke-linejoin:round;stroke-miterlimit:4;stroke-dasharray:none;stroke-opacity:1"
       d="m 7.4079204,283.95599 -2.2572266,1.08314 -0.2036051,2.18281 0.9312093,-0.12402 c 0,-0.5457 0.5631696,-1.03353 2.5884725,-1.03353 2.0253025,0 2.5884725,0.48783 2.5884725,1.03353 l 0.93121,0.12402 -0.203606,-2.18281 -2.2572264,-1.08314 H 8.4667705 Z"
       id="path1046"
       inkscape:connector-curvature="0" />
    <path
       style="fill:#ffffff;fill-opacity:1;stroke:#000000;stroke-width:0.5291667;stroke-linecap:round;stroke-linejoin:round;stroke-miterlimit:4;stroke-dasharray:none;stroke-opacity:1"
       d="m 6.9113099,287.13254 -2.3145874,3.15692 v 1.82727 L 4.290798,292.41439 H 4.075824 l -0.3183268,0.31833 v 0.44235 l 0.3245281,0.32453 h 4.3847452 4.3847455 l 0.324528,-0.32453 v -0.44235 l -0.318327,-0.31833 h -0.214974 l -0.305924,-0.29766 v -1.82727 l -2.315105,-3.15692 H 9.6909852 l -1.0330119,1.03301 H 8.4667705 8.2750511 l -1.0324952,-1.03301 z"
       id="path1040"
       inkscape:connector-curvature="0" />
    <path
       style="fill:#ffffff;fill-opacity:1;stroke:#000000;stroke-width:0.5291667;stroke-linecap:round;stroke-linejoin:round;stroke-miterlimit:4;stroke-dasharray:none;stroke-opacity:1"
       d="m 5.9196391,285.36159 c 0,0 -0.4134114,0.5209 -0.4134114,1.79421 H 4.1088969 c 0,-0.87565 0.4142991,-1.79487 0.8381644,-2.53025"
       id="path1044"
       inkscape:connector-curvature="0"
       sodipodi:nodetypes="cccc" />
    <path
       style="fill:#d0d0d0;fill-opacity:1;stroke:#000000;stroke-width:0.5291667;stroke-linecap:round;stroke-linejoin:round;stroke-miterlimit:4;stroke-dasharray:none;stroke-opacity:1"
       d="m 6.9114925,287.13267 c 0,0 -2.5724692,0 -2.8531022,0 -0.2806329,0 -0.7132756,0.42095 -0.7132756,0.95883 0,0.53788 0,1.13422 0,1.41486 0,0.28063 0.6431174,0.80682 1.1225321,0.80682 0.4794147,0 1.1225321,0 1.4031651,0 0.2806329,0 1.0348341,-0.53788 1.0348341,-1.03484 0,-0.49695 0.00585,-2.14567 0.00585,-2.14567 z"
       id="path1034"
       inkscape:connector-curvature="0" />
    <path
       style="fill:#000000;stroke:none;stroke-width:0.5291667;stroke-linecap:round;stroke-linejoin:round;stroke-miterlimit:4;stroke-dasharray:none;stroke-opacity:1"
       d="m 5.079353,288.82236 c -0.415103,0 -0.6721581,0.64316 -0.5844606,0.81856 0.087698,0.17539 0.4032181,0.216 0.5844606,0.216 0.1812425,0 0.4967624,-0.0406 0.5844604,-0.216 0.087698,-0.1754 -0.1693574,-0.81856 -0.5844604,-0.81856 z"
       id="path981"
       inkscape:connector-curvature="0" />
    <circle
       style="opacity:1;fill:#000000;fill-opacity:1;stroke:none;stroke-width:0.5291667;stroke-linecap:round;stroke-linejoin:round;stroke-miterlimit:4;stroke-dasharray:none;stroke-dashoffset:0;stroke-opacity:1"
       id="path999"
       cx="5.0793257"
       cy="288.02396"
       r="0.35553387" />
    <circle
       style="display:inline;opacity:1;fill:#000000;fill-opacity:1;stroke:none;stroke-width:0.5291667;stroke-linecap:round;stroke-linejoin:round;stroke-miterlimit:4;stroke-dasharray:none;stroke-dashoffset:0;stroke-opacity:1"
       id="path999-6"
       cx="4.0220528"
       cy="288.37949"
       r="0.35553387" />
    <circle
       style="display:inline;opacity:1;fill:#000000;fill-opacity:1;stroke:none;stroke-width:0.5291667;stroke-linecap:round;stroke-linejoin:round;stroke-miterlimit:4;stroke-dasharray:none;stroke-dashoffset:0;stroke-opacity:1"
       id="path999-6-2"
       cx="-6.1366529"
       cy="288.37949"
       r="0.35553387"
       transform="scale(-1,1)" />
    <path
       style="fill:#d0d0d0;fill-opacity:1;stroke:#000000;stroke-width:0.5291667;stroke-linecap:round;stroke-linejoin:round;stroke-miterlimit:4;stroke-dasharray:none;stroke-opacity:1"
       d="m 4.7124777,283.86504 c -0.015887,0.61992 0.2345836,1.42361 1.3660206,1.39816 0.9239869,-0.0208 1.6916896,-0.70603 1.7360025,-1.36874 0.071693,-1.07218 -0.8575233,-1.57197 -1.6635233,-1.46595 -0.6952106,0.0915 -1.4184201,0.65302 -1.4384998,1.43653 z"
       id="path1036"
       inkscape:connector-curvature="0"
       sodipodi:nodetypes="sssss" />
    <path
       style="fill:none;stroke:#000000;stroke-width:0.5291667;stroke-linecap:round;stroke-linejoin:round;stroke-miterlimit:4;stroke-dasharray:none;stroke-opacity:1"
       d="M 4.5967224,292.11673 H 8.4666668"
       id="path1042"
       inkscape:connector-curvature="0" />
    <path
       style="fill:#000000;stroke:none;stroke-width:0.5291667;stroke-linecap:round;stroke-linejoin:round;stroke-miterlimit:4;stroke-dasharray:none;stroke-opacity:1"
       d="m 8.4666668,285.54763 c -0.4014221,-0.10336 -0.5378479,-0.41755 -0.4634339,-0.62012 0.074414,-0.20257 0.4634339,0.0372 0.4634339,0.0372"
       id="path1050"
       inkscape:connector-curvature="0" />
    <path
       inkscape:connector-curvature="0"
       style="display:inline;fill:#d0d0d0;fill-opacity:1;stroke:#000000;stroke-width:0.5291667;stroke-linecap:round;stroke-linejoin:round;stroke-miterlimit:4;stroke-dasharray:none;stroke-opacity:1"
       d="m 5.4614437,291.54659 v 0.85953 h 0.5379516 0.5379516 v -1.04077 H 5.4614435 Z"
       id="path944-1"
       sodipodi:nodetypes="ccccccc" />
    <path
       style="display:inline;fill:#000000;fill-opacity:1;stroke:none;stroke-width:0.5291667;stroke-linecap:round;stroke-linejoin:round;stroke-miterlimit:4;stroke-dasharray:none;stroke-opacity:1"
       d="m 5.5189366,283.85161 c -0.00764,0.29792 0.1127363,0.68416 0.6564832,0.67193 0.4440503,-0.01 0.8129935,-0.33931 0.8342894,-0.65779 0.034454,-0.51527 -0.4121092,-0.75546 -0.7994573,-0.70451 -0.3341048,0.044 -0.6816654,0.31383 -0.6913153,0.69037 z"
       id="path1036-7"
       inkscape:connector-curvature="0"
       sodipodi:nodetypes="sssss" />
    <path
       style="display:inline;fill:#d0d0d0;fill-opacity:1;stroke:#000000;stroke-width:0.5291667;stroke-linecap:round;stroke-linejoin:round;stroke-miterlimit:4;stroke-dasharray:none;stroke-opacity:1"
       d="m 12.783095,283.7989 c 0,0 0.09095,1.39733 -0.198437,1.86035 -0.289388,0.46302 -1.190625,-1.14102 -1.190625,-1.14102 l 0.592239,-1.10794 z"
       id="path1054-7"
       inkscape:connector-curvature="0" />
    <path
       style="display:inline;fill:#ffffff;fill-opacity:1;stroke:#000000;stroke-width:0.5291667;stroke-linecap:round;stroke-linejoin:round;stroke-miterlimit:4;stroke-dasharray:none;stroke-opacity:1"
       d="m 10.153798,282.47598 c 0,0 -0.322461,-0.0992 -0.363802,-0.26458 -0.04134,-0.16537 2.827735,-1.06661 3.571875,-1.14929 0.744141,-0.0827 1.430404,0.21498 1.132748,0.86817 -0.297657,0.65319 -1.761133,2.19108 -2.224154,2.09186 -0.463021,-0.0992 -2.116667,-1.54616 -2.116667,-1.54616 z"
       id="path1052-5"
       inkscape:connector-curvature="0" />
    <path
       style="display:inline;fill:#d0d0d0;fill-opacity:1;stroke:none;stroke-width:0.26458335px;stroke-linecap:butt;stroke-linejoin:miter;stroke-opacity:1"
       d="m 13.822079,281.67202 c 0,0 -1.5319,1.99152 -2.046282,1.78504 -0.514382,-0.20648 -0.514382,-0.86129 -0.514382,-0.86129 0,0 1.461518,-0.77174 2.560664,-0.92375 z"
       id="path1105-2"
       inkscape:connector-curvature="0" />
    <path
       style="display:inline;fill:#ffffff;fill-opacity:1;stroke:#000000;stroke-width:0.5291667;stroke-linecap:round;stroke-linejoin:round;stroke-miterlimit:4;stroke-dasharray:none;stroke-opacity:1"
       d="m 11.013694,285.36159 c 0,0 0.413412,0.5209 0.413412,1.79421 h 1.397331 c 0,-0.87565 -0.4143,-1.79487 -0.838165,-2.53025"
       id="path1044-2"
       inkscape:connector-curvature="0"
       sodipodi:nodetypes="cccc" />
    <path
       style="display:inline;fill:#d0d0d0;fill-opacity:1;stroke:#000000;stroke-width:0.5291667;stroke-linecap:round;stroke-linejoin:round;stroke-miterlimit:4;stroke-dasharray:none;stroke-opacity:1"
       d="m 10.021841,287.13267 c 0,0 2.572469,0 2.853102,0 0.280633,0 0.713276,0.42095 0.713276,0.95883 0,0.53788 0,1.13422 0,1.41486 0,0.28063 -0.643118,0.80682 -1.122532,0.80682 -0.479415,0 -1.122533,0 -1.403166,0 -0.280632,0 -1.034834,-0.53788 -1.034834,-1.03484 0,-0.49695 -0.0059,-2.14567 -0.0059,-2.14567 z"
       id="path1034-6"
       inkscape:connector-curvature="0" />
    <path
       style="display:inline;fill:#000000;stroke:none;stroke-width:0.5291667;stroke-linecap:round;stroke-linejoin:round;stroke-miterlimit:4;stroke-dasharray:none;stroke-opacity:1"
       d="m 11.85398,288.82236 c 0.415103,0 0.672159,0.64316 0.584461,0.81856 -0.0877,0.17539 -0.403218,0.216 -0.584461,0.216 -0.181242,0 -0.496762,-0.0406 -0.58446,-0.216 -0.0877,-0.1754 0.169357,-0.81856 0.58446,-0.81856 z"
       id="path981-8"
       inkscape:connector-curvature="0" />
    <circle
       style="display:inline;opacity:1;fill:#000000;fill-opacity:1;stroke:none;stroke-width:0.5291667;stroke-linecap:round;stroke-linejoin:round;stroke-miterlimit:4;stroke-dasharray:none;stroke-dashoffset:0;stroke-opacity:1"
       id="path999-5"
       cx="-11.854008"
       cy="288.02393"
       r="0.35553387"
       transform="scale(-1,1)" />
    <circle
       style="display:inline;opacity:1;fill:#000000;fill-opacity:1;stroke:none;stroke-width:0.5291667;stroke-linecap:round;stroke-linejoin:round;stroke-miterlimit:4;stroke-dasharray:none;stroke-dashoffset:0;stroke-opacity:1"
       id="path999-6-9"
       cx="-12.91128"
       cy="288.37946"
       r="0.35553387"
       transform="scale(-1,1)" />
    <circle
       style="display:inline;opacity:1;fill:#000000;fill-opacity:1;stroke:none;stroke-width:0.5291667;stroke-linecap:round;stroke-linejoin:round;stroke-miterlimit:4;stroke-dasharray:none;stroke-dashoffset:0;stroke-opacity:1"
       id="path999-6-2-3"
       cx="10.79668"
       cy="288.37946"
       r="0.35553387" />
    <path
       style="display:inline;fill:#d0d0d0;fill-opacity:1;stroke:#000000;stroke-width:0.5291667;stroke-linecap:round;stroke-linejoin:round;stroke-miterlimit:4;stroke-dasharray:none;stroke-opacity:1"
       d="m 12.220856,283.86504 c 0.01589,0.61992 -0.234584,1.42361 -1.366021,1.39816 -0.923987,-0.0208 -1.69169,-0.70603 -1.736002,-1.36874 -0.07169,-1.07218 0.857523,-1.57197 1.663523,-1.46595 0.69521,0.0915 1.41842,0.65302 1.4385,1.43653 z"
       id="path1036-73"
       inkscape:connector-curvature="0"
       sodipodi:nodetypes="sssss" />
    <path
       style="display:inline;fill:none;stroke:#000000;stroke-width:0.5291667;stroke-linecap:round;stroke-linejoin:round;stroke-miterlimit:4;stroke-dasharray:none;stroke-opacity:1"
       d="M 12.336611,292.11673 H 8.4666668"
       id="path1042-5"
       inkscape:connector-curvature="0" />
    <path
       style="display:inline;fill:#000000;stroke:none;stroke-width:0.5291667;stroke-linecap:round;stroke-linejoin:round;stroke-miterlimit:4;stroke-dasharray:none;stroke-opacity:1"
       d="m 8.4666668,285.54763 c 0.4014222,-0.10336 0.5378472,-0.41755 0.4634332,-0.62012 -0.07441,-0.20257 -0.4634332,0.0372 -0.4634332,0.0372"
       id="path1050-5"
       inkscape:connector-curvature="0" />
    <path
       inkscape:connector-curvature="0"
       style="display:inline;fill:#d0d0d0;fill-opacity:1;stroke:#000000;stroke-width:0.5291667;stroke-linecap:round;stroke-linejoin:round;stroke-miterlimit:4;stroke-dasharray:none;stroke-opacity:1"
       d="m 9.004515,291.89452 v 0.51159 H 8.4665628 7.9286108 v -1.04076 h 1.0759039 z"
       id="path944-2"
       sodipodi:nodetypes="ccccccc" />
    <path
       inkscape:connector-curvature="0"
       style="display:inline;fill:#d0d0d0;fill-opacity:1;stroke:#000000;stroke-width:0.5291667;stroke-linecap:round;stroke-linejoin:round;stroke-miterlimit:4;stroke-dasharray:none;stroke-opacity:1"
       d="m 11.47189,291.54659 v 0.85953 h -0.537952 -0.537951 v -1.04077 h 1.075903 z"
       id="path944-1-9"
       sodipodi:nodetypes="ccccccc" />
    <path
       style="display:inline;fill:#000000;fill-opacity:1;stroke:none;stroke-width:0.5291667;stroke-linecap:round;stroke-linejoin:round;stroke-miterlimit:4;stroke-dasharray:none;stroke-opacity:1"
       d="m 11.414397,283.85161 c 0.0076,0.29792 -0.112736,0.68416 -0.656483,0.67193 -0.444051,-0.01 -0.812994,-0.33931 -0.83429,-0.65779 -0.03445,-0.51527 0.412109,-0.75546 0.799457,-0.70451 0.334105,0.044 0.681666,0.31383 0.691316,0.69037 z"
       id="path1036-7-0"
       inkscape:connector-curvature="0"
       sodipodi:nodetypes="sssss" />
  </g>
</svg>
