<?xml version="1.0" encoding="UTF-8" standalone="no"?>
<svg
   xmlns:dc="http://purl.org/dc/elements/1.1/"
   xmlns:cc="http://creativecommons.org/ns#"
   xmlns:rdf="http://www.w3.org/1999/02/22-rdf-syntax-ns#"
   xmlns:svg="http://www.w3.org/2000/svg"
   xmlns="http://www.w3.org/2000/svg"
   xmlns:sodipodi="http://sodipodi.sourceforge.net/DTD/sodipodi-0.dtd"
   xmlns:inkscape="http://www.inkscape.org/namespaces/inkscape"
   width="64"
   height="64"
   viewBox="0 0 16.933333 16.933334"
   version="1.1"
   id="svg4846"
   inkscape:version="1.0.1 (3bc2e813f5, 2020-09-07)"
   sodipodi:docname="Round Bug Icon Yellow.svg">
  <defs
     id="defs4840" />
  <sodipodi:namedview
     id="base"
     pagecolor="#ffffff"
     bordercolor="#666666"
     borderopacity="1.0"
     inkscape:pageopacity="0.0"
     inkscape:pageshadow="2"
     inkscape:zoom="3.959798"
     inkscape:cx="63.470709"
     inkscape:cy="35.816858"
     inkscape:document-units="px"
     inkscape:current-layer="layer1"
     showgrid="false"
     units="px"
     inkscape:window-width="1366"
     inkscape:window-height="705"
     inkscape:window-x="-8"
     inkscape:window-y="-8"
     inkscape:window-maximized="1"
     showguides="true"
     inkscape:guide-bbox="true"
     inkscape:document-rotation="0" />
  <metadata
     id="metadata4843">
    <rdf:RDF>
      <cc:Work
         rdf:about="">
        <dc:format>image/svg+xml</dc:format>
        <dc:type
           rdf:resource="http://purl.org/dc/dcmitype/StillImage" />
        <dc:title />
      </cc:Work>
    </rdf:RDF>
  </metadata>
  <g
     inkscape:label="Layer 1"
     inkscape:groupmode="layer"
     id="layer1"
     transform="translate(0,-280.06665)">
    <path
       id="path841"
       style="fill:#d0d0d0;fill-opacity:1;stroke:#000000;stroke-width:0.529167;stroke-linecap:round;stroke-linejoin:round"
       d="m 3.2726686,289.65097 -1.2981121,1.29862 v 3.89537 l -0.2599324,0.25942 v 0.77928 h 1.2986288 l 0.519348,-0.51935 v -4.15478 l 0.2594157,-0.25994 h 1.5585613 v -1.29862 z m 8.3100874,0 v 1.29862 h 1.558561 l 0.259416,0.25994 v 4.15478 l 0.519348,0.51935 h 1.298629 v -0.77928 l -0.259933,-0.25942 v -3.89537 l -1.298112,-1.29862 z" />
    <path
       id="path2439-4"
       style="display:inline;opacity:1;vector-effect:none;fill:#d0d0d0;fill-opacity:1;fill-rule:evenodd;stroke:#000000;stroke-width:2;stroke-linecap:butt;stroke-linejoin:round;stroke-miterlimit:4;stroke-dasharray:none;stroke-dashoffset:0;stroke-opacity:1"
       d="M 7.4628906 3.3242188 L 6.4804688 4.3066406 L 6.4804688 7.25 L 8.4433594 9.2128906 L 8.4433594 20.009766 L 15.314453 26.880859 L 21.203125 26.880859 L 22.185547 25.898438 L 22.185547 21.972656 L 22.185547 16.083984 L 20.222656 16.083984 L 18.259766 14.121094 L 18.259766 8.2324219 L 15.314453 5.2871094 L 13.351562 5.2871094 L 11.388672 3.3242188 L 7.4628906 3.3242188 z M 52.611328 3.3242188 L 50.648438 5.2871094 L 48.685547 5.2871094 L 45.740234 8.2324219 L 45.740234 14.121094 L 43.777344 16.083984 L 41.814453 16.083984 L 41.814453 21.972656 L 41.814453 25.898438 L 42.796875 26.880859 L 48.685547 26.880859 L 55.556641 20.009766 L 55.556641 9.2128906 L 57.519531 7.25 L 57.519531 4.3066406 L 56.537109 3.3242188 L 52.611328 3.3242188 z M 13.351562 17.066406 L 18.259766 21.972656 L 17.277344 21.972656 L 13.351562 18.046875 L 13.351562 17.066406 z M 50.648438 17.066406 L 50.648438 18.046875 L 46.722656 21.972656 L 45.740234 21.972656 L 50.648438 17.066406 z "
       transform="matrix(0.26458334,0,0,0.26458334,0,280.06665)" />
    <path
       id="path2441-2"
       style="display:inline;opacity:1;vector-effect:none;fill:#858585;fill-opacity:1;fill-rule:evenodd;stroke:#000000;stroke-width:0.52916667;stroke-linecap:butt;stroke-linejoin:round;stroke-miterlimit:4;stroke-dasharray:none;stroke-dashoffset:0;stroke-opacity:1"
       d="m 8.7263553,282.50437 v -0.77906 l 0.7790653,-0.77907 h 1.5581314 l 0.259688,0.25969 v 0.77907 l -0.259688,0.25969 H 9.7651087 l -0.2596881,0.25968 z m -0.5193782,0 v -0.77906 L 7.4279118,280.94624 H 5.8697812 l -0.2596881,0.25969 v 0.77907 l 0.2596881,0.25969 h 1.2984425 l 0.2596881,0.25968 z" />
    <path
       style="display:inline;opacity:1;vector-effect:none;fill:none;fill-opacity:1;fill-rule:evenodd;stroke:#000000;stroke-width:0.52916667;stroke-linecap:butt;stroke-linejoin:round;stroke-miterlimit:4;stroke-dasharray:none;stroke-dashoffset:0;stroke-opacity:1"
       d="M 5.8697812,285.62064 H 11.063551"
       id="path2479"
       inkscape:connector-curvature="0" />
    <path
       style="fill:#d0d0d0;fill-opacity:1;stroke:#000000;stroke-width:0.52916667;stroke-linecap:round;stroke-linejoin:round;stroke-miterlimit:4;stroke-dasharray:none;stroke-opacity:1"
       d="M 5.8697812,285.88033 H 4.5713398 l -1.0387546,-1.03875 v -3.37596 h 0.5193782 l 0.7790646,0.77907 v 1.55813 l 0.5193771,0.51938 h 0.5193761 z"
       id="path883" />
    <path
       style="fill:#d0d0d0;fill-opacity:1;stroke:#000000;stroke-width:0.52916667;stroke-linecap:round;stroke-linejoin:round;stroke-miterlimit:4;stroke-dasharray:none;stroke-opacity:1"
       d="m 11.063552,285.88033 h 1.298442 l 1.038754,-1.03875 v -3.37596 H 12.88137 l -0.779065,0.77907 v 1.55813 l -0.519377,0.51938 h -0.519376 z"
       id="path883-2" />
    <path
       style="fill:#ffffff;fill-opacity:1;stroke:#000000;stroke-width:0.52916667;stroke-linecap:round;stroke-linejoin:round;stroke-miterlimit:4;stroke-dasharray:none;stroke-opacity:1"
       d="m 5.8697812,285.62064 h 5.1937698 l 10e-7,-1.81782 -1.2984432,-1.29845 H 7.1682247 l -1.2984425,1.29845 z"
       id="path861" />
    <circle
       style="fill:#ffffff;fill-opacity:1;stroke:#000000;stroke-width:0.52916667;stroke-linecap:round;stroke-linejoin:round;stroke-miterlimit:4;stroke-dasharray:none;stroke-opacity:1"
       id="path900"
       cx="8.4666672"
       cy="290.44342"
       r="5.6769753" />
    <circle
       style="display:inline;opacity:1;fill:#000000;fill-opacity:1;fill-rule:nonzero;stroke:none;stroke-width:0.52916667;stroke-linecap:round;stroke-linejoin:round;stroke-miterlimit:4;stroke-dasharray:none;stroke-dashoffset:0;stroke-opacity:1;paint-order:markers stroke fill"
       id="path2443"
       cx="7.2980676"
       cy="283.93268"
       r="0.38953269" />
    <circle
       style="display:inline;opacity:1;fill:#000000;fill-opacity:1;fill-rule:nonzero;stroke:none;stroke-width:0.52916667;stroke-linecap:round;stroke-linejoin:round;stroke-miterlimit:4;stroke-dasharray:none;stroke-dashoffset:0;stroke-opacity:1;paint-order:markers stroke fill"
       id="path2443-9"
       cx="-9.6352692"
       cy="283.93268"
       r="0.38953269"
       transform="scale(-1,1)" />
    <circle
       style="fill:#ffffff;fill-opacity:1;stroke:#000000;stroke-width:0.52916667;stroke-linecap:round;stroke-linejoin:round;stroke-miterlimit:4;stroke-dasharray:none;stroke-opacity:1"
       id="path900-8"
       cx="8.4666672"
       cy="290.44342"
       r="4.0680203" />
    <circle
       style="fill:#ffffff;fill-opacity:1;stroke:#000000;stroke-width:0.52916667;stroke-linecap:round;stroke-linejoin:round;stroke-miterlimit:4;stroke-dasharray:none;stroke-opacity:1"
       id="path900-8-6-6"
       cx="8.4666672"
       cy="290.44342"
       r="2.3614018" />
  </g>
</svg>
