<?xml version="1.0" encoding="UTF-8" standalone="no"?>
<!-- Created with Inkscape (http://www.inkscape.org/) -->

<svg
   xmlns:dc="http://purl.org/dc/elements/1.1/"
   xmlns:cc="http://creativecommons.org/ns#"
   xmlns:rdf="http://www.w3.org/1999/02/22-rdf-syntax-ns#"
   xmlns:svg="http://www.w3.org/2000/svg"
   xmlns="http://www.w3.org/2000/svg"
   xmlns:sodipodi="http://sodipodi.sourceforge.net/DTD/sodipodi-0.dtd"
   xmlns:inkscape="http://www.inkscape.org/namespaces/inkscape"
   width="64"
   height="64"
   viewBox="0 0 16.933333 16.933334"
   version="1.1"
   id="svg4846"
   inkscape:version="0.92.4 (5da689c313, 2019-01-14)"
   sodipodi:docname="5thGen Item Icon-Sac Yellow.svg">
  <defs
     id="defs4840" />
  <sodipodi:namedview
     id="base"
     pagecolor="#ffffff"
     bordercolor="#666666"
     borderopacity="1.0"
     inkscape:pageopacity="0.0"
     inkscape:pageshadow="2"
     inkscape:zoom="5.6"
     inkscape:cx="11.75586"
     inkscape:cy="43.295426"
     inkscape:document-units="px"
     inkscape:current-layer="layer1"
     showgrid="false"
     units="px"
     inkscape:window-width="1304"
     inkscape:window-height="745"
     inkscape:window-x="-8"
     inkscape:window-y="-8"
     inkscape:window-maximized="1"
     showguides="true"
     inkscape:guide-bbox="true" />
  <metadata
     id="metadata4843">
    <rdf:RDF>
      <cc:Work
         rdf:about="">
        <dc:format>image/svg+xml</dc:format>
        <dc:type
           rdf:resource="http://purl.org/dc/dcmitype/StillImage" />
        <dc:title />
      </cc:Work>
    </rdf:RDF>
  </metadata>
  <g
     inkscape:label="Layer 1"
     inkscape:groupmode="layer"
     id="layer1"
     transform="translate(0,-280.06665)">
    <path
       inkscape:connector-curvature="0"
       style="display:inline;opacity:1;vector-effect:none;fill:#ffffff;fill-opacity:1;fill-rule:evenodd;stroke:#000000;stroke-width:0.5291667;stroke-linecap:butt;stroke-linejoin:round;stroke-miterlimit:4;stroke-dasharray:none;stroke-dashoffset:0;stroke-opacity:1"
       d="m 7.9375001,284.82915 -0.2645835,0 2e-7,0.52917 -0.5291667,0.52916 H 6.8791667 l -1.0583333,-0.52916 h -0.79375 v 1.05833 l 1.3229167,1.5875 v 0.79375 c -1.3229167,0 -3.9687501,2.38125 -3.9687501,3.96875 v 2.11667 c 0,0.52916 0.5291667,1.05833 1.0583334,1.05833 h 5.0270834 5.0270822 c 0.529167,0 1.058334,-0.52917 1.058334,-1.05833 v -2.11667 c 0,-1.5875 -2.645833,-3.96875 -3.96875,-3.96875 v -0.79375 l 1.322917,-1.5875 v -1.05833 H 11.1125 l -1.058333,0.52916 H 9.7895834 l -0.5291666,-0.52916 v -0.52917 h -0.79375 z"
       id="path1492"
       sodipodi:nodetypes="ccccccccccssscsssccccccccccc" />
    <path
       inkscape:connector-curvature="0"
       style="display:inline;opacity:1;vector-effect:none;fill:#000000;fill-opacity:1;fill-rule:evenodd;stroke:none;stroke-width:0.26458332;stroke-linecap:butt;stroke-linejoin:miter;stroke-miterlimit:4;stroke-dasharray:none;stroke-dashoffset:0;stroke-opacity:1"
       d="m 8.2020834,293.03123 -0.79375,0.79375 v 0.26459 h 1.0583334 1.0583333 v -0.26459 l -0.79375,-0.79375 H 8.4666668 Z"
       id="path1509" />
    <path
       inkscape:connector-curvature="0"
       style="display:inline;opacity:1;vector-effect:none;fill:#000000;fill-opacity:1;fill-rule:evenodd;stroke:none;stroke-width:0.26458332;stroke-linecap:butt;stroke-linejoin:miter;stroke-miterlimit:4;stroke-dasharray:none;stroke-dashoffset:0;stroke-opacity:1"
       d="m 5.0270831,293.03123 -0.7937499,0.79375 v 0.26459 h 1.0583341 1.0583328 v -0.26459 l -0.79375,-0.79375 H 5.2916673 Z"
       id="path1509-4" />
    <path
       inkscape:connector-curvature="0"
       style="display:inline;opacity:1;vector-effect:none;fill:#000000;fill-opacity:1;fill-rule:evenodd;stroke:none;stroke-width:0.26458332;stroke-linecap:butt;stroke-linejoin:miter;stroke-miterlimit:4;stroke-dasharray:none;stroke-dashoffset:0;stroke-opacity:1"
       d="m 11.641666,293.03123 -0.79375,0.79375 v 0.26459 h 1.058334 1.058333 v -0.26459 l -0.79375,-0.79375 H 11.90625 Z"
       id="path1509-4-0" />
    <path
       style="display:inline;opacity:1;vector-effect:none;fill:#000000;fill-opacity:1;fill-rule:evenodd;stroke:none;stroke-width:0.26458332;stroke-linecap:butt;stroke-linejoin:miter;stroke-miterlimit:4;stroke-dasharray:none;stroke-dashoffset:0;stroke-opacity:1"
       d="m 7.4083342,288.53332 v 0.26458 l 0.2645831,0.26458 h 0.2645828 l 0.2645841,-0.26458 v -0.26458 z"
       id="path1557"
       inkscape:connector-curvature="0" />
    <path
       style="display:inline;opacity:1;vector-effect:none;fill:#000000;fill-opacity:1;fill-rule:evenodd;stroke:none;stroke-width:0.26458332;stroke-linecap:butt;stroke-linejoin:miter;stroke-miterlimit:4;stroke-dasharray:none;stroke-dashoffset:0;stroke-opacity:1"
       d="m 8.7312501,288.53332 v 0.26458 l 0.2645831,0.26458 h 0.264583 l 0.2645839,-0.26458 v -0.26458 z"
       id="path1557-6"
       inkscape:connector-curvature="0" />
    <path
       style="display:inline;opacity:1;vector-effect:none;fill:#ffffff;fill-opacity:1;fill-rule:evenodd;stroke:#000000;stroke-width:0.5291667;stroke-linecap:butt;stroke-linejoin:round;stroke-miterlimit:4;stroke-dasharray:none;stroke-dashoffset:0;stroke-opacity:1"
       d="m 7.9375001,284.82915 v -0.52917 l -1.3229159,-1.32291 -1.1e-6,-1.05834 0.7937501,-0.79375 h 2.1166669 l 0.7937499,0.79375 1e-6,1.05834 -0.7937498,0.79375 h -0.79375 l -0.529167,-0.52917 v -0.79375 h 0.79375 l -0.264583,-0.26458 h -0.529167 l -0.2645841,0.26458 v 0.52917 l 1.0583341,1.05833 v 0.79375 z"
       id="path1575"
       inkscape:connector-curvature="0"
       sodipodi:nodetypes="cccccccccccccccccccc" />
  </g>
</svg>
