<?xml version="1.0" encoding="UTF-8" standalone="no"?>
<!-- Created with Inkscape (http://www.inkscape.org/) -->

<svg
   xmlns:dc="http://purl.org/dc/elements/1.1/"
   xmlns:cc="http://creativecommons.org/ns#"
   xmlns:rdf="http://www.w3.org/1999/02/22-rdf-syntax-ns#"
   xmlns:svg="http://www.w3.org/2000/svg"
   xmlns="http://www.w3.org/2000/svg"
   xmlns:sodipodi="http://sodipodi.sourceforge.net/DTD/sodipodi-0.dtd"
   xmlns:inkscape="http://www.inkscape.org/namespaces/inkscape"
   width="64"
   height="64"
   viewBox="0 0 16.933333 16.933334"
   version="1.1"
   id="svg4846"
   inkscape:version="0.92.4 (5da689c313, 2019-01-14)"
   sodipodi:docname="5thGen Item Icon-Bullet Yellow.svg">
  <defs
     id="defs4840" />
  <sodipodi:namedview
     id="base"
     pagecolor="#ffffff"
     bordercolor="#666666"
     borderopacity="1.0"
     inkscape:pageopacity="0.0"
     inkscape:pageshadow="2"
     inkscape:zoom="5.6"
     inkscape:cx="17.412576"
     inkscape:cy="24.397709"
     inkscape:document-units="px"
     inkscape:current-layer="layer1"
     showgrid="false"
     units="px"
     inkscape:window-width="1304"
     inkscape:window-height="745"
     inkscape:window-x="-8"
     inkscape:window-y="-8"
     inkscape:window-maximized="1"
     showguides="true"
     inkscape:guide-bbox="true" />
  <metadata
     id="metadata4843">
    <rdf:RDF>
      <cc:Work
         rdf:about="">
        <dc:format>image/svg+xml</dc:format>
        <dc:type
           rdf:resource="http://purl.org/dc/dcmitype/StillImage" />
        <dc:title />
      </cc:Work>
    </rdf:RDF>
  </metadata>
  <g
     inkscape:label="Layer 1"
     inkscape:groupmode="layer"
     id="layer1"
     transform="translate(0,-280.06665)">
    <path
       style="display:inline;opacity:1;vector-effect:none;fill:#ffffff;fill-opacity:1;fill-rule:evenodd;stroke:#000000;stroke-width:2;stroke-linecap:butt;stroke-linejoin:round;stroke-miterlimit:4;stroke-dasharray:none;stroke-dashoffset:0;stroke-opacity:1"
       d="M 14 20 L 12 22 L 12 25 L 14 27 L 17 27 L 17 20 L 14 20 z M 47 20 L 47 27 L 50 27 L 52 25 L 52 22 L 50 20 L 47 20 z M 14 32 L 12 34 L 12 37 L 14 39 L 17 39 L 17 32 L 14 32 z M 47 32 L 47 39 L 50 39 L 52 37 L 52 34 L 50 32 L 47 32 z M 14 44 L 12 46 L 12 49 L 14 51 L 17 51 L 17 44 L 14 44 z M 47 44 L 47 51 L 50 51 L 52 49 L 52 46 L 50 44 L 47 44 z "
       transform="matrix(0.26458334,0,0,0.26458334,0,280.06665)"
       id="path1828-8" />
    <path
       style="display:inline;opacity:1;vector-effect:none;fill:#d5d5d5;fill-opacity:1;fill-rule:evenodd;stroke:#000000;stroke-width:2;stroke-linecap:butt;stroke-linejoin:round;stroke-miterlimit:4;stroke-dasharray:none;stroke-dashoffset:0;stroke-opacity:1"
       d="M 17 25 L 17 32 L 47 32 L 47 25 L 38 25 L 17 25 z M 14 51 L 14 59 L 24 59 L 24 51 L 20 51 L 14 51 z M 27 51 L 27 59 L 37 59 L 37 51 L 33 51 L 27 51 z M 40 51 L 40 59 L 50 59 L 50 51 L 46 51 L 40 51 z "
       transform="matrix(0.26458334,0,0,0.26458334,0,280.06665)"
       id="path1792" />
    <path
       style="display:inline;opacity:1;vector-effect:none;fill:#ffffff;fill-opacity:1;fill-rule:evenodd;stroke:#000000;stroke-width:0.5291667;stroke-linecap:butt;stroke-linejoin:round;stroke-miterlimit:4;stroke-dasharray:none;stroke-dashoffset:0;stroke-opacity:1"
       d="m 5.0270773,288.53331 h -0.52916 l -1e-5,5.02709 h 7.9374997 v -5.02709 z"
       id="path1794"
       inkscape:connector-curvature="0"
       sodipodi:nodetypes="cccccc" />
    <path
       style="display:inline;opacity:1;vector-effect:none;fill:#ffffff;fill-opacity:1;fill-rule:evenodd;stroke:#000000;stroke-width:0.5291667;stroke-linecap:butt;stroke-linejoin:round;stroke-miterlimit:4;stroke-dasharray:none;stroke-dashoffset:0;stroke-opacity:1"
       d="m 5.0270773,286.68123 h -0.52917 v -1.32292 l 3.96875,-3.96875 3.9687497,3.96875 v 1.32292 z"
       id="path1860"
       inkscape:connector-curvature="0" />
  </g>
</svg>
