<svg xmlns="http://www.w3.org/2000/svg" xmlns:svg="http://www.w3.org/2000/svg" id="svg4846" width="64" height="64" version="1.1" viewBox="0 0 16.933 16.933"><metadata id="metadata4843"/><g id="layer1" transform="translate(0,-280.06665)"><path style="display:inline;opacity:1;vector-effect:none;fill:#d0d0d0;fill-opacity:1;fill-rule:evenodd;stroke:none;stroke-width:.26458332;stroke-linecap:butt;stroke-linejoin:miter;stroke-miterlimit:4;stroke-dasharray:none;stroke-dashoffset:0;stroke-opacity:1" id="path2448" d="m 8.466667,281.12498 h 0.264584 l 3.175001,3.43959 v 0.79375 H 8.466667 L 7.14375,282.97707 Z"/><path style="display:inline;opacity:1;vector-effect:none;fill:#fff;fill-opacity:1;fill-rule:evenodd;stroke:none;stroke-width:.26458332;stroke-linecap:butt;stroke-linejoin:miter;stroke-miterlimit:4;stroke-dasharray:none;stroke-dashoffset:0;stroke-opacity:1" id="path2446" d="m 8.466667,281.12498 v 4.23334 H 5.027085 v -0.79375 l 3.175,-3.43959 z"/><path style="display:inline;opacity:1;vector-effect:none;fill:#d0d0d0;fill-opacity:1;fill-rule:evenodd;stroke:#000;stroke-width:.5291667;stroke-linecap:butt;stroke-linejoin:round;stroke-miterlimit:4;stroke-dasharray:none;stroke-dashoffset:0;stroke-opacity:1" id="path2407-4" d="m 9.789584,286.15207 1.322915,-0.52917 h 1.852085 c 0,0 1.322915,0 1.322915,1.5875 0,1.5875 0,2.91042 0,2.91042 0,0 0,0.26458 0.264585,0.26458 0.264582,0 0.264582,-1.05833 0.79375,-1.05833 0.529165,0 0.529165,0.52916 0.529165,0.52916 v 1.05834 c 0,0 0,0.79375 -0.79375,0.79375 -0.79375,0 -0.79375,0 -1.322915,0 -0.529168,0 -1.058335,-0.79375 -1.058335,-1.85209 0,-1.05833 -0.264583,-2.11666 -1.058332,-2.11666 -0.79375,0 -1.5875,0.52916 -2.38125,0.52916 -0.79375,0 0,-2.11666 0,-2.11666 z"/><path style="display:inline;opacity:1;vector-effect:none;fill:#d0d0d0;fill-opacity:1;fill-rule:evenodd;stroke:#000;stroke-width:.5291667;stroke-linecap:butt;stroke-linejoin:round;stroke-miterlimit:4;stroke-dasharray:none;stroke-dashoffset:0;stroke-opacity:1" id="path2407" d="M 7.14375,286.15207 5.820835,285.6229 H 3.968751 c 0,0 -1.322916,0 -1.322916,1.5875 0,1.5875 0,2.91042 0,2.91042 0,0 0,0.26458 -0.264584,0.26458 -0.264583,0 -0.264583,-1.05833 -0.793751,-1.05833 -0.5291655,0 -0.5291655,0.52916 -0.5291655,0.52916 v 1.05834 c 0,0 0,0.79375 0.7937505,0.79375 0.79375,0 0.79375,0 1.322916,0 0.529167,0 1.058334,-0.79375 1.058334,-1.85209 0,-1.05833 0.264583,-2.11666 1.058333,-2.11666 0.79375,0 1.5875,0.52916 2.38125,0.52916 0.793749,0 0,-2.11666 0,-2.11666 z"/><path style="display:inline;opacity:1;vector-effect:none;fill:#858585;fill-opacity:1;fill-rule:evenodd;stroke:#000;stroke-width:.5291667;stroke-linecap:butt;stroke-linejoin:round;stroke-miterlimit:4;stroke-dasharray:none;stroke-dashoffset:0;stroke-opacity:1" id="path2405" d="m 7.14375,285.35832 0.529167,6.08541 0.79375,0.52917 0.79375,-0.52917 0.529167,-6.08541 H 8.466667 Z"/><path style="display:inline;opacity:1;vector-effect:none;fill:none;fill-opacity:1;fill-rule:evenodd;stroke:#000;stroke-width:.5291667;stroke-linecap:butt;stroke-linejoin:round;stroke-miterlimit:4;stroke-dasharray:none;stroke-dashoffset:0;stroke-opacity:1" id="path2428" d="m 8.202084,281.12498 -3.175,3.43959 v 0.79375 h 3.439583 3.439584 v -0.79375 L 8.73125,281.12498 H 8.466667 Z"/><g id="layer1-1"><path style="display:inline;opacity:1;vector-effect:none;fill:#fff;fill-opacity:1;fill-rule:evenodd;stroke:#000;stroke-width:.529167;stroke-linecap:butt;stroke-linejoin:round;stroke-miterlimit:4;stroke-dasharray:none;stroke-dashoffset:0;stroke-opacity:1" id="path3432" d="m 1.8520828,295.67707 h -0.264583 l 10e-7,-0.79375 1.3229159,-1.32292 h 0.529167 l 1.3229171,1.32292 v 0.79375 z"/><path style="display:inline;opacity:1;vector-effect:none;fill:#fff;fill-opacity:1;fill-rule:evenodd;stroke:#000;stroke-width:.529167;stroke-linecap:butt;stroke-linejoin:round;stroke-miterlimit:4;stroke-dasharray:none;stroke-dashoffset:0;stroke-opacity:1" id="path3432-1" d="m 7.1437487,295.67706 h -0.264583 l 1e-6,-0.79374 1.3229159,-1.32292 h 0.5291672 l 1.3229172,1.32292 v 0.79375 z"/><path style="display:inline;opacity:1;vector-effect:none;fill:#fff;fill-opacity:1;fill-rule:evenodd;stroke:#000;stroke-width:.529167;stroke-linecap:butt;stroke-linejoin:round;stroke-miterlimit:4;stroke-dasharray:none;stroke-dashoffset:0;stroke-opacity:1" id="path3432-1-6" d="m 12.435415,295.67706 h -0.264583 l 10e-7,-0.79374 1.322916,-1.32292 h 0.529167 l 1.322917,1.32292 v 0.79375 z"/></g></g></svg>