<?xml version="1.0" encoding="UTF-8" standalone="no"?>
<!-- Created with Inkscape (http://www.inkscape.org/) -->

<svg
   xmlns:dc="http://purl.org/dc/elements/1.1/"
   xmlns:cc="http://creativecommons.org/ns#"
   xmlns:rdf="http://www.w3.org/1999/02/22-rdf-syntax-ns#"
   xmlns:svg="http://www.w3.org/2000/svg"
   xmlns="http://www.w3.org/2000/svg"
   xmlns:sodipodi="http://sodipodi.sourceforge.net/DTD/sodipodi-0.dtd"
   xmlns:inkscape="http://www.inkscape.org/namespaces/inkscape"
   width="64"
   height="64"
   viewBox="0 0 16.933333 16.933334"
   version="1.1"
   id="svg4846"
   inkscape:version="0.92.4 (5da689c313, 2019-01-14)"
   sodipodi:docname="5thGen Item Icon-Smoke Bomb Yellow.svg">
  <defs
     id="defs4840" />
  <sodipodi:namedview
     id="base"
     pagecolor="#ffffff"
     bordercolor="#666666"
     borderopacity="1.0"
     inkscape:pageopacity="0.0"
     inkscape:pageshadow="2"
     inkscape:zoom="5.6"
     inkscape:cx="-3.8495013"
     inkscape:cy="27.607259"
     inkscape:document-units="px"
     inkscape:current-layer="layer1"
     showgrid="false"
     units="px"
     inkscape:window-width="1304"
     inkscape:window-height="745"
     inkscape:window-x="-8"
     inkscape:window-y="-8"
     inkscape:window-maximized="1"
     showguides="true"
     inkscape:guide-bbox="true" />
  <metadata
     id="metadata4843">
    <rdf:RDF>
      <cc:Work
         rdf:about="">
        <dc:format>image/svg+xml</dc:format>
        <dc:type
           rdf:resource="http://purl.org/dc/dcmitype/StillImage" />
        <dc:title></dc:title>
      </cc:Work>
    </rdf:RDF>
  </metadata>
  <g
     inkscape:label="Layer 1"
     inkscape:groupmode="layer"
     id="layer1"
     transform="translate(0,-280.06665)">
    <path
       style="display:inline;opacity:1;vector-effect:none;fill:#d5d5d5;fill-opacity:1;fill-rule:evenodd;stroke:#000000;stroke-width:0.5291667;stroke-linecap:butt;stroke-linejoin:round;stroke-miterlimit:4;stroke-dasharray:none;stroke-dashoffset:0;stroke-opacity:1"
       d="m 8.4666662,293.03124 h -0.79375 v 0.79375 l -0.79375,0.79375 v 1.05833 H 10.31875 v -1.05833 l -0.7937498,-0.79375 v -0.79375 z"
       id="path2542"
       inkscape:connector-curvature="0" />
    <path
       style="display:inline;opacity:1;vector-effect:none;fill:#ffffff;fill-opacity:1;fill-rule:evenodd;stroke:#000000;stroke-width:0.5291667;stroke-linecap:butt;stroke-linejoin:round;stroke-miterlimit:4;stroke-dasharray:none;stroke-dashoffset:0;stroke-opacity:1"
       d="m 8.7312502,292.76666 h -1.058334 v -0.79375 l -0.529166,-0.52917 h -3.96875 l -1.058334,-1.05833 v -3.175 l 1.058334,-1.05834 h 2.38125 l 1.058333,1.05834 v 0.79375 l -0.529167,0.52916 h -0.79375 l -0.529166,-0.52916 v -0.26459 0.52917 l 0.529166,0.52917 h 0.79375 l 0.79375,-0.79375 v -0.79375 l -1.322916,-1.32292 h -2.116667 v -3.175 l 1.322917,-1.32292 H 11.1125 l 1.058333,1.05834 v 0.79375 H 8.9958332 l -1.058333,1.05833 v 1.05833 0.26459 l 1.058333,1.05833 H 10.31875 l 0.529166,-0.52917 v -1.05833 l 1e-6,0.79375 -0.529167,0.52917 H 9.2604162 l -1.058333,-1.05834 v -0.79375 l 1.058334,-1.05833 H 12.170833 L 12.7,284.03541 v 2.91041 l -0.79375,0.79375 h -1.322917 1.5875 l 0.79375,-0.79375 v -1.32291 h 0.79375 l 1.058334,1.05833 v 3.43958 l -1.322917,1.32292 h -3.439583 l -0.5291668,0.52917 v 0.79375 z"
       id="path2544"
       inkscape:connector-curvature="0"
       sodipodi:nodetypes="ccccccccccccccccccccccccccccccccccccccccccc" />
  </g>
</svg>
