<svg xmlns="http://www.w3.org/2000/svg" xmlns:svg="http://www.w3.org/2000/svg" id="svg4846" width="64" height="64" version="1.1" viewBox="0 0 16.933 16.933"><metadata id="metadata4843"/><g id="layer1" transform="translate(0,-280.06665)"><path style="display:inline;opacity:1;vector-effect:none;fill:#fff;fill-opacity:1;fill-rule:evenodd;stroke:#000;stroke-width:.5291667;stroke-linecap:butt;stroke-linejoin:round;stroke-miterlimit:4;stroke-dasharray:none;stroke-dashoffset:0;stroke-opacity:1" id="path2004" d="m 7.6729169,281.65415 v 0.79375 c -1.0859294,0.2593 -2.0776804,0.66636 -2.9104167,1.32292 L 4.2333335,283.24165 H 3.1750002 v 1.05834 l 0.5291666,0.52916 c -0.8960141,1.18337 -1.0494565,2.01878 -1.3229167,2.91042 h -0.79375 v 0.79375 0.79375 h 0.79375 c 0.2645834,1.05833 0.4285668,1.7258 1.3229167,2.91042 l -0.5291666,0.52916 v 1.05834 h 1.0583333 l 0.5291667,-0.52917 c 0.838745,0.6692 1.8303134,1.0602 2.9104167,1.32292 v 0.79375 h 0.79375 0.79375 v -0.79375 c 1.0801031,-0.26272 2.0716711,-0.65372 2.9104161,-1.32292 l 0.529166,0.52917 h 1.058334 v -1.05834 l -0.529167,-0.52916 c 0.89435,-1.18462 1.058333,-1.85209 1.322917,-2.91042 h 0.79375 v -0.79375 -0.79375 h -0.79375 c -0.27346,-0.89164 -0.426903,-1.72705 -1.322917,-2.91042 l 0.529167,-0.52916 v -1.05834 h -1.058334 l -0.529166,0.52917 c -0.832737,-0.65656 -1.824487,-1.06362 -2.9104161,-1.32292 v -0.79375 h -0.79375 z"/><g style="display:inline" id="g2232" transform="translate(101.59999,263.13332)"><path id="path2039-1" d="m -96.837501,22.489584 c 0,0 -0.79375,0.79375 -0.79375,2.116666" style="display:inline;opacity:1;vector-effect:none;fill:none;fill-opacity:1;fill-rule:evenodd;stroke:#000;stroke-width:.5291667;stroke-linecap:round;stroke-linejoin:round;stroke-miterlimit:4;stroke-dasharray:none;stroke-dashoffset:0;stroke-opacity:1"/><path id="path2039-1-1" d="m -96.04375,21.695834 c 0,0 0.79375,-0.79375 2.116666,-0.79375" style="display:inline;opacity:1;vector-effect:none;fill:none;fill-opacity:1;fill-rule:evenodd;stroke:#000;stroke-width:.5291667;stroke-linecap:round;stroke-linejoin:round;stroke-miterlimit:4;stroke-dasharray:none;stroke-dashoffset:0;stroke-opacity:1"/><path id="path2081" d="m -96.043752,24.606251 c 0,-0.529167 0.264583,-1.058334 0.264583,-1.058334" style="opacity:1;vector-effect:none;fill:none;fill-opacity:1;fill-rule:evenodd;stroke:#000;stroke-width:.5291667;stroke-linecap:round;stroke-linejoin:round;stroke-miterlimit:4;stroke-dasharray:none;stroke-dashoffset:0;stroke-opacity:1"/><path id="path2083" d="m -93.662502,22.225001 c -0.793749,-10e-7 -1.322917,0.529166 -1.322917,0.529166" style="opacity:1;vector-effect:none;fill:none;fill-opacity:1;fill-rule:evenodd;stroke:#000;stroke-width:.5291667;stroke-linecap:round;stroke-linejoin:round;stroke-miterlimit:4;stroke-dasharray:none;stroke-dashoffset:0;stroke-opacity:1"/><path id="path2085" d="m -94.720836,24.870834 h 0.264584 l -0.529167,-0.264583 v 0.264583 z" style="opacity:1;vector-effect:none;fill:#000;fill-opacity:1;fill-rule:evenodd;stroke:#000;stroke-width:.26458335;stroke-linecap:butt;stroke-linejoin:round;stroke-miterlimit:4;stroke-dasharray:none;stroke-dashoffset:0;stroke-opacity:1"/><path id="path2085-1" d="m -93.662501,23.8125 v 0.264584 l -0.264583,-0.529167 h 0.264583 z" style="display:inline;opacity:1;vector-effect:none;fill:#000;fill-opacity:1;fill-rule:evenodd;stroke:#000;stroke-width:.26458335;stroke-linecap:butt;stroke-linejoin:round;stroke-miterlimit:4;stroke-dasharray:none;stroke-dashoffset:0;stroke-opacity:1"/><path id="path2039-1-3" d="m -89.429168,22.489584 c 0,0 0.79375,0.79375 0.79375,2.116666" style="display:inline;opacity:1;vector-effect:none;fill:none;fill-opacity:1;fill-rule:evenodd;stroke:#000;stroke-width:.5291667;stroke-linecap:round;stroke-linejoin:round;stroke-miterlimit:4;stroke-dasharray:none;stroke-dashoffset:0;stroke-opacity:1"/><path id="path2039-1-1-3" d="m -90.222919,21.695834 c 0,0 -0.79375,-0.79375 -2.116666,-0.79375" style="display:inline;opacity:1;vector-effect:none;fill:none;fill-opacity:1;fill-rule:evenodd;stroke:#000;stroke-width:.5291667;stroke-linecap:round;stroke-linejoin:round;stroke-miterlimit:4;stroke-dasharray:none;stroke-dashoffset:0;stroke-opacity:1"/><path id="path2081-1" d="m -90.222917,24.606251 c 0,-0.529167 -0.264583,-1.058334 -0.264583,-1.058334" style="display:inline;opacity:1;vector-effect:none;fill:none;fill-opacity:1;fill-rule:evenodd;stroke:#000;stroke-width:.5291667;stroke-linecap:round;stroke-linejoin:round;stroke-miterlimit:4;stroke-dasharray:none;stroke-dashoffset:0;stroke-opacity:1"/><path id="path2083-5" d="m -92.604167,22.225001 c 0.793749,-10e-7 1.322917,0.529166 1.322917,0.529166" style="display:inline;opacity:1;vector-effect:none;fill:none;fill-opacity:1;fill-rule:evenodd;stroke:#000;stroke-width:.5291667;stroke-linecap:round;stroke-linejoin:round;stroke-miterlimit:4;stroke-dasharray:none;stroke-dashoffset:0;stroke-opacity:1"/><path id="path2085-2" d="m -91.545833,24.870834 h -0.264584 l 0.529167,-0.264583 v 0.264583 z" style="display:inline;opacity:1;vector-effect:none;fill:#000;fill-opacity:1;fill-rule:evenodd;stroke:#000;stroke-width:.26458335;stroke-linecap:butt;stroke-linejoin:round;stroke-miterlimit:4;stroke-dasharray:none;stroke-dashoffset:0;stroke-opacity:1"/><path id="path2085-1-2" d="m -92.604168,23.8125 v 0.264584 l 0.264583,-0.529167 h -0.264583 z" style="display:inline;opacity:1;vector-effect:none;fill:#000;fill-opacity:1;fill-rule:evenodd;stroke:#000;stroke-width:.26458335;stroke-linecap:butt;stroke-linejoin:round;stroke-miterlimit:4;stroke-dasharray:none;stroke-dashoffset:0;stroke-opacity:1"/><path id="path2039-1-19" d="m -96.837501,28.310416 c 0,0 -0.79375,-0.79375 -0.79375,-2.116666" style="display:inline;opacity:1;vector-effect:none;fill:none;fill-opacity:1;fill-rule:evenodd;stroke:#000;stroke-width:.5291667;stroke-linecap:round;stroke-linejoin:round;stroke-miterlimit:4;stroke-dasharray:none;stroke-dashoffset:0;stroke-opacity:1"/><path id="path2039-1-1-2" d="m -96.04375,29.104166 c 0,0 0.79375,0.79375 2.116666,0.79375" style="display:inline;opacity:1;vector-effect:none;fill:none;fill-opacity:1;fill-rule:evenodd;stroke:#000;stroke-width:.5291667;stroke-linecap:round;stroke-linejoin:round;stroke-miterlimit:4;stroke-dasharray:none;stroke-dashoffset:0;stroke-opacity:1"/><path id="path2081-14" d="m -96.043752,26.193749 c 0,0.529167 0.264583,1.058334 0.264583,1.058334" style="display:inline;opacity:1;vector-effect:none;fill:none;fill-opacity:1;fill-rule:evenodd;stroke:#000;stroke-width:.5291667;stroke-linecap:round;stroke-linejoin:round;stroke-miterlimit:4;stroke-dasharray:none;stroke-dashoffset:0;stroke-opacity:1"/><path id="path2083-1" d="m -93.662502,28.574999 c -0.793749,1e-6 -1.322917,-0.529166 -1.322917,-0.529166" style="display:inline;opacity:1;vector-effect:none;fill:none;fill-opacity:1;fill-rule:evenodd;stroke:#000;stroke-width:.5291667;stroke-linecap:round;stroke-linejoin:round;stroke-miterlimit:4;stroke-dasharray:none;stroke-dashoffset:0;stroke-opacity:1"/><path id="path2085-3" d="m -94.720836,25.929166 h 0.264584 l -0.529167,0.264583 v -0.264583 z" style="display:inline;opacity:1;vector-effect:none;fill:#000;fill-opacity:1;fill-rule:evenodd;stroke:#000;stroke-width:.26458335;stroke-linecap:butt;stroke-linejoin:round;stroke-miterlimit:4;stroke-dasharray:none;stroke-dashoffset:0;stroke-opacity:1"/><path id="path2085-1-1" d="m -93.662501,26.9875 v -0.264584 l -0.264583,0.529167 h 0.264583 z" style="display:inline;opacity:1;vector-effect:none;fill:#000;fill-opacity:1;fill-rule:evenodd;stroke:#000;stroke-width:.26458335;stroke-linecap:butt;stroke-linejoin:round;stroke-miterlimit:4;stroke-dasharray:none;stroke-dashoffset:0;stroke-opacity:1"/><path id="path2039-1-3-7" d="m -89.429168,28.310416 c 0,0 0.79375,-0.79375 0.79375,-2.116666" style="display:inline;opacity:1;vector-effect:none;fill:none;fill-opacity:1;fill-rule:evenodd;stroke:#000;stroke-width:.5291667;stroke-linecap:round;stroke-linejoin:round;stroke-miterlimit:4;stroke-dasharray:none;stroke-dashoffset:0;stroke-opacity:1"/><path id="path2039-1-1-3-1" d="m -90.222919,29.104166 c 0,0 -0.79375,0.79375 -2.116666,0.79375" style="display:inline;opacity:1;vector-effect:none;fill:none;fill-opacity:1;fill-rule:evenodd;stroke:#000;stroke-width:.5291667;stroke-linecap:round;stroke-linejoin:round;stroke-miterlimit:4;stroke-dasharray:none;stroke-dashoffset:0;stroke-opacity:1"/><path id="path2081-1-1" d="m -90.222917,26.193749 c 0,0.529167 -0.264583,1.058334 -0.264583,1.058334" style="display:inline;opacity:1;vector-effect:none;fill:none;fill-opacity:1;fill-rule:evenodd;stroke:#000;stroke-width:.5291667;stroke-linecap:round;stroke-linejoin:round;stroke-miterlimit:4;stroke-dasharray:none;stroke-dashoffset:0;stroke-opacity:1"/><path id="path2083-5-9" d="m -92.604167,28.574999 c 0.793749,1e-6 1.322917,-0.529166 1.322917,-0.529166" style="display:inline;opacity:1;vector-effect:none;fill:none;fill-opacity:1;fill-rule:evenodd;stroke:#000;stroke-width:.5291667;stroke-linecap:round;stroke-linejoin:round;stroke-miterlimit:4;stroke-dasharray:none;stroke-dashoffset:0;stroke-opacity:1"/><path id="path2085-2-0" d="m -91.545833,25.929166 h -0.264584 l 0.529167,0.264583 v -0.264583 z" style="display:inline;opacity:1;vector-effect:none;fill:#000;fill-opacity:1;fill-rule:evenodd;stroke:#000;stroke-width:.26458335;stroke-linecap:butt;stroke-linejoin:round;stroke-miterlimit:4;stroke-dasharray:none;stroke-dashoffset:0;stroke-opacity:1"/><path id="path2085-1-2-5" d="m -92.604168,26.9875 v -0.264584 l 0.264583,0.529167 h -0.264583 z" style="display:inline;opacity:1;vector-effect:none;fill:#000;fill-opacity:1;fill-rule:evenodd;stroke:#000;stroke-width:.26458335;stroke-linecap:butt;stroke-linejoin:round;stroke-miterlimit:4;stroke-dasharray:none;stroke-dashoffset:0;stroke-opacity:1"/></g></g></svg>