<svg xmlns="http://www.w3.org/2000/svg" xmlns:svg="http://www.w3.org/2000/svg" id="svg8" width="64" height="64" version="1.1" viewBox="0 0 16.933 16.933"><metadata id="metadata5"/><g id="layer2" style="display:inline"><path style="opacity:.998;fill:#fff;fill-opacity:1;stroke:#000;stroke-width:.529;stroke-linecap:round;stroke-linejoin:round;stroke-miterlimit:4;stroke-dasharray:none" id="path930" d="M 5.8373703,10.212296 H 2.6458339 L 1.7725022,9.3389647 v -2.31097 L 2.6458339,6.1362073 H 5.8552913 L 7.2843104,8.176688 Z"/><path style="display:inline;opacity:.998;fill:#858585;fill-opacity:1;stroke:#000;stroke-width:.529;stroke-linecap:round;stroke-linejoin:round;stroke-miterlimit:4;stroke-dasharray:none" id="path993-8" d="m 8.4666672,11.950289 v 1.73375 l 1.306449,1.321213 1.8547338,-1.808365 -1.488173,-1.901409 z"/><path style="display:inline;opacity:.998;fill:#d0d0d0;fill-opacity:1;stroke:#000;stroke-width:.529;stroke-linecap:round;stroke-linejoin:round;stroke-miterlimit:4;stroke-dasharray:none" id="path991-6" d="m 14.287501,10.212296 v 2.34735 l -1.868458,1.821745 -3.1380338,-3.173497 0.9219868,-0.995598 z"/><path style="opacity:.998;fill:#858585;fill-opacity:1;stroke:#000;stroke-width:.529;stroke-linecap:round;stroke-linejoin:round;stroke-miterlimit:4;stroke-dasharray:none" id="path993" d="m 8.4666672,11.950289 v 1.73375 L 7.1602187,15.005252 5.3054843,13.196887 6.7936578,11.295478 Z"/><path style="opacity:.998;fill:#d0d0d0;fill-opacity:1;stroke:#000;stroke-width:.529;stroke-linecap:round;stroke-linejoin:round;stroke-miterlimit:4;stroke-dasharray:none" id="path991" d="m 2.6458339,10.212296 v 2.34735 l 1.8684578,1.821745 3.1380337,-3.173497 -0.9219863,-0.995598 z"/><path style="display:inline;opacity:.998;fill:#d0d0d0;fill-opacity:1;stroke:#000;stroke-width:.529;stroke-linecap:round;stroke-linejoin:round;stroke-miterlimit:4;stroke-dasharray:none" id="path963-2" d="m 11.078041,6.1362074 h 3.209458 V 5.2267898 L 10.899722,1.8007286 9.9993587,2.9352215 h -1.532693 v 3.2009859 z"/><path style="display:inline;opacity:.998;fill:#858585;fill-opacity:1;stroke:#000;stroke-width:.529;stroke-linecap:round;stroke-linejoin:round;stroke-miterlimit:4;stroke-dasharray:none" id="path971-1" d="m 8.4666657,2.9352215 10e-7,0.6418212 L 9.3627437,5.209023 11.861179,2.7730498 10.899723,1.8007276 9.9993587,2.9352215 Z"/><path style="opacity:.998;fill:#d0d0d0;fill-opacity:1;stroke:#000;stroke-width:.529;stroke-linecap:round;stroke-linejoin:round;stroke-miterlimit:4;stroke-dasharray:none" id="path963" d="M 5.8552913,6.1362073 H 2.6458339 V 5.2267897 L 6.0336102,1.8007284 6.9339743,2.9352213 h 1.5326929 v 3.200986 z"/><path style="opacity:.998;fill:#fff;fill-opacity:1;stroke:#000;stroke-width:.529;stroke-linecap:round;stroke-linejoin:round;stroke-miterlimit:4;stroke-dasharray:none" id="path930-3" d="M 11.095963,10.212296 H 14.2875 l 0.873331,-0.8733314 v -2.31097 L 14.2875,6.1362071 H 11.078042 L 9.649024,8.1766876 Z"/><path style="opacity:.998;fill:#858585;fill-opacity:1;stroke:#000;stroke-width:.529;stroke-linecap:round;stroke-linejoin:round;stroke-miterlimit:4;stroke-dasharray:none" id="path971" d="m 8.4666672,2.9352213 -6e-7,0.6418212 L 7.5705893,5.2090229 5.0721533,2.7730497 6.0336099,1.8007274 6.9339743,2.9352213 Z"/><path id="path871-1" d="M 7.0274782,8.1767618 5.7179972,6.6708804 8.4666667,3.5770427 11.215336,6.6708804 9.9058557,8.1767618 h -1.439189 z" style="opacity:.998;fill:#fff;fill-opacity:1;stroke:#000;stroke-width:.529;stroke-linecap:round;stroke-linejoin:round;stroke-miterlimit:4;stroke-dasharray:none"/><path id="path871" d="M 7.0274785,8.1767618 5.3790003,9.7518594 8.4666671,12.776481 11.554334,9.7518594 9.9058557,8.1767618 H 8.4666671 Z" style="opacity:.998;fill:#fff;fill-opacity:1;stroke:#000;stroke-width:.529;stroke-linecap:round;stroke-linejoin:round;stroke-miterlimit:4;stroke-dasharray:none"/></g></svg>