<svg xmlns="http://www.w3.org/2000/svg" xmlns:svg="http://www.w3.org/2000/svg" id="svg8" width="64" height="64" version="1.1" viewBox="0 0 16.933 16.933"><metadata id="metadata5"/><g id="layer2"><path style="opacity:.993154;fill:#d0d0d0;fill-opacity:.996078;stroke:#000;stroke-width:.528902;stroke-linecap:round;stroke-linejoin:round;stroke-miterlimit:4;stroke-dasharray:none;stroke-opacity:1" id="path1085-0" d="M 7.0746936,8.7499654 5.0694671,9.0347746 5.2197046,10.092536 7.2249311,9.8077272 Z"/><path style="opacity:.993154;fill:#d0d0d0;fill-opacity:.996078;stroke:#000;stroke-width:.528902;stroke-linecap:round;stroke-linejoin:round;stroke-miterlimit:4;stroke-dasharray:none;stroke-opacity:1" id="path1085-2" d="M 7.8140246,8.2535015 8.708608,6.436424 9.6671208,6.9083189 8.7725374,8.7253964 Z"/><path style="opacity:.993154;fill:#d0d0d0;fill-opacity:1;stroke:#000;stroke-width:.52890208;stroke-linecap:round;stroke-linejoin:round;stroke-miterlimit:4;stroke-dasharray:none;stroke-opacity:1" id="path870" d="m 9.7785594,11.964424 -0.749933,-0.498565 1.0777956,-1.345605 0.849741,0.688048 z"/><path style="opacity:.993154;fill:#d0d0d0;fill-opacity:1;stroke:#000;stroke-width:.52890208;stroke-linecap:round;stroke-linejoin:round;stroke-miterlimit:4;stroke-dasharray:none;stroke-opacity:1" id="path874" d="m 11.370335,7.4908791 -0.814241,-0.02377 -0.03441,1.83032 0.848646,-0.03169 0.539007,-1.03005 z"/><path style="opacity:.993154;fill:#fff;fill-opacity:1;stroke:#000;stroke-width:.52890208;stroke-linecap:round;stroke-linejoin:round;stroke-miterlimit:4;stroke-dasharray:none;stroke-opacity:1" id="path858" d="m 4.6978104,15.313191 h 7.5858876 l 3.029507,-5.020049 V 1.6425211 c 0,0 -2.132773,0.728355 -2.569022,1.176574 -0.436249,0.448219 -1.355692,3.865886 -1.355692,3.865886 v 3.249586 L 9.3996064,12.534236 H 4.6251024 L 4.0919094,9.0829511 c 0,0 2.472078,0.134466 3.465756,-0.71715 0.993679,-0.851615 2.39937,-6.745691 2.39937,-6.745691 l -8.336909,5.468268 1.138799,8.2248129 z"/><path style="opacity:.993154;fill:#858585;fill-opacity:1;stroke:#000;stroke-width:.52890208;stroke-linecap:round;stroke-linejoin:round;stroke-miterlimit:4;stroke-dasharray:none;stroke-opacity:1" id="path860" d="m 11.388491,6.6849811 c 0,0 2.622036,-1.20292 3.076179,-1.741715 0.454143,-0.538795 0.848535,-3.300745 0.848535,-3.300745 0,0 -1.254975,-0.02054 -2.144891,0.336164 -0.653428,0.261909 -1.622289,0.5995957 -1.779824,1.4512117 0,0.9342972 1e-6,3.2550843 1e-6,3.2550843 z"/><path style="opacity:.993154;fill:#000;fill-opacity:1;stroke:none;stroke-width:.528902;stroke-linecap:round;stroke-linejoin:round" id="path970" d="M 3.5144006,14.5076 V 14.26127 L 4.2533763,13.5223 h 0.2463239 l 0.738976,0.73897 v 0.24633 z"/><path style="opacity:.993154;fill:#000;fill-opacity:1;stroke:none;stroke-width:.528902;stroke-linecap:round;stroke-linejoin:round" id="path970-9" d="M 6.6010002,14.5076 V 14.26127 L 7.3399759,13.5223 h 0.2463239 l 0.738976,0.73897 v 0.24633 z"/><path style="opacity:.993154;fill:#000;fill-opacity:1;stroke:none;stroke-width:.528902;stroke-linecap:round;stroke-linejoin:round" id="path970-9-4" d="M 9.6642145,14.5076 V 14.26127 L 10.40319,13.5223 h 0.246324 l 0.738976,0.73897 v 0.24633 z"/><path style="opacity:.993154;fill:none;fill-opacity:1;stroke:#000;stroke-width:.528902;stroke-linecap:round;stroke-linejoin:round;stroke-miterlimit:4;stroke-dasharray:none;stroke-opacity:1" id="path1045" d="M 4.0919093,9.082951 3.8587036,7.6505903 5.9300424,6.1806077"/><path style="opacity:.993154;fill:#d0d0d0;fill-opacity:.99607843;stroke:#000;stroke-width:.528902;stroke-linecap:round;stroke-linejoin:round;stroke-miterlimit:4;stroke-dasharray:none;stroke-opacity:1" id="path1085" d="M 7.9356309,12.534236 H 5.9102791 v -1.068378 h 2.0253518 z"/><path style="opacity:.993154;fill:#d0d0d0;fill-opacity:.996078;stroke:#000;stroke-width:.528902;stroke-linecap:round;stroke-linejoin:round;stroke-miterlimit:4;stroke-dasharray:none;stroke-opacity:1" id="path1085-2-0" d="M 9.0368969,5.2605013 9.6172431,3.3200765 10.640822,3.6262105 10.060475,5.5666353 Z"/></g></svg>