<svg xmlns="http://www.w3.org/2000/svg" xmlns:svg="http://www.w3.org/2000/svg" id="svg4846" width="64" height="64" version="1.1" viewBox="0 0 16.933 16.933"><metadata id="metadata4843"/><g id="layer1" transform="translate(0,-280.06665)"><path style="display:inline;opacity:1;vector-effect:none;fill:#858585;fill-opacity:1;fill-rule:evenodd;stroke:#000;stroke-width:.5291667;stroke-linecap:butt;stroke-linejoin:round;stroke-miterlimit:4;stroke-dasharray:none;stroke-dashoffset:0;stroke-opacity:1" id="path1249" d="m 2.3812518,295.49786 h 3.9687499 l 1.5875,-1.5875 v -2.64583 H 6.0854218 v 1.5875 l -0.79375,0.79375 h -3.43959 l 1e-5,1.85208 z"/><path style="display:inline;opacity:1;vector-effect:none;fill:#000;fill-opacity:1;fill-rule:evenodd;stroke:none;stroke-width:.26458332;stroke-linecap:butt;stroke-linejoin:miter;stroke-miterlimit:4;stroke-dasharray:none;stroke-dashoffset:0;stroke-opacity:1" id="path1247" d="m 11.641672,287.56036 v 3.96875 H 6.3500017 v -3.96875 z"/><path style="opacity:1;vector-effect:none;fill:#fff;fill-opacity:1;fill-rule:evenodd;stroke:#000;stroke-width:.5291667;stroke-linecap:butt;stroke-linejoin:round;stroke-miterlimit:4;stroke-dasharray:none;stroke-dashoffset:0;stroke-opacity:1" id="path815" d="m 6.0854218,281.73953 -0.8006694,0.80067 v 1.17983 l 0.9323539,0.93235 h 4.3066317 l 0.293871,0.29387 -0.25211,0.25211 H 6.0636776 l -1.3989889,1.39899 v 1.53263 l -1.2716185,1.27161 v 1.95232 l 0.7506515,0.75066 h 3.0224427 v 0.38524 l 0.9604999,0.9605 h 3.2824037 l 1.44075,-1.44075 0,-2.86062 1.031492,-0.0198 1.034104,-1.0341 v -2.05307 L 14.08098,285.2075 v -0.36828 -1.77066 l -1.252434,-1.25244 H 9.8054509 l -1.1524041,1.15241 H 7.2162775 Z"/><path style="opacity:1;vector-effect:none;fill:none;fill-opacity:1;fill-rule:evenodd;stroke:#000;stroke-width:.5291667;stroke-linecap:butt;stroke-linejoin:round;stroke-miterlimit:4;stroke-dasharray:none;stroke-dashoffset:0;stroke-opacity:1" id="path819" d="m 12.849818,292.00956 v -2.32608 l -1.179744,-1.17974 H 8.8533033 l -1.0742983,1.07429 v 0.74022 l 0.5538534,0.55385 H 9.755338 l 0.335392,-0.33539 v -0.3688 L 9.8645686,289.94175 H 9.0203467 v -0.27497 h 0.9187392 l 0.5178341,0.51783 v 0.40091 l -0.6180604,0.61806 H 8.1350164 L 7.391673,290.46023 v -1.07743 l 1.2235934,-1.22359 h 3.1612976 l 1.073254,0.98973"/></g></svg>