<?xml version="1.0" encoding="UTF-8" standalone="no"?>
<!-- Created with Inkscape (http://www.inkscape.org/) -->

<svg
   xmlns:dc="http://purl.org/dc/elements/1.1/"
   xmlns:cc="http://creativecommons.org/ns#"
   xmlns:rdf="http://www.w3.org/1999/02/22-rdf-syntax-ns#"
   xmlns:svg="http://www.w3.org/2000/svg"
   xmlns="http://www.w3.org/2000/svg"
   xmlns:sodipodi="http://sodipodi.sourceforge.net/DTD/sodipodi-0.dtd"
   xmlns:inkscape="http://www.inkscape.org/namespaces/inkscape"
   width="64"
   height="64"
   viewBox="0 0 16.933333 16.933334"
   version="1.1"
   id="svg4846"
   inkscape:version="0.92.4 (5da689c313, 2019-01-14)"
   sodipodi:docname="5thGen Item Icon-Food Ticket Yellow.svg">
  <defs
     id="defs4840" />
  <sodipodi:namedview
     id="base"
     pagecolor="#ffffff"
     bordercolor="#666666"
     borderopacity="1.0"
     inkscape:pageopacity="0.0"
     inkscape:pageshadow="2"
     inkscape:zoom="5.6"
     inkscape:cx="5.323886"
     inkscape:cy="30.572797"
     inkscape:document-units="px"
     inkscape:current-layer="layer1"
     showgrid="false"
     units="px"
     inkscape:window-width="1304"
     inkscape:window-height="745"
     inkscape:window-x="-8"
     inkscape:window-y="-8"
     inkscape:window-maximized="1"
     showguides="true"
     inkscape:guide-bbox="true" />
  <metadata
     id="metadata4843">
    <rdf:RDF>
      <cc:Work
         rdf:about="">
        <dc:format>image/svg+xml</dc:format>
        <dc:type
           rdf:resource="http://purl.org/dc/dcmitype/StillImage" />
        <dc:title />
      </cc:Work>
    </rdf:RDF>
  </metadata>
  <g
     inkscape:label="Layer 1"
     inkscape:groupmode="layer"
     id="layer1"
     transform="translate(0,-280.06665)">
    <path
       style="display:inline;opacity:1;vector-effect:none;fill:#d5d5d5;fill-opacity:1;fill-rule:evenodd;stroke:#000000;stroke-width:0.5291667;stroke-linecap:butt;stroke-linejoin:round;stroke-miterlimit:4;stroke-dasharray:none;stroke-dashoffset:0;stroke-opacity:1"
       d="m 14.948962,292.23749 v 0.52916 l -2.64584,2.64584 h -0.79375 v -3.175 z"
       id="path1593"
       inkscape:connector-curvature="0" />
    <path
       style="display:inline;opacity:1;vector-effect:none;fill:#ffffff;fill-opacity:1;fill-rule:evenodd;stroke:#000000;stroke-width:0.5291667;stroke-linecap:butt;stroke-linejoin:round;stroke-miterlimit:4;stroke-dasharray:none;stroke-dashoffset:0;stroke-opacity:1"
       d="m 3.8364619,281.65415 h -2.11667 v 3.70417 c 0,0 0.79375,1.5875 0.79375,3.175 0,1.5875 -0.79375,3.70417 -0.79375,3.70417 v 2.64583 h 1.05833 l 1.5875,0.52917 h 7.1437501 v -3.175 h 3.43959 v -8.46667 c 0,-0.79375 0.26458,-1.32292 0.26458,-2.11667 H 9.1281315 c 0,0 -0.7937496,0.79375 -2.1166697,0.79375 -1.3229198,0 -1.8520799,-0.79375 -1.8520799,-0.79375 z"
       id="path1591"
       inkscape:connector-curvature="0"
       sodipodi:nodetypes="cccscccccccsccscc" />
    <path
       style="display:inline;opacity:1;vector-effect:none;fill:#d5d5d5;fill-opacity:1;fill-rule:evenodd;stroke:none;stroke-width:0.26458332;stroke-linecap:butt;stroke-linejoin:miter;stroke-miterlimit:4;stroke-dasharray:none;stroke-dashoffset:0;stroke-opacity:1"
       d="M 11.244792,292.50207 H 4.6302118 v -1.05833 l -1.5874999,1.5875 v 0.52916 l 5.0270801,1.05834 h 3.175 z"
       id="path1667"
       inkscape:connector-curvature="0"
       sodipodi:nodetypes="cccccccc" />
    <circle
       style="display:inline;opacity:1;fill:#d5d5d5;fill-opacity:1;fill-rule:nonzero;stroke:none;stroke-width:0.5291667;stroke-linecap:round;stroke-linejoin:round;stroke-miterlimit:4;stroke-dasharray:none;stroke-dashoffset:0;stroke-opacity:1;paint-order:normal"
       id="path1597"
       cx="3.9687431"
       cy="284.43225"
       r="0.92604166" />
    <path
       style="display:inline;opacity:1;vector-effect:none;fill:#d5d5d5;fill-opacity:1;fill-rule:evenodd;stroke:none;stroke-width:0.26458332;stroke-linecap:butt;stroke-linejoin:miter;stroke-miterlimit:4;stroke-dasharray:none;stroke-dashoffset:0;stroke-opacity:1"
       d="m 6.7468719,286.94582 v -0.52917 c 0,0 -1.5875,-0.52916 -1.5875,-1.32291 0,-0.79375 0.5291701,-1.05834 1.0583399,-1.05834 0.5291601,0 1.0583302,0.26459 1.0583302,1.05834 -0.5291601,-0.79375 -1.5875,-0.52917 -1.5875,0 0,0.52916 1.3229198,1.32291 1.3229198,1.32291 z"
       id="path1603"
       inkscape:connector-curvature="0" />
    <path
       style="display:inline;opacity:1;vector-effect:none;fill:#d5d5d5;fill-opacity:1;fill-rule:evenodd;stroke:none;stroke-width:0.26458332;stroke-linecap:butt;stroke-linejoin:miter;stroke-miterlimit:4;stroke-dasharray:none;stroke-dashoffset:0;stroke-opacity:1"
       d="m 9.3927115,286.94582 v -0.52917 c 0,0 -1.5874997,-0.52916 -1.5874997,-1.32291 0,-0.79375 0.5291701,-1.05834 1.0583397,-1.05834 0.52916,0 1.05833,0.26459 1.05833,1.05834 -0.52916,-0.79375 -1.5874996,-0.52917 -1.5874996,0 0,0.52916 1.3229196,1.32291 1.3229196,1.32291 z"
       id="path1603-2"
       inkscape:connector-curvature="0" />
    <path
       style="display:inline;opacity:1;vector-effect:none;fill:#d5d5d5;fill-opacity:1;fill-rule:evenodd;stroke:none;stroke-width:0.26458332;stroke-linecap:butt;stroke-linejoin:miter;stroke-miterlimit:4;stroke-dasharray:none;stroke-dashoffset:0;stroke-opacity:1"
       d="m 12.038542,286.94582 v -0.52917 c 0,0 -1.5875,-0.52916 -1.5875,-1.32291 0,-0.79375 0.52917,-1.05834 1.05834,-1.05834 0.52916,0 1.05833,0.26459 1.05833,1.05834 -0.52916,-0.79375 -1.5875,-0.52917 -1.5875,0 0,0.52916 1.32292,1.32291 1.32292,1.32291 z"
       id="path1603-2-6"
       inkscape:connector-curvature="0" />
    <path
       style="display:inline;opacity:1;vector-effect:none;fill:#858585;fill-opacity:1;fill-rule:evenodd;stroke:none;stroke-width:0.26458332;stroke-linecap:butt;stroke-linejoin:miter;stroke-miterlimit:4;stroke-dasharray:none;stroke-dashoffset:0;stroke-opacity:1"
       d="M 7.8052118,282.71249 H 6.482292 v 0.52916 H 5.9531219 v 0.52917 h 1.8520899 z"
       id="path1635"
       inkscape:connector-curvature="0"
       sodipodi:nodetypes="ccccccc" />
    <path
       style="display:inline;opacity:1;vector-effect:none;fill:#858585;fill-opacity:1;fill-rule:evenodd;stroke:none;stroke-width:0.26458332;stroke-linecap:butt;stroke-linejoin:miter;stroke-miterlimit:4;stroke-dasharray:none;stroke-dashoffset:0;stroke-opacity:1"
       d="M 10.451052,282.71249 H 9.1281315 v 0.52916 H 8.5989618 v 0.52917 h 1.8520902 z"
       id="path1635-0"
       inkscape:connector-curvature="0"
       sodipodi:nodetypes="ccccccc" />
    <path
       style="display:inline;opacity:1;vector-effect:none;fill:#858585;fill-opacity:1;fill-rule:evenodd;stroke:none;stroke-width:0.26458332;stroke-linecap:butt;stroke-linejoin:miter;stroke-miterlimit:4;stroke-dasharray:none;stroke-dashoffset:0;stroke-opacity:1"
       d="m 13.096882,282.71249 h -1.32292 v 0.52916 h -0.52917 v 0.52917 h 1.85209 z"
       id="path1635-0-7"
       inkscape:connector-curvature="0"
       sodipodi:nodetypes="ccccccc" />
    <path
       style="display:inline;opacity:1;vector-effect:none;fill:#d5d5d5;fill-opacity:1;fill-rule:evenodd;stroke:none;stroke-width:0.99999994;stroke-linecap:butt;stroke-linejoin:miter;stroke-miterlimit:4;stroke-dasharray:none;stroke-dashoffset:0;stroke-opacity:1"
       d="M 22.5 28 L 22.5 35 L 19.5 35 L 19.5 33 L 15.5 33 L 15.5 40 L 19.5 40 L 19.5 37 L 22.5 37 L 22.5 45 L 35.5 45 L 46.5 45 L 46.5 37 L 50.5 37 L 50.5 40 L 54.5 40 L 54.5 33 L 50.5 33 L 50.5 35 L 46.5 35 L 46.5 28 L 35.5 28 L 22.5 28 z M 27.5 30 L 35.5 30 L 41.5 30 L 37.5 34 L 39.5 36 L 37.5 38 L 41.5 43 L 35.5 43 L 27.5 43 L 31.5 38 L 29.5 36 L 31.5 34 L 27.5 30 z "
       transform="matrix(0.26458334,0,0,0.26458334,0,280.06665)"
       id="path1713" />
  </g>
</svg>
