<?xml version="1.0" encoding="UTF-8" standalone="no"?>
<!-- Created with Inkscape (http://www.inkscape.org/) -->

<svg
   xmlns:dc="http://purl.org/dc/elements/1.1/"
   xmlns:cc="http://creativecommons.org/ns#"
   xmlns:rdf="http://www.w3.org/1999/02/22-rdf-syntax-ns#"
   xmlns:svg="http://www.w3.org/2000/svg"
   xmlns="http://www.w3.org/2000/svg"
   xmlns:sodipodi="http://sodipodi.sourceforge.net/DTD/sodipodi-0.dtd"
   xmlns:inkscape="http://www.inkscape.org/namespaces/inkscape"
   width="64"
   height="64"
   viewBox="0 0 16.933333 16.933334"
   version="1.1"
   id="svg4846"
   inkscape:version="0.92.4 (5da689c313, 2019-01-14)"
   sodipodi:docname="5thGen Item Icon-Webbing Orange.svg">
  <defs
     id="defs4840" />
  <sodipodi:namedview
     id="base"
     pagecolor="#ffffff"
     bordercolor="#666666"
     borderopacity="1.0"
     inkscape:pageopacity="0.0"
     inkscape:pageshadow="2"
     inkscape:zoom="3.959798"
     inkscape:cx="-27.63837"
     inkscape:cy="31.81924"
     inkscape:document-units="px"
     inkscape:current-layer="layer1"
     showgrid="false"
     units="px"
     inkscape:window-width="1304"
     inkscape:window-height="745"
     inkscape:window-x="-8"
     inkscape:window-y="-8"
     inkscape:window-maximized="1" />
  <metadata
     id="metadata4843">
    <rdf:RDF>
      <cc:Work
         rdf:about="">
        <dc:format>image/svg+xml</dc:format>
        <dc:type
           rdf:resource="http://purl.org/dc/dcmitype/StillImage" />
        <dc:title></dc:title>
      </cc:Work>
    </rdf:RDF>
  </metadata>
  <g
     inkscape:label="Layer 1"
     inkscape:groupmode="layer"
     id="layer1"
     transform="translate(0,-280.06665)">
    <path
       style="display:inline;opacity:1;vector-effect:none;fill:#ffffff;fill-opacity:1;fill-rule:evenodd;stroke:none;stroke-width:0.26458332;stroke-linecap:butt;stroke-linejoin:miter;stroke-miterlimit:4;stroke-dasharray:none;stroke-dashoffset:0;stroke-opacity:1"
       d="m 14.948957,288.66561 v 5.29166 l -0.264583,0.79375 -0.79375,0.26459 h -3.175 v -1.05834 l -4.2333327,0.52917 v 0.52917 h -3.96875 l -0.529167,-0.52917 v -5.82083 h 0.264583 l 0.529167,0.26458 h 1.852083 l 1.058334,-1.05833 v -1.05834 l -1.058334,-1.05833 h -2.116666 l -0.529167,0.52917 v -1.05834 l 0.79375,-0.79375 h 1.5875 l 2.38125,-2.38125 H 14.41979 l 0.529167,0.52917 v 3.175 h -1.058333 v 2.91042 z"
       id="path5651"
       inkscape:connector-curvature="0" />
    <path
       style="display:inline;opacity:1;vector-effect:none;fill:#000000;fill-opacity:1;fill-rule:evenodd;stroke:none;stroke-width:0.26458332;stroke-linecap:butt;stroke-linejoin:miter;stroke-miterlimit:4;stroke-dasharray:none;stroke-dashoffset:0;stroke-opacity:1"
       d="M 10.715624,294.75102 H 6.4822913 v -0.79375 l 1.058333,-1.05833 h 2.116667 l 1.0583327,1.05833 z"
       id="path5655"
       inkscape:connector-curvature="0"
       sodipodi:nodetypes="ccccccc" />
    <path
       style="display:inline;opacity:1;vector-effect:none;fill:#000000;fill-opacity:1;fill-rule:evenodd;stroke:none;stroke-width:0.26458332;stroke-linecap:butt;stroke-linejoin:miter;stroke-miterlimit:4;stroke-dasharray:none;stroke-dashoffset:0;stroke-opacity:1"
       d="m 14.684374,285.75519 v 2.91042 h -2.116666 l -1.058333,-1.05834 v -0.79375 l 1.058333,-1.05833 z"
       id="path5653"
       inkscape:connector-curvature="0" />
    <path
       style="display:inline;opacity:1;vector-effect:none;fill:#858585;fill-opacity:1;fill-rule:evenodd;stroke:none;stroke-width:0.26458332;stroke-linecap:butt;stroke-linejoin:miter;stroke-miterlimit:4;stroke-dasharray:none;stroke-dashoffset:0;stroke-opacity:1"
       d="m 1.9843743,286.28436 0.529167,-0.52917 h 2.116666 l 1.058334,1.05833 v 1.05834 l -1.058334,1.05833 h -2.116666 l -0.529167,-0.26458 z"
       id="path5657"
       inkscape:connector-curvature="0" />
    <path
       style="display:inline;opacity:1;vector-effect:none;fill:none;fill-opacity:1;fill-rule:evenodd;stroke:#000000;stroke-width:0.5291667;stroke-linecap:round;stroke-linejoin:round;stroke-miterlimit:4;stroke-dasharray:none;stroke-dashoffset:0;stroke-opacity:1"
       d="m 2.7781243,295.01561 c 0,0 -0.79375,0 -0.79375,-0.79375 v -8.46667 c 0,0 0,-1.32292 1.322917,-1.32292 h 1.058333 l 2.38125,-2.38125 h 7.4083337 c 0,0 0.793749,0 0.793749,0.79375 v 2.91042 h -2.381249 l -1.058333,1.05833 v 0.79375 l 1.058333,1.05834 h 2.381249 v 5.29166 c 0,0 0,1.05834 -1.058333,1.05834 h -3.175001 c 0,0 0,-1.05834 10e-7,-1.05834 l -1.0583327,-1.05833 h -2.116667 l -1.058333,1.05833 v 1.05834 z"
       id="path5600"
       inkscape:connector-curvature="0"
       sodipodi:nodetypes="cscscccscccccccsccccccc" />
    <path
       style="display:inline;opacity:1;vector-effect:none;fill:none;fill-opacity:1;fill-rule:evenodd;stroke:#000000;stroke-width:0.5291667;stroke-linecap:butt;stroke-linejoin:round;stroke-miterlimit:4;stroke-dasharray:none;stroke-dashoffset:0;stroke-opacity:1"
       d="M 14.948957,293.95727 H 12.83229 l -1.322915,-1.32291 v -1.32292 l 1.058333,-1.05833 h 2.381249"
       id="path5602"
       inkscape:connector-curvature="0" />
    <path
       style="display:inline;opacity:1;vector-effect:none;fill:none;fill-opacity:1;fill-rule:evenodd;stroke:#000000;stroke-width:0.5291667;stroke-linecap:butt;stroke-linejoin:round;stroke-miterlimit:4;stroke-dasharray:none;stroke-dashoffset:0;stroke-opacity:1"
       d="m 8.5989573,287.87186 h -0.793749 l -1.322917,1.32291 v 0.79375 l 1.058333,1.05834 h 1.058333 1.058334 l 1.0583327,-1.05834 v -0.79375 l -1.3229157,-1.32291 z"
       id="path5604"
       inkscape:connector-curvature="0" />
    <path
       style="display:inline;opacity:1;vector-effect:none;fill:none;fill-opacity:1;fill-rule:evenodd;stroke:#000000;stroke-width:0.5291667;stroke-linecap:butt;stroke-linejoin:round;stroke-miterlimit:4;stroke-dasharray:none;stroke-dashoffset:0;stroke-opacity:1"
       d="m 8.5989573,283.10936 h -0.79375 l -1.322917,1.32291 v 0.79375 l 1.058334,1.05834 h 1.058333 1.058334 l 1.0583327,-1.05834 v -0.79375 l -1.3229157,-1.32291 z"
       id="path5604-5"
       inkscape:connector-curvature="0" />
    <path
       style="display:inline;opacity:1;vector-effect:none;fill:none;fill-opacity:1;fill-rule:evenodd;stroke:#000000;stroke-width:0.5291667;stroke-linecap:butt;stroke-linejoin:round;stroke-miterlimit:4;stroke-dasharray:none;stroke-dashoffset:0;stroke-opacity:1"
       d="m 1.9843743,286.28436 0.529167,-0.52917 h 2.116666 l 1.058334,1.05833 v 1.05834 l -1.058334,1.05833 h -2.116666 l -0.529167,-0.52917"
       id="path5639"
       inkscape:connector-curvature="0"
       sodipodi:nodetypes="cccccccc" />
    <path
       style="display:inline;opacity:1;vector-effect:none;fill:none;fill-opacity:1;fill-rule:evenodd;stroke:#000000;stroke-width:0.5291667;stroke-linecap:butt;stroke-linejoin:round;stroke-miterlimit:4;stroke-dasharray:none;stroke-dashoffset:0;stroke-opacity:1"
       d="m 11.509375,282.05102 v 1.05834 l 1.322915,1.32291 h 2.116667"
       id="path5641"
       inkscape:connector-curvature="0" />
    <path
       style="display:inline;opacity:1;vector-effect:none;fill:none;fill-opacity:1;fill-rule:evenodd;stroke:#000000;stroke-width:0.5291667;stroke-linecap:butt;stroke-linejoin:round;stroke-miterlimit:4;stroke-dasharray:none;stroke-dashoffset:0;stroke-opacity:1"
       d="m 1.9843743,291.04686 0.79375,-0.79375 h 1.852083 l 1.058334,1.05833 v 1.32292 l -1.058334,1.05833 h -1.852083 l -0.79375,-0.79375"
       id="path5645"
       inkscape:connector-curvature="0"
       sodipodi:nodetypes="cccccccc" />
  </g>
</svg>
