<?xml version="1.0" encoding="UTF-8" standalone="no"?>
<!-- Created with Inkscape (http://www.inkscape.org/) -->

<svg
   xmlns:dc="http://purl.org/dc/elements/1.1/"
   xmlns:cc="http://creativecommons.org/ns#"
   xmlns:rdf="http://www.w3.org/1999/02/22-rdf-syntax-ns#"
   xmlns:svg="http://www.w3.org/2000/svg"
   xmlns="http://www.w3.org/2000/svg"
   xmlns:sodipodi="http://sodipodi.sourceforge.net/DTD/sodipodi-0.dtd"
   xmlns:inkscape="http://www.inkscape.org/namespaces/inkscape"
   width="64"
   height="64"
   viewBox="0 0 16.933333 16.933334"
   version="1.1"
   id="svg4846"
   inkscape:version="0.92.4 (5da689c313, 2019-01-14)"
   sodipodi:docname="5thGen Item Icon-Wing Yellow.svg">
  <defs
     id="defs4840" />
  <sodipodi:namedview
     id="base"
     pagecolor="#ffffff"
     bordercolor="#666666"
     borderopacity="1.0"
     inkscape:pageopacity="0.0"
     inkscape:pageshadow="2"
     inkscape:zoom="5.6"
     inkscape:cx="-4.9286064"
     inkscape:cy="30.860119"
     inkscape:document-units="px"
     inkscape:current-layer="layer1"
     showgrid="false"
     units="px"
     inkscape:window-width="1304"
     inkscape:window-height="745"
     inkscape:window-x="-8"
     inkscape:window-y="-8"
     inkscape:window-maximized="1"
     showguides="true"
     inkscape:guide-bbox="true" />
  <metadata
     id="metadata4843">
    <rdf:RDF>
      <cc:Work
         rdf:about="">
        <dc:format>image/svg+xml</dc:format>
        <dc:type
           rdf:resource="http://purl.org/dc/dcmitype/StillImage" />
        <dc:title></dc:title>
      </cc:Work>
    </rdf:RDF>
  </metadata>
  <g
     inkscape:label="Layer 1"
     inkscape:groupmode="layer"
     id="layer1"
     transform="translate(0,-280.06665)">
    <path
       style="display:inline;opacity:1;vector-effect:none;fill:#000000;fill-opacity:1;fill-rule:evenodd;stroke:none;stroke-width:0.26458332;stroke-linecap:butt;stroke-linejoin:miter;stroke-miterlimit:4;stroke-dasharray:none;stroke-dashoffset:0;stroke-opacity:1"
       d="m 2.645815,290.78226 h 1.058334 l 0.264583,-3.70416 -1.058334,0.52916 -0.264583,1.05834 z"
       id="path2009"
       inkscape:connector-curvature="0" />
    <path
       style="display:inline;opacity:1;vector-effect:none;fill:#ffffff;fill-opacity:1;fill-rule:evenodd;stroke:#000000;stroke-width:0.5291667;stroke-linecap:butt;stroke-linejoin:round;stroke-miterlimit:4;stroke-dasharray:none;stroke-dashoffset:0;stroke-opacity:1"
       d="m 14.816649,282.3156 c 0,0.52916 -1.5875,1.5875 -1.5875,2.64583 0,1.05833 1.5875,1.85208 1.5875,1.85208 l 0.529166,0.52917 c 0,1.5875 -2.116667,2.38125 -2.116667,5.82083 v 0.79375 h -2.116666 l -0.264584,-1.5875 c 0,0 -2.3812501,-2.11666 -3.9687501,-2.38125 -1.5875,-0.26458 -2.9104159,-0.52916 -2.9104159,-0.52916 l 0.2645831,-1.85209 c 0,0 3.96875,-5.55625 9.7895829,-5.82083 z"
       id="path1983"
       inkscape:connector-curvature="0" />
    <path
       style="display:inline;opacity:1;vector-effect:none;fill:#d5d5d5;fill-opacity:1;fill-rule:evenodd;stroke:#000000;stroke-width:0.5291667;stroke-linecap:butt;stroke-linejoin:round;stroke-miterlimit:4;stroke-dasharray:none;stroke-dashoffset:0;stroke-opacity:1"
       d="m 3.174982,290.78226 v -2.11666 c 0,-2.64584 6.6145821,-7.40834 11.377083,-7.40834 h 1.058333 v 1.05834 h -0.79375 c -4.497916,0 -9.7895829,3.96875 -10.054166,6.61458 h 1.8520831 c 0.79375,0 8.2020829,-2.38125 8.4666669,-2.38125 h 0.529166 v 1.05833 h -0.529166 c -0.264584,0 -6.6145841,2.38125 -7.1437499,2.38125 1.058333,0 3.4395829,1.05834 3.4395829,2.91042 v 1.85208 l 0.264583,0.26459 h 1.058334 l 0.264583,-0.26459 v -0.26458 l -0.264583,-0.26458 h -0.264584 0.264584 l 0.264583,0.26458 v 0.26458 l -0.264583,0.26459 h -1.058334 l -0.264583,-0.26459 v -1.5875 h 2.116667 c 0,0 0.529166,0 0.529166,0.52917 v 1.5875 c 0,0 0,0.52917 -0.529166,0.52917 h -2.645834 c 0,0 -0.529166,0 -0.529166,-0.52917 v -1.85208 c 0,-0.79375 -1.3229169,-2.64584 -4.2333341,-2.64584 -2.9104159,0 -2.9104159,0 -2.9104159,0 z"
       id="path1980"
       inkscape:connector-curvature="0"
       sodipodi:nodetypes="cscccscssccscscccccccccccccccscscsssc" />
    <path
       style="display:inline;opacity:1;vector-effect:none;fill:#d5d5d5;fill-opacity:1;fill-rule:evenodd;stroke:none;stroke-width:0.99999994;stroke-linecap:butt;stroke-linejoin:miter;stroke-miterlimit:4;stroke-dasharray:none;stroke-dashoffset:0;stroke-opacity:1"
       d="M 40 18.5 L 36 23.5 L 41 23.5 L 40 18.5 z M 28 23.5 L 25 28.5 L 30 27.5 L 28 23.5 z M 48 36.5 L 43 38.5 L 47 41.5 L 48 36.5 z "
       transform="matrix(0.26458334,0,0,0.26458334,0,280.06665)"
       id="path1985" />
    <path
       style="display:inline;opacity:1;vector-effect:none;fill:#d5d5d5;fill-opacity:1;fill-rule:evenodd;stroke:#000000;stroke-width:0.5291667;stroke-linecap:butt;stroke-linejoin:round;stroke-miterlimit:4;stroke-dasharray:none;stroke-dashoffset:0;stroke-opacity:1"
       d="m 8.466649,294.75101 h 1.0583331 v 1.05834 H 2.910398 v -1.05834 h 3.175001 l -1.322917,-1.5875 -0.5291669,0.79375 -0.5291661,-0.79375 -0.793751,0.79375 v -1.85208 h 4.4979171 c 0,0 0.2645839,0 0.2645839,0.26458 v 2.38125 z"
       id="path1993"
       inkscape:connector-curvature="0"
       sodipodi:nodetypes="ccccccccccccscc" />
    <circle
       style="display:inline;opacity:1;fill:#ffffff;fill-opacity:1;fill-rule:nonzero;stroke:none;stroke-width:0.5291667;stroke-linecap:round;stroke-linejoin:round;stroke-miterlimit:4;stroke-dasharray:none;stroke-dashoffset:0;stroke-opacity:1;paint-order:normal"
       id="path1997"
       cx="6.6145644"
       cy="293.16351"
       r="0.5291667" />
    <path
       style="display:inline;opacity:1;vector-effect:none;fill:#4d4d4d;fill-opacity:1;fill-rule:evenodd;stroke:#000000;stroke-width:2;stroke-linecap:butt;stroke-linejoin:round;stroke-miterlimit:4;stroke-dasharray:none;stroke-dashoffset:0;stroke-opacity:1"
       d="M 8 23.5 L 10 29.5 L 14 24.5 L 8 23.5 z M 10 29.5 L 6 32.5 L 10 35.5 L 10 29.5 z M 10 35.5 L 5 40.5 L 10 40.5 L 10 35.5 z "
       transform="matrix(0.26458334,0,0,0.26458334,0,280.06665)"
       id="path1999" />
  </g>
</svg>
